<svg width="14" height="15" viewBox="0 0 14 15" fill="none" xmlns="http://www.w3.org/2000/svg">
<path d="M12 6.16659V12.1666C12 12.3434 11.9298 12.513 11.8047 12.638C11.6797 12.763 11.5101 12.8333 11.3333 12.8333H2C1.82319 12.8333 1.65362 12.763 1.5286 12.638C1.40357 12.513 1.33333 12.3434 1.33333 12.1666V2.83325C1.33333 2.65644 1.40357 2.48687 1.5286 2.36185C1.65362 2.23682 1.82319 2.16659 2 2.16659H8C8.17681 2.16659 8.34638 2.09635 8.47141 1.97132C8.59643 1.8463 8.66667 1.67673 8.66667 1.49992C8.66667 1.32311 8.59643 1.15354 8.47141 1.02851C8.34638 0.90349 8.17681 0.833252 8 0.833252H2C1.46957 0.833252 0.960859 1.04397 0.585787 1.41904C0.210714 1.79411 0 2.30282 0 2.83325V12.1666C0 12.697 0.210714 13.2057 0.585787 13.5808C0.960859 13.9559 1.46957 14.1666 2 14.1666H11.3333C11.8638 14.1666 12.3725 13.9559 12.7475 13.5808C13.1226 13.2057 13.3333 12.697 13.3333 12.1666V6.16659C13.3333 5.98977 13.2631 5.82021 13.1381 5.69518C13.013 5.57016 12.8435 5.49992 12.6667 5.49992C12.4899 5.49992 12.3203 5.57016 12.1953 5.69518C12.0702 5.82021 12 5.98977 12 6.16659Z" fill="white"/>
<path d="M12.6667 0.833252H10.6667C10.4899 0.833252 10.3203 0.90349 10.1953 1.02851C10.0702 1.15354 10 1.32311 10 1.49992C10 1.67673 10.0702 1.8463 10.1953 1.97132C10.3203 2.09635 10.4899 2.16659 10.6667 2.16659H11.06L6.19334 7.02659C6.06781 7.15212 5.99728 7.32238 5.99728 7.49992C5.99728 7.67745 6.06781 7.84772 6.19334 7.97325C6.31888 8.09879 6.48914 8.16931 6.66667 8.16931C6.84421 8.16931 7.01447 8.09879 7.14001 7.97325L12 3.10659V3.49992C12 3.67673 12.0702 3.8463 12.1953 3.97132C12.3203 4.09635 12.4899 4.16658 12.6667 4.16658C12.8435 4.16658 13.0131 4.09635 13.1381 3.97132C13.2631 3.8463 13.3333 3.67673 13.3333 3.49992V1.49992C13.3333 1.32311 13.2631 1.15354 13.1381 1.02851C13.0131 0.90349 12.8435 0.833252 12.6667 0.833252Z" fill="white"/>
</svg>
