<svg width="190" height="180" viewBox="0 0 190 180" fill="none" xmlns="http://www.w3.org/2000/svg">
<path d="M100.501 108.86C103.69 108.802 104.662 108.459 107.726 108.928C110.778 109.397 112.801 108.654 112.447 110.3C112.218 111.363 114.996 115.078 111.384 115.341C107.772 115.604 105.222 113.444 101.061 112.186C96.9 110.917 96.477 108.928 100.501 108.86Z" fill="#0054A7"/>
<path d="M111.452 168.728C111.544 167.607 112.161 164.841 111.269 162.669C110.378 160.508 110.538 160.817 109.669 158.908C108.8 157.01 108.743 155.799 108.972 153.855C109.2 151.912 108.857 150.06 107.691 148.231C106.525 146.39 105.291 146.253 102.97 146.299C100.649 146.333 100.89 148.448 100.775 151.157C100.661 152.883 100.604 154.404 101.713 156.141C102.821 157.879 103.542 159.925 103.747 161.023C104.068 162.738 105.634 165.87 106.24 166.75C106.891 167.699 107.223 167.893 108.114 169.539C108.789 170.808 111.327 170.26 111.452 168.739V168.728Z" fill="url(#paint0_linear_472_1104)"/>
<path d="M106.834 170.454C106.388 171.814 105.542 171.551 104.914 173.849C104.09 176.878 106.971 177.633 109.612 176.581C111.464 175.849 115.545 173.06 113.899 171.299C113.213 170.568 112.824 169.871 112.527 169.276C112.001 167.744 112.744 165.721 112.024 165.424C110.892 164.966 104.799 165.458 105.291 166.601C105.508 167.104 107.131 169.539 106.834 170.442V170.454Z" fill="#0054A7"/>
<path d="M96.1111 150.86C96.0654 148.459 89.6865 148.905 88.006 153.226C87.1829 155.341 86.5771 157.673 86.1998 158.77C85.6054 160.485 85.8454 163.663 85.754 165.869C85.7083 167.07 85.5939 169.585 84.4736 170.248C84.4736 170.248 84.4508 170.248 84.4508 170.259C83.3305 171.917 88.1889 173.586 89.3321 171.402C89.355 171.117 89.4121 170.854 89.5836 170.591C90.1781 169.63 91.4813 168.35 91.8242 165.858C92.1786 163.366 92.1443 163.743 92.3844 161.491C92.6244 159.239 93.1732 158.153 94.3392 156.61C95.5052 155.067 96.1568 153.226 96.1111 150.837V150.86Z" fill="url(#paint1_linear_472_1104)"/>
<path d="M84.3706 169.344C83.2732 170.282 82.6559 169.619 80.9068 171.253C78.609 173.403 80.7582 175.472 83.6276 175.918C85.6395 176.226 90.6923 175.918 90.155 173.608C89.9264 172.648 89.9493 171.871 89.995 171.208C90.3265 169.653 92.0298 168.304 91.5497 167.698C90.7952 166.749 86.5426 165.435 85.6967 165.583C85.148 165.675 85.0908 168.716 84.3592 169.333L84.3706 169.344Z" fill="#0054A7"/>
<path d="M86.943 135.175C88.3491 134.249 93.6762 134.363 96.7628 134.009C99.7579 133.666 101.278 134.158 104.548 133.369C107.108 132.752 106.411 135.689 109.383 141.611C111.338 145.532 116.437 151.042 114.905 152.38C113.373 153.729 109.578 155.512 107.429 154.929C105.279 154.346 104.593 154.175 102.079 155.409C99.8951 156.495 96.1798 155.398 93.2647 155.146C90.8297 154.94 89.2865 155.123 87.3888 155.592C83.7421 156.484 80.9642 155.283 80.3583 154.792C79.4666 154.083 79.4781 150.562 82.5875 146.069C85.6969 141.565 85.2282 137.027 86.9544 135.175H86.943Z" fill="#62C0B4"/>
<path d="M116.151 124.932C117.397 125.95 117.991 125.55 119.169 125.447C120.335 125.344 120.952 124.715 122.85 125.332C123.113 125.424 124.793 125.172 124.53 126.373C124.256 127.653 124.061 127.916 123.067 128.305C122.255 128.625 122.015 128.282 121.935 128.819C121.821 129.528 119.214 130.282 117.237 129.825C116.265 129.734 116.414 128.122 115.328 127.882C115.122 127.836 114.253 126.544 113.384 126.098C113.773 125.195 114.642 124.761 115.065 123.892C115.511 124.212 116.014 124.807 116.162 124.932H116.151Z" fill="#FEDC5E"/>
<path d="M82.7817 99.1653C82.1758 98.285 81.9587 97.9192 82.0158 97.4391C82.073 96.9589 82.3474 95.7586 82.0616 95.1184C81.5814 94.0096 80.7126 94.3525 80.2439 94.0667C79.7752 93.7809 79.2836 93.6666 78.7463 93.3923C78.2091 93.1179 77.386 93.0379 77.0545 93.4609C76.723 93.8838 75.9456 93.7809 75.957 94.1811C75.9684 94.5812 76.0485 95.027 75.4655 95.2099C74.8824 95.3814 75.1111 95.69 75.3168 96.2845C75.5226 96.8789 75.6941 96.8675 75.534 97.3705C75.374 97.8735 75.4997 97.9878 75.8541 98.3308C76.2085 98.6737 77.4774 99.0167 78.5406 99.3825C79.6037 99.7597 80.2325 100.057 80.6326 100.971C80.6555 101.029 80.7012 101.109 80.7698 101.223C81.6271 100.777 82.5188 100.388 83.4219 99.9426C83.1133 99.5768 82.8846 99.3024 82.7932 99.1653H82.7817Z" fill="#FEDC5E"/>
<path d="M106.034 123.207C106.377 122.589 108.995 124.979 113.624 128.362C114.962 129.346 117.614 125.71 117.785 124.27C118.026 122.281 111.601 117.674 108.48 114.827C106.594 113.101 104.102 111.261 101.004 109.34C98.5459 107.82 96.9569 107.568 95.7566 107.511C94.2934 107.442 93.1731 108.437 91.8013 108.243C90.2008 108.071 84.5422 95.8621 82.8503 98.1599C81.7986 99.5889 79.5236 101.166 79.4665 101.601C79.3064 102.801 82.4387 108.197 83.559 109.832C84.3364 110.963 85.811 116.679 85.571 119.309C85.3881 121.343 84.8279 128.66 82.4273 134.398C81.0669 137.633 76.3227 150.357 78.3576 151.249C81.97 152.849 90.418 150.563 97.037 152.323C102.25 153.706 114.996 150.597 115.579 149.854C117.122 148.231 112.607 136.01 109.463 130.5C107.314 126.716 105.554 124.076 106.034 123.207Z" fill="url(#paint2_linear_472_1104)"/>
<path d="M101.267 109.568C99.0718 110.78 96.7855 110.7 95.2993 109.865C93.8132 109.031 92.6701 107.808 91.8355 106.299C91.2754 104.904 91.2182 103.212 91.3554 102.583C91.4811 102 91.7784 101.394 92.1671 100.869C93.0702 99.6454 92.0985 99.131 94.5677 97.0161C95.3222 96.3759 99.2433 93.7009 103.382 95.7472C107.017 97.542 105.851 107.053 101.267 109.58V109.568Z" fill="#FFDBB0"/>
<path d="M94.1905 95.2103C94.6135 94.6845 96.2597 93.8157 97.7687 94.01C99.632 94.2386 100.238 93.1527 102.067 93.7585C104.616 94.6159 106.571 96.3992 107.108 97.3252C108.251 99.3029 107.897 100.503 108.034 101.738C108.297 103.99 111.372 109.946 102.741 111.1C101.941 111.203 101.21 110.495 101.324 108.94C101.61 107.088 102.616 107.454 103.427 106.951C104.262 106.436 104.365 104.699 103.142 104.847C102.136 104.962 102.056 104.379 102.01 102.332C101.964 99.8288 91.2983 100.698 94.1791 95.2218L94.1905 95.2103Z" fill="url(#paint3_linear_472_1104)"/>
<path d="M78.9292 102.287C79.5694 103.567 79.4894 104.139 81.2956 103.03C83.1018 101.921 86.4856 100.663 85.9711 99.6002C85.4567 98.5371 84.485 96.7766 83.2847 97.1881C82.0844 97.5997 78.8492 100.263 78.472 100.618C77.8661 101.178 78.7463 101.909 78.9292 102.287Z" fill="#F18E38"/>
<path d="M118.094 123.024C117.145 121.949 117.077 121.377 115.625 122.921C114.173 124.464 111.235 126.545 112.001 127.436C112.767 128.328 114.162 129.78 115.213 129.06C116.265 128.339 118.7 124.944 118.974 124.498C119.409 123.801 118.369 123.321 118.094 123.012V123.024Z" fill="#F18E38"/>
<path d="M93.756 117.479C93.3102 117.479 92.9444 117.456 92.67 117.353C92.5328 117.308 92.4642 117.147 92.51 117.01C92.5443 116.93 92.6014 116.873 92.6814 116.85C92.6357 116.816 92.6128 116.77 92.59 116.713C92.5557 116.564 92.6471 116.427 92.7843 116.393C93.3788 116.244 94.602 116.039 95.3793 116.187C95.848 116.279 96.3396 116.576 96.3053 116.965C96.2824 117.285 95.9623 117.445 95.345 117.456C95.0707 117.456 94.8077 117.468 94.5677 117.479C94.2705 117.479 93.9961 117.502 93.7446 117.502L93.756 117.479ZM92.9672 116.885C93.333 116.965 93.9046 116.953 94.5562 116.93C94.8077 116.93 95.0707 116.919 95.345 116.907C95.5165 116.907 95.6308 116.885 95.6994 116.873C95.6194 116.816 95.4708 116.736 95.2764 116.702C94.6934 116.587 93.6874 116.713 92.9672 116.885Z" fill="#F18E38"/>
<path d="M93.619 116.131C93.6647 117.079 93.8362 117.925 93.2303 117.914C91.6756 117.88 91.3441 116.759 91.9843 116.165C92.6016 115.582 93.5961 115.639 93.619 116.142V116.131Z" fill="#62C0B4"/>
<path d="M96.717 117.525C96.4769 117.525 96.214 117.513 95.9396 117.502C95.3337 117.502 95.0137 117.331 94.9794 117.01C94.9451 116.633 95.4366 116.325 95.9053 116.233C96.6827 116.084 97.9059 116.29 98.5003 116.439C98.6489 116.473 98.7289 116.622 98.6947 116.759C98.6832 116.816 98.6489 116.862 98.6032 116.896C98.6832 116.919 98.7518 116.976 98.7747 117.056C98.8204 117.193 98.7518 117.342 98.6146 117.399C98.3288 117.502 97.963 117.525 97.5286 117.525C97.2771 117.525 97.0028 117.525 96.7056 117.502L96.717 117.525ZM96.0082 116.759C95.8139 116.793 95.6653 116.873 95.5852 116.93C95.6538 116.942 95.7681 116.965 95.9396 116.965C96.214 116.965 96.4769 116.976 96.7284 116.988C97.38 117.01 97.9516 117.022 98.3174 116.942C97.5972 116.77 96.5912 116.645 96.0082 116.759Z" fill="#F18E38"/>
<path d="M97.6772 116.199C97.6315 117.148 97.46 117.994 98.0659 117.982C99.6206 117.948 99.9521 116.828 99.3119 116.233C98.6946 115.65 97.7 115.707 97.6772 116.21V116.199Z" fill="#62C0B4"/>
<path d="M96.3055 114.564C96.4884 114.324 97.3686 114.781 97.3914 115.467C97.3914 115.696 96.3855 117.102 95.7453 117.719C95.0937 118.337 94.3049 118.622 94.4078 117.868C94.5107 117.102 95.551 115.582 96.3055 114.564Z" fill="#0054A7"/>
<path d="M93.3561 125.424C92.9103 125.424 92.5445 125.401 92.2701 125.299C92.1329 125.253 92.0643 125.093 92.1101 124.956C92.1443 124.876 92.2015 124.818 92.2816 124.796C92.2358 124.761 92.2015 124.716 92.1901 124.658C92.1558 124.51 92.2473 124.373 92.3844 124.338C92.9789 124.19 94.2021 123.984 94.9794 124.133C95.4481 124.224 95.9397 124.521 95.9054 124.91C95.8825 125.23 95.5624 125.39 94.9451 125.401C94.6708 125.401 94.4078 125.413 94.1678 125.424C93.8706 125.424 93.5962 125.447 93.3447 125.447L93.3561 125.424ZM92.5673 124.83C92.9332 124.91 93.5047 124.898 94.1563 124.876C94.4078 124.876 94.6708 124.864 94.9451 124.853C95.1166 124.853 95.2309 124.83 95.2995 124.818C95.2195 124.761 95.0709 124.681 94.8765 124.647C94.2935 124.533 93.2875 124.658 92.5673 124.83Z" fill="#F18E38"/>
<path d="M93.2188 124.076C93.2646 125.025 93.436 125.871 92.8302 125.859C91.2754 125.825 90.9439 124.705 91.5841 124.11C92.2014 123.527 93.196 123.584 93.2188 124.087V124.076Z" fill="#62C0B4"/>
<path d="M96.3055 125.482C96.0654 125.482 95.8025 125.47 95.5281 125.459C94.9222 125.459 94.6022 125.288 94.5679 124.967C94.5336 124.59 95.0251 124.282 95.4938 124.19C96.2712 124.042 97.4944 124.247 98.0888 124.396C98.2374 124.43 98.3175 124.579 98.2832 124.716C98.2717 124.773 98.2374 124.819 98.1917 124.853C98.2717 124.876 98.3403 124.933 98.3632 125.013C98.4089 125.15 98.3403 125.299 98.2031 125.356C97.9173 125.459 97.5515 125.482 97.1171 125.482C96.8656 125.482 96.5912 125.482 96.294 125.459L96.3055 125.482ZM95.5967 124.716C95.4024 124.75 95.2538 124.83 95.1737 124.887C95.2423 124.899 95.3566 124.922 95.5281 124.922C95.8025 124.922 96.0654 124.933 96.3169 124.945C96.9685 124.967 97.5401 124.979 97.9059 124.899C97.1857 124.727 96.1797 124.602 95.5967 124.716Z" fill="#F18E38"/>
<path d="M97.2656 124.144C97.2198 125.093 97.0484 125.939 97.6542 125.928C99.209 125.893 99.5405 124.773 98.9003 124.179C98.283 123.596 97.2884 123.653 97.2656 124.156V124.144Z" fill="#62C0B4"/>
<path d="M95.9053 122.509C96.0882 122.269 96.9685 122.727 96.9913 123.413C96.9913 123.641 95.9853 125.047 95.3452 125.665C94.6936 126.282 93.9048 126.568 94.0076 125.813C94.1105 125.047 95.1623 123.527 95.9053 122.509Z" fill="#0054A7"/>
<path d="M93.1159 134.444C92.67 134.444 92.3042 134.421 92.0299 134.319C91.8927 134.273 91.8241 134.113 91.8698 133.976C91.9041 133.896 91.9613 133.838 92.0413 133.816C91.9956 133.781 91.9613 133.736 91.9498 133.678C91.9156 133.53 92.007 133.393 92.1442 133.358C92.7386 133.21 93.9618 133.004 94.7392 133.153C95.2079 133.244 95.6994 133.541 95.6651 133.93C95.6423 134.25 95.3222 134.41 94.7049 134.421C94.4305 134.421 94.1676 134.433 93.9275 134.444C93.6303 134.444 93.3559 134.467 93.1044 134.467L93.1159 134.444ZM92.3271 133.85C92.6929 133.93 93.2645 133.918 93.9161 133.896C94.1676 133.896 94.4305 133.884 94.7049 133.873C94.8764 133.873 94.9907 133.85 95.0593 133.838C94.9792 133.781 94.8306 133.701 94.6363 133.667C94.0533 133.553 93.0473 133.678 92.3271 133.85Z" fill="#F18E38"/>
<path d="M92.9787 133.083C93.0244 134.032 93.1959 134.878 92.59 134.867C91.0353 134.832 90.7038 133.712 91.344 133.118C91.9613 132.534 92.9559 132.592 92.9787 133.095V133.083Z" fill="#62C0B4"/>
<path d="M96.0768 134.49C95.8368 134.49 95.5738 134.478 95.2995 134.467C94.6936 134.467 94.3735 134.295 94.3392 133.975C94.3049 133.598 94.7965 133.289 95.2652 133.198C96.0425 133.049 97.2657 133.255 97.8602 133.404C98.0088 133.438 98.0888 133.587 98.0545 133.724C98.0431 133.781 98.0088 133.827 97.963 133.861C98.0431 133.884 98.1117 133.941 98.1345 134.021C98.1803 134.158 98.1117 134.307 97.9745 134.364C97.6887 134.467 97.3229 134.49 96.8885 134.49C96.637 134.49 96.3626 134.49 96.0654 134.467L96.0768 134.49ZM95.3681 133.724C95.1737 133.758 95.0251 133.838 94.9451 133.895C95.0137 133.907 95.128 133.93 95.2995 133.93C95.5738 133.93 95.8368 133.941 96.0883 133.952C96.7399 133.975 97.3114 133.987 97.6773 133.907C96.9571 133.735 95.9511 133.609 95.3681 133.724Z" fill="#F18E38"/>
<path d="M97.037 133.152C96.9913 134.101 96.8199 134.947 97.4258 134.935C98.9805 134.901 99.312 133.781 98.6718 133.186C98.0545 132.603 97.0599 132.661 97.037 133.164V133.152Z" fill="#62C0B4"/>
<path d="M95.6653 131.529C95.8482 131.289 96.7284 131.746 96.7513 132.432C96.7513 132.661 95.7453 134.067 95.1051 134.684C94.4535 135.301 93.6648 135.587 93.7677 134.833C93.8705 134.067 94.9223 132.546 95.6653 131.529Z" fill="#0054A7"/>
<path d="M17.5525 170.705C17.3467 166.681 18.547 162.234 17.9869 160.691C17.2552 158.668 12.6597 159.914 12.6597 159.914C10.1105 164.464 12.1224 167.927 7.72122 168.19C-1.01258 168.716 -1.50414 171.574 3.40005 174.386C7.6755 176.844 17.3467 176.695 17.5868 173.735C17.6439 173.026 17.6325 171.951 17.5639 170.694L17.5525 170.705Z" fill="#0054A7"/>
<path d="M46.1546 168.841C45.9145 168.19 45.3315 166.521 45.1829 165.675C44.737 162.977 44.2112 160.073 44.2112 157.478C41.6391 155.546 39.7185 155.546 39.5013 160.908C39.2841 166.258 38.6668 166.967 35.6946 168.75C32.5966 170.602 29.4643 174.626 31.5792 175.689C33.7169 176.764 36.5863 176.272 39.5013 175.049C42.5193 173.78 47.5035 172.442 46.1546 168.864V168.841Z" fill="#0054A7"/>
<path d="M44.9998 33.125C43.0564 34.3825 40.0842 33.9709 38.5866 32.6792C35.3858 29.9241 40.7015 28.7581 41.6961 27.2948C42.4277 26.2203 43.2393 24.0711 43.9938 23.3738C44.7483 22.6764 45.56 17.8751 47.3776 22.1049C47.8577 23.2137 47.2519 24.1854 47.8463 26.2546C48.0292 26.8947 49.1838 27.775 48.6008 28.7695C47.9035 29.9584 46.7832 29.7755 46.4859 30.5186C46.1887 31.2616 46.8289 32.3362 44.9998 33.1136V33.125Z" fill="#0054A7"/>
<path d="M38.1295 30.0151C37.9466 30.0151 35.5688 30.198 35.3402 30.1752C35.2487 30.5867 34.9515 32.0843 34.7228 32.5758C34.4942 33.0788 32.8481 35.9253 32.6309 36.1768C35.2601 38.5775 38.9068 39.069 40.6788 36.8856C40.1986 36.6341 38.7811 33.136 38.5753 32.1529C38.4267 31.4327 38.1295 30.2781 38.1295 30.0151Z" fill="#FFDBB0"/>
<path d="M30.6646 27.329C31.6478 30.2441 33.7398 32.016 35.7174 32.4275C37.6951 32.8391 39.6728 32.599 41.5933 31.8331C43.1823 30.9528 44.5655 29.3981 44.9428 28.6893C45.2857 28.0377 45.5144 27.2147 45.583 26.403C45.743 24.5054 47.0234 24.8026 46.4861 20.8015C46.326 19.5897 44.9542 13.8739 39.6842 12.4792C35.0544 11.2446 28.5955 21.213 30.6646 27.3175V27.329Z" fill="#FFDBB0"/>
<path d="M41.0674 18.9607C43.1022 16.4686 46.1316 23.9335 46.9089 22.2988C48.9895 17.9433 44.2111 12.9591 42.1076 12.056C39.1811 10.8099 30.9961 12.3075 29.0412 16.2857C27.4865 19.4523 28.1839 20.7669 26.229 22.013C25.1087 22.7217 25.486 24.4365 25.9089 26.0141C26.5034 28.2775 23.9198 27.9803 25.4288 29.7865C27.3036 32.0271 29.9672 31.6956 31.8534 30.964C33.3167 30.4038 32.4936 26.8143 31.3504 25.8769C29.8186 23.8992 30.2644 23.259 30.7445 22.6303C31.2247 22.0015 32.505 21.75 32.7565 22.4359C33.9912 25.8426 33.4424 22.5617 34.4255 22.0015C37.1006 20.4811 35.5116 23.7163 41.0788 18.9607H41.0674Z" fill="url(#paint4_linear_472_1104)"/>
<path d="M68.7665 76.6796C70.4698 79.1374 71.6587 82.5098 72.436 83.2528C73.2134 83.9959 75.1567 86.1679 76.3914 87.5626C76.8944 88.1341 77.0773 89.2773 77.3516 91.5751C77.4774 92.5925 76.1399 91.5294 75.7741 92.6725C75.1453 94.593 74.3337 93.4956 73.8192 93.8386C72.939 94.433 72.6989 94.6159 72.1388 93.3127C71.5786 92.0095 71.3729 91.1064 71.2586 90.4548C71.1442 89.8146 70.767 88.8886 70.2297 89.9518C69.6924 91.0149 69.3266 91.5751 68.515 91.7466C67.6919 91.918 67.3832 91.3693 68.1834 90.1461C68.8007 88.5343 68.515 86.2708 68.6407 85.2877C68.7665 84.3045 67.7376 83.4815 66.5258 81.7781C65.3141 80.0748 67.086 74.2218 68.7893 76.6796H68.7665Z" fill="#FFDBB0"/>
<path d="M19.2901 77.1254C19.0614 78.1999 15.9292 106.562 15.0032 109.317C14.0772 112.072 8.47571 164.612 8.47571 165.458C8.47571 166.304 13.4028 167.276 14.3973 167.276C15.3919 167.276 19.553 167.996 20.1017 166.395C21.485 162.36 29.1671 115.753 29.3271 114.141C29.4757 112.541 31.7163 110.129 31.8649 113.341C32.0135 116.553 36.9863 164.395 37.215 164.921C37.4436 165.458 46.406 166.875 46.9662 164.258C47.7435 160.645 49.1725 124.921 49.1039 122.246C49.0353 119.571 47.8807 79.6632 46.9662 77.937C46.0516 76.2108 19.2901 77.1254 19.2901 77.1254Z" fill="url(#paint5_linear_472_1104)"/>
<path d="M27.498 37.6635C29.3728 35.9602 31.6477 34.7256 32.4479 34.2226C33.9454 33.2738 32.505 31.9591 36.6433 32.5764C41.0331 33.2166 38.781 34.4512 40.6558 35.3429C41.4789 35.7316 45.1142 36.7719 46.8975 39.5269C50.0755 43.1393 46.2116 50.4213 47.2062 57.1088C47.1033 57.669 47.2062 59.338 47.2862 60.3783C47.4348 62.0587 47.9721 76.2112 48.5894 79.1148C49.2067 82.0185 49.2067 82.8644 48.0521 82.5558C46.909 82.2471 46.063 81.4812 44.3025 81.4126C42.5421 81.3326 30.3902 82.0299 28.4697 81.8241C26.5606 81.6184 19.6101 82.2242 19.6101 81.3897C19.6101 80.7381 21.0734 67.6946 22.4795 61.007C24.3885 51.9874 25.1888 40.2128 27.498 37.675V37.6635Z" fill="white"/>
<path d="M18.3757 71.3752C17.0839 70.3463 11.4252 66.5624 9.96199 65.0992C5.04636 60.1835 7.24125 50.0436 10.4993 45.9854C12.7399 43.1961 17.6212 39.9952 24.3773 36.1198C25.9092 35.2396 30.6762 32.9418 33.5798 34.6452C34.14 34.9767 29.373 51.0268 28.95 54.422C28.7328 72.8956 26.2521 90.5575 25.189 92.901C24.1144 97.5766 23.1084 102.081 21.5766 102.389C20.0447 102.698 13.6544 103.27 13.0257 102.126C12.2026 100.629 13.3572 94.6501 15.7007 86.3621C16.8553 82.2695 19.4503 72.244 18.3757 71.398V71.3752Z" fill="#ED7980"/>
<path d="M40.9075 35.2972C41.742 34.92 45.8117 35.5144 47.0349 36.2803C47.9951 36.6919 50.7045 38.8067 52.3849 41.0931C54.0654 43.3908 62.0904 57.006 63.8052 59.8639C64.7654 61.4643 74.7224 79.5378 73.6936 81.6413C73.4192 82.19 67.0632 86.3168 65.4056 85.5166C64.9369 85.288 51.2989 64.7795 49.6413 65.6026C49.2183 65.8084 50.0871 77.8688 50.3958 79.3321C51.0131 82.2357 53.1051 100.172 51.5161 103.144C49.2641 107.351 46.4633 105.625 44.7028 105.545C43.3767 105.488 35.1116 107.511 32.6767 102.207C32.5395 94.6848 32.2766 89.7806 32.8139 75.7425C33.0882 68.4034 40.6674 35.3772 40.9189 35.2629L40.9075 35.2972Z" fill="url(#paint6_linear_472_1104)"/>
<path d="M43.9596 63.6703C44.0281 60.8124 44.0396 57.7601 43.9481 55.4852C43.811 52.5015 43.9138 49.6322 43.9138 49.2435C43.9138 49.072 44.0167 48.3976 43.2279 48.2947L37.8436 47.3344L34.4484 46.74L31.2132 46.1684C30.6988 46.0769 29.8643 46.1569 29.3613 46.3398L25.1316 47.8603L21.3706 49.2092L14.8545 51.5413C14.5116 51.667 14.4887 52.0785 14.4887 52.1814C14.4315 52.9702 14.2944 55.5195 14.2486 56.6741C14.1686 59.0976 14.1229 62.2985 14.0771 67.0541C14.0657 69.0775 14.2486 70.3235 15.6776 70.9065C16.2034 71.1237 17.7467 71.5238 19.6101 71.9239C20.3074 72.084 21.0505 72.244 21.7935 72.3927C24.4228 72.9185 27.0978 73.3529 28.1038 73.2843C29.2927 73.2043 33.2366 71.3181 36.7119 69.6262C37.4892 69.2489 38.2437 68.8946 38.9296 68.563C40.45 67.8314 41.6961 67.2484 42.2791 67.0655C44.3254 66.4139 43.9367 64.8592 43.971 63.6931L43.9596 63.6703Z" fill="#51A7DD"/>
<path d="M37.8437 47.3457C37.7751 47.7572 37.4664 48.1002 37.0549 48.2259C36.3804 48.4203 35.0886 48.8547 33.5339 49.4148C33.3968 49.472 33.2596 49.5292 33.111 49.5749C31.9106 50.0093 30.5846 50.5123 29.2813 51.0153C26.8921 51.9412 24.5715 52.8786 23.2226 53.5188C22.9139 53.6674 22.651 53.7932 22.4566 53.8961C22.0908 56.0338 21.9651 63.853 21.8965 68.1857C21.8622 70.129 21.8393 71.6609 21.805 72.3925C21.062 72.2439 20.3189 72.0839 19.6216 71.9238C19.6444 71.1236 19.6673 69.7861 19.6902 68.1514C19.8045 60.9151 19.9417 54.7763 20.3989 53.0158C20.3989 52.9587 20.4218 52.9244 20.4332 52.8786C20.5018 52.6614 20.639 52.4557 20.8333 52.3185C21.3821 51.9184 23.0282 51.1639 25.0631 50.3294C25.1774 50.2722 25.2803 50.2379 25.406 50.1808C26.572 49.7121 27.8524 49.1976 29.1099 48.7289C31.0761 47.9744 33.0081 47.2657 34.4485 46.7627L37.8437 47.3571V47.3457Z" fill="#FEDC5E"/>
<path d="M38.7354 59.2809C38.461 53.9652 38.0495 51.7931 37.4893 50.8786C37.1807 50.3756 36.8149 50.2499 36.4148 50.2041C36.0032 50.1698 34.7229 49.9069 33.0996 49.5754C32.9852 49.5525 32.8595 49.5182 32.7452 49.5068H32.7337C31.6134 49.2667 30.3445 49.0038 29.1099 48.7294C28.2983 48.558 27.4752 48.3751 26.7207 48.215C26.172 48.1007 25.6347 47.975 25.1431 47.8721L21.3821 49.221C21.5078 49.3125 21.6564 49.3925 21.8279 49.4154C22.6281 49.5868 23.9085 49.8612 25.3946 50.1813C25.5089 50.2041 25.6118 50.227 25.7261 50.2499C25.8976 50.2842 26.0691 50.3185 26.252 50.3642C27.3151 50.5928 28.3211 50.81 29.2585 51.0158C31.2476 51.4388 32.951 51.8046 34.1856 52.0561C34.8372 52.1818 35.3516 52.2733 35.7174 52.3304C36.4948 54.3881 36.8377 64.8253 36.6891 69.6151C37.4665 69.2379 38.2209 68.8835 38.9068 68.552C38.9411 66.1285 38.8726 62.4703 38.7125 59.2695L38.7354 59.2809Z" fill="#FEDC5E"/>
<path d="M27.9095 55.1424C27.5895 55.1424 25.3145 54.7651 24.1714 54.5594C24.0571 54.5365 23.9885 54.4336 24.0113 54.3193C24.0342 54.205 24.1371 54.1364 24.2514 54.1592C25.7261 54.4222 27.6809 54.7308 27.921 54.7308C28.5383 54.7308 31.4648 53.6677 32.5622 53.279C32.6651 53.2447 32.7794 53.3019 32.8252 53.4048C32.8595 53.5076 32.8137 53.622 32.6994 53.6677C29.8301 54.6965 28.4011 55.1309 27.9324 55.1424H27.9095Z" fill="#FEDC5E"/>
<path d="M28.1496 70.9071C28.0124 70.9071 27.9095 70.7585 27.9209 70.587C27.9552 69.6268 27.9324 66.7917 27.9209 64.0595C27.9095 61.2131 27.8867 58.5266 27.9209 57.5892C27.9209 57.4177 28.0238 57.292 28.1724 57.292C28.3096 57.292 28.4125 57.4406 28.4011 57.6121C28.3668 58.5266 28.3896 61.3388 28.4011 64.0481C28.4125 66.7917 28.4354 69.6268 28.4011 70.6099C28.4011 70.77 28.2868 70.9071 28.161 70.9071H28.1496Z" fill="#FEDC5E"/>
<path d="M19.8502 53.1988C19.8273 53.2903 19.7587 53.3475 19.7015 53.3246C19.37 53.2217 18.3869 53.0045 17.4266 52.7987C16.4321 52.5815 15.4947 52.3758 15.1746 52.2729C15.1174 52.25 15.0831 52.1814 15.1174 52.0785C15.1403 51.9871 15.2089 51.9299 15.2661 51.9528C15.5861 52.0442 16.5578 52.2614 17.5067 52.4672C18.4669 52.673 19.45 52.8902 19.793 52.9931C19.8502 53.0045 19.873 53.096 19.8616 53.176L19.8502 53.1988Z" fill="#FEDC5E"/>
<path d="M43.1251 49.1868C43.1594 49.2782 43.1251 49.3583 43.0794 49.3811C42.7478 49.484 41.8219 49.8841 40.9188 50.2614C39.9814 50.65 39.0897 51.0273 38.781 51.1302C38.7239 51.153 38.6553 51.1073 38.621 51.0044C38.5867 50.913 38.621 50.8329 38.6667 50.8101C38.9754 50.7072 39.9013 50.3185 40.793 49.9527C41.6961 49.5755 42.6335 49.1868 42.965 49.0725C43.0222 49.0496 43.0908 49.1068 43.1251 49.1868Z" fill="#FEDC5E"/>
<path d="M27.9666 42.0304C28.6296 42.2819 28.5839 45.014 29.2241 47.106C29.7271 48.7407 29.8985 49.7124 29.6356 49.8725C29.4298 49.9982 26.6748 48.2378 26.4347 48.032C25.9089 47.5747 22.2393 45.0597 21.9421 44.7168C21.5991 44.3281 22.0678 42.9449 24.0798 41.8132C25.0401 41.2759 27.5665 41.4016 27.9666 42.0304Z" fill="#FEDC5E"/>
<path d="M32.0134 42.2815C31.3503 42.5559 30.9274 45.3338 29.9785 47.483C29.2241 49.1634 28.904 50.158 29.1212 50.318C29.2926 50.4438 32.1734 48.569 32.4364 48.3632C33.0079 47.8831 36.8719 45.2195 37.2034 44.8651C37.5921 44.4536 37.3863 43.0589 35.6944 41.9614C34.8942 41.4356 32.5049 41.6414 32.0248 42.293L32.0134 42.2815Z" fill="#FEDC5E"/>
<path d="M20.3303 47.0485C20.2846 44.4306 20.2846 41.6299 20.3303 39.5493C20.4103 36.8171 20.3532 34.1878 20.3532 33.8335C20.3532 33.6734 20.2846 33.0561 20.7876 32.9647L24.2057 32.0844L26.3662 31.5357L28.4125 31.0098C28.744 30.9298 29.2699 30.9984 29.5785 31.1699L32.265 32.5531L34.6542 33.7877L38.7925 35.9255C39.0097 36.0398 39.0211 36.417 39.0211 36.5085C39.0554 37.2287 39.1469 39.5722 39.1697 40.6239C39.2154 42.8416 39.2498 45.7681 39.284 50.135C39.284 51.987 39.1697 53.1301 38.2666 53.656C37.9351 53.8503 36.952 54.2276 35.7745 54.5934C35.3287 54.7306 34.86 54.8792 34.3913 55.0164C32.7223 55.4965 31.0304 55.8966 30.3902 55.828C29.6357 55.7594 27.1322 54.0218 24.9259 52.4671C24.4343 52.1242 23.9542 51.7926 23.5198 51.4954C22.5595 50.8209 21.7707 50.2836 21.3935 50.1236C20.1017 49.5292 20.3418 48.1002 20.3189 47.0256L20.3303 47.0485Z" fill="#FEDC5E"/>
<path d="M24.2172 32.0959C24.2629 32.4731 24.4573 32.7932 24.7202 32.8961C25.1546 33.0676 25.9663 33.4677 26.9494 33.9821C27.0408 34.0393 27.1323 34.085 27.2237 34.1307C27.9896 34.5308 28.8242 34.9881 29.6473 35.4568C31.1562 36.3027 32.6309 37.1716 33.4883 37.7431C33.6826 37.8803 33.8427 37.9946 33.9684 38.0975C34.1971 40.0638 34.2771 47.22 34.3228 51.1868C34.3457 52.9701 34.3571 54.3762 34.38 55.0393C34.8487 54.9021 35.3174 54.7535 35.7632 54.6163C35.7518 53.8847 35.7403 52.65 35.7175 51.1639C35.6375 44.5335 35.5574 38.9092 35.2716 37.2973C35.2716 37.2516 35.2602 37.2058 35.2488 37.1716C35.203 36.9658 35.123 36.7829 34.9973 36.6571C34.6429 36.2913 33.6026 35.594 32.3108 34.8281C32.2422 34.7823 32.1737 34.7366 32.0936 34.6909C31.3506 34.2565 30.5503 33.7992 29.7387 33.3534C28.4926 32.656 27.2695 32.0159 26.3549 31.5586L24.1943 32.1073L24.2172 32.0959Z" fill="#62C0B4"/>
<path d="M23.5311 51.5068C23.9655 51.8154 24.4456 52.1355 24.9372 52.4785C24.8457 48.0887 25.0629 38.5318 25.5545 36.6456C25.7946 36.5884 26.1146 36.5084 26.5262 36.3941C27.315 36.1654 28.3895 35.8339 29.647 35.4452C30.2415 35.2509 30.8816 35.0566 31.5561 34.8508C31.6704 34.8165 31.7847 34.7822 31.8876 34.7479C31.9562 34.725 32.0248 34.7022 32.0934 34.6793C33.0308 34.3821 33.8539 34.1306 34.3569 33.982C34.4598 33.9591 34.5626 33.8905 34.6427 33.7991L32.2535 32.5645C31.9334 32.6559 31.6018 32.7702 31.2475 32.8731C30.7673 33.0217 30.2529 33.1818 29.7385 33.3418C28.9497 33.5933 28.1495 33.8448 27.4407 34.0506C27.3607 34.0734 27.2921 34.0963 27.2121 34.1192C26.1832 34.4278 25.3716 34.6679 25.1087 34.7022C24.8572 34.7479 24.6285 34.8508 24.4227 35.3195C24.0684 36.154 23.8054 38.1545 23.634 43.013C23.5311 45.9395 23.4968 49.289 23.5082 51.5068H23.5311Z" fill="#62C0B4"/>
<path d="M30.5159 39.229C30.7217 39.229 32.1621 38.8861 32.8823 38.7032C32.9509 38.6803 32.9966 38.5889 32.9852 38.486C32.9738 38.3831 32.9052 38.3145 32.8366 38.3374C31.8992 38.5774 30.6646 38.8632 30.5159 38.8632C30.1273 38.8632 28.2753 37.8915 27.578 37.5371C27.5094 37.5028 27.4408 37.5486 27.4179 37.6515C27.3951 37.7429 27.418 37.8572 27.498 37.8915C29.3156 38.8289 30.2187 39.2405 30.5274 39.2405L30.5159 39.229Z" fill="#62C0B4"/>
<path d="M30.3559 53.6676C30.4359 53.6676 30.5045 53.5304 30.5045 53.3704C30.4816 52.4901 30.5045 49.8951 30.5045 47.3916C30.5045 44.7852 30.5274 42.3159 30.5045 41.4586C30.5045 41.2985 30.4359 41.1842 30.3444 41.1956C30.2644 41.1956 30.1958 41.3328 30.1958 41.4928C30.2187 42.3388 30.1958 44.9109 30.1958 47.3916C30.1958 49.9066 30.173 52.5016 30.1958 53.4047C30.1958 53.5533 30.2644 53.6676 30.3444 53.6676H30.3559Z" fill="#62C0B4"/>
<path d="M35.626 37.4576C35.6374 37.5376 35.6831 37.5948 35.7174 37.5719C35.9232 37.4805 36.5519 37.2861 37.1578 37.0918C37.7866 36.8975 38.381 36.7031 38.5868 36.6117C38.6211 36.6002 38.6439 36.5316 38.6211 36.4402C38.6096 36.3602 38.5639 36.303 38.5296 36.3259C38.3353 36.4173 37.7065 36.6117 37.1121 36.7946C36.5062 36.9889 35.8775 37.1833 35.6603 37.2747C35.626 37.2861 35.6031 37.3662 35.6145 37.4462L35.626 37.4576Z" fill="#62C0B4"/>
<path d="M20.8676 33.765C20.8447 33.845 20.8676 33.925 20.9019 33.9365C21.1077 34.0394 21.7021 34.3937 22.2737 34.7367C22.8681 35.0911 23.4283 35.434 23.6341 35.5255C23.6684 35.5483 23.7141 35.5026 23.7369 35.4111C23.7598 35.3311 23.7369 35.2511 23.7027 35.2397C23.5083 35.1482 22.9139 34.7938 22.3537 34.4509C21.7821 34.1079 21.1877 33.7421 20.9705 33.6507C20.9362 33.6392 20.8905 33.685 20.8676 33.7536V33.765Z" fill="#62C0B4"/>
<path d="M30.4817 27.2144C30.0587 27.4431 30.093 29.9466 29.6815 31.8557C29.3614 33.3533 29.2585 34.2449 29.4185 34.3935C29.5443 34.5079 31.2933 32.896 31.4534 32.7131C31.7849 32.3015 34.1169 29.9923 34.2999 29.6723C34.5171 29.3064 34.2198 28.049 32.9509 27.0087C32.345 26.5171 30.7446 26.6314 30.4817 27.2144Z" fill="#62C0B4"/>
<path d="M27.9095 27.455C28.3325 27.7065 28.5954 30.2557 29.2013 32.222C29.6814 33.7538 29.8757 34.6683 29.75 34.8169C29.6471 34.9313 27.818 33.2165 27.6466 33.0222C27.2808 32.5878 24.8344 30.1414 24.6286 29.8213C24.3885 29.4441 24.5143 28.1637 25.5889 27.1577C26.1033 26.6776 27.6123 26.8605 27.9209 27.4664L27.9095 27.455Z" fill="#62C0B4"/>
<path d="M15.7234 61.35C16.6608 61.7501 17.6553 62.2646 18.3298 62.1159C19.0043 61.9673 20.6504 61.7959 21.645 61.7044C22.6395 61.613 23.1425 61.9788 23.0396 62.5275C22.9368 63.0648 22.1137 62.9848 20.7533 63.4763C19.3929 63.9679 20.136 64.1965 20.6047 64.8252C21.0734 65.454 23.9656 67.6832 24.4343 68.4148C24.903 69.1464 25.5889 69.9238 25.0402 70.4611C24.4915 70.9984 23.6455 69.638 23.0854 69.6952C22.5252 69.7523 22.6738 70.3239 22.5024 71.1813C22.3423 72.0387 21.8622 71.7529 20.9934 71.5471C20.1131 71.3413 20.1131 71.1013 19.4044 71.4099C18.707 71.7186 18.5241 71.5471 17.9868 71.0898C17.4495 70.6326 16.7636 68.8721 16.0777 67.3974C15.3804 65.9341 15.4947 65.3968 14.1229 64.9624C14.0429 64.9396 13.0826 64.6309 12.7283 64.0593C12.2824 63.3506 13.6657 60.4698 14.5002 60.8928C14.9689 61.1328 15.5176 61.27 15.7348 61.3729L15.7234 61.35Z" fill="#FFDBB0"/>
<path d="M14.4658 58.4116C17.941 60.0463 18.3411 61.6239 17.4037 63.4872C16.4663 65.362 15.849 69.0659 14.3629 68.4372C11.9623 67.3969 9.60734 65.8193 9.75595 62.5956C9.85883 60.2864 11.1964 56.8797 14.4658 58.423V58.4116Z" fill="#ED7980"/>
<path d="M123.627 57.3828C124.244 55.6795 126.531 50.4781 127.034 49.655C128.188 47.7345 131.526 45.1052 132.921 44.2707C134.213 43.4933 133.756 43.0246 133.744 42.2587C133.733 41.4928 132.315 42.1672 131.206 42.7159C130.097 43.2647 128.737 44.2935 127.457 45.7568C126.188 47.2315 124.176 50.0094 123.124 52.0442C122.198 53.8275 121.535 54.5477 120.895 56.4454C120.678 57.0856 123.558 57.5771 123.616 57.3828H123.627Z" fill="#0054A7"/>
<path d="M137.962 60.2174C136.065 59.7144 134.43 59.28 133.664 59.1085C132.464 58.8227 125.696 57.1766 125.547 57.108C125.353 57.0737 124.724 56.9251 123.856 56.7422C122.472 64.63 120.986 72.9866 120.026 81.0917C120.838 81.2631 121.661 81.4346 122.541 81.6518C123.81 81.9719 126.291 82.875 128.725 83.4923C131.538 75.593 134.681 68.1281 137.962 60.2174Z" fill="#FEDC5E"/>
<path d="M137.962 60.2175C134.693 68.1282 131.549 75.5931 128.725 83.4924C129.32 83.641 129.903 83.7667 130.475 83.8696C134.133 76.4848 136.282 68.2768 140.477 60.892C139.62 60.6633 138.774 60.4233 137.962 60.2061V60.2175Z" fill="#0054A7"/>
<path d="M147.462 62.9722C146.89 62.6978 143.701 61.7718 140.477 60.8916C136.282 68.265 134.133 76.4844 130.474 83.8693C132.372 84.2122 134.041 84.2465 134.864 83.5035C136.087 82.3832 138.762 78.3592 139.997 76.2901C141.117 74.4153 143.198 70.7914 144.878 68.5508C145.93 67.1676 148.399 63.4294 147.462 62.9836V62.9722Z" fill="#FEDC5E"/>
<path d="M113.121 54.9129C111.121 55.7131 112.058 67.2706 112.264 70.2771C112.458 73.2036 112.63 78.7594 115.202 79.7654C116.071 80.1084 116.894 80.3484 117.705 80.5542C119.637 72.8607 119.717 63.9782 120.952 56.0904C117.5 55.3588 113.373 54.5471 113.121 54.9129Z" fill="url(#paint7_linear_472_1104)"/>
<path d="M120.678 66.1733L135.196 69.8772L134.613 72.1635L120.552 68.5854L120.678 66.1733Z" fill="#0054A7"/>
<path d="M120.952 56.0908C119.717 63.9787 119.637 72.8611 117.705 80.5546C118.483 80.749 119.249 80.909 120.037 81.0805C121.009 72.9754 122.484 64.6189 123.867 56.731C123.055 56.5481 122.038 56.3309 120.952 56.0908Z" fill="#0054A7"/>
<path d="M131.092 38.4059C130.177 36.9769 129.857 36.3939 129.96 35.6394C130.063 34.8849 130.12 33.0673 130.143 31.9698C130.154 30.8724 129.709 30.3465 129.126 30.5066C128.543 30.6666 128.703 31.5697 128.268 33.1016C127.834 34.6334 127.537 33.8446 126.805 33.3759C126.073 32.9072 123.387 29.9236 122.552 29.4663C121.718 29.009 120.803 28.3231 120.255 28.9747C119.717 29.6263 121.272 30.438 121.261 31.0553C121.261 31.684 120.609 31.5583 119.683 31.8098C118.757 32.0613 119.111 32.5528 119.409 33.5017C119.706 34.4505 119.98 34.4391 119.694 35.2279C119.42 36.0281 119.614 36.1996 120.163 36.7597C120.7 37.3199 122.701 37.9143 124.37 38.543C126.039 39.1832 127.022 39.6748 127.605 41.1495C127.64 41.2409 127.708 41.3781 127.811 41.5496C129.183 40.8865 130.623 40.3149 132.064 39.6405C131.583 39.046 131.24 38.6002 131.103 38.3716L131.092 38.4059Z" fill="#FFDBB0"/>
<path d="M184.786 70.5179C185.838 73.6273 186.055 77.5598 186.65 78.5772C187.244 79.5947 188.628 82.4869 189.519 84.3388C189.874 85.0933 189.714 86.3622 189.302 88.8772C189.119 89.9861 188.033 88.4656 187.29 89.5517C186.044 91.3922 185.518 89.9861 184.866 90.1918C183.758 90.5462 183.449 90.672 183.255 89.1173C183.06 87.5625 183.117 86.5451 183.197 85.8364C183.278 85.1276 183.152 84.0301 182.26 84.9904C181.368 85.9507 180.82 86.4308 179.894 86.3622C178.968 86.2936 178.819 85.6192 180.031 84.5674C181.174 83.0585 181.563 80.5664 181.997 79.5718C182.432 78.5772 181.597 77.3769 180.831 75.2163C180.065 73.0557 183.735 67.4085 184.786 70.5179Z" fill="#FFDBB0"/>
<path d="M161.626 19.7036C161.431 19.7036 158.814 19.898 158.562 19.8751C158.459 20.3209 158.139 21.9671 157.888 22.5158C157.636 23.0645 155.83 26.2082 155.578 26.4826C158.471 29.1233 162.506 28.7804 164.461 26.3797C163.935 26.1054 162.346 23.1331 162.117 22.0586C161.957 21.2583 161.626 20.0008 161.626 19.7036Z" fill="#FFDBB0"/>
<path d="M155.304 12.8792C156.047 7.7921 158.963 2.12198 165.113 3.42519C171.263 4.71697 171.812 11.5188 170.44 16.4687C170.783 16.2401 171.789 16.3887 171.617 17.2118C171.537 17.6005 171.194 18.2749 170.6 18.7322C169.914 19.2581 169.16 19.1323 168.782 19.2123C168.176 20.4012 167.148 21.3729 166.37 21.8759C165.239 22.6076 162.701 23.4649 160.677 23.0877C159.065 22.7905 157.362 20.9614 156.562 19.6239C155.807 18.3664 155.43 17.2347 155.202 16.1601C154.893 15.9315 154.23 15.7142 153.795 14.9712C153.418 14.331 153.407 12.7649 153.83 12.5019C154.493 12.1018 155.179 12.6848 155.304 12.8678V12.8792Z" fill="#FFDBB0"/>
<path d="M163.798 0.486988C164.37 0.075447 166.702 -0.461845 168.645 0.715618C170.588 1.89308 171.537 3.18488 171.652 4.37377C171.777 5.56266 172.452 7.14022 173.595 8.27196C174.738 9.4037 172.886 13.7706 171.869 14.9023C170.851 16.0455 170.737 16.6514 170.314 16.5599C169.891 16.4685 170.588 15.9426 170.257 15.5997C169.925 15.2682 170.863 11.6786 170.451 10.4669C170.04 9.2551 169.182 9.63234 168.336 9.74666C167.228 9.89527 166.45 7.17452 164.85 8.6835C163.889 9.5866 162.598 8.1348 162.426 7.32315C162.255 6.5115 161.603 6.05422 160.963 6.38574C160.62 6.55722 159.911 7.50605 159.385 8.44345C158.86 9.38084 157.202 10.5469 156.493 10.7069C155.784 10.867 155.933 11.2213 155.762 11.8387C155.59 12.456 155.373 13.6677 154.95 11.9187C154.527 10.1696 154.424 6.4086 155.121 4.43091C155.819 2.4418 158.642 0.384102 160.346 0.64703C162.049 0.909959 163.261 1.15003 163.809 0.486988H163.798Z" fill="url(#paint8_linear_472_1104)"/>
<path d="M129.389 172.614C134.921 172.179 130.646 167.012 133.321 162.245C133.321 162.245 136.465 159.982 137.231 162.108C137.814 163.72 138.568 169.882 138.785 174.1C135.55 175.414 131.869 174.774 129.389 172.625V172.614Z" fill="#FFDBB0"/>
<path d="M129.343 172.625C129.343 172.625 129.366 172.625 129.377 172.625C131.869 174.774 135.539 175.414 138.774 174.1C138.843 175.414 138.854 176.546 138.797 177.278C138.545 180.387 128.417 180.536 123.936 177.964C118.803 175.014 120.198 173.288 129.331 172.625H129.343Z" fill="#0054A7"/>
<path d="M168.885 169.55C168.416 166.715 168.679 162.965 168.679 160.233C165.993 158.21 163.969 158.21 163.741 163.822C163.512 169.435 162.849 172.351 159.477 174.145C159.442 174.157 159.42 174.18 159.385 174.191C162.826 174.008 166.45 172.213 168.885 169.55Z" fill="#FFDBB0"/>
<path d="M168.885 169.55C166.462 172.213 162.826 174.008 159.385 174.191C156.059 175.974 153.212 178.192 155.442 179.301C157.682 180.421 160.826 180.193 163.741 178.627C166.656 177.06 170.92 174.591 169.571 171.893C169.251 171.242 169.034 170.441 168.885 169.55Z" fill="#0054A7"/>
<path d="M140.912 71.5348C140.66 72.7122 137.208 103.921 136.202 106.95C135.196 109.98 131.686 168.018 131.686 168.944C131.686 169.87 134.441 170.693 135.539 170.693C136.636 170.693 138.911 171.162 139.506 169.413C141.026 164.977 153.361 105.35 153.521 103.589C153.681 101.829 154.447 100.057 154.618 103.589C154.79 107.122 162.838 167.115 163.101 167.698C163.352 168.293 167.73 167.858 168.748 167.858C169.765 167.858 169.8 167.664 170.417 164.783C171.274 160.816 173.789 124.109 173.709 121.171C173.629 118.222 172.372 74.3355 171.354 72.4379C170.348 70.5402 140.9 71.5462 140.9 71.5462L140.912 71.5348Z" fill="url(#paint9_linear_472_1104)"/>
<path d="M151.623 24.9736C153.692 24.5392 156.013 24.482 156.619 25.328C157.625 26.7226 162.94 26.1167 163.855 25.7052C164.769 25.2937 169.251 25.9453 170.6 26.7912C170.863 26.9055 171.228 27.1227 171.674 27.4314C171.72 34.7934 170.508 42.1554 171.606 49.5174C171.491 50.1347 171.606 51.9752 171.697 53.1184C171.869 54.9703 172.452 70.5288 173.126 73.7297C173.8 76.9306 173.8 77.8565 172.532 77.5136C171.274 77.1821 170.348 76.3361 168.405 76.2561C166.473 76.1761 153.098 76.9306 150.994 76.7019C148.891 76.4847 141.255 77.1478 141.255 76.2218C141.255 75.5016 142.866 61.1548 144.41 53.8043C146.513 43.8816 149.382 34.3247 151.623 24.985V24.9736Z" fill="white"/>
<path d="M141.255 55.6562C139.826 54.5245 139.506 57.9083 134.853 57.7368C130.292 57.5653 128.897 52.0552 125.776 46.488C121.729 39.2632 129.228 36.2338 131.675 36.8054C134.167 37.3884 136.545 47.0139 140.489 41.6638C142.821 38.4973 141.255 30.3122 148.697 26.0367C150.389 25.065 153.429 22.9159 156.619 24.7907C157.236 25.1565 152 42.807 151.532 46.5452C151.303 66.8707 146.159 84.7384 144.993 87.2991C143.129 89.7569 140.957 91.0487 139.265 91.3917C137.585 91.7232 136.808 89.7455 136.808 88.8195C136.808 87.8936 138.134 78.6225 139.54 70.6774C140.352 66.0705 142.432 56.5936 141.243 55.6562H141.255Z" fill="url(#paint10_linear_472_1104)"/>
<path d="M164.689 25.5227C165.604 25.1111 170.085 25.7627 171.434 26.6087C172.497 27.0659 175.47 29.3866 177.321 31.913C179.173 34.4394 184.146 53.1416 184.821 55.0736C185.495 57.0055 186.89 77.8798 186.227 77.9598C185.552 78.0398 179.825 79.6288 179.574 79.1258C179.311 78.6228 174.624 55.7938 172.795 56.7083C172.337 56.9369 173.766 62.2412 174.075 65.9337C174.395 69.729 174.784 72.3697 175.127 73.993C175.801 77.1939 177.699 95.7132 175.95 98.9827C173.469 103.612 169.354 97.1993 167.422 97.1193C165.97 97.0507 160.414 96.0676 157.728 90.226C157.568 81.9609 162.815 65.3278 161.82 51.564C161.237 43.5047 164.415 25.6484 164.701 25.5227H164.689Z" fill="url(#paint11_linear_472_1104)"/>
<path d="M137.436 40.8063C139.117 41.7095 140.477 44.6817 141.449 47.5853C142.169 49.7573 142.455 53.3926 142.192 55.3817C141.826 58.1025 140.054 61.6463 139.426 61.7149C138.797 61.7835 136.773 62.698 137.802 60.6632C139.974 56.3877 140.42 53.6898 140.249 52.501C139.94 50.2489 139.597 48.6828 138.991 46.7051C138.5 45.0932 137.002 43.7329 136.842 43.287C136.682 42.8412 135.859 41.1493 137.436 40.7949V40.8063Z" fill="#0054A7"/>
<defs>
<linearGradient id="paint0_linear_472_1104" x1="98.7061" y1="149.625" x2="114.859" y2="165.778" gradientUnits="userSpaceOnUse">
<stop stop-color="#FFD4AA"/>
<stop offset="0.03" stop-color="#FDCD9F"/>
<stop offset="0.14" stop-color="#F9BA7F"/>
<stop offset="0.26" stop-color="#F6A965"/>
<stop offset="0.38" stop-color="#F49D51"/>
<stop offset="0.53" stop-color="#F29442"/>
<stop offset="0.71" stop-color="#F18F3A"/>
<stop offset="1" stop-color="#F18E38"/>
</linearGradient>
<linearGradient id="paint1_linear_472_1104" x1="84.9995" y1="155.581" x2="95.1394" y2="165.721" gradientUnits="userSpaceOnUse">
<stop stop-color="#FFD4AA"/>
<stop offset="0.03" stop-color="#FDCD9F"/>
<stop offset="0.14" stop-color="#F9BA7F"/>
<stop offset="0.26" stop-color="#F6A965"/>
<stop offset="0.38" stop-color="#F49D51"/>
<stop offset="0.53" stop-color="#F29442"/>
<stop offset="0.71" stop-color="#F18F3A"/>
<stop offset="1" stop-color="#F18E38"/>
</linearGradient>
<linearGradient id="paint2_linear_472_1104" x1="77.8546" y1="125.253" x2="117.797" y2="125.253" gradientUnits="userSpaceOnUse">
<stop stop-color="#51A7DD"/>
<stop offset="0.07" stop-color="#398FCD"/>
<stop offset="0.15" stop-color="#2479BF"/>
<stop offset="0.25" stop-color="#1368B4"/>
<stop offset="0.37" stop-color="#085CAC"/>
<stop offset="0.53" stop-color="#0155A8"/>
<stop offset="1" stop-color="#0054A7"/>
</linearGradient>
<linearGradient id="paint3_linear_472_1104" x1="94.945" y1="94.4444" x2="108.617" y2="108.128" gradientUnits="userSpaceOnUse">
<stop stop-color="#4FA5DB"/>
<stop offset="0.17" stop-color="#3287C8"/>
<stop offset="0.34" stop-color="#1C70B9"/>
<stop offset="0.53" stop-color="#0C60AF"/>
<stop offset="0.73" stop-color="#0257A8"/>
<stop offset="1" stop-color="#0054A7"/>
</linearGradient>
<linearGradient id="paint4_linear_472_1104" x1="29.0412" y1="15.9199" x2="41.1931" y2="28.0718" gradientUnits="userSpaceOnUse">
<stop stop-color="#4FA5DB"/>
<stop offset="0.17" stop-color="#3287C8"/>
<stop offset="0.34" stop-color="#1C70B9"/>
<stop offset="0.53" stop-color="#0C60AF"/>
<stop offset="0.73" stop-color="#0257A8"/>
<stop offset="1" stop-color="#0054A7"/>
</linearGradient>
<linearGradient id="paint5_linear_472_1104" x1="-1.56131" y1="155.524" x2="61.5073" y2="92.4438" gradientUnits="userSpaceOnUse">
<stop stop-color="#3684E4"/>
<stop offset="1" stop-color="#A8D3EE"/>
</linearGradient>
<linearGradient id="paint6_linear_472_1104" x1="23.4742" y1="52.742" x2="63.0621" y2="92.3299" gradientUnits="userSpaceOnUse">
<stop stop-color="#FAD7D9"/>
<stop offset="0.17" stop-color="#F6BBBE"/>
<stop offset="0.38" stop-color="#F29EA3"/>
<stop offset="0.59" stop-color="#EF898F"/>
<stop offset="0.8" stop-color="#ED7D83"/>
<stop offset="1" stop-color="#ED7980"/>
</linearGradient>
<linearGradient id="paint7_linear_472_1104" x1="108.983" y1="58.9712" x2="124.13" y2="74.1296" gradientUnits="userSpaceOnUse">
<stop stop-color="#FFAB28"/>
<stop offset="0.04" stop-color="#FEB02E"/>
<stop offset="0.22" stop-color="#FEC343"/>
<stop offset="0.42" stop-color="#FED152"/>
<stop offset="0.65" stop-color="#FED95B"/>
<stop offset="1" stop-color="#FEDC5E"/>
</linearGradient>
<linearGradient id="paint8_linear_472_1104" x1="154.584" y1="8.27196" x2="173.949" y2="8.27196" gradientUnits="userSpaceOnUse">
<stop stop-color="#4FA5DB"/>
<stop offset="0.17" stop-color="#3287C8"/>
<stop offset="0.34" stop-color="#1C70B9"/>
<stop offset="0.53" stop-color="#0C60AF"/>
<stop offset="0.73" stop-color="#0257A8"/>
<stop offset="1" stop-color="#0054A7"/>
</linearGradient>
<linearGradient id="paint9_linear_472_1104" x1="121.581" y1="90.8543" x2="183.952" y2="153.226" gradientUnits="userSpaceOnUse">
<stop stop-color="#FFD4AA"/>
<stop offset="0.03" stop-color="#FDCD9F"/>
<stop offset="0.14" stop-color="#F9BA7F"/>
<stop offset="0.26" stop-color="#F6A965"/>
<stop offset="0.38" stop-color="#F49D51"/>
<stop offset="0.53" stop-color="#F29442"/>
<stop offset="0.71" stop-color="#F18F3A"/>
<stop offset="1" stop-color="#F18E38"/>
</linearGradient>
<linearGradient id="paint10_linear_472_1104" x1="124.599" y1="57.7368" x2="156.676" y2="57.7368" gradientUnits="userSpaceOnUse">
<stop stop-color="#62C0B4"/>
<stop offset="0.35" stop-color="#64C1B4"/>
<stop offset="0.57" stop-color="#6DC5B5"/>
<stop offset="0.76" stop-color="#7CCDB8"/>
<stop offset="0.93" stop-color="#91D8BC"/>
<stop offset="1" stop-color="#9CDEBE"/>
</linearGradient>
<linearGradient id="paint11_linear_472_1104" x1="157.716" y1="63.03" x2="186.398" y2="63.03" gradientUnits="userSpaceOnUse">
<stop stop-color="#62C0B4"/>
<stop offset="0.35" stop-color="#64C1B4"/>
<stop offset="0.57" stop-color="#6DC5B5"/>
<stop offset="0.76" stop-color="#7CCDB8"/>
<stop offset="0.93" stop-color="#91D8BC"/>
<stop offset="1" stop-color="#9CDEBE"/>
</linearGradient>
</defs>
</svg>
