<svg width="337" height="41" viewBox="0 0 337 41" fill="none" xmlns="http://www.w3.org/2000/svg"><path d="M0 1.58691H5.69944L16.1388 21.6332H16.1966V1.58691H21.8845V34.3616H16.1966L5.75725 14.2806H5.69944V34.3616H0V1.58691Z"/><path d="M31.515 30.154C31.515 32.9401 30.0006 35.2522 28.1046 35.2522C26.2202 35.2522 24.7057 32.9401 24.7057 30.154C24.7057 27.3331 26.2202 25.0557 28.1046 25.0557C30.0006 25.0557 31.515 27.3216 31.515 30.154Z"/><path d="M40.0114 34.3616H34.3235V1.58691H40.0114V34.3616Z"/><path d="M49.6306 30.154C49.6306 32.9401 48.1277 35.2522 46.2433 35.2522C44.3473 35.2522 42.8444 32.9401 42.8444 30.154C42.8444 27.3331 44.3473 25.0557 46.2433 25.0557C48.1277 25.0557 49.6306 27.3216 49.6306 30.154Z"/><path d="M58.1389 8.45384H59.0984C61.295 8.45384 63.1909 8.50008 63.1909 12.6273C63.1909 16.6273 61.1447 16.6273 59.0984 16.6273H58.1389V8.45384ZM52.4395 34.3615H58.1389V23.4828H61.3643C66.3239 23.4828 69.1216 20.1071 69.1216 12.3614C69.1216 4.84688 65.8615 1.5752 61.1447 1.5752H52.4395V34.3615Z"/><path d="M76.7055 27.1362H83.5379V34.3616H71.0176V1.58691H76.7055V27.1362Z"/><path d="M97.9082 22.1535H93.1683L95.5267 11.7141H95.5729L97.9082 22.1535ZM99.4458 28.6737L100.868 34.3616H106.926L98.6943 1.58691H92.4747L84.0469 34.3616H90.0931L91.6076 28.6737H99.4458Z"/><path d="M108.717 1.58691H114.405L124.845 21.6332H124.891V1.58691H130.59V34.3616H124.891L114.463 14.2806H114.394V34.3616H108.706V1.58691H108.717Z"/><path d="M132.533 1.58691H138.232L148.671 21.6332H148.729V1.58691H154.429V34.3616H148.729L138.301 14.2806H138.244V34.3616H132.544V1.58691H132.533Z"/><path d="M162.082 34.3616H156.382V1.58691H162.082V34.3616Z"/><path d="M164.023 1.58691H169.711L180.162 21.6332H180.208V1.58691H185.919V34.3616H180.208L169.769 14.2806H169.711V34.3616H164.023V1.58691Z"/><path d="M210.232 16.0608C210.174 20.8353 209.932 24.9278 207.989 29.0319C205.839 33.4944 202.602 35.4481 198.949 35.4481C192.059 35.4481 187.261 28.4539 187.261 18.1533C187.261 7.48269 192.082 0.5 199.157 0.5C203.643 0.5 207.146 3.54047 209.03 9.66767L203.62 13.0781C202.833 9.94512 201.192 7.85263 198.891 7.85263C195.145 7.85263 193.203 13.2053 193.203 18.1995C193.203 23.2747 195.238 28.4654 198.984 28.4654C201.446 28.4654 203.342 26.5579 203.573 22.7775H198.914V16.0723H210.232V16.0608Z"/><path d="M235.03 12.581C233.862 10.2342 231.966 8.98566 230.012 8.98566C226.521 8.98566 224.186 12.9741 224.186 18.0493C224.186 23.2169 226.556 26.9742 230.105 26.9742C231.955 26.9742 233.828 25.6331 235.03 23.4944V33.7256C233.122 34.5927 231.758 35.2632 229.989 35.2632C226.937 35.2632 224.036 33.506 221.77 30.4308C219.353 27.1591 218.255 22.9048 218.255 18.0493C218.255 13.5637 219.388 9.25155 221.481 6.02611C223.631 2.71973 226.729 0.719727 229.816 0.719727C231.643 0.719727 233.33 1.34401 235.03 2.38447V12.581Z"/><path d="M248.914 8.76593C252.302 8.76593 255.111 12.8816 255.111 17.4018C255.111 23.055 252.302 27.1938 248.914 27.1938C245.516 27.1938 242.729 23.055 242.729 17.4018C242.729 12.8816 245.527 8.76593 248.914 8.76593ZM248.914 0.5C242.602 0.5 236.799 7.45957 236.799 17.3671C236.799 27.9914 241.874 35.4481 248.914 35.4481C255.955 35.4481 261.042 27.9914 261.042 17.3671C261.042 7.45957 255.215 0.5 248.914 0.5Z"/><path d="M265.562 25.0557C263.677 25.0557 262.163 27.3216 262.163 30.154C262.163 32.9401 263.677 35.2522 265.562 35.2522C267.458 35.2522 268.972 32.9401 268.972 30.154C268.96 27.3216 267.446 25.0557 265.562 25.0557Z"/><path d="M333.204 25.0557C331.32 25.0557 329.805 27.3216 329.805 30.154C329.805 32.9401 331.308 35.2522 333.204 35.2522C335.089 35.2522 336.603 32.9401 336.603 30.154C336.591 27.3216 335.089 25.0557 333.204 25.0557Z"/><path d="M278.671 26.0605L273.319 40.4999H269.92L273.712 26.0605H278.671Z"/><path d="M286.175 27.1362H292.996V34.3616H280.475V1.58691H286.175V27.1362Z"/><path d="M302.949 34.3616H297.249V8.80082H292.544V1.58691H307.654V8.80082H302.949V34.3616Z"/><path d="M314.799 8.80082H316.128C319.782 8.80082 322.371 12.0956 322.371 17.98C322.371 24.3731 319.469 27.1362 316.071 27.1362H314.799V8.80082ZM309.088 34.3616H317.169C323.25 34.3616 328.313 27.194 328.313 17.98C328.313 8.76613 323.273 1.58691 317.169 1.58691H309.088V34.3616Z"/></svg>
