<svg width="512" height="280" viewBox="0 0 512 280" fill="none" xmlns="http://www.w3.org/2000/svg">
<path d="M180.82 191.12C179.79 193.65 179.41 196.9 178.87 197.71C178.33 198.53 177.03 200.85 176.2 202.34C175.86 202.95 175.94 204.01 176.15 206.11C176.25 207.04 177.22 205.83 177.78 206.77C178.72 208.36 179.23 207.21 179.75 207.42C180.66 207.77 180.9 207.89 181.14 206.61C181.38 205.33 181.38 204.48 181.35 203.89C181.32 203.29 181.48 202.4 182.17 203.24C182.86 204.08 183.3 204.5 184.06 204.49C184.83 204.48 184.99 203.92 184.04 203C183.17 201.69 182.97 199.61 182.66 198.76C182.35 197.91 183.1 196.96 183.85 195.21C184.59 193.45 181.83 188.59 180.8 191.12H180.82Z" fill="#FFDBB0"/>
<path d="M220.55 271.84C220.55 271.84 220.53 271.84 220.52 271.84C215.7 271.17 219.72 266.87 217.63 262.56C217.63 262.56 215 260.42 214.21 262.23C213.61 263.61 212.63 268.96 212.22 272.64C212.09 273.79 212.02 274.77 212.03 275.42C212.08 278.15 220.94 278.82 225 276.8C229.65 274.48 228.52 272.91 220.56 271.84H220.55Z" fill="#0054A7"/>
<path d="M196.49 272.91C196.49 272.91 196.43 272.87 196.4 272.86C193.22 270.91 192.73 268.02 192.84 262.52C192.95 257.03 190.98 256.91 188.23 258.72C188.07 261.38 188.1 265.07 187.48 267.81C187.28 268.68 187.02 269.45 186.67 270.07C185.2 272.62 188.69 276.27 191.44 277.97C194.2 279.68 196.95 279.62 199.21 278.66C201.45 277.7 199.63 274.85 196.49 272.91Z" fill="#0054A7"/>
<path d="M216.58 188.96C216.73 189.95 218.03 216 218.72 218.56C219.41 221.12 219.42 269.43 219.37 270.2C219.32 270.97 216.99 271.51 216.09 271.46C215.18 271.41 212.15 272.26 211.74 270.78C210.7 267.02 204.57 216.38 204.52 214.91C204.47 213.44 203.93 211.93 203.61 214.86C203.29 217.78 195.01 269.16 194.68 269.57C193.69 270.79 190.56 269.98 189.73 269.87C187.37 269.57 186.67 269.63 186.3 267.2C185.79 263.86 186.69 230.92 186.9 228.48C187.11 226.04 190.35 189.7 191.28 188.18C192.21 186.66 216.58 188.96 216.58 188.96Z" fill="url(#paint0_linear_425_2905)"/>
<path d="M210.02 149.81C208.83 148.51 207.32 150.01 206.98 148.07C206.73 146.66 205.76 146.96 204.04 146.9C201.73 146.81 201.11 145.89 200.47 148.41C200.16 149.6 195.56 148.24 193.33 151.52C189.9 156.58 193.51 163.1 192.23 169.15C192.29 169.66 192.12 171.19 191.97 172.13C191.74 173.66 215.48 180.23 214.56 174.05C213.31 165.71 215.39 155.69 210.02 149.79V149.81Z" fill="white"/>
<path d="M231 182.6C232.32 183.5 232.86 183.81 233.56 183.73C234.27 183.65 235.97 183.64 237 183.65C238.03 183.66 238.51 184.09 238.34 184.63C238.17 185.17 237.34 185 235.89 185.37C234.44 185.74 235.18 186.04 235.6 186.74C236.02 187.44 238.76 190.02 239.17 190.82C239.57 191.62 240.2 192.49 239.58 192.99C238.96 193.48 238.24 192.01 237.65 192C237.06 192 237.16 192.6 236.9 193.46C236.64 194.33 236.19 193.98 235.31 193.68C234.43 193.38 234.45 193.13 233.69 193.37C232.94 193.61 232.78 193.42 232.27 192.9C231.76 192.38 231.25 190.49 230.69 188.91C230.13 187.33 229.68 186.4 228.32 185.81C228.24 185.77 228.11 185.71 227.95 185.61C228.61 184.34 229.18 183 229.84 181.66C230.39 182.12 230.8 182.45 231 182.59V182.6Z" fill="#FFDBB0"/>
<path d="M210.18 138.74C209.77 134.17 207.49 128.97 202.01 129.8C196.53 130.63 195.72 136.65 196.69 141.13C196.4 140.91 195.75 140.95 195.87 141.69C195.92 142.04 196.16 142.59 196.67 143.03C197.25 143.54 197.7 143.56 198.03 143.65C198.5 144.74 199.36 145.66 200.03 146.15C200.99 146.86 203.18 147.76 204.98 147.53C206.41 147.35 208 145.81 208.77 144.67C209.5 143.59 209.88 142.61 210.13 141.66C210.41 141.47 210.77 141.35 211.08 140.65C211.22 140.33 211.33 139.34 211.14 138.94C210.9 138.44 210.32 138.56 210.2 138.73L210.18 138.74Z" fill="#FFDBB0"/>
<path d="M231.28 180.21C227.17 173.66 222.06 165.54 219.05 160.9C217.27 158.16 215.13 154.77 212.69 152.03C211.62 150.82 208.95 148.35 207.15 148.61C206.69 148.68 207.05 162.34 206.06 162.58C205.13 162.81 200.54 148.22 200.38 148.13C199.64 147.74 194.67 149.55 193.52 150.18C192.62 150.5 190.03 152.28 188.37 154.28C186.71 156.28 181.5 165.1 179.9 170.81C179.44 172.45 175.79 189.32 176.47 196.17C176.71 198.56 183.33 199.25 184.7 197.08C184.95 196.68 187.93 173.92 189.5 174.57C190.87 175.14 189.53 178.76 189.08 181.81C188.62 184.94 188.15 187.87 187.79 189.2C187.07 191.82 187.79 196.6 189.39 196.63C190.47 196.65 201.36 201.12 205.95 199.86C210.64 198.57 215.16 198.64 216.24 198.57C219.67 198.34 218.34 195.1 217.57 188.44C217.13 184.58 214.86 175.14 215.89 174.42C217.13 173.56 219.4 177.19 221.37 180.51C224.26 185.38 227.84 188.96 230.05 186.91C235.08 182.22 232.38 181.98 231.27 180.21H231.28Z" fill="url(#paint1_linear_425_2905)"/>
<path d="M269.84 171.03C269.21 169.57 269 168.98 269.22 168.3C269.43 167.62 269.77 165.95 269.96 164.93C270.15 163.92 269.81 163.36 269.25 163.42C268.69 163.48 268.69 164.34 268.06 165.68C267.42 167.03 267.27 166.25 266.66 165.71C266.06 165.17 264.04 161.98 263.33 161.43C262.62 160.88 261.88 160.1 261.28 160.62C260.68 161.14 261.99 162.13 261.89 162.71C261.78 163.29 261.21 163.08 260.31 163.17C259.41 163.26 259.66 163.77 259.79 164.69C259.92 165.61 260.17 165.64 259.79 166.34C259.41 167.03 259.57 167.23 259.98 167.83C260.39 168.43 262.15 169.29 263.6 170.14C265.05 170.99 265.88 171.6 266.19 173.05C266.21 173.14 266.25 173.28 266.31 173.45C267.68 173.05 269.1 172.74 270.54 172.35C270.19 171.73 269.94 171.26 269.85 171.03H269.84Z" fill="#FFDBB0"/>
<path d="M278.66 175.4C277.11 175.79 274.03 170.25 271.11 168.71C269.21 167.71 264.71 173.02 265.72 174.16C269.63 178.58 273.9 184.71 277.55 186.33C279.4 187.15 282.41 185.17 283.6 183.87C285.35 181.97 289.82 171.97 289.31 169.7C288.1 164.31 285.88 163 284.74 165.05C283.47 167.33 280.61 174.9 278.65 175.39L278.66 175.4Z" fill="#ED7980"/>
<path d="M302.18 224.19C302.18 224.19 292.6 222.27 292.39 223.19C292.19 224.11 290.69 265.3 290.81 267.3C290.95 269.56 294.98 268.97 295.17 268.46C295.38 267.88 302.68 225.55 302.18 224.19Z" fill="#FEDC5E"/>
<path d="M296.59 263.91C296.85 263 297.38 262.6 293.82 262.1C290.24 261.6 290.36 261.56 290.08 263.99C289.73 267.03 290.89 269.97 288.91 271.47C287.01 272.91 281.73 276.16 281.83 277.47C281.93 278.77 283.9 278.64 286.12 278.57C288.01 278.51 289.61 278.08 290.93 276.92C292.52 275.53 291.2 278.39 292.21 278.36C294.15 278.32 294.79 278.4 294.78 276.55C294.76 273.57 295.3 271.03 295.66 269.26C296 267.55 296.45 264.39 296.59 263.89V263.91Z" fill="#F18E38"/>
<path d="M308.14 223.01C308.14 223.01 298.37 222.84 298.33 223.78C298.3 224.72 304.2 265.51 304.68 267.46C305.22 269.66 309.08 268.36 309.18 267.82C309.28 267.21 308.87 224.26 308.14 223.02V223.01Z" fill="#FEDC5E"/>
<path d="M309.77 263.09C309.86 262.15 310.31 261.66 306.72 261.81C303.11 261.96 303.22 261.9 303.38 264.34C303.58 267.39 305.25 270.08 303.57 271.91C301.96 273.67 297.34 277.82 297.68 279.08C298.02 280.34 299.92 279.86 302.1 279.4C303.95 279 305.45 278.29 306.54 276.92C307.86 275.27 307.07 278.32 308.05 278.11C309.95 277.72 310.6 277.69 310.25 275.87C309.7 272.94 309.77 270.35 309.81 268.54C309.84 266.8 309.71 263.6 309.76 263.09H309.77Z" fill="#F18E38"/>
<path d="M312.06 193.82C312.2 194.87 314.87 233.52 316.04 246.29C316.3 249.09 319.05 258.81 315.06 259.29C307.78 260.17 302.65 260.27 299.45 260.2C287.87 259.95 283.56 260.75 283.32 253.53C283.19 249.55 283.86 238.92 284.05 236.32C284.24 233.72 287.24 195 288.12 193.36C289 191.72 312.05 193.81 312.05 193.81L312.06 193.82Z" fill="url(#paint2_linear_425_2905)"/>
<path d="M289.67 157.64C290.67 156.31 291.56 156.15 292.12 155.55C292.76 154.88 291.08 153.9 294.36 153.4C299.89 152.55 297.15 154.59 298.49 155.13C299.52 155.55 301.83 158.09 303.01 158.49C303.22 158.56 304.26 160.06 304.77 161.07C305.68 166.78 305.25 168.52 306.97 174.11C306.95 174.6 307.25 176.02 307.47 176.89C307.82 178.31 310.13 190.32 311.03 192.72C311.93 195.12 312.04 195.84 311.03 195.73C310.02 195.62 309.19 195.08 307.68 195.24C306.17 195.4 302.71 199.43 296.32 199.73C289.6 200.05 286.38 195.88 286.27 195.16C286.18 194.6 286.06 186.55 286.38 180.65C286.83 172.69 285.12 163.64 289.67 157.62V157.64Z" fill="white"/>
<path d="M283.68 196.36C283.55 193.34 287.14 182.01 283.83 183.79C280.86 185.39 281.59 171.55 282.92 169.09C283.99 167.11 284.52 164.22 286.04 161.47C286.78 160.13 290.5 155.31 291.9 155.5C292.52 155.58 291.44 168.72 291.78 174.32C292.45 185.27 292.29 192.3 291.75 194.46C290.64 198.92 291.41 202 287.29 201.54C285.82 201.38 283.9 201.5 283.67 196.36H283.68Z" fill="#ED7980"/>
<path d="M298.94 155.38C299.6 154.95 305.19 158.36 307.01 160.5C312.01 166.33 316.88 174.01 316.54 183.49C316.41 187.06 315.4 192.63 314.48 195.03C313.38 197.9 314.59 200.97 314.82 202.91C315.3 207 301.48 202.4 299.97 202.57C298.83 202.69 297 202.57 297.03 196.72C297.07 188.37 297.37 180.22 297.37 176.27C297.37 171.7 298.73 155.52 298.93 155.39L298.94 155.38Z" fill="url(#paint3_linear_425_2905)"/>
<path d="M312.79 194.92C312.77 195.94 312.67 196.9 312.68 197.87C312.68 198.84 312.62 200.25 312.45 201.29C312.34 201.97 312.53 203.21 310.36 204.37C309.54 204.8 309.62 203.55 308.65 204.03C307 204.83 307.21 203.61 306.66 203.49C305.72 203.29 305.14 202.1 305.65 200.91C306.15 199.72 305.31 200.42 305.2 199.16C305.13 198.4 306.51 196.72 307.86 195.93C309.21 195.15 309.11 195.19 309.25 194.47C309.39 193.74 312.8 194.4 312.8 194.92H312.79Z" fill="#FFDBB0"/>
<path d="M287.85 153.85C289.42 154.87 291.83 154.54 293.05 153.49C295.64 151.26 291.34 150.32 290.53 149.13C289.94 148.26 289.28 146.52 288.66 145.96C288.05 145.4 287.39 141.51 285.92 144.94C285.53 145.84 286.02 146.63 285.54 148.3C285.39 148.82 284.46 149.53 284.93 150.33C285.49 151.29 286.4 151.14 286.64 151.75C286.88 152.35 286.36 153.22 287.84 153.85H287.85Z" fill="url(#paint4_linear_425_2905)"/>
<path d="M300.43 150.39C299.45 152.79 297.6 154.18 295.92 154.42C294.24 154.67 292.59 154.36 291.01 153.62C289.72 152.8 288.63 151.42 288.35 150.8C288.09 150.23 287.95 149.53 287.93 148.85C287.89 147.25 286.8 147.43 287.46 144.1C287.66 143.09 289.11 138.35 293.6 137.44C297.55 136.64 302.48 145.36 300.43 150.38V150.39Z" fill="#FFDBB0"/>
<path d="M261.01 205.31C260.62 205.03 258.82 202.98 257.91 201.93C257.53 201.24 257.24 200.68 257.08 200.34C256.8 199.76 256.45 198.04 256.34 197.57C256.05 197.59 253.77 197.65 253.54 197.65C253.54 197.96 253.18 199.26 253 200.09C252.9 200.55 252.53 201.34 252.11 202C251.57 202.82 250.37 204.07 249.79 204.88C248.25 207.03 262 206 261.01 205.3V205.31Z" fill="#FFDBB0"/>
<path d="M242.86 248.21C242.48 250.18 241.66 262.69 241.63 269.39C241.63 270.9 245.11 271.79 245.37 270.36C245.96 267.08 247.5 258.23 248.99 252.89C249.95 249.44 250.09 246.26 247.95 244.75C245.78 243.22 243.97 242.49 242.87 248.21H242.86Z" fill="#FFDBB0"/>
<path d="M255.17 243.1C252.73 244.13 252.29 247.19 253.85 250.73C254.66 252.57 268.06 267.93 269.59 269.52C271.12 271.11 272.69 270.15 273.31 268.35C273.73 267.14 268.78 260.63 266.84 257.2C264.57 253.18 263.21 250.28 262.28 246.87C261.27 243.14 257.37 242.18 255.17 243.11V243.1Z" fill="#FFDBB0"/>
<path d="M246.18 268.31C246.35 267.64 244.37 268.08 243.44 267.79C242.69 267.56 240.84 267.06 240.63 268.81C240.42 270.56 240.59 271.86 239.11 272.79C237.64 273.71 235.34 274.48 235.54 276.04C235.74 277.6 235.77 278.13 237.94 278.14C240.1 278.16 241.67 277.85 242.47 277.4C243.28 276.95 243.63 277.1 244.36 277.06C245.77 276.98 246.1 276.11 246.1 274.76C246.1 273.41 245.95 272.75 246.1 271.49C246.26 270.23 246.08 268.67 246.17 268.3L246.18 268.31Z" fill="#F18E38"/>
<path d="M272.24 265.17C271.86 264.6 270.85 266.34 270 266.83C269.32 267.22 267.7 268.25 268.84 269.59C269.99 270.93 271.06 271.69 270.73 273.4C270.41 275.11 269.42 277.32 270.7 278.22C271.98 279.13 272.39 279.47 273.87 277.89C275.35 276.31 276.18 274.96 276.4 274.06C276.62 273.16 276.96 273.01 277.43 272.44C278.33 271.35 277.91 270.51 276.92 269.6C275.93 268.69 275.35 268.35 274.52 267.38C273.7 266.41 272.43 265.48 272.23 265.16L272.24 265.17Z" fill="#F18E38"/>
<path d="M236.25 202.39C236.17 201.82 236.3 201.07 235.99 200.33C235.69 199.58 235.95 198.76 234.77 198.67C233.59 198.58 233.87 198.26 233.43 198.09C233 197.92 232.49 197.68 232.28 198.12C232.08 198.55 231.9 198.81 231.65 198.81C231.4 198.81 231.04 198.93 230.91 199.36C230.78 199.79 230.75 200.22 230.54 200.37C230.33 200.52 230.41 200.92 230.56 201.33C230.71 201.73 231.13 202.97 231.96 203.21C232.79 203.44 233.39 203.29 233.91 203.99C233.99 204.1 238.41 211.43 240.95 211.69C242.32 211.83 247.16 210.24 248.4 209.51C250.13 208.49 246.5 203.39 246.22 202.9C246.13 202.74 242.13 207.04 240.91 206.97C239.82 206.91 236.23 202.45 236.22 202.39H236.25Z" fill="#FFDBB0"/>
<path d="M274.71 202.9C274.8 202.33 274.67 201.58 274.98 200.84C275.29 200.1 275.02 199.27 276.21 199.19C277.4 199.11 277.12 198.79 277.55 198.62C277.98 198.45 278.49 198.22 278.69 198.65C278.89 199.09 279.06 199.34 279.32 199.35C279.57 199.35 279.93 199.47 280.06 199.91C280.19 200.34 280.22 200.77 280.43 200.92C280.64 201.07 280.56 201.48 280.4 201.88C280.25 202.28 279.82 203.52 278.99 203.75C278.16 203.98 277.56 203.82 277.04 204.52C276.96 204.63 270.92 212.6 269.25 212.88C267.35 213.2 261.92 209.55 262.44 208.74C262.48 208.65 262.87 205.08 264.47 204.54C265.93 204.05 267.07 207.73 268.91 207.94C270.21 208.08 274.72 202.97 274.73 202.91L274.71 202.9Z" fill="#FFDBB0"/>
<path d="M250.33 189.74C249.75 189.41 248.1 189.29 247.36 190.04C246.62 190.8 246.09 192 245.97 192.71C245.85 193.43 245.94 194.69 245.15 194.8C244.36 194.91 242.73 193.99 241.68 194.27C240.63 194.55 239.43 196.53 240.43 197.05C241.59 197.65 242.53 195.95 243.39 196.08C244.26 196.21 245.84 197.45 246.94 196.49C247.89 195.65 247.49 195.35 247.35 194.61C247.21 193.87 247.46 192.91 248.28 192.63C248.93 192.41 250.05 191.46 250.33 190.93C250.65 190.32 250.72 190.22 250.33 189.73V189.74Z" fill="url(#paint5_linear_425_2905)"/>
<path d="M260.75 193.27C261.41 193.19 262.99 193.71 263.37 194.69C263.76 195.67 263.79 196.99 263.62 197.69C263.45 198.4 262.88 199.53 263.57 199.94C264.26 200.35 266.11 200.13 266.98 200.79C267.85 201.45 268.19 203.74 267.06 203.84C265.76 203.95 265.55 202.02 264.7 201.81C263.85 201.6 261.91 202.13 261.27 200.82C260.71 199.68 261.21 199.55 261.62 198.93C262.03 198.3 262.17 197.32 261.52 196.74C261.01 196.28 260.34 194.98 260.28 194.39C260.22 193.71 260.2 193.58 260.75 193.28V193.27Z" fill="url(#paint6_linear_425_2905)"/>
<path d="M249.69 195.8C250.42 197.87 252.01 199.19 253.53 199.56C255.04 199.93 257.07 199.49 258.69 197.99C262.07 194.85 264.1 186.43 257.21 184.76C250.31 183.08 248.17 191.48 249.7 195.81L249.69 195.8Z" fill="#FFDBB0"/>
<path d="M260.57 185.96C259.6 184.97 257.26 184.07 255.21 184.27C253.16 184.47 252.45 184.82 251.85 185.56C251.25 186.3 250.44 185.83 249.75 186.37C249.06 186.91 248.63 187.74 249.21 188.41C249.79 189.08 251.16 189.35 252.51 189.07C253.86 188.79 254.7 188.47 255.71 188.91C256.72 189.36 256.64 190.08 257.08 190.78C257.52 191.48 258.09 191.14 259.13 191.41C260.18 191.68 259.97 194.34 260.37 194.73C260.8 195.15 261.25 194.53 261.72 193.73C262.53 192.37 263.04 190.68 262.84 189.42C262.64 188.15 261.24 186.4 260.56 185.96H260.57Z" fill="url(#paint7_linear_425_2905)"/>
<path d="M265.85 225.83C264.56 221.54 264.13 219.38 263.84 217.52C263.6 216.02 263.25 211.51 264.51 212.15C268.18 214.03 269.42 206.48 267.82 205.43C265.89 204.16 261.55 201.74 259.34 200.99C256.95 200.18 257.14 201.84 254.39 201.56C252.32 201.34 253.4 200.14 250.88 200.44C249.51 200.6 246.25 202.91 242.99 204.76C240.65 206.08 242.81 212.3 245.32 211.68C248.67 210.84 245.7 215.72 244.26 222.58C243.72 225.16 235.55 250.43 235.38 252.95C235.17 256.15 242.66 259.68 255.6 258.68C263.33 258.08 270.06 256.52 270.89 255.15C272.62 253.02 266.31 227.35 265.86 225.83H265.85Z" fill="url(#paint8_linear_425_2905)"/>
<path d="M199.8 127.02C200.16 126.5 201.97 125.38 203.95 125.81C205.93 126.24 207.1 127.06 207.54 128.02C207.99 128.98 209.02 130.12 210.31 130.75C211.6 131.38 211.3 135.59 210.77 136.85C210.24 138.11 210.32 138.65 209.93 138.7C209.55 138.75 209.98 138.1 209.6 137.91C209.22 137.72 208.98 134.42 208.28 133.53C207.58 132.63 206.97 133.19 206.29 133.53C205.4 133.98 203.96 131.91 203.04 133.64C202.49 134.68 200.98 133.83 200.6 133.2C200.22 132.57 199.53 132.36 199.09 132.83C198.85 133.08 198.53 134.07 198.35 135.02C198.17 135.97 197.12 137.42 196.57 137.77C196.02 138.12 196.24 138.36 196.27 138.93C196.3 139.5 196.47 140.59 195.61 139.23C194.75 137.87 193.58 134.74 193.6 132.86C193.62 130.98 195.4 128.43 196.92 128.16C198.44 127.89 199.53 127.75 199.8 127.03V127.02Z" fill="url(#paint9_linear_425_2905)"/>
<path d="M291.74 142.4C290.09 140.38 287.64 146.43 287 145.1C285.31 141.58 289.19 137.53 290.89 136.81C293.26 135.8 299.89 137.01 301.47 140.23C302.73 142.79 302.16 143.86 303.75 144.87C304.66 145.45 304.35 146.83 304.01 148.11C303.53 149.95 305.62 149.7 304.4 151.16C302.88 152.97 300.73 152.7 299.19 152.12C298.01 151.67 298.67 148.76 299.6 148C300.84 146.39 300.48 145.88 300.09 145.37C299.7 144.86 298.66 144.65 298.46 145.21C297.46 147.97 297.91 145.31 297.11 144.85C294.94 143.62 296.23 146.24 291.73 142.39L291.74 142.4Z" fill="url(#paint10_linear_425_2905)"/>
<path d="M429.8 75.91H445.98L442.11 67.71C442.11 67.71 451.74 63.11 456.47 57.91C463.31 50.39 465.61 41.58 465.36 29.88C465.13 19.17 461.71 10.97 451.23 5.04C440.75 -0.890004 427.99 1.16999 418.87 8.68999C410.68 15.45 407.64 21 407.25 28.51C406.57 41.5 409.07 50.61 417.73 58.13C427.81 66.89 428.24 66.11 434.82 67.93C432.57 70.44 429.81 75.91 429.81 75.91H429.8Z" fill="url(#paint11_linear_425_2905)"/>
<path d="M434.4 168.68L432.02 168.17C439.14 134.71 436.6 129.42 433.1 122.11C432.47 120.8 431.82 119.44 431.17 117.84C426.92 107.32 428.45 99.8 429.56 94.31L429.73 93.45C430.26 90.82 431.64 87.28 433.11 83.54C434.87 79.05 436.86 73.96 437.47 70.03L439.87 70.41C439.22 74.6 437.26 79.6 435.37 84.43C433.95 88.07 432.6 91.51 432.11 93.93L431.93 94.8C430.82 100.28 429.43 107.1 433.41 116.94C434.03 118.47 434.66 119.79 435.28 121.07C438.99 128.82 441.68 134.42 434.39 168.69L434.4 168.68Z" fill="#B3B3B3"/>
<path d="M486 127.29L493.93 128.17L492.61 117.94L489.53 118.05L486 127.29Z" fill="#FEDC5E"/>
<path d="M490.3 120.14C492.5 120.11 498.66 119.04 502.63 115.63C506.59 112.22 511.54 104.63 511.1 96.7001C510.66 88.7801 507.47 72.9301 493.05 72.0501C478.63 71.1701 474.34 80.5201 472.69 83.6101C471.04 86.6901 466.6 94.8001 470.16 105.95C474.25 118.77 485.16 120.22 490.3 120.15V120.14Z" fill="url(#paint12_linear_425_2905)"/>
<path d="M483.24 189.14L481.07 188.26C490.68 164.53 489.53 158.93 488.2 152.45C487.99 151.44 487.78 150.4 487.6 149.26C486.75 143.86 487.24 135.68 489.06 124.93L489.14 124.46L491.45 124.84L491.37 125.32C489.59 135.82 489.1 143.75 489.91 148.9C490.08 149.98 490.29 151 490.49 151.98C491.89 158.83 493.11 164.75 483.24 189.14Z" fill="#B3B3B3"/>
<path d="M150.55 88.65C98.45 100.06 44.98 90.48 0 61.67L1.2 59.79C45.68 88.28 98.54 97.76 150.07 86.47C201.59 75.18 245.66 44.47 274.15 0L276.03 1.2C247.21 46.18 202.65 77.23 150.54 88.65H150.55Z" fill="#0054A7"/>
<path d="M242.69 33.7701L242.75 34.6301C256.63 36.3101 271.42 38.7801 285.24 39.6001C280.12 27.0301 278.26 11.6601 270.62 0.110107C262.83 12.6601 252.31 22.8101 242.7 33.7701H242.69Z" fill="url(#paint13_linear_425_2905)"/>
<path d="M126.91 89.9799L125.73 90.2399C130.29 105.4 146.86 112.95 156.84 124.44C163.6 109.91 165.3 92.1299 173.38 77.9299C157.24 80.8499 142.93 86.4699 126.91 89.9799Z" fill="url(#paint14_linear_425_2905)"/>
<path d="M74.61 84.87C74.02 84.74 62.84 83.3 62.84 83.3C64.1 97.84 77.05 111.45 80.09 126.37C85.04 120.59 89.05 113.38 92.81 107.35C96.57 101.32 102.11 95.67 104.69 89.39C95.15 90.47 84.12 86.89 74.61 84.88V84.87Z" fill="url(#paint15_linear_425_2905)"/>
<path d="M73.41 102.38C73.49 102.21 73.52 101.97 73.45 101.6C73.62 100.9 73.82 100.21 73.98 99.5099C74.4 97.7699 74.54 95.8899 74.89 94.1199C75.41 91.4699 74.89 88.9199 74.55 86.2799C74.45 85.5099 73.07 86.2799 73.16 86.9899C73.63 90.7299 73.6 93.6799 72.86 97.3999C72.51 99.1699 71.72 101.48 71.82 103.31C71.82 103.46 71.87 103.62 72.02 103.7C72.07 103.73 72.12 103.75 72.17 103.78C72.46 103.93 72.78 103.81 73.03 103.63C73.14 103.56 73.24 103.48 73.35 103.4C73.87 103.02 73.76 102.54 73.41 102.38Z" fill="white"/>
<path d="M81.68 120.74C81.63 115.66 82.65 110.82 83.61 105.81C84.7 100.14 84.46 94.3 85.83 88.69C86.07 87.73 84.63 88.07 84.46 88.76C83.25 93.69 83.43 98.76 82.59 103.74C81.5 110.18 79.9 116.22 80.29 122.8C80.34 123.65 81.57 123.14 81.69 122.56C81.78 122.15 81.86 121.73 81.95 121.31C82.02 120.96 81.88 120.79 81.67 120.73L81.68 120.74Z" fill="white"/>
<path d="M94.66 90.1201C94.85 89.1501 93.43 89.4801 93.28 90.1901C92.23 95.5001 92.21 100.95 91.18 106.25C90.99 107.22 92.42 106.88 92.56 106.18C93.59 100.88 93.61 95.4301 94.66 90.1201Z" fill="white"/>
<path d="M4.97997 60.34L3.89997 59.79C-2.12003 74.44 5.98997 90.75 6.48997 105.95C20.9 98.93 33.42 86.2 48.64 80.27C34.27 72.36 19.62 67.7 4.97997 60.34Z" fill="url(#paint16_linear_425_2905)"/>
<path d="M2.95 68.74C14.28 73.62 25 79.75 36.17 84.98C36.8 85.28 38.01 84.3 37.21 83.92C26.05 78.69 15.33 72.55 3.99 67.68C3.35 67.41 2.14 68.39 2.95 68.74Z" fill="white"/>
<path d="M3.28999 80.33C10.81 84.95 19.15 87.93 27.05 91.81C27.66 92.11 28.85 91.12 28.08 90.74C20.18 86.86 11.85 83.88 4.31999 79.26C3.74999 78.91 2.54999 79.87 3.28999 80.33Z" fill="white"/>
<path d="M5.26995 91.1099C6.38995 93.0399 8.92995 94.04 10.8599 94.91C13.4799 96.09 16.2999 97.1 19.1199 97.69C19.8199 97.83 20.7999 96.7199 19.8499 96.5199C17.5799 96.0499 15.3699 95.2499 13.2099 94.3999C11.1599 93.5899 7.89995 92.5 6.73995 90.48C6.35995 89.82 4.90995 90.4799 5.26995 91.1099Z" fill="white"/>
<path d="M193.25 69.0499L193.02 69.8799C205.58 76.0099 218.74 83.1999 231.53 88.4999C230.81 74.9399 234.09 59.8199 230.66 46.3999C219.19 55.7099 205.92 61.8499 193.25 69.0399V69.0499Z" fill="url(#paint17_linear_425_2905)"/>
<path d="M209.89 71.9499C210.01 71.8799 210.14 71.8099 210.26 71.7399C211.29 71.1599 211.67 69.7199 211.44 68.6299C211.23 67.6599 210.35 66.7999 209.34 67.3699C209.22 67.4399 209.09 67.5099 208.97 67.5799C207.95 68.1599 207.56 69.5999 207.79 70.6899C208 71.6599 208.88 72.5199 209.89 71.9499Z" fill="white"/>
<path d="M222.93 63.08C223.05 63.01 223.18 62.94 223.3 62.87C224.32 62.29 224.71 60.85 224.48 59.76C224.28 58.79 223.4 57.93 222.38 58.5C222.26 58.57 222.13 58.64 222.01 58.71C220.98 59.29 220.6 60.73 220.83 61.82C221.03 62.79 221.92 63.65 222.93 63.08Z" fill="white"/>
<path d="M224.82 76.7898C224.89 76.9098 224.96 77.0398 225.03 77.1598C225.56 78.0898 226.53 78.3998 227.36 77.5898C228.13 76.8298 228.54 75.2598 227.97 74.2698C227.9 74.1498 227.82 74.0198 227.76 73.8998C227.23 72.9698 226.26 72.6598 225.43 73.4698C224.66 74.2298 224.26 75.7998 224.82 76.7898Z" fill="white"/>
<path d="M219.4 73.2599C219.52 73.1899 219.65 73.12 219.77 73.05C220.8 72.47 221.18 71.03 220.95 69.94C220.74 68.97 219.86 68.1099 218.85 68.6799C218.73 68.7499 218.6 68.8199 218.48 68.8899C217.45 69.4699 217.07 70.9099 217.3 71.9999C217.51 72.9699 218.38 73.8299 219.4 73.2599Z" fill="white"/>
<defs>
<linearGradient id="paint0_linear_425_2905" x1="176.24" y1="258.35" x2="231.11" y2="203.49" gradientUnits="userSpaceOnUse">
<stop stop-color="#F18E38"/>
<stop offset="1" stop-color="#FFBD32"/>
</linearGradient>
<linearGradient id="paint1_linear_425_2905" x1="179.81" y1="199.97" x2="220.24" y2="159.55" gradientUnits="userSpaceOnUse">
<stop stop-color="#62C0B4"/>
<stop offset="0.4" stop-color="#7ACCB8"/>
<stop offset="1" stop-color="#9CDEBE"/>
</linearGradient>
<linearGradient id="paint2_linear_425_2905" x1="276.96" y1="204.53" x2="323.71" y2="251.28" gradientUnits="userSpaceOnUse">
<stop stop-color="#51A7DD"/>
<stop offset="0.03" stop-color="#4DA3DA"/>
<stop offset="0.3" stop-color="#2C81C4"/>
<stop offset="0.57" stop-color="#1368B4"/>
<stop offset="0.8" stop-color="#0559AA"/>
<stop offset="1" stop-color="#0054A7"/>
</linearGradient>
<linearGradient id="paint3_linear_425_2905" x1="287.84" y1="166.48" x2="319.92" y2="198.56" gradientUnits="userSpaceOnUse">
<stop stop-color="#FAD7D9"/>
<stop offset="0.01" stop-color="#F9D0D3"/>
<stop offset="0.09" stop-color="#F5B5B9"/>
<stop offset="0.18" stop-color="#F29FA4"/>
<stop offset="0.28" stop-color="#EF8E93"/>
<stop offset="0.4" stop-color="#EE8188"/>
<stop offset="0.57" stop-color="#ED7A81"/>
<stop offset="1" stop-color="#ED7980"/>
</linearGradient>
<linearGradient id="paint4_linear_425_2905" x1="284.8" y1="149" x2="293.87" y2="149" gradientUnits="userSpaceOnUse">
<stop stop-color="#51A7DD"/>
<stop offset="0.03" stop-color="#4DA3DA"/>
<stop offset="0.3" stop-color="#2C81C4"/>
<stop offset="0.57" stop-color="#1368B4"/>
<stop offset="0.8" stop-color="#0559AA"/>
<stop offset="1" stop-color="#0054A7"/>
</linearGradient>
<linearGradient id="paint5_linear_425_2905" x1="240.05" y1="193.34" x2="250.6" y2="193.34" gradientUnits="userSpaceOnUse">
<stop stop-color="#51A7DD"/>
<stop offset="0.03" stop-color="#4DA3DA"/>
<stop offset="0.3" stop-color="#2C81C4"/>
<stop offset="0.57" stop-color="#1368B4"/>
<stop offset="0.8" stop-color="#0559AA"/>
<stop offset="1" stop-color="#0054A7"/>
</linearGradient>
<linearGradient id="paint6_linear_425_2905" x1="260.25" y1="198.55" x2="267.78" y2="198.55" gradientUnits="userSpaceOnUse">
<stop stop-color="#51A7DD"/>
<stop offset="0.03" stop-color="#4DA3DA"/>
<stop offset="0.3" stop-color="#2C81C4"/>
<stop offset="0.57" stop-color="#1368B4"/>
<stop offset="0.8" stop-color="#0559AA"/>
<stop offset="1" stop-color="#0054A7"/>
</linearGradient>
<linearGradient id="paint7_linear_425_2905" x1="248.94" y1="189.56" x2="262.9" y2="189.56" gradientUnits="userSpaceOnUse">
<stop stop-color="#51A7DD"/>
<stop offset="0.03" stop-color="#4DA3DA"/>
<stop offset="0.3" stop-color="#2C81C4"/>
<stop offset="0.57" stop-color="#1368B4"/>
<stop offset="0.8" stop-color="#0559AA"/>
<stop offset="1" stop-color="#0054A7"/>
</linearGradient>
<linearGradient id="paint8_linear_425_2905" x1="234.07" y1="252.78" x2="274.64" y2="212.22" gradientUnits="userSpaceOnUse">
<stop stop-color="#FFAB28"/>
<stop offset="0.04" stop-color="#FEB02E"/>
<stop offset="0.22" stop-color="#FEC343"/>
<stop offset="0.42" stop-color="#FED152"/>
<stop offset="0.65" stop-color="#FED95B"/>
<stop offset="1" stop-color="#FEDC5E"/>
</linearGradient>
<linearGradient id="paint9_linear_425_2905" x1="193.6" y1="132.8" x2="211.22" y2="132.8" gradientUnits="userSpaceOnUse">
<stop stop-color="#51A7DD"/>
<stop offset="0.03" stop-color="#4DA3DA"/>
<stop offset="0.3" stop-color="#2C81C4"/>
<stop offset="0.57" stop-color="#1368B4"/>
<stop offset="0.8" stop-color="#0559AA"/>
<stop offset="1" stop-color="#0054A7"/>
</linearGradient>
<linearGradient id="paint10_linear_425_2905" x1="286.59" y1="144.52" x2="304.8" y2="144.52" gradientUnits="userSpaceOnUse">
<stop stop-color="#51A7DD"/>
<stop offset="0.03" stop-color="#4DA3DA"/>
<stop offset="0.3" stop-color="#2C81C4"/>
<stop offset="0.57" stop-color="#1368B4"/>
<stop offset="0.8" stop-color="#0559AA"/>
<stop offset="1" stop-color="#0054A7"/>
</linearGradient>
<linearGradient id="paint11_linear_425_2905" x1="465.36" y1="38.82" x2="407.13" y2="38.82" gradientUnits="userSpaceOnUse">
<stop stop-color="#FAD7D9"/>
<stop offset="0.17" stop-color="#F6BBBE"/>
<stop offset="0.38" stop-color="#F29EA3"/>
<stop offset="0.59" stop-color="#EF898F"/>
<stop offset="0.8" stop-color="#ED7D83"/>
<stop offset="1" stop-color="#ED7980"/>
</linearGradient>
<linearGradient id="paint12_linear_425_2905" x1="468.81" y1="96.0601" x2="511.12" y2="96.0601" gradientUnits="userSpaceOnUse">
<stop stop-color="#FFAB28"/>
<stop offset="0.04" stop-color="#FEB02E"/>
<stop offset="0.22" stop-color="#FEC343"/>
<stop offset="0.42" stop-color="#FED152"/>
<stop offset="0.65" stop-color="#FED95B"/>
<stop offset="1" stop-color="#FEDC5E"/>
</linearGradient>
<linearGradient id="paint13_linear_425_2905" x1="242.69" y1="19.8601" x2="285.23" y2="19.8601" gradientUnits="userSpaceOnUse">
<stop stop-color="#FAD7D9"/>
<stop offset="0.17" stop-color="#F6BBBE"/>
<stop offset="0.38" stop-color="#F29EA3"/>
<stop offset="0.59" stop-color="#EF898F"/>
<stop offset="0.8" stop-color="#ED7D83"/>
<stop offset="1" stop-color="#ED7980"/>
</linearGradient>
<linearGradient id="paint14_linear_425_2905" x1="125.73" y1="101.19" x2="173.38" y2="101.19" gradientUnits="userSpaceOnUse">
<stop stop-color="#FFD4AA"/>
<stop offset="0.03" stop-color="#FDCD9F"/>
<stop offset="0.14" stop-color="#F9BA7F"/>
<stop offset="0.26" stop-color="#F6A965"/>
<stop offset="0.38" stop-color="#F49D51"/>
<stop offset="0.53" stop-color="#F29442"/>
<stop offset="0.71" stop-color="#F18F3A"/>
<stop offset="1" stop-color="#F18E38"/>
</linearGradient>
<linearGradient id="paint15_linear_425_2905" x1="62.84" y1="104.84" x2="104.68" y2="104.84" gradientUnits="userSpaceOnUse">
<stop stop-color="#FFAB28"/>
<stop offset="0.04" stop-color="#FEB02E"/>
<stop offset="0.22" stop-color="#FEC343"/>
<stop offset="0.42" stop-color="#FED152"/>
<stop offset="0.65" stop-color="#FED95B"/>
<stop offset="1" stop-color="#FEDC5E"/>
</linearGradient>
<linearGradient id="paint16_linear_425_2905" x1="1.67997" y1="82.88" x2="48.64" y2="82.88" gradientUnits="userSpaceOnUse">
<stop stop-color="#3684E4"/>
<stop offset="1" stop-color="#A8D3EE"/>
</linearGradient>
<linearGradient id="paint17_linear_425_2905" x1="193.02" y1="67.4499" x2="232.25" y2="67.4499" gradientUnits="userSpaceOnUse">
<stop stop-color="#FFAB28"/>
<stop offset="0.04" stop-color="#FEB02E"/>
<stop offset="0.22" stop-color="#FEC343"/>
<stop offset="0.42" stop-color="#FED152"/>
<stop offset="0.65" stop-color="#FED95B"/>
<stop offset="1" stop-color="#FEDC5E"/>
</linearGradient>
</defs>
</svg>
