<svg width="455" height="306" viewBox="0 0 455 306" fill="none" xmlns="http://www.w3.org/2000/svg">
<path d="M303.076 99.14C252.516 83.06 211.216 48.21 186.806 1.02L188.776 0C212.916 46.67 253.746 81.13 303.756 97.03C353.756 112.93 406.996 108.39 453.656 84.25L454.676 86.22C407.486 110.64 353.646 115.22 303.076 99.14Z" fill="#0054A7"/>
<path d="M409.746 97.69L409.366 98.46C420.486 106.81 431.996 116.3 443.496 123.88C445.336 110.5 451.376 96.34 450.536 82.59C437.586 89.53 423.476 93.04 409.746 97.7V97.69Z" fill="url(#paint0_linear_425_2810)"/>
<path d="M282.056 88.53L280.906 88.17C277.296 103.5 287.816 118.25 290.696 133.11C303.746 123.95 314.056 109.49 328.076 101.27C312.716 95.75 297.596 93.48 282.056 88.54V88.53Z" fill="url(#paint1_linear_425_2810)"/>
<path d="M239.536 58.12C239.086 57.72 230.176 50.91 230.176 50.91C224.036 64.07 228.416 82.23 223.616 96.59C230.756 94.08 237.796 89.85 244.036 86.53C250.276 83.21 257.866 81.09 263.206 76.96C254.456 73.15 246.726 64.58 239.536 58.12Z" fill="url(#paint2_linear_425_2810)"/>
<path d="M229.796 72.6C229.946 72.5 230.096 72.3 230.216 71.95C230.706 71.43 231.226 70.93 231.716 70.41C232.936 69.11 233.996 67.57 235.186 66.22C236.956 64.2 237.776 61.74 238.796 59.3C239.096 58.59 237.516 58.57 237.246 59.22C235.786 62.68 234.296 65.2 231.816 68.04C230.636 69.39 228.806 70.99 227.976 72.61C227.906 72.75 227.866 72.9 227.956 73.04C227.986 73.09 228.016 73.13 228.046 73.18C228.226 73.45 228.556 73.51 228.856 73.47C228.986 73.46 229.116 73.45 229.246 73.43C229.886 73.36 230.026 72.89 229.796 72.58V72.6Z" fill="white"/>
<path d="M227.796 92.53C230.276 88.13 233.566 84.46 236.886 80.63C240.646 76.29 243.346 71.13 247.316 66.99C247.996 66.28 246.586 65.85 246.096 66.37C242.606 70.02 240.236 74.47 237.036 78.35C232.896 83.36 228.516 87.76 225.576 93.62C225.196 94.38 226.506 94.55 226.906 94.11C227.186 93.8 227.466 93.48 227.746 93.17C227.986 92.91 227.946 92.69 227.786 92.53H227.796Z" fill="white"/>
<path d="M254.196 72.61C254.846 71.87 253.446 71.45 252.976 71.99C249.436 76.04 246.706 80.72 243.176 84.78C242.536 85.52 243.926 85.94 244.396 85.4C247.926 81.34 250.646 76.66 254.196 72.61Z" fill="white"/>
<path d="M191.756 2.35L191.096 1.34C178.626 10.96 177.496 29.05 170.376 42.4C186.276 43.52 203.396 38.78 219.456 41.24C211.016 27.28 200.706 15.98 191.756 2.35Z" fill="url(#paint3_linear_425_2810)"/>
<path d="M185.826 8.58C193.166 18.42 199.346 29.03 206.366 39.09C206.756 39.66 208.296 39.42 207.786 38.69C200.776 28.63 194.596 18.01 187.246 8.18C186.836 7.63 185.296 7.88 185.826 8.58Z" fill="white"/>
<path d="M180.356 18.73C184.536 26.45 190.236 33.17 195.116 40.44C195.486 41 197.006 40.74 196.526 40.03C191.656 32.76 185.956 26.04 181.766 18.32C181.446 17.73 179.936 17.97 180.346 18.73H180.356Z" fill="white"/>
<path d="M176.696 29C176.696 31.22 178.386 33.34 179.616 35.05C181.286 37.37 183.216 39.64 185.356 41.55C185.886 42.02 187.286 41.55 186.566 40.9C184.846 39.36 183.336 37.58 181.906 35.77C180.546 34.06 178.276 31.49 178.286 29.18C178.286 28.43 176.706 28.26 176.706 28.99L176.696 29Z" fill="white"/>
<path d="M349.606 103.49L348.996 104.09C356.766 115.62 364.526 128.36 372.906 139.29C379.026 127.25 389.376 115.85 393.096 102.59C378.586 104.9 364.096 103.59 349.606 103.49Z" fill="url(#paint4_linear_425_2810)"/>
<path d="M362.506 114.27C362.646 114.27 362.786 114.27 362.926 114.27C364.096 114.27 365.146 113.23 365.496 112.18C365.796 111.24 365.466 110.06 364.316 110.05C364.176 110.05 364.036 110.05 363.896 110.05C362.726 110.05 361.676 111.09 361.336 112.14C361.026 113.08 361.356 114.26 362.516 114.27H362.506Z" fill="white"/>
<path d="M378.156 113.11C378.296 113.11 378.436 113.11 378.576 113.11C379.746 113.11 380.796 112.07 381.136 111.02C381.446 110.08 381.116 108.9 379.956 108.89C379.816 108.89 379.676 108.89 379.536 108.89C378.366 108.89 377.316 109.93 376.976 110.98C376.666 111.92 376.996 113.1 378.156 113.11Z" fill="white"/>
<path d="M372.956 125.87C372.956 126.01 372.956 126.15 372.956 126.29C372.956 127.35 373.626 128.11 374.746 127.82C375.796 127.55 376.916 126.4 376.926 125.26C376.926 125.12 376.926 124.97 376.926 124.83C376.926 123.77 376.256 123.01 375.126 123.3C374.086 123.57 372.956 124.73 372.946 125.86L372.956 125.87Z" fill="white"/>
<path d="M370.046 120.12C370.186 120.12 370.326 120.12 370.466 120.12C371.636 120.13 372.686 119.09 373.026 118.03C373.336 117.09 372.996 115.91 371.846 115.9C371.706 115.9 371.566 115.9 371.426 115.9C370.246 115.9 369.206 116.94 368.856 117.99C368.556 118.93 368.876 120.11 370.036 120.12H370.046Z" fill="white"/>
<path d="M181.616 171.63C182.936 173.27 185.626 173.78 187.296 173.09C190.856 171.62 186.596 169.09 186.156 167.54C185.826 166.4 185.746 164.31 185.286 163.49C184.826 162.67 185.506 158.28 182.726 161.42C181.996 162.25 182.236 163.26 181.126 164.88C180.776 165.38 179.536 165.81 179.756 166.84C180.016 168.07 181.036 168.23 181.086 168.96C181.136 169.69 180.266 170.43 181.626 171.63H181.616Z" fill="#0054A7"/>
<path d="M195.686 170.74C193.996 172.98 191.676 173.91 189.846 173.7C188.016 173.49 186.376 172.71 184.936 171.5C183.816 170.28 183.066 168.54 182.946 167.82C182.836 167.15 182.876 166.38 183.056 165.66C183.456 163.98 182.276 163.87 183.886 160.56C184.376 159.55 187.206 155.01 192.166 155.31C196.526 155.58 199.246 166.06 195.696 170.75L195.686 170.74Z" fill="#FFDBB0"/>
<path d="M189.096 160.51C188.056 157.77 183.286 163.36 183.076 161.72C182.526 157.36 188.106 154.42 190.176 154.24C193.066 154 199.716 157.66 200.266 161.66C200.696 164.85 199.716 165.78 201.046 167.43C201.806 168.37 200.986 169.74 200.176 170.99C199.016 172.78 201.336 173.26 199.506 174.39C197.236 175.79 195.036 174.73 193.606 173.56C192.506 172.66 194.246 169.78 195.506 169.31C197.406 168.04 197.196 167.36 196.966 166.68C196.736 166 195.696 165.41 195.286 165.93C193.236 168.53 194.656 165.84 193.966 165.07C192.086 162.98 192.526 166.24 189.086 160.53L189.096 160.51Z" fill="url(#paint5_linear_425_2810)"/>
<path d="M173.416 207.87C171.876 207.36 170.536 206.92 169.916 206.74C168.936 206.45 163.426 204.74 163.306 204.68C163.146 204.64 162.636 204.49 161.926 204.29C160.386 210.75 158.746 217.58 157.546 224.24C158.206 224.42 158.886 224.6 159.596 224.83C160.626 225.16 162.636 226.03 164.626 226.66C167.346 220.26 170.316 214.24 173.416 207.86V207.87Z" fill="#F18E38"/>
<path d="M173.416 207.87C170.316 214.25 167.346 220.27 164.626 226.67C165.106 226.82 165.586 226.96 166.056 227.07C169.446 221.14 171.636 214.45 175.466 208.56C174.776 208.32 174.076 208.09 173.426 207.87H173.416Z" fill="#62C0B4"/>
<path d="M181.136 210.63C180.676 210.37 178.076 209.45 175.456 208.56C171.616 214.45 169.436 221.14 166.046 227.07C167.596 227.45 168.986 227.56 169.696 226.98C170.756 226.12 173.176 222.92 174.306 221.27C175.326 219.78 177.226 216.88 178.726 215.11C179.656 214.01 181.886 211.05 181.136 210.63Z" fill="#F18E38"/>
<path d="M153.126 202.25C151.436 202.81 151.636 212.42 151.656 214.92C151.676 217.35 151.536 221.96 153.616 222.92C154.316 223.24 154.986 223.49 155.646 223.7C157.626 217.43 158.136 210.08 159.546 203.62C156.726 202.84 153.346 201.97 153.126 202.25Z" fill="#F18E38"/>
<path d="M158.826 211.94L170.646 215.73L170.056 217.59L158.596 213.93L158.826 211.94Z" fill="#62C0B4"/>
<path d="M159.546 203.62C158.136 210.08 157.626 217.43 155.646 223.7C156.286 223.9 156.906 224.07 157.546 224.25C158.746 217.59 160.386 210.76 161.926 204.3C161.266 204.11 160.436 203.88 159.546 203.63V203.62Z" fill="#62C0B4"/>
<path d="M218.216 163.97C218.646 163.09 219.626 160.62 220.246 159.04C220.496 158.4 220.286 157.35 219.796 155.3C219.576 154.39 218.776 155.72 218.096 154.86C216.956 153.41 216.606 154.61 216.056 154.48C215.116 154.25 214.856 154.16 214.786 155.46C214.716 156.76 214.826 157.59 214.936 158.18C215.046 158.77 215.006 159.67 214.206 158.93C213.406 158.19 212.926 157.83 212.166 157.94C211.406 158.05 211.326 158.62 212.386 159.41C213.416 160.59 213.886 162.63 214.306 163.42C214.576 163.93 217.926 164.55 218.206 163.96L218.216 163.97Z" fill="#FFDBB0"/>
<path d="M164.656 298.26C169.246 297.9 165.696 293.61 167.916 289.66C167.916 289.66 170.526 287.79 171.156 289.54C171.646 290.88 172.266 295.98 172.446 299.48C169.766 300.57 166.716 300.04 164.656 298.26Z" fill="#0054A7"/>
<path d="M164.626 298.27C164.626 298.27 164.646 298.27 164.656 298.27C166.716 300.05 169.766 300.58 172.446 299.49C172.506 300.58 172.516 301.52 172.466 302.13C172.266 304.7 163.866 304.83 160.156 302.7C155.896 300.25 157.056 298.83 164.626 298.28V298.27Z" fill="#51A7DD"/>
<path d="M197.396 295.72C197.006 293.37 197.226 290.26 197.226 288C194.996 286.33 193.326 286.33 193.136 290.97C192.946 295.62 192.396 298.03 189.606 299.52C189.576 299.53 189.556 299.55 189.526 299.56C192.376 299.41 195.386 297.92 197.396 295.71V295.72Z" fill="#0054A7"/>
<path d="M197.396 295.72C195.386 297.93 192.376 299.42 189.526 299.57C186.766 301.05 184.416 302.88 186.256 303.8C188.116 304.73 190.716 304.54 193.136 303.24C195.556 301.94 199.086 299.89 197.966 297.66C197.696 297.12 197.516 296.46 197.396 295.71V295.72Z" fill="#51A7DD"/>
<path d="M174.206 214.48C173.996 215.46 171.136 241.32 170.306 243.83C169.466 246.34 165.096 295.56 165.096 296.33C165.096 297.1 168.206 297.33 169.086 297.5C171.626 297.99 173.376 298.85 173.876 297.4C175.136 293.72 184.516 242.51 184.656 241.04C184.796 239.58 185.426 238.11 185.566 241.04C185.706 243.97 190.666 294.4 190.696 294.93C190.796 296.73 194.016 295.72 197.386 295.72C198.226 295.72 199.546 295.67 199.786 293.24C200.156 289.52 201.446 258.05 201.386 255.61C201.326 253.17 200.276 216.79 199.436 215.21C198.596 213.64 174.196 214.47 174.196 214.47L174.206 214.48Z" fill="url(#paint6_linear_425_2810)"/>
<path d="M184.216 176.28C185.476 175.05 186.426 175.02 187.106 174.5C187.876 173.9 186.286 172.61 189.786 172.61C195.686 172.61 192.506 174.29 193.816 175.08C194.826 175.68 196.826 178.7 197.996 179.31C198.206 179.42 199.046 181.15 199.426 182.28C199.466 188.38 198.736 190.13 199.646 196.23C199.556 196.74 199.646 198.27 199.726 199.21C199.866 200.74 200.356 213.64 200.916 216.29C201.476 218.94 201.476 219.71 200.426 219.43C199.376 219.15 198.616 218.45 197.006 218.38C195.406 218.31 184.316 218.94 182.576 218.75C180.836 218.57 174.496 219.12 174.496 218.35C174.496 217.75 175.826 205.86 177.106 199.77C178.846 191.54 178.506 181.83 184.216 176.28Z" fill="white"/>
<path d="M174.466 206.04C173.286 205.11 170.856 205.17 166.966 201.09C162.596 196.51 163.996 190.62 166.966 186.93C169.006 184.39 172.666 180.63 178.836 177.09C180.236 176.29 185.456 174.01 186.886 174.42C187.526 174.6 183.396 190.68 183.016 193.78C182.826 210.62 178.566 225.43 177.596 227.56C176.046 229.59 176.016 232.64 174.626 232.92C173.236 233.2 169.416 233.02 168.846 231.98C168.096 230.62 167.856 224.12 170.876 217.76C172.536 214.26 175.456 206.82 174.466 206.04Z" fill="#ED7980"/>
<path d="M194.256 175.41C195.016 175.07 197.486 176.95 201.286 176.93C206.586 176.9 210.286 162.44 212.906 162.33C214.706 162.25 218.266 162.65 220.356 163.65C222.646 164.74 217.796 176.93 213.686 182.66C210.006 187.79 205.476 186.53 203.146 193.22C201.906 196.78 201.446 206.78 201.706 209.84C201.976 212.98 202.296 215.18 202.576 216.52C203.136 219.17 204.706 234.52 203.256 237.23C201.206 241.06 197.796 235.75 196.186 235.68C194.976 235.63 190.376 234.81 188.156 229.97C188.026 223.12 192.366 209.34 191.546 197.93C191.066 191.25 194.036 175.51 194.266 175.41H194.256Z" fill="url(#paint7_linear_425_2810)"/>
<path d="M189.236 179.47C189.236 179.01 189.056 177.34 189.566 177.29C190.086 177.24 190.536 177.54 190.586 177.77C190.636 178 190.966 178.58 191.436 178.13C191.906 177.68 192.676 176.71 192.996 176.97C193.406 177.3 193.516 176.9 194.116 177.24C194.336 177.37 194.076 177.93 194.476 178.05C194.876 178.17 195.886 178.66 195.586 179.11C195.286 179.56 195.946 179.66 195.996 180.18C196.046 180.7 195.406 180.86 194.536 181.3C193.666 181.74 194.106 182.37 192.726 182.53C191.866 182.63 190.996 182.72 190.266 181.73C189.536 180.74 189.156 179.92 189.226 179.46L189.236 179.47Z" fill="#FFDBB0"/>
<path d="M182.696 207.54C181.926 205.82 180.226 204.23 178.386 204.77C176.546 205.3 175.596 205.69 175.136 207.17C174.676 208.65 174.866 209.92 175.526 211.13C176.186 212.34 176.446 213.13 176.236 214.58C176.026 216.02 176.076 215.79 175.916 217.41C175.756 219.03 176.566 220.1 176.876 220.83C177.136 221.43 176.726 221.88 176.266 222.61C175.536 223.78 178.956 224.89 180.386 225.1C182.436 225.39 184.236 224.64 182.996 223.03C182.046 221.8 181.806 222.38 181.026 221.72C180.246 221.07 180.446 219.5 180.906 218.85C181.366 218.2 182.316 215.58 182.136 214.39C182.026 213.63 181.906 213.1 182.346 211.71C182.796 210.31 183.216 208.66 182.686 207.57L182.696 207.54Z" fill="#FEDC5E"/>
<path d="M172.646 180.68C170.626 180.91 168.126 183.39 169.416 185.73C171.076 188.74 170.726 192.64 170.976 195C171.226 197.39 170.036 198.96 170.246 200.94C170.336 201.75 171.186 205.62 173.366 206.98C176.816 209.13 180.376 209.31 181.746 209.01C184.866 208.33 185.706 207.18 187.056 204.74C187.886 203.23 186.816 200.06 187.266 196.93C187.786 193.28 187.696 193.24 187.736 191.57C187.776 189.9 187.246 186.9 188.726 186.1C190.336 185.24 191.546 184.23 192.426 183.13C193.256 182.09 191.646 181.88 190.916 180.99C190.156 180.07 189.896 178.65 187.586 179.84C186.226 180.54 184.986 180.94 183.266 181.51C181.546 182.08 182.596 182.32 180.276 181.66C177.966 181 174.146 180.71 172.646 180.67V180.68Z" fill="url(#paint8_linear_425_2810)"/>
<path d="M177.766 181.51C179.726 182.54 181.756 182.42 183.056 181.66C184.356 180.89 185.346 179.79 186.056 178.43C186.526 177.18 186.546 175.69 186.406 175.13C186.286 174.62 186.006 174.08 185.656 173.62C184.836 172.55 185.686 172.08 183.456 170.26C182.776 169.71 179.246 167.42 175.626 169.3C172.446 170.96 173.656 179.36 177.766 181.51Z" fill="#FFDBB0"/>
<path d="M182.996 168.83C182.616 168.38 181.136 167.64 179.806 167.83C178.156 168.07 177.596 167.12 175.996 167.69C173.756 168.49 172.056 170.12 171.606 170.95C170.626 172.72 170.966 173.78 170.866 174.88C170.676 176.87 171.866 184.53 179.896 182.23C180.866 181.95 181.476 182.04 180.816 180.27C179.886 179.35 178.426 178.47 178.396 177.91C178.356 177.35 179.116 177.1 179.646 177.18C180.976 177.37 180.596 177.09 180.596 175.27C180.596 173.06 185.256 171.31 183.006 168.83H182.996Z" fill="#0054A7"/>
<path d="M187.166 198.85C185.366 198.5 183.176 199.15 181.666 200.25C180.166 201.35 180.346 203.34 180.706 204.53C181.136 205.97 182.886 207.29 184.066 207.42C186.106 207.65 187.456 205.14 187.746 206.53C188.036 207.92 188.006 207.68 188.396 209.22C188.786 210.75 189.896 211.46 190.416 212.02C190.846 212.48 190.626 213.03 190.456 213.84C190.176 215.16 193.676 215.02 195.046 214.73C197.016 214.31 198.406 213.02 196.736 211.97C195.456 211.16 195.436 211.77 194.506 211.44C193.576 211.1 193.236 209.61 193.436 208.86C193.636 208.11 193.626 205.41 193.066 204.38C192.716 203.72 192.426 203.28 192.366 201.86C192.306 200.44 188.756 199.21 187.166 198.86V198.85Z" fill="#FEDC5E"/>
<path d="M161.696 204.81C162.286 203.44 164.436 199.25 164.896 198.58C165.946 197.05 168.836 195.04 170.036 194.42C171.136 193.84 170.796 193.43 170.816 192.8C170.846 192.17 169.636 192.66 168.696 193.05C167.756 193.45 166.576 194.23 165.446 195.38C164.316 196.53 162.516 198.74 161.546 200.36C160.696 201.79 160.116 202.35 159.476 203.89C159.266 204.41 161.616 204.96 161.686 204.81H161.696Z" fill="#62C0B4"/>
<path d="M181.396 168.5C181.186 167.75 179.446 167.06 177.496 166.7C175.546 166.34 171.456 165.78 169.576 166.81C167.696 167.84 167.156 168.54 167.736 170.36C168.316 172.18 169.996 177.19 170.986 178.07C171.976 178.95 174.426 176.22 176.536 174.46C178.646 172.7 181.716 169.61 181.406 168.5H181.396Z" fill="url(#paint9_linear_425_2810)"/>
<path d="M182.006 167.62C183.166 168.58 184.226 169.66 183.026 170.99C181.826 172.32 176.666 175.03 175.316 176.98C173.966 178.93 173.626 179.59 172.936 180.38C172.236 181.17 171.136 179.32 170.696 178.5C170.246 177.68 170.636 177.39 171.536 176.5C172.446 175.61 177.236 170.84 178.246 169.85C179.256 168.86 181.136 166.9 182.006 167.62Z" fill="url(#paint10_linear_425_2810)"/>
<path d="M171.006 195.48C175.146 195.78 175.596 196.11 179.776 196.05C183.956 195.99 186.806 194.66 187.436 195.77C188.066 196.87 187.186 197.75 188.146 198.34C189.906 199.42 190.956 198.05 192.666 200.03C194.376 202.01 194.616 207.04 194.916 208.17C195.386 209.91 196.606 210.81 193.166 211.62C190.166 212.33 188.586 212.71 188.146 210.96C187.706 209.21 186.676 206.4 185.136 207.95C183.596 209.49 182.996 209.35 182.856 211.95C182.716 214.55 183.916 219.72 181.806 220.09C179.686 220.46 177.496 220.97 176.156 221.01C174.816 221.05 174.216 217.75 174.506 215.49C174.796 213.23 174.996 209.88 173.246 208.26C171.496 206.63 169.226 204.97 169.446 202.21C169.666 199.45 168.866 195.33 171.016 195.49L171.006 195.48Z" fill="url(#paint11_linear_425_2810)"/>
<path d="M171.166 199.09C172.446 199.68 172.956 199.87 173.566 199.7C174.166 199.53 175.656 199.26 176.556 199.12C177.456 198.98 177.936 199.28 177.866 199.78C177.796 200.28 177.046 200.25 175.836 200.78C174.626 201.31 175.316 201.47 175.776 202.01C176.246 202.55 179.006 204.41 179.476 205.04C179.946 205.68 180.616 206.35 180.146 206.87C179.676 207.39 178.836 206.21 178.316 206.29C177.806 206.37 177.976 206.88 177.876 207.67C177.776 208.46 177.336 208.23 176.526 208.09C175.716 207.95 175.696 207.73 175.076 208.06C174.456 208.38 174.286 208.24 173.766 207.86C173.246 207.48 172.526 205.91 171.806 204.62C171.086 203.33 171.156 202.83 169.876 202.52C169.796 202.5 169.216 202.38 168.626 202.01C167.336 200.82 168.726 199.3 169.976 198.79C170.456 198.83 170.956 198.99 171.156 199.08L171.166 199.09Z" fill="#FFDBB0"/>
<path d="M170.186 195.33C171.756 195.54 172.936 197.36 173.886 198.04C174.696 198.62 174.296 200.14 173.416 202.2C172.536 204.25 171.776 205.43 170.046 204.01C168.676 202.9 166.426 201.05 166.306 199.76C166.176 198.39 168.356 195.1 170.186 195.34V195.33Z" fill="#ED7980"/>
<path d="M213.546 221.16C213.436 221.28 213.356 221.42 213.286 221.58C212.276 224.06 211.636 227.18 210.996 228.15C210.296 230.47 209.136 233.81 208.646 235.29C208.156 236.76 207.166 237.42 210.016 238.88C211.426 239.6 212.106 240.16 212.756 240.5C213.986 234.81 218.246 227.46 216.176 223.41C215.686 222.46 214.856 221.69 213.546 221.17V221.16Z" fill="#F18E38"/>
<path d="M212.756 240.5C213.416 240.85 214.056 240.96 215.406 240.78C217.386 240.52 225.366 242.1 228.506 241.3C231.646 240.5 231.866 241.62 232.696 236.92C233.526 232.22 233.626 224.94 233.646 224.48C233.646 224.41 233.576 224.27 233.456 224.1C227.796 223.61 221.926 224.1 216.166 223.4C218.236 227.45 213.986 234.8 212.746 240.49L212.756 240.5Z" fill="#D16E24"/>
<path d="M225.696 220.83C220.876 220.96 215.086 219.34 213.546 221.16C214.856 221.68 215.686 222.45 216.176 223.4C221.936 224.09 227.796 223.61 233.466 224.1C232.766 223.1 230.076 220.71 225.706 220.82L225.696 220.83Z" fill="#F18E38"/>
<path d="M220.056 224.34C220.596 222.57 221.136 220.81 221.666 219.04C222.146 217.45 222.696 215.93 224.346 215.23C225.796 214.61 227.606 215.03 228.606 216.26C229.576 217.46 229.996 219.24 230.146 220.75C230.336 222.53 230.096 224.32 229.486 226C229.356 226.35 229.916 226.22 230.006 225.97C230.616 224.31 230.866 222.53 230.706 220.76C230.556 219.12 230.136 217.19 229.076 215.88C228.096 214.67 226.406 214.19 224.906 214.56C223.426 214.93 222.236 216.07 221.666 217.46C221.236 218.52 220.956 219.67 220.626 220.76C220.256 221.96 219.896 223.16 219.526 224.36C219.416 224.72 219.966 224.59 220.046 224.33L220.056 224.34Z" fill="#D16E24"/>
<path d="M219.676 220.71C220.086 219.57 220.496 218.44 220.906 217.3C221.276 216.27 221.716 215.31 223.296 214.95C224.686 214.64 226.496 215.04 227.566 215.92C228.606 216.78 229.136 217.99 229.396 219C229.696 220.19 229.596 221.37 229.096 222.44C228.996 222.66 229.536 222.62 229.606 222.45C230.096 221.39 230.216 220.22 229.946 219.04C229.696 217.94 229.146 216.63 228.006 215.69C226.956 214.82 225.256 214.38 223.806 214.53C222.376 214.68 221.276 215.35 220.806 216.24C220.446 216.92 220.256 217.66 219.996 218.36C219.716 219.13 219.436 219.9 219.156 220.68C219.076 220.91 219.606 220.86 219.666 220.69L219.676 220.71Z" fill="#D16E24"/>
<path d="M226.436 211.17C226.356 211.79 224.626 211.86 223.836 213.81C223.306 215.13 223.276 217.45 224.626 218.55C225.976 219.65 228.456 219.3 229.266 218.55C229.636 218.21 230.046 218.51 230.856 216.4C231.126 215.69 230.696 214.87 230.036 213.57C229.486 212.51 232.306 209.49 228.486 208.42C227.536 208.15 226.486 210.85 226.446 211.16L226.436 211.17Z" fill="#FFDBB0"/>
<path d="M238.236 167.17C235.906 167.83 232.556 173.86 231.476 178.68C230.396 183.5 226.306 206.49 225.716 208.44C225.126 210.39 224.236 210.95 227.376 211.94C230.506 212.93 232.996 215.91 233.316 213.93C233.636 211.95 235.396 201.2 236.566 194.25C237.736 187.3 240.966 171.35 240.476 169.99C239.986 168.63 240.976 166.38 238.236 167.16V167.17Z" fill="url(#paint12_linear_425_2810)"/>
<path d="M243.616 162.85C243.806 162.85 246.226 163.04 246.466 163.01C246.556 163.43 246.856 164.95 247.086 165.46C247.316 165.97 248.996 168.88 249.226 169.14C246.546 171.59 242.796 171.27 240.996 169.05C241.486 168.8 242.966 166.04 243.166 165.04C243.316 164.3 243.616 163.13 243.616 162.85Z" fill="#FFDBB0"/>
<path d="M252.616 158.2C253.696 153.42 253.176 147.41 247.646 146.54C242.116 145.67 239.406 151.55 238.886 156.42C238.676 156.1 237.796 155.9 237.666 156.69C237.606 157.06 237.666 157.77 237.996 158.38C238.386 159.08 239.056 159.21 239.346 159.41C239.446 160.67 239.976 161.87 240.456 162.58C241.146 163.6 242.966 165.2 244.756 165.54C246.186 165.81 248.206 164.73 249.316 163.81C250.366 162.94 251.046 162.06 251.596 161.17C251.926 161.07 252.546 161.09 253.156 160.57C253.686 160.12 254.216 158.73 253.946 158.36C253.536 157.79 252.766 158.07 252.596 158.2H252.616Z" fill="#FFDBB0"/>
<path d="M249.726 144.35C249.396 143.79 247.646 142.55 245.646 142.96C243.646 143.37 242.436 144.21 241.936 145.22C241.436 146.24 240.346 147.42 239.026 148.06C237.706 148.7 237.786 153.19 238.236 154.54C238.696 155.89 238.596 156.47 238.976 156.53C239.356 156.59 238.956 155.89 239.346 155.7C239.736 155.51 240.146 152 240.896 151.06C241.646 150.12 242.226 150.73 242.886 151.11C243.756 151.61 245.306 149.44 246.126 151.31C246.616 152.43 248.176 151.56 248.586 150.9C248.996 150.24 249.696 150.04 250.116 150.54C250.336 150.81 250.616 151.88 250.736 152.9C250.866 153.92 251.836 155.49 252.376 155.87C252.906 156.25 252.676 156.51 252.606 157.12C252.546 157.73 252.316 158.88 253.246 157.46C254.176 156.04 255.516 152.72 255.596 150.72C255.676 148.72 254.036 145.95 252.526 145.62C251.016 145.29 249.946 145.11 249.706 144.34L249.726 144.35Z" fill="url(#paint13_linear_425_2810)"/>
<path d="M223.666 299.07C228.616 298.69 224.786 294.06 227.176 289.8C227.176 289.8 229.986 287.78 230.676 289.67C231.206 291.11 231.876 296.62 232.066 300.39C229.166 301.57 225.886 301 223.666 299.07Z" fill="#0054A7"/>
<path d="M223.626 299.07C223.626 299.07 223.646 299.07 223.656 299.07C225.886 301 229.166 301.57 232.056 300.39C232.116 301.57 232.126 302.58 232.076 303.24C231.856 306.02 222.796 306.15 218.786 303.85C214.196 301.21 215.436 299.67 223.616 299.08L223.626 299.07Z" fill="#0054A7"/>
<path d="M258.986 296.33C258.566 293.8 258.796 290.44 258.796 288C256.386 286.19 254.586 286.19 254.386 291.21C254.186 296.22 253.586 298.83 250.576 300.44C250.546 300.45 250.526 300.47 250.496 300.49C253.576 300.33 256.816 298.72 258.986 296.34V296.33Z" fill="#0054A7"/>
<path d="M258.986 296.33C256.816 298.71 253.576 300.32 250.496 300.48C247.526 302.08 244.986 304.05 246.966 305.05C248.976 306.05 251.776 305.85 254.386 304.45C256.996 303.05 260.806 300.84 259.596 298.43C259.306 297.85 259.116 297.13 258.976 296.33H258.986Z" fill="#0054A7"/>
<path d="M233.966 208.68C233.736 209.73 230.656 237.64 229.756 240.35C228.856 243.06 225.716 294.96 225.716 295.79C225.716 296.62 228.186 297.36 229.166 297.36C230.146 297.36 232.176 297.78 232.716 296.21C234.076 292.24 245.106 238.93 245.256 237.35C245.406 235.77 246.086 234.19 246.236 237.35C246.386 240.51 253.586 294.15 253.816 294.68C254.046 295.21 257.956 294.82 258.866 294.82C259.776 294.82 259.806 294.65 260.366 292.07C261.136 288.52 263.376 255.7 263.306 253.07C263.236 250.44 262.106 211.19 261.206 209.49C260.306 207.79 233.976 208.7 233.976 208.7L233.966 208.68Z" fill="url(#paint14_linear_425_2810)"/>
<path d="M240.536 167.17C243.566 167.25 244.266 168.46 247.326 168.27C250.386 168.07 253.606 167.48 255.616 171.76C257.626 176.05 255.906 208.79 256.066 211.28C256.226 213.77 258.266 215.55 251.296 214.66C244.326 213.77 243.716 213.23 239.736 214.07C235.756 214.9 232.836 217.21 233.806 208.5C234.776 199.8 234.496 177.74 235.616 174.21C236.736 170.68 236.306 167.06 240.536 167.17Z" fill="#0054A7"/>
<path d="M241.796 166.63C238.576 165.59 236.546 168.57 235.386 170.81C233.456 174.56 234.076 182.75 234.046 185.85C234.016 188.58 233.606 199.27 233.146 203.52C232.336 210.85 228.426 231.44 227.946 237.67C227.656 241.38 236.106 240.89 238.856 238.89C241.266 237.14 239.306 221.34 239.556 217.47C240.986 195.01 241.366 176.6 241.526 171.23C241.546 170.47 242.296 166.79 241.806 166.63H241.796Z" fill="url(#paint15_linear_425_2810)"/>
<path d="M271.476 212.7C271.566 213.38 274.656 213.7 275.106 215.18C275.556 216.67 275.976 219.9 274.516 221.1C273.056 222.3 270.886 221.3 270.346 221.32C269.806 221.34 268.206 221.22 267.846 220.48C267.486 219.74 266.836 216.74 267.566 215.33C268.166 214.17 265.456 212.34 269.616 211.18C270.656 210.89 271.436 212.37 271.476 212.71V212.7Z" fill="#FFDBB0"/>
<path d="M260.706 195.89C262.186 195.86 263.436 205.34 265.136 211.02C266.016 213.96 266.376 215.01 269.536 214.26C272.776 213.49 272.986 213.13 272.766 211.68C271.736 204.93 268.776 187.78 266.166 181.9C264.066 177.17 260.706 172.85 257.556 170.53C257.296 170.34 257.036 170.15 256.776 169.99C254.076 168.27 251.566 167.5 250.716 167.5C250.716 167.5 248.136 166.53 247.966 168.33C247.156 176.89 247.006 214.9 247.316 224.24C247.396 226.38 247.056 238.41 249.536 239.17C256.786 241.39 271.226 241.13 269.696 234.69C268.906 231.39 262.406 213.29 261.596 210.42C261.186 208.96 260.676 206.57 260.156 203.13C259.666 199.87 260.366 195.95 260.716 195.9L260.706 195.89Z" fill="url(#paint16_linear_425_2810)"/>
<path d="M22.6557 103.25H38.8357L34.9657 95.05C34.9657 95.05 44.5957 90.45 49.3257 85.25C56.1657 77.73 58.4657 68.92 58.2157 57.22C57.9857 46.51 54.5657 38.31 44.0857 32.38C34.1057 26.74 20.8457 28.51 11.7257 36.03C3.52566 42.79 0.495663 48.34 0.105663 55.86C-0.574337 68.85 1.92566 77.96 10.5857 85.48C20.6657 94.24 21.0957 93.46 27.6757 95.28C25.4257 97.79 22.6657 103.26 22.6657 103.26L22.6557 103.25Z" fill="url(#paint17_linear_425_2810)"/>
<path d="M27.2657 196.02L24.8857 195.51C31.9957 162.05 29.4657 156.76 25.9657 149.45C25.3357 148.14 24.6857 146.78 24.0457 145.18C19.7957 134.66 21.3257 127.14 22.4357 121.65L22.6057 120.79C23.1357 118.16 24.5157 114.62 25.9857 110.87C27.7457 106.38 29.7357 101.29 30.3457 97.37L32.7457 97.75C32.0957 101.94 30.1357 106.93 28.2457 111.76C26.8157 115.4 25.4757 118.84 24.9857 121.27L24.8057 122.14C23.6957 127.62 22.3057 134.44 26.2857 144.28C26.9057 145.81 27.5357 147.13 28.1457 148.41C31.8557 156.16 34.5457 161.76 27.2557 196.03L27.2657 196.02Z" fill="#B3B3B3"/>
<path d="M78.8657 154.63L86.7957 155.51L85.4757 145.28L82.3857 145.39L78.8657 154.63Z" fill="#62C0B4"/>
<path d="M83.1557 147.48C85.3557 147.45 91.5157 146.38 95.4857 142.97C99.4457 139.56 104.396 131.97 103.956 124.04C103.516 116.12 100.326 100.27 85.9057 99.39C71.4857 98.51 67.1957 107.86 65.5457 110.95C63.8957 114.04 59.4557 122.14 63.0157 133.29C67.1057 146.11 78.0157 147.56 83.1557 147.49V147.48Z" fill="url(#paint18_linear_425_2810)"/>
<path d="M76.1057 216.48L73.9357 215.6C83.5457 191.87 82.3957 186.27 81.0657 179.79C80.8557 178.78 80.6457 177.74 80.4657 176.6C79.6157 171.21 80.1057 163.03 81.9257 152.28L82.0057 151.79L84.3157 152.17L84.2357 152.66C82.4557 163.16 81.9657 171.08 82.7757 176.22C82.9457 177.3 83.1557 178.32 83.3557 179.3C84.7557 186.15 85.9757 192.07 76.0957 216.46L76.1057 216.48Z" fill="#B3B3B3"/>
<defs>
<linearGradient id="paint0_linear_425_2810" x1="409.366" y1="103.23" x2="450.616" y2="103.23" gradientUnits="userSpaceOnUse">
<stop stop-color="#3684E4"/>
<stop offset="0.19" stop-color="#3986E4"/>
<stop offset="0.38" stop-color="#458FE5"/>
<stop offset="0.56" stop-color="#599CE7"/>
<stop offset="0.75" stop-color="#76B0E9"/>
<stop offset="0.94" stop-color="#99C9EC"/>
<stop offset="1" stop-color="#A8D3EE"/>
</linearGradient>
<linearGradient id="paint1_linear_425_2810" x1="280.156" y1="110.63" x2="328.076" y2="110.63" gradientUnits="userSpaceOnUse">
<stop stop-color="#ED7980"/>
<stop offset="1" stop-color="#F6BCBF"/>
</linearGradient>
<linearGradient id="paint2_linear_425_2810" x1="223.616" y1="73.75" x2="263.206" y2="73.75" gradientUnits="userSpaceOnUse">
<stop offset="0.34" stop-color="#62C0B4"/>
<stop offset="0.4" stop-color="#69C4B5"/>
<stop offset="0.64" stop-color="#85D2BA"/>
<stop offset="0.84" stop-color="#96DABC"/>
<stop offset="1" stop-color="#9CDEBE"/>
</linearGradient>
<linearGradient id="paint3_linear_425_2810" x1="170.366" y1="21.96" x2="219.446" y2="21.96" gradientUnits="userSpaceOnUse">
<stop stop-color="#F18E38"/>
<stop offset="1" stop-color="#FFBD32"/>
</linearGradient>
<linearGradient id="paint4_linear_425_2810" x1="348.996" y1="120.94" x2="393.096" y2="120.94" gradientUnits="userSpaceOnUse">
<stop stop-color="#FFAB28"/>
<stop offset="0.07" stop-color="#FEB533"/>
<stop offset="0.21" stop-color="#FEC646"/>
<stop offset="0.38" stop-color="#FED253"/>
<stop offset="0.59" stop-color="#FED95B"/>
<stop offset="1" stop-color="#FEDC5E"/>
</linearGradient>
<linearGradient id="paint5_linear_425_2810" x1="183.036" y1="164.63" x2="201.356" y2="164.63" gradientUnits="userSpaceOnUse">
<stop stop-color="#51A7DD"/>
<stop offset="0.03" stop-color="#4DA3DA"/>
<stop offset="0.3" stop-color="#2C81C4"/>
<stop offset="0.57" stop-color="#1368B4"/>
<stop offset="0.8" stop-color="#0559AA"/>
<stop offset="1" stop-color="#0054A7"/>
</linearGradient>
<linearGradient id="paint6_linear_425_2810" x1="165.096" y1="256.23" x2="201.396" y2="256.23" gradientUnits="userSpaceOnUse">
<stop stop-color="#51A7DD"/>
<stop offset="0.03" stop-color="#4DA3DA"/>
<stop offset="0.3" stop-color="#2C81C4"/>
<stop offset="0.57" stop-color="#1368B4"/>
<stop offset="0.8" stop-color="#0559AA"/>
<stop offset="1" stop-color="#0054A7"/>
</linearGradient>
<linearGradient id="paint7_linear_425_2810" x1="188.146" y1="200.47" x2="220.936" y2="200.47" gradientUnits="userSpaceOnUse">
<stop stop-color="#ED7980"/>
<stop offset="1" stop-color="#F6BCBF"/>
</linearGradient>
<linearGradient id="paint8_linear_425_2810" x1="169.056" y1="194.25" x2="192.666" y2="194.25" gradientUnits="userSpaceOnUse">
<stop stop-color="#FFAB28"/>
<stop offset="0.07" stop-color="#FEB533"/>
<stop offset="0.21" stop-color="#FEC646"/>
<stop offset="0.38" stop-color="#FED253"/>
<stop offset="0.59" stop-color="#FED95B"/>
<stop offset="1" stop-color="#FEDC5E"/>
</linearGradient>
<linearGradient id="paint9_linear_425_2810" x1="167.506" y1="172.23" x2="181.426" y2="172.23" gradientUnits="userSpaceOnUse">
<stop stop-color="#FFAB28"/>
<stop offset="0.07" stop-color="#FEB533"/>
<stop offset="0.21" stop-color="#FEC646"/>
<stop offset="0.38" stop-color="#FED253"/>
<stop offset="0.59" stop-color="#FED95B"/>
<stop offset="1" stop-color="#FEDC5E"/>
</linearGradient>
<linearGradient id="paint10_linear_425_2810" x1="170.506" y1="174.02" x2="183.556" y2="174.02" gradientUnits="userSpaceOnUse">
<stop stop-color="#FFAB28"/>
<stop offset="0.07" stop-color="#FEB533"/>
<stop offset="0.21" stop-color="#FEC646"/>
<stop offset="0.38" stop-color="#FED253"/>
<stop offset="0.59" stop-color="#FED95B"/>
<stop offset="1" stop-color="#FEDC5E"/>
</linearGradient>
<linearGradient id="paint11_linear_425_2810" x1="169.416" y1="208.16" x2="195.516" y2="208.16" gradientUnits="userSpaceOnUse">
<stop stop-color="#3684E4"/>
<stop offset="0.19" stop-color="#3986E4"/>
<stop offset="0.38" stop-color="#458FE5"/>
<stop offset="0.56" stop-color="#599CE7"/>
<stop offset="0.75" stop-color="#76B0E9"/>
<stop offset="0.94" stop-color="#99C9EC"/>
<stop offset="1" stop-color="#A8D3EE"/>
</linearGradient>
<linearGradient id="paint12_linear_425_2810" x1="225.126" y1="190.8" x2="240.526" y2="190.8" gradientUnits="userSpaceOnUse">
<stop stop-color="#FFAB28"/>
<stop offset="0.07" stop-color="#FEB533"/>
<stop offset="0.21" stop-color="#FEC646"/>
<stop offset="0.38" stop-color="#FED253"/>
<stop offset="0.59" stop-color="#FED95B"/>
<stop offset="1" stop-color="#FEDC5E"/>
</linearGradient>
<linearGradient id="paint13_linear_425_2810" x1="237.936" y1="150.51" x2="255.616" y2="150.51" gradientUnits="userSpaceOnUse">
<stop stop-color="#51A7DD"/>
<stop offset="0.03" stop-color="#4DA3DA"/>
<stop offset="0.3" stop-color="#2C81C4"/>
<stop offset="0.57" stop-color="#1368B4"/>
<stop offset="0.8" stop-color="#0559AA"/>
<stop offset="1" stop-color="#0054A7"/>
</linearGradient>
<linearGradient id="paint14_linear_425_2810" x1="225.716" y1="252.92" x2="263.296" y2="252.92" gradientUnits="userSpaceOnUse">
<stop offset="0.34" stop-color="#62C0B4"/>
<stop offset="0.4" stop-color="#69C4B5"/>
<stop offset="0.64" stop-color="#85D2BA"/>
<stop offset="0.84" stop-color="#96DABC"/>
<stop offset="1" stop-color="#9CDEBE"/>
</linearGradient>
<linearGradient id="paint15_linear_425_2810" x1="227.926" y1="203.43" x2="241.966" y2="203.43" gradientUnits="userSpaceOnUse">
<stop stop-color="#FFAB28"/>
<stop offset="0.07" stop-color="#FEB533"/>
<stop offset="0.21" stop-color="#FEC646"/>
<stop offset="0.38" stop-color="#FED253"/>
<stop offset="0.59" stop-color="#FED95B"/>
<stop offset="1" stop-color="#FEDC5E"/>
</linearGradient>
<linearGradient id="paint16_linear_425_2810" x1="247.156" y1="203.83" x2="272.826" y2="203.83" gradientUnits="userSpaceOnUse">
<stop stop-color="#FFAB28"/>
<stop offset="0.07" stop-color="#FEB533"/>
<stop offset="0.21" stop-color="#FEC646"/>
<stop offset="0.38" stop-color="#FED253"/>
<stop offset="0.59" stop-color="#FED95B"/>
<stop offset="1" stop-color="#FEDC5E"/>
</linearGradient>
<linearGradient id="paint17_linear_425_2810" x1="-0.00433654" y1="66.16" x2="58.2257" y2="66.16" gradientUnits="userSpaceOnUse">
<stop stop-color="#F18E38"/>
<stop offset="1" stop-color="#FFBD32"/>
</linearGradient>
<linearGradient id="paint18_linear_425_2810" x1="61.6757" y1="123.4" x2="103.986" y2="123.4" gradientUnits="userSpaceOnUse">
<stop offset="0.34" stop-color="#62C0B4"/>
<stop offset="0.4" stop-color="#69C4B5"/>
<stop offset="0.64" stop-color="#85D2BA"/>
<stop offset="0.84" stop-color="#96DABC"/>
<stop offset="1" stop-color="#9CDEBE"/>
</linearGradient>
</defs>
</svg>
