<svg width="517" height="316" viewBox="0 0 517 316" fill="none" xmlns="http://www.w3.org/2000/svg">
<path d="M365.636 99.14C315.076 83.06 273.776 48.21 249.366 1.02L251.336 0C275.476 46.67 316.306 81.13 366.316 97.03C416.316 112.93 469.556 108.39 516.216 84.25L517.236 86.22C470.046 110.64 416.206 115.22 365.636 99.14Z" fill="#0054A7"/>
<path d="M472.306 97.6898L471.926 98.4598C483.046 106.81 494.556 116.3 506.056 123.88C507.896 110.5 513.936 96.3398 513.096 82.5898C500.146 89.5298 486.036 93.0398 472.306 97.6998V97.6898Z" fill="url(#paint0_linear_425_2565)"/>
<path d="M344.616 88.5299L343.466 88.1699C339.856 103.5 350.376 118.25 353.256 133.11C366.306 123.95 376.616 109.49 390.636 101.27C375.276 95.7499 360.156 93.4799 344.616 88.5399V88.5299Z" fill="url(#paint1_linear_425_2565)"/>
<path d="M302.096 58.1202C301.646 57.7202 292.736 50.9102 292.736 50.9102C286.596 64.0702 290.976 82.2302 286.176 96.5902C293.316 94.0802 300.356 89.8502 306.596 86.5302C312.836 83.2102 320.426 81.0902 325.766 76.9602C317.016 73.1502 309.286 64.5802 302.096 58.1202Z" fill="url(#paint2_linear_425_2565)"/>
<path d="M292.356 72.6002C292.506 72.5002 292.656 72.3002 292.776 71.9502C293.266 71.4302 293.786 70.9302 294.276 70.4102C295.496 69.1102 296.556 67.5702 297.746 66.2202C299.516 64.2002 300.336 61.7402 301.356 59.3002C301.656 58.5902 300.076 58.5702 299.806 59.2202C298.346 62.6802 296.856 65.2002 294.376 68.0402C293.196 69.3902 291.366 70.9902 290.536 72.6102C290.466 72.7502 290.426 72.9002 290.516 73.0402C290.546 73.0902 290.576 73.1302 290.606 73.1802C290.786 73.4502 291.116 73.5102 291.416 73.4702C291.546 73.4602 291.676 73.4502 291.806 73.4302C292.446 73.3602 292.586 72.8902 292.356 72.5802V72.6002Z" fill="white"/>
<path d="M290.356 92.5303C292.836 88.1303 296.126 84.4603 299.446 80.6303C303.206 76.2903 305.906 71.1303 309.876 66.9903C310.556 66.2803 309.146 65.8503 308.656 66.3703C305.166 70.0203 302.796 74.4703 299.596 78.3503C295.456 83.3603 291.076 87.7603 288.136 93.6203C287.756 94.3803 289.066 94.5503 289.466 94.1103C289.746 93.8003 290.026 93.4803 290.306 93.1703C290.546 92.9103 290.506 92.6903 290.346 92.5303H290.356Z" fill="white"/>
<path d="M316.756 72.6101C317.406 71.8701 316.006 71.4501 315.536 71.9901C311.996 76.0401 309.266 80.7201 305.736 84.7801C305.096 85.5201 306.486 85.9401 306.956 85.4001C310.486 81.3401 313.206 76.6601 316.756 72.6101Z" fill="white"/>
<path d="M254.316 2.34984L253.656 1.33984C241.186 10.9598 240.056 29.0498 232.936 42.3998C248.836 43.5198 265.956 38.7798 282.016 41.2398C273.576 27.2798 263.266 15.9798 254.316 2.34984Z" fill="url(#paint3_linear_425_2565)"/>
<path d="M248.386 8.58008C255.726 18.4201 261.906 29.0301 268.926 39.0901C269.316 39.6601 270.856 39.4201 270.346 38.6901C263.336 28.6301 257.156 18.0101 249.806 8.18008C249.396 7.63008 247.856 7.88008 248.386 8.58008Z" fill="white"/>
<path d="M242.916 18.7298C247.096 26.4498 252.796 33.1698 257.676 40.4398C258.046 40.9998 259.566 40.7398 259.086 40.0298C254.216 32.7598 248.516 26.0398 244.326 18.3198C244.006 17.7298 242.496 17.9698 242.906 18.7298H242.916Z" fill="white"/>
<path d="M239.256 28.9996C239.256 31.2196 240.946 33.3396 242.176 35.0496C243.846 37.3696 245.776 39.6396 247.916 41.5496C248.446 42.0196 249.846 41.5496 249.126 40.8996C247.406 39.3596 245.896 37.5796 244.466 35.7696C243.106 34.0596 240.836 31.4896 240.846 29.1796C240.846 28.4296 239.266 28.2596 239.266 28.9896L239.256 28.9996Z" fill="white"/>
<path d="M412.166 103.49L411.556 104.09C419.326 115.62 427.086 128.36 435.466 139.29C441.586 127.25 451.936 115.85 455.656 102.59C441.146 104.9 426.656 103.59 412.166 103.49Z" fill="url(#paint4_linear_425_2565)"/>
<path d="M425.066 114.27C425.206 114.27 425.346 114.27 425.486 114.27C426.656 114.27 427.706 113.23 428.056 112.18C428.356 111.24 428.026 110.06 426.876 110.05C426.736 110.05 426.596 110.05 426.456 110.05C425.286 110.05 424.236 111.09 423.896 112.14C423.586 113.08 423.916 114.26 425.076 114.27H425.066Z" fill="white"/>
<path d="M440.716 113.11C440.856 113.11 440.996 113.11 441.136 113.11C442.306 113.11 443.356 112.07 443.696 111.02C444.006 110.08 443.676 108.9 442.516 108.89C442.376 108.89 442.236 108.89 442.096 108.89C440.926 108.89 439.876 109.93 439.536 110.98C439.226 111.92 439.556 113.1 440.716 113.11Z" fill="white"/>
<path d="M435.516 125.87C435.516 126.01 435.516 126.15 435.516 126.29C435.516 127.35 436.186 128.11 437.306 127.82C438.356 127.55 439.476 126.4 439.486 125.26C439.486 125.12 439.486 124.97 439.486 124.83C439.486 123.77 438.816 123.01 437.686 123.3C436.646 123.57 435.516 124.73 435.506 125.86L435.516 125.87Z" fill="white"/>
<path d="M432.606 120.12C432.746 120.12 432.886 120.12 433.026 120.12C434.196 120.13 435.246 119.09 435.586 118.03C435.896 117.09 435.556 115.91 434.406 115.9C434.266 115.9 434.126 115.9 433.986 115.9C432.806 115.9 431.766 116.94 431.416 117.99C431.116 118.93 431.436 120.11 432.596 120.12H432.606Z" fill="white"/>
<path d="M281.326 253.53C284.116 253.48 284.966 253.18 287.646 253.59C290.316 254 292.086 253.35 291.776 254.79C291.576 255.72 294.006 258.97 290.846 259.2C287.686 259.43 285.456 257.54 281.816 256.44C278.176 255.33 277.806 253.59 281.326 253.53Z" fill="#0054A7"/>
<path d="M290.906 305.9C290.986 304.92 291.526 302.5 290.746 300.6C289.966 298.71 290.106 298.98 289.346 297.31C288.586 295.65 288.536 294.59 288.736 292.89C288.936 291.19 288.636 289.57 287.616 287.97C286.596 286.36 285.516 286.24 283.486 286.28C281.456 286.31 281.666 288.16 281.566 290.53C281.466 292.04 281.416 293.37 282.386 294.89C283.356 296.41 283.986 298.2 284.166 299.16C284.446 300.66 285.816 303.4 286.346 304.17C286.916 305 287.206 305.17 287.986 306.61C288.576 307.72 290.796 307.24 290.906 305.91V305.9Z" fill="url(#paint5_linear_425_2565)"/>
<path d="M286.866 307.41C286.476 308.6 285.736 308.37 285.186 310.38C284.466 313.03 286.986 313.69 289.296 312.77C290.916 312.13 294.486 309.69 293.046 308.15C292.446 307.51 292.106 306.9 291.846 306.38C291.386 305.04 292.036 303.27 291.406 303.01C290.416 302.61 285.086 303.04 285.516 304.04C285.706 304.48 287.126 306.61 286.866 307.4V307.41Z" fill="#0054A7"/>
<path d="M277.486 290.27C277.446 288.17 271.866 288.56 270.396 292.34C269.676 294.19 269.146 296.23 268.816 297.19C268.296 298.69 268.506 301.47 268.426 303.4C268.386 304.45 268.286 306.65 267.306 307.23C267.306 307.23 267.286 307.23 267.286 307.24C266.306 308.69 270.556 310.15 271.556 308.24C271.576 307.99 271.626 307.76 271.776 307.53C272.296 306.69 273.436 305.57 273.736 303.39C274.046 301.21 274.016 301.54 274.226 299.57C274.436 297.6 274.916 296.65 275.936 295.3C276.956 293.95 277.526 292.34 277.486 290.25V290.27Z" fill="url(#paint6_linear_425_2565)"/>
<path d="M267.216 306.44C266.256 307.26 265.716 306.68 264.186 308.11C262.176 309.99 264.056 311.8 266.566 312.19C268.326 312.46 272.746 312.19 272.276 310.17C272.076 309.33 272.096 308.65 272.136 308.07C272.426 306.71 273.916 305.53 273.496 305C272.836 304.17 269.116 303.02 268.376 303.15C267.896 303.23 267.846 305.89 267.206 306.43L267.216 306.44Z" fill="#0054A7"/>
<path d="M269.466 276.55C270.696 275.74 275.356 275.84 278.056 275.53C280.676 275.23 282.006 275.66 284.866 274.97C287.106 274.43 286.496 277 289.096 282.18C290.806 285.61 295.266 290.43 293.926 291.6C292.586 292.78 289.266 294.34 287.386 293.83C285.506 293.32 284.906 293.17 282.706 294.25C280.796 295.2 277.546 294.24 274.996 294.02C272.866 293.84 271.516 294 269.856 294.41C266.666 295.19 264.236 294.14 263.706 293.71C262.926 293.09 262.936 290.01 265.656 286.08C268.376 282.14 267.966 278.17 269.476 276.55H269.466Z" fill="#62C0B4"/>
<path d="M295.016 267.59C296.106 268.48 296.626 268.13 297.656 268.04C298.676 267.95 299.216 267.4 300.876 267.94C301.106 268.02 302.576 267.8 302.346 268.85C302.106 269.97 301.936 270.2 301.066 270.54C300.356 270.82 300.146 270.52 300.076 270.99C299.976 271.61 297.696 272.27 295.966 271.87C295.116 271.79 295.246 270.38 294.296 270.17C294.116 270.13 293.356 269 292.596 268.61C292.936 267.82 293.696 267.44 294.066 266.68C294.456 266.96 294.896 267.48 295.026 267.59H295.016Z" fill="#FEDC5E"/>
<path d="M265.826 245.05C265.296 244.28 265.106 243.96 265.156 243.54C265.206 243.12 265.446 242.07 265.196 241.51C264.776 240.54 264.016 240.84 263.606 240.59C263.196 240.34 262.766 240.24 262.296 240C261.826 239.76 261.106 239.69 260.816 240.06C260.526 240.43 259.846 240.34 259.856 240.69C259.866 241.04 259.936 241.43 259.426 241.59C258.916 241.74 259.116 242.01 259.296 242.53C259.476 243.05 259.626 243.04 259.486 243.48C259.346 243.92 259.456 244.02 259.766 244.32C260.076 244.62 261.186 244.92 262.116 245.24C263.046 245.57 263.596 245.83 263.946 246.63C263.966 246.68 264.006 246.75 264.066 246.85C264.816 246.46 265.596 246.12 266.386 245.73C266.116 245.41 265.916 245.17 265.836 245.05H265.826Z" fill="#FEDC5E"/>
<path d="M286.166 266.08C286.466 265.54 288.756 267.63 292.806 270.59C293.976 271.45 296.296 268.27 296.446 267.01C296.656 265.27 291.036 261.24 288.306 258.75C286.656 257.24 284.476 255.63 281.766 253.95C279.616 252.62 278.226 252.4 277.176 252.35C275.896 252.29 274.916 253.16 273.716 252.99C272.316 252.84 267.366 242.16 265.886 244.17C264.966 245.42 262.976 246.8 262.926 247.18C262.786 248.23 265.526 252.95 266.506 254.38C267.186 255.37 268.476 260.37 268.266 262.67C268.106 264.45 267.616 270.85 265.516 275.87C264.326 278.7 260.176 289.83 261.956 290.61C265.116 292.01 272.506 290.01 278.296 291.55C282.856 292.76 294.006 290.04 294.516 289.39C295.866 287.97 291.916 277.28 289.166 272.46C287.286 269.15 285.746 266.84 286.166 266.08Z" fill="url(#paint7_linear_425_2565)"/>
<path d="M281.996 254.15C280.076 255.21 278.076 255.14 276.776 254.41C275.476 253.68 274.476 252.61 273.746 251.29C273.256 250.07 273.206 248.59 273.326 248.04C273.436 247.53 273.696 247 274.036 246.54C274.826 245.47 273.976 245.02 276.136 243.17C276.796 242.61 280.226 240.27 283.846 242.06C287.026 243.63 286.006 251.95 281.996 254.16V254.15Z" fill="#FFDBB0"/>
<path d="M275.806 241.59C276.176 241.13 277.616 240.37 278.936 240.54C280.566 240.74 281.096 239.79 282.696 240.32C284.926 241.07 286.636 242.63 287.106 243.44C288.106 245.17 287.796 246.22 287.916 247.3C288.146 249.27 290.836 254.48 283.286 255.49C282.586 255.58 281.946 254.96 282.046 253.6C282.296 251.98 283.176 252.3 283.886 251.86C284.616 251.41 284.706 249.89 283.636 250.02C282.756 250.12 282.686 249.61 282.646 247.82C282.606 245.63 273.276 246.39 275.796 241.6L275.806 241.59Z" fill="url(#paint8_linear_425_2565)"/>
<path d="M262.456 247.78C263.016 248.9 262.946 249.4 264.526 248.43C266.106 247.46 269.066 246.36 268.616 245.43C268.166 244.5 267.316 242.96 266.266 243.32C265.216 243.68 262.386 246.01 262.056 246.32C261.526 246.81 262.296 247.45 262.456 247.78Z" fill="#F18E38"/>
<path d="M296.716 265.92C295.886 264.98 295.826 264.48 294.556 265.83C293.286 267.18 290.716 269 291.386 269.78C292.056 270.56 293.276 271.83 294.196 271.2C295.116 270.57 297.246 267.6 297.486 267.21C297.866 266.6 296.956 266.18 296.716 265.91V265.92Z" fill="#F18E38"/>
<path d="M275.426 261.07C275.036 261.07 274.716 261.05 274.476 260.96C274.356 260.92 274.296 260.78 274.336 260.66C274.366 260.59 274.416 260.54 274.486 260.52C274.446 260.49 274.426 260.45 274.406 260.4C274.376 260.27 274.456 260.15 274.576 260.12C275.096 259.99 276.166 259.81 276.846 259.94C277.256 260.02 277.686 260.28 277.656 260.62C277.636 260.9 277.356 261.04 276.816 261.05C276.576 261.05 276.346 261.06 276.136 261.07C275.876 261.07 275.636 261.09 275.416 261.09L275.426 261.07ZM274.736 260.55C275.056 260.62 275.556 260.61 276.126 260.59C276.346 260.59 276.576 260.58 276.816 260.57C276.966 260.57 277.066 260.55 277.126 260.54C277.056 260.49 276.926 260.42 276.756 260.39C276.246 260.29 275.366 260.4 274.736 260.55Z" fill="#F18E38"/>
<path d="M275.306 259.89C275.346 260.72 275.496 261.46 274.966 261.45C273.606 261.42 273.316 260.44 273.876 259.92C274.416 259.41 275.286 259.46 275.306 259.9V259.89Z" fill="#62C0B4"/>
<path d="M278.016 261.11C277.806 261.11 277.576 261.1 277.336 261.09C276.806 261.09 276.526 260.94 276.496 260.66C276.466 260.33 276.896 260.06 277.306 259.98C277.986 259.85 279.056 260.03 279.576 260.16C279.706 260.19 279.776 260.32 279.746 260.44C279.736 260.49 279.706 260.53 279.666 260.56C279.736 260.58 279.796 260.63 279.816 260.7C279.856 260.82 279.796 260.95 279.676 261C279.426 261.09 279.106 261.11 278.726 261.11C278.506 261.11 278.266 261.11 278.006 261.09L278.016 261.11ZM277.396 260.44C277.226 260.47 277.096 260.54 277.026 260.59C277.086 260.6 277.186 260.62 277.336 260.62C277.576 260.62 277.806 260.63 278.026 260.64C278.596 260.66 279.096 260.67 279.416 260.6C278.786 260.45 277.906 260.34 277.396 260.44Z" fill="#F18E38"/>
<path d="M278.856 259.95C278.816 260.78 278.666 261.52 279.196 261.51C280.556 261.48 280.846 260.5 280.286 259.98C279.746 259.47 278.876 259.52 278.856 259.96V259.95Z" fill="#62C0B4"/>
<path d="M277.656 258.52C277.816 258.31 278.586 258.71 278.606 259.31C278.606 259.51 277.726 260.74 277.166 261.28C276.596 261.82 275.906 262.07 275.996 261.41C276.086 260.74 276.996 259.41 277.656 258.52Z" fill="#0054A7"/>
<path d="M275.076 268.02C274.686 268.02 274.366 268 274.126 267.91C274.006 267.87 273.946 267.73 273.986 267.61C274.016 267.54 274.066 267.49 274.136 267.47C274.096 267.44 274.066 267.4 274.056 267.35C274.026 267.22 274.106 267.1 274.226 267.07C274.746 266.94 275.816 266.76 276.496 266.89C276.906 266.97 277.336 267.23 277.306 267.57C277.286 267.85 277.006 267.99 276.466 268C276.226 268 275.996 268.01 275.786 268.02C275.526 268.02 275.286 268.04 275.066 268.04L275.076 268.02ZM274.386 267.5C274.706 267.57 275.206 267.56 275.776 267.54C275.996 267.54 276.226 267.53 276.466 267.52C276.616 267.52 276.716 267.5 276.776 267.49C276.706 267.44 276.576 267.37 276.406 267.34C275.896 267.24 275.016 267.35 274.386 267.5Z" fill="#F18E38"/>
<path d="M274.956 266.84C274.996 267.67 275.146 268.41 274.616 268.4C273.256 268.37 272.966 267.39 273.526 266.87C274.066 266.36 274.936 266.41 274.956 266.85V266.84Z" fill="#62C0B4"/>
<path d="M277.656 268.071C277.446 268.071 277.216 268.061 276.976 268.051C276.446 268.051 276.166 267.901 276.136 267.621C276.106 267.291 276.536 267.021 276.946 266.941C277.626 266.811 278.696 266.991 279.216 267.121C279.346 267.151 279.416 267.281 279.386 267.401C279.376 267.451 279.346 267.491 279.306 267.521C279.376 267.541 279.436 267.591 279.456 267.661C279.496 267.781 279.436 267.911 279.316 267.961C279.066 268.051 278.746 268.071 278.366 268.071C278.146 268.071 277.906 268.071 277.646 268.051L277.656 268.071ZM277.036 267.401C276.866 267.431 276.736 267.501 276.666 267.551C276.726 267.561 276.826 267.581 276.976 267.581C277.216 267.581 277.446 267.591 277.666 267.601C278.236 267.621 278.736 267.631 279.056 267.561C278.426 267.411 277.546 267.301 277.036 267.401Z" fill="#F18E38"/>
<path d="M278.496 266.9C278.456 267.73 278.306 268.47 278.836 268.46C280.196 268.43 280.486 267.45 279.926 266.93C279.386 266.42 278.516 266.47 278.496 266.91V266.9Z" fill="#62C0B4"/>
<path d="M277.306 265.47C277.466 265.26 278.236 265.66 278.256 266.26C278.256 266.46 277.376 267.69 276.816 268.23C276.246 268.77 275.556 269.02 275.646 268.36C275.736 267.69 276.656 266.36 277.306 265.47Z" fill="#0054A7"/>
<path d="M274.866 275.91C274.476 275.91 274.156 275.89 273.916 275.8C273.796 275.76 273.736 275.62 273.776 275.5C273.806 275.43 273.856 275.38 273.926 275.36C273.886 275.33 273.856 275.29 273.846 275.24C273.816 275.11 273.896 274.99 274.016 274.96C274.536 274.83 275.606 274.65 276.286 274.78C276.696 274.86 277.126 275.12 277.096 275.46C277.076 275.74 276.796 275.88 276.256 275.89C276.016 275.89 275.786 275.9 275.576 275.91C275.316 275.91 275.076 275.93 274.856 275.93L274.866 275.91ZM274.176 275.39C274.496 275.46 274.996 275.45 275.566 275.43C275.786 275.43 276.016 275.42 276.256 275.41C276.406 275.41 276.506 275.39 276.566 275.38C276.496 275.33 276.366 275.26 276.196 275.23C275.686 275.13 274.806 275.24 274.176 275.39Z" fill="#F18E38"/>
<path d="M274.746 274.72C274.786 275.55 274.936 276.29 274.406 276.28C273.046 276.25 272.756 275.27 273.316 274.75C273.856 274.24 274.726 274.29 274.746 274.73V274.72Z" fill="#62C0B4"/>
<path d="M277.456 275.95C277.246 275.95 277.016 275.94 276.776 275.93C276.246 275.93 275.966 275.78 275.936 275.5C275.906 275.17 276.336 274.9 276.746 274.82C277.426 274.69 278.496 274.87 279.016 275C279.146 275.03 279.216 275.16 279.186 275.28C279.176 275.33 279.146 275.37 279.106 275.4C279.176 275.42 279.236 275.47 279.256 275.54C279.296 275.66 279.236 275.79 279.116 275.84C278.866 275.93 278.546 275.95 278.166 275.95C277.946 275.95 277.706 275.95 277.446 275.93L277.456 275.95ZM276.836 275.28C276.666 275.31 276.536 275.38 276.466 275.43C276.526 275.44 276.626 275.46 276.776 275.46C277.016 275.46 277.246 275.47 277.466 275.48C278.036 275.5 278.536 275.51 278.856 275.44C278.226 275.29 277.346 275.18 276.836 275.28Z" fill="#F18E38"/>
<path d="M278.296 274.78C278.256 275.61 278.106 276.35 278.636 276.34C279.996 276.31 280.286 275.33 279.726 274.81C279.186 274.3 278.316 274.35 278.296 274.79V274.78Z" fill="#62C0B4"/>
<path d="M277.096 273.36C277.256 273.15 278.026 273.55 278.046 274.15C278.046 274.35 277.166 275.58 276.606 276.12C276.036 276.66 275.346 276.91 275.436 276.25C275.526 275.58 276.446 274.25 277.096 273.36Z" fill="#0054A7"/>
<path d="M208.766 307.63C208.586 304.11 209.636 300.22 209.146 298.87C208.506 297.1 204.486 298.19 204.486 298.19C202.256 302.17 204.016 305.2 200.166 305.43C192.526 305.89 192.096 308.39 196.386 310.85C200.126 313 208.586 312.87 208.796 310.28C208.846 309.66 208.836 308.72 208.776 307.62L208.766 307.63Z" fill="#0054A7"/>
<path d="M233.786 306C233.576 305.43 233.066 303.97 232.936 303.23C232.546 300.87 232.086 298.33 232.086 296.06C229.836 294.37 228.156 294.37 227.966 299.06C227.776 303.74 227.236 304.36 224.636 305.92C221.926 307.54 219.186 311.06 221.036 311.99C222.906 312.93 225.416 312.5 227.966 311.43C230.606 310.32 234.966 309.15 233.786 306.02V306Z" fill="#0054A7"/>
<path d="M232.776 187.28C231.076 188.38 228.476 188.02 227.166 186.89C224.366 184.48 229.016 183.46 229.886 182.18C230.526 181.24 231.236 179.36 231.896 178.75C232.556 178.14 233.266 173.94 234.856 177.64C235.276 178.61 234.746 179.46 235.266 181.27C235.426 181.83 236.436 182.6 235.926 183.47C235.316 184.51 234.336 184.35 234.076 185C233.816 185.65 234.376 186.59 232.776 187.27V187.28Z" fill="#0054A7"/>
<path d="M226.766 184.56C226.606 184.56 224.526 184.72 224.326 184.7C224.246 185.06 223.986 186.37 223.786 186.8C223.586 187.24 222.146 189.73 221.956 189.95C224.256 192.05 227.446 192.48 228.996 190.57C228.576 190.35 227.336 187.29 227.156 186.43C227.026 185.8 226.766 184.79 226.766 184.56Z" fill="#FFDBB0"/>
<path d="M220.236 182.21C221.096 184.76 222.926 186.31 224.656 186.67C226.386 187.03 228.116 186.82 229.796 186.15C231.186 185.38 232.396 184.02 232.726 183.4C233.026 182.83 233.226 182.11 233.286 181.4C233.426 179.74 234.546 180 234.076 176.5C233.936 175.44 232.736 170.44 228.126 169.22C224.076 168.14 218.426 176.86 220.236 182.2V182.21Z" fill="#FFDBB0"/>
<path d="M229.336 174.89C231.116 172.71 233.766 179.24 234.446 177.81C236.266 174 232.086 169.64 230.246 168.85C227.686 167.76 220.526 169.07 218.816 172.55C217.456 175.32 218.066 176.47 216.356 177.56C215.376 178.18 215.706 179.68 216.076 181.06C216.596 183.04 214.336 182.78 215.656 184.36C217.296 186.32 219.626 186.03 221.276 185.39C222.556 184.9 221.836 181.76 220.836 180.94C219.496 179.21 219.886 178.65 220.306 178.1C220.726 177.55 221.846 177.33 222.066 177.93C223.146 180.91 222.666 178.04 223.526 177.55C225.866 176.22 224.476 179.05 229.346 174.89H229.336Z" fill="url(#paint9_linear_425_2565)"/>
<path d="M253.566 225.38C255.056 227.53 256.096 230.48 256.776 231.13C257.456 231.78 259.156 233.68 260.236 234.9C260.676 235.4 260.836 236.4 261.076 238.41C261.186 239.3 260.016 238.37 259.696 239.37C259.146 241.05 258.436 240.09 257.986 240.39C257.216 240.91 257.006 241.07 256.516 239.93C256.026 238.79 255.846 238 255.746 237.43C255.646 236.87 255.316 236.06 254.846 236.99C254.376 237.92 254.056 238.41 253.346 238.56C252.626 238.71 252.356 238.23 253.056 237.16C253.596 235.75 253.346 233.77 253.456 232.91C253.566 232.05 252.666 231.33 251.606 229.84C250.546 228.35 252.096 223.23 253.586 225.38H253.566Z" fill="#FFDBB0"/>
<path d="M210.286 225.77C210.086 226.71 207.346 251.52 206.536 253.93C205.726 256.34 200.826 302.3 200.826 303.04C200.826 303.78 205.136 304.63 206.006 304.63C206.876 304.63 210.516 305.26 210.996 303.86C212.206 300.33 218.926 259.56 219.066 258.15C219.196 256.75 221.156 254.64 221.286 257.45C221.416 260.26 225.766 302.11 225.966 302.57C226.166 303.04 234.006 304.28 234.496 301.99C235.176 298.83 236.426 267.58 236.366 265.24C236.306 262.9 235.296 227.99 234.496 226.48C233.696 224.97 210.286 225.77 210.286 225.77Z" fill="url(#paint10_linear_425_2565)"/>
<path d="M217.466 191.25C219.106 189.76 221.096 188.68 221.796 188.24C223.106 187.41 221.846 186.26 225.466 186.8C229.306 187.36 227.336 188.44 228.976 189.22C229.696 189.56 232.876 190.47 234.436 192.88C237.216 196.04 233.836 202.41 234.706 208.26C234.616 208.75 234.706 210.21 234.776 211.12C234.906 212.59 235.376 224.97 235.916 227.51C236.456 230.05 236.456 230.79 235.446 230.52C234.446 230.25 233.706 229.58 232.166 229.52C230.626 229.45 219.996 230.06 218.316 229.88C216.646 229.7 210.566 230.23 210.566 229.5C210.566 228.93 211.846 217.52 213.076 211.67C214.746 203.78 215.446 193.48 217.466 191.26V191.25Z" fill="white"/>
<path d="M209.486 220.74C208.356 219.84 203.406 216.53 202.126 215.25C197.826 210.95 199.746 202.08 202.596 198.53C204.556 196.09 208.826 193.29 214.736 189.9C216.076 189.13 220.246 187.12 222.786 188.61C223.276 188.9 219.106 202.94 218.736 205.91C218.546 222.07 216.376 237.52 215.446 239.57C214.506 243.66 213.626 247.6 212.286 247.87C210.946 248.14 205.356 248.64 204.806 247.64C204.086 246.33 205.096 241.1 207.146 233.85C208.156 230.27 210.426 221.5 209.486 220.76V220.74Z" fill="#ED7980"/>
<path d="M229.196 189.18C229.926 188.85 233.486 189.37 234.556 190.04C235.396 190.4 237.766 192.25 239.236 194.25C240.706 196.26 247.726 208.17 249.226 210.67C250.066 212.07 258.776 227.88 257.876 229.72C257.636 230.2 252.076 233.81 250.626 233.11C250.216 232.91 238.286 214.97 236.836 215.69C236.466 215.87 237.226 226.42 237.496 227.7C238.036 230.24 239.866 245.93 238.476 248.53C236.506 252.21 234.056 250.7 232.516 250.63C231.356 250.58 224.126 252.35 221.996 247.71C221.876 241.13 221.646 236.84 222.116 224.56C222.356 218.14 228.986 189.25 229.206 189.15L229.196 189.18Z" fill="url(#paint11_linear_425_2565)"/>
<path d="M231.866 214C231.926 211.5 231.936 208.83 231.856 206.84C231.736 204.23 231.826 201.72 231.826 201.38C231.826 201.23 231.916 200.64 231.226 200.55L226.516 199.71L223.546 199.19L220.716 198.69C220.266 198.61 219.536 198.68 219.096 198.84L215.396 200.17L212.106 201.35L206.406 203.39C206.106 203.5 206.086 203.86 206.086 203.95C206.036 204.64 205.916 206.87 205.876 207.88C205.806 210 205.766 212.8 205.726 216.96C205.716 218.73 205.876 219.82 207.126 220.33C207.586 220.52 208.936 220.87 210.566 221.22C211.176 221.36 211.826 221.5 212.476 221.63C214.776 222.09 217.116 222.47 217.996 222.41C219.036 222.34 222.486 220.69 225.526 219.21C226.206 218.88 226.866 218.57 227.466 218.28C228.796 217.64 229.886 217.13 230.396 216.97C232.186 216.4 231.846 215.04 231.876 214.02L231.866 214Z" fill="#51A7DD"/>
<path d="M226.516 199.72C226.456 200.08 226.186 200.38 225.826 200.49C225.236 200.66 224.106 201.04 222.746 201.53C222.626 201.58 222.506 201.63 222.376 201.67C221.326 202.05 220.166 202.49 219.026 202.93C216.936 203.74 214.906 204.56 213.726 205.12C213.456 205.25 213.226 205.36 213.056 205.45C212.736 207.32 212.626 214.16 212.566 217.95C212.536 219.65 212.516 220.99 212.486 221.63C211.836 221.5 211.186 221.36 210.576 221.22C210.596 220.52 210.616 219.35 210.636 217.92C210.736 211.59 210.856 206.22 211.256 204.68C211.256 204.63 211.276 204.6 211.286 204.56C211.346 204.37 211.466 204.19 211.636 204.07C212.116 203.72 213.556 203.06 215.336 202.33C215.436 202.28 215.526 202.25 215.636 202.2C216.656 201.79 217.776 201.34 218.876 200.93C220.596 200.27 222.286 199.65 223.546 199.21L226.516 199.73V199.72Z" fill="#FEDC5E"/>
<path d="M227.296 210.16C227.056 205.51 226.696 203.61 226.206 202.81C225.936 202.37 225.616 202.26 225.266 202.22C224.906 202.19 223.786 201.96 222.366 201.67C222.266 201.65 222.156 201.62 222.056 201.61H222.046C221.066 201.4 219.956 201.17 218.876 200.93C218.166 200.78 217.446 200.62 216.786 200.48C216.306 200.38 215.836 200.27 215.406 200.18L212.116 201.36C212.226 201.44 212.356 201.51 212.506 201.53C213.206 201.68 214.326 201.92 215.626 202.2C215.726 202.22 215.816 202.24 215.916 202.26C216.066 202.29 216.216 202.32 216.376 202.36C217.306 202.56 218.186 202.75 219.006 202.93C220.746 203.3 222.236 203.62 223.316 203.84C223.886 203.95 224.336 204.03 224.656 204.08C225.336 205.88 225.636 215.01 225.506 219.2C226.186 218.87 226.846 218.56 227.446 218.27C227.476 216.15 227.416 212.95 227.276 210.15L227.296 210.16Z" fill="#FEDC5E"/>
<path d="M217.826 206.54C217.546 206.54 215.556 206.21 214.556 206.03C214.456 206.01 214.396 205.92 214.416 205.82C214.436 205.72 214.526 205.66 214.626 205.68C215.916 205.91 217.626 206.18 217.836 206.18C218.376 206.18 220.936 205.25 221.896 204.91C221.986 204.88 222.086 204.93 222.126 205.02C222.156 205.11 222.116 205.21 222.016 205.25C219.506 206.15 218.256 206.53 217.846 206.54H217.826Z" fill="#FEDC5E"/>
<path d="M218.036 220.33C217.916 220.33 217.826 220.2 217.836 220.05C217.866 219.21 217.846 216.73 217.836 214.34C217.826 211.85 217.806 209.5 217.836 208.68C217.836 208.53 217.926 208.42 218.056 208.42C218.176 208.42 218.266 208.55 218.256 208.7C218.226 209.5 218.246 211.96 218.256 214.33C218.266 216.73 218.286 219.21 218.256 220.07C218.256 220.21 218.156 220.33 218.046 220.33H218.036Z" fill="#FEDC5E"/>
<path d="M210.776 204.84C210.756 204.92 210.696 204.97 210.646 204.95C210.356 204.86 209.496 204.67 208.656 204.49C207.786 204.3 206.966 204.12 206.686 204.03C206.636 204.01 206.606 203.95 206.636 203.86C206.656 203.78 206.716 203.73 206.766 203.75C207.046 203.83 207.896 204.02 208.726 204.2C209.566 204.38 210.426 204.57 210.726 204.66C210.776 204.67 210.796 204.75 210.786 204.82L210.776 204.84Z" fill="#FEDC5E"/>
<path d="M231.136 201.33C231.166 201.41 231.136 201.48 231.096 201.5C230.806 201.59 229.996 201.94 229.206 202.27C228.386 202.61 227.606 202.94 227.336 203.03C227.286 203.05 227.226 203.01 227.196 202.92C227.166 202.84 227.196 202.77 227.236 202.75C227.506 202.66 228.316 202.32 229.096 202C229.886 201.67 230.706 201.33 230.996 201.23C231.046 201.21 231.106 201.26 231.136 201.33Z" fill="#FEDC5E"/>
<path d="M217.876 195.07C218.456 195.29 218.416 197.68 218.976 199.51C219.416 200.94 219.566 201.79 219.336 201.93C219.156 202.04 216.746 200.5 216.536 200.32C216.076 199.92 212.866 197.72 212.606 197.42C212.306 197.08 212.716 195.87 214.476 194.88C215.316 194.41 217.526 194.52 217.876 195.07Z" fill="#FEDC5E"/>
<path d="M221.416 195.29C220.836 195.53 220.466 197.96 219.636 199.84C218.976 201.31 218.696 202.18 218.886 202.32C219.036 202.43 221.556 200.79 221.786 200.61C222.286 200.19 225.666 197.86 225.956 197.55C226.296 197.19 226.116 195.97 224.636 195.01C223.936 194.55 221.846 194.73 221.426 195.3L221.416 195.29Z" fill="#FEDC5E"/>
<path d="M211.196 199.46C211.156 197.17 211.156 194.72 211.196 192.9C211.266 190.51 211.216 188.21 211.216 187.9C211.216 187.76 211.156 187.22 211.596 187.14L214.586 186.37L216.476 185.89L218.266 185.43C218.556 185.36 219.016 185.42 219.286 185.57L221.636 186.78L223.726 187.86L227.346 189.73C227.536 189.83 227.546 190.16 227.546 190.24C227.576 190.87 227.656 192.92 227.676 193.84C227.716 195.78 227.746 198.34 227.776 202.16C227.776 203.78 227.676 204.78 226.886 205.24C226.596 205.41 225.736 205.74 224.706 206.06C224.316 206.18 223.906 206.31 223.496 206.43C222.036 206.85 220.556 207.2 219.996 207.14C219.336 207.08 217.146 205.56 215.216 204.2C214.786 203.9 214.366 203.61 213.986 203.35C213.146 202.76 212.456 202.29 212.126 202.15C210.996 201.63 211.206 200.38 211.186 199.44L211.196 199.46Z" fill="#FEDC5E"/>
<path d="M214.596 186.38C214.636 186.71 214.806 186.99 215.036 187.08C215.416 187.23 216.126 187.58 216.986 188.03C217.066 188.08 217.146 188.12 217.226 188.16C217.896 188.51 218.626 188.91 219.346 189.32C220.666 190.06 221.956 190.82 222.706 191.32C222.876 191.44 223.016 191.54 223.126 191.63C223.326 193.35 223.396 199.61 223.436 203.08C223.456 204.64 223.466 205.87 223.486 206.45C223.896 206.33 224.306 206.2 224.696 206.08C224.686 205.44 224.676 204.36 224.656 203.06C224.586 197.26 224.516 192.34 224.266 190.93C224.266 190.89 224.256 190.85 224.246 190.82C224.206 190.64 224.136 190.48 224.026 190.37C223.716 190.05 222.806 189.44 221.676 188.77C221.616 188.73 221.556 188.69 221.486 188.65C220.836 188.27 220.136 187.87 219.426 187.48C218.336 186.87 217.266 186.31 216.466 185.91L214.576 186.39L214.596 186.38Z" fill="#62C0B4"/>
<path d="M213.996 203.36C214.376 203.63 214.796 203.91 215.226 204.21C215.146 200.37 215.336 192.01 215.766 190.36C215.976 190.31 216.256 190.24 216.616 190.14C217.306 189.94 218.246 189.65 219.346 189.31C219.866 189.14 220.426 188.97 221.016 188.79C221.116 188.76 221.216 188.73 221.306 188.7C221.366 188.68 221.426 188.66 221.486 188.64C222.306 188.38 223.026 188.16 223.466 188.03C223.556 188.01 223.646 187.95 223.716 187.87L221.626 186.79C221.346 186.87 221.056 186.97 220.746 187.06C220.326 187.19 219.876 187.33 219.426 187.47C218.736 187.69 218.036 187.91 217.416 188.09C217.346 188.11 217.286 188.13 217.216 188.15C216.316 188.42 215.606 188.63 215.376 188.66C215.156 188.7 214.956 188.79 214.776 189.2C214.466 189.93 214.236 191.68 214.086 195.93C213.996 198.49 213.966 201.42 213.976 203.36H213.996Z" fill="#62C0B4"/>
<path d="M220.106 192.62C220.286 192.62 221.546 192.32 222.176 192.16C222.236 192.14 222.276 192.06 222.266 191.97C222.256 191.88 222.196 191.82 222.136 191.84C221.316 192.05 220.236 192.3 220.106 192.3C219.766 192.3 218.146 191.45 217.536 191.14C217.476 191.11 217.416 191.15 217.396 191.24C217.376 191.32 217.396 191.42 217.466 191.45C219.056 192.27 219.846 192.63 220.116 192.63L220.106 192.62Z" fill="#62C0B4"/>
<path d="M219.966 205.25C220.036 205.25 220.096 205.13 220.096 204.99C220.076 204.22 220.096 201.95 220.096 199.76C220.096 197.48 220.116 195.32 220.096 194.57C220.096 194.43 220.036 194.33 219.956 194.34C219.886 194.34 219.826 194.46 219.826 194.6C219.846 195.34 219.826 197.59 219.826 199.76C219.826 201.96 219.806 204.23 219.826 205.02C219.826 205.15 219.886 205.25 219.956 205.25H219.966Z" fill="#62C0B4"/>
<path d="M224.576 191.07C224.586 191.14 224.626 191.19 224.656 191.17C224.836 191.09 225.386 190.92 225.916 190.75C226.466 190.58 226.986 190.41 227.166 190.33C227.196 190.32 227.216 190.26 227.196 190.18C227.186 190.11 227.146 190.06 227.116 190.08C226.946 190.16 226.396 190.33 225.876 190.49C225.346 190.66 224.796 190.83 224.606 190.91C224.576 190.92 224.556 190.99 224.566 191.06L224.576 191.07Z" fill="#62C0B4"/>
<path d="M211.666 187.84C211.646 187.91 211.666 187.98 211.696 187.99C211.876 188.08 212.396 188.39 212.896 188.69C213.416 189 213.906 189.3 214.086 189.38C214.116 189.4 214.156 189.36 214.176 189.28C214.196 189.21 214.176 189.14 214.146 189.13C213.976 189.05 213.456 188.74 212.966 188.44C212.466 188.14 211.946 187.82 211.756 187.74C211.726 187.73 211.686 187.77 211.666 187.83V187.84Z" fill="#62C0B4"/>
<path d="M220.076 182.11C219.706 182.31 219.736 184.5 219.376 186.17C219.096 187.48 219.006 188.26 219.146 188.39C219.256 188.49 220.786 187.08 220.926 186.92C221.216 186.56 223.256 184.54 223.416 184.26C223.606 183.94 223.346 182.84 222.236 181.93C221.706 181.5 220.306 181.6 220.076 182.11Z" fill="#62C0B4"/>
<path d="M217.826 182.32C218.196 182.54 218.426 184.77 218.956 186.49C219.376 187.83 219.546 188.63 219.436 188.76C219.346 188.86 217.746 187.36 217.596 187.19C217.276 186.81 215.136 184.67 214.956 184.39C214.746 184.06 214.856 182.94 215.796 182.06C216.246 181.64 217.566 181.8 217.836 182.33L217.826 182.32Z" fill="#62C0B4"/>
<path d="M207.166 211.97C207.986 212.32 208.856 212.77 209.446 212.64C210.036 212.51 211.476 212.36 212.346 212.28C213.216 212.2 213.656 212.52 213.566 213C213.476 213.47 212.756 213.4 211.566 213.83C210.376 214.26 211.026 214.46 211.436 215.01C211.846 215.56 214.376 217.51 214.786 218.15C215.196 218.79 215.796 219.47 215.316 219.94C214.836 220.41 214.096 219.22 213.606 219.27C213.116 219.32 213.246 219.82 213.096 220.57C212.956 221.32 212.536 221.07 211.776 220.89C211.006 220.71 211.006 220.5 210.386 220.77C209.776 221.04 209.616 220.89 209.146 220.49C208.676 220.09 208.076 218.55 207.476 217.26C206.866 215.98 206.966 215.51 205.766 215.13C205.696 215.11 204.856 214.84 204.546 214.34C204.156 213.72 205.366 211.2 206.096 211.57C206.506 211.78 206.986 211.9 207.176 211.99L207.166 211.97Z" fill="#FFDBB0"/>
<path d="M206.066 209.4C209.106 210.83 209.456 212.21 208.636 213.84C207.816 215.48 207.276 218.72 205.976 218.17C203.876 217.26 201.816 215.88 201.946 213.06C202.036 211.04 203.206 208.06 206.066 209.41V209.4Z" fill="#ED7980"/>
<path d="M301.556 208.5C302.096 207.01 304.096 202.46 304.536 201.74C305.546 200.06 308.466 197.76 309.686 197.03C310.816 196.35 310.416 195.94 310.406 195.27C310.396 194.6 309.156 195.19 308.186 195.67C307.216 196.15 306.026 197.05 304.906 198.33C303.796 199.62 302.036 202.05 301.116 203.83C300.306 205.39 299.726 206.02 299.166 207.68C298.976 208.24 301.496 208.67 301.546 208.5H301.556Z" fill="#0054A7"/>
<path d="M314.096 210.98C312.436 210.54 311.006 210.16 310.336 210.01C309.286 209.76 303.366 208.32 303.236 208.26C303.066 208.23 302.516 208.1 301.756 207.94C300.546 214.84 299.246 222.15 298.406 229.24C299.116 229.39 299.836 229.54 300.606 229.73C301.716 230.01 303.886 230.8 306.016 231.34C308.476 224.43 311.226 217.9 314.096 210.98Z" fill="#FEDC5E"/>
<path d="M314.096 210.98C311.236 217.9 308.486 224.43 306.016 231.34C306.536 231.47 307.046 231.58 307.546 231.67C310.746 225.21 312.626 218.03 316.296 211.57C315.546 211.37 314.806 211.16 314.096 210.97V210.98Z" fill="#0054A7"/>
<path d="M322.406 213.39C321.906 213.15 319.116 212.34 316.296 211.57C312.626 218.02 310.746 225.21 307.546 231.67C309.206 231.97 310.666 232 311.386 231.35C312.456 230.37 314.796 226.85 315.876 225.04C316.856 223.4 318.676 220.23 320.146 218.27C321.066 217.06 323.226 213.79 322.406 213.4V213.39Z" fill="#FEDC5E"/>
<path d="M292.366 206.34C290.616 207.04 291.436 217.15 291.616 219.78C291.786 222.34 291.936 227.2 294.186 228.08C294.946 228.38 295.666 228.59 296.376 228.77C298.066 222.04 298.136 214.27 299.216 207.37C296.196 206.73 292.586 206.02 292.366 206.34Z" fill="url(#paint12_linear_425_2565)"/>
<path d="M298.976 216.19L311.676 219.43L311.166 221.43L298.866 218.3L298.976 216.19Z" fill="#0054A7"/>
<path d="M299.216 207.37C298.136 214.27 298.066 222.04 296.376 228.77C297.056 228.94 297.726 229.08 298.416 229.23C299.266 222.14 300.556 214.83 301.766 207.93C301.056 207.77 300.166 207.58 299.216 207.37Z" fill="#0054A7"/>
<path d="M308.086 191.9C307.286 190.65 307.006 190.14 307.096 189.48C307.186 188.82 307.236 187.23 307.256 186.27C307.266 185.31 306.876 184.85 306.366 184.99C305.856 185.13 305.996 185.92 305.616 187.26C305.236 188.6 304.976 187.91 304.336 187.5C303.696 187.09 301.346 184.48 300.616 184.08C299.886 183.68 299.086 183.08 298.606 183.65C298.136 184.22 299.496 184.93 299.486 185.47C299.486 186.02 298.916 185.91 298.106 186.13C297.296 186.35 297.606 186.78 297.866 187.61C298.126 188.44 298.366 188.43 298.116 189.12C297.876 189.82 298.046 189.97 298.526 190.46C298.996 190.95 300.746 191.47 302.206 192.02C303.666 192.58 304.526 193.01 305.036 194.3C305.066 194.38 305.126 194.5 305.216 194.65C306.416 194.07 307.676 193.57 308.936 192.98C308.516 192.46 308.216 192.07 308.096 191.87L308.086 191.9Z" fill="#FFDBB0"/>
<path d="M355.056 219.99C355.976 222.71 356.166 226.15 356.686 227.04C357.206 227.93 358.416 230.46 359.196 232.08C359.506 232.74 359.366 233.85 359.006 236.05C358.846 237.02 357.896 235.69 357.246 236.64C356.156 238.25 355.696 237.02 355.126 237.2C354.156 237.51 353.886 237.62 353.716 236.26C353.546 234.9 353.596 234.01 353.666 233.39C353.736 232.77 353.626 231.81 352.846 232.65C352.066 233.49 351.586 233.91 350.776 233.85C349.966 233.79 349.836 233.2 350.896 232.28C351.896 230.96 352.236 228.78 352.616 227.91C352.996 227.04 352.266 225.99 351.596 224.1C350.926 222.21 354.136 217.27 355.056 219.99Z" fill="#FFDBB0"/>
<path d="M334.796 175.54C334.626 175.54 332.336 175.71 332.116 175.69C332.026 176.08 331.746 177.52 331.526 178C331.306 178.48 329.726 181.23 329.506 181.47C332.036 183.78 335.566 183.48 337.276 181.38C336.816 181.14 335.426 178.54 335.226 177.6C335.086 176.9 334.796 175.8 334.796 175.54Z" fill="#FFDBB0"/>
<path d="M329.266 169.57C329.916 165.12 332.466 160.16 337.846 161.3C343.226 162.43 343.706 168.38 342.506 172.71C342.806 172.51 343.686 172.64 343.536 173.36C343.466 173.7 343.166 174.29 342.646 174.69C342.046 175.15 341.386 175.04 341.056 175.11C340.526 176.15 339.626 177 338.946 177.44C337.956 178.08 335.736 178.83 333.966 178.5C332.556 178.24 331.066 176.64 330.366 175.47C329.706 174.37 329.376 173.38 329.176 172.44C328.906 172.24 328.326 172.05 327.946 171.4C327.616 170.84 327.606 169.47 327.976 169.24C328.556 168.89 329.156 169.4 329.266 169.56V169.57Z" fill="#FFDBB0"/>
<path d="M336.696 158.73C337.196 158.37 339.236 157.9 340.936 158.93C342.636 159.96 343.466 161.09 343.566 162.13C343.676 163.17 344.266 164.55 345.266 165.54C346.266 166.53 344.646 170.35 343.756 171.34C342.866 172.34 342.766 172.87 342.396 172.79C342.026 172.71 342.636 172.25 342.346 171.95C342.056 171.66 342.876 168.52 342.516 167.46C342.156 166.4 341.406 166.73 340.666 166.83C339.696 166.96 339.016 164.58 337.616 165.9C336.776 166.69 335.646 165.42 335.496 164.71C335.346 164 334.776 163.6 334.216 163.89C333.916 164.04 333.296 164.87 332.836 165.69C332.376 166.51 330.926 167.53 330.306 167.67C329.686 167.81 329.816 168.12 329.666 168.66C329.516 169.2 329.326 170.26 328.956 168.73C328.586 167.2 328.496 163.91 329.106 162.18C329.716 160.44 332.186 158.64 333.676 158.87C335.166 159.1 336.226 159.31 336.706 158.73H336.696Z" fill="url(#paint13_linear_425_2565)"/>
<path d="M306.596 309.3C311.436 308.92 307.696 304.4 310.036 300.23C310.036 300.23 312.786 298.25 313.456 300.11C313.966 301.52 314.626 306.91 314.816 310.6C311.986 311.75 308.766 311.19 306.596 309.31V309.3Z" fill="#FFDBB0"/>
<path d="M306.556 309.31C306.556 309.31 306.576 309.31 306.586 309.31C308.766 311.19 311.976 311.75 314.806 310.6C314.866 311.75 314.876 312.74 314.826 313.38C314.606 316.1 305.746 316.23 301.826 313.98C297.336 311.4 298.556 309.89 306.546 309.31H306.556Z" fill="#0054A7"/>
<path d="M341.146 306.62C340.736 304.14 340.966 300.86 340.966 298.47C338.616 296.7 336.846 296.7 336.646 301.61C336.446 306.52 335.866 309.07 332.916 310.64C332.886 310.65 332.866 310.67 332.836 310.68C335.846 310.52 339.016 308.95 341.146 306.62Z" fill="#FFDBB0"/>
<path d="M341.146 306.62C339.026 308.95 335.846 310.52 332.836 310.68C329.926 312.24 327.436 314.18 329.386 315.15C331.346 316.13 334.096 315.93 336.646 314.56C339.196 313.19 342.926 311.03 341.746 308.67C341.466 308.1 341.276 307.4 341.146 306.62Z" fill="#0054A7"/>
<path d="M316.676 220.88C316.456 221.91 313.436 249.21 312.556 251.86C311.676 254.51 308.606 305.28 308.606 306.09C308.606 306.9 311.016 307.62 311.976 307.62C312.936 307.62 314.926 308.03 315.446 306.5C316.776 302.62 327.566 250.46 327.706 248.92C327.846 247.38 328.516 245.83 328.666 248.92C328.816 252.01 335.856 304.49 336.086 305C336.306 305.52 340.136 305.14 341.026 305.14C341.916 305.14 341.946 304.97 342.486 302.45C343.236 298.98 345.436 266.87 345.366 264.3C345.296 261.72 344.196 223.33 343.306 221.67C342.426 220.01 316.666 220.89 316.666 220.89L316.676 220.88Z" fill="url(#paint14_linear_425_2565)"/>
<path d="M326.046 180.15C327.856 179.77 329.886 179.72 330.416 180.46C331.296 181.68 335.946 181.15 336.746 180.79C337.546 180.43 341.466 181 342.646 181.74C342.876 181.84 343.196 182.03 343.586 182.3C343.626 188.74 342.566 195.18 343.526 201.62C343.426 202.16 343.526 203.77 343.606 204.77C343.756 206.39 344.266 220 344.856 222.8C345.446 225.6 345.446 226.41 344.336 226.11C343.236 225.82 342.426 225.08 340.726 225.01C339.036 224.94 327.336 225.6 325.496 225.4C323.656 225.21 316.976 225.79 316.976 224.98C316.976 224.35 318.386 211.8 319.736 205.37C321.576 196.69 324.086 188.33 326.046 180.16V180.15Z" fill="white"/>
<path d="M316.976 206.99C315.726 206 315.446 208.96 311.376 208.81C307.386 208.66 306.166 203.84 303.436 198.97C299.896 192.65 306.456 190 308.596 190.5C310.776 191.01 312.856 199.43 316.306 194.75C318.346 191.98 316.976 184.82 323.486 181.08C324.966 180.23 327.626 178.35 330.416 179.99C330.956 180.31 326.376 195.75 325.966 199.02C325.766 216.8 321.266 232.43 320.246 234.67C318.616 236.82 316.716 237.95 315.236 238.25C313.766 238.54 313.086 236.81 313.086 236C313.086 235.19 314.246 227.08 315.476 220.13C316.186 216.1 318.006 207.81 316.966 206.99H316.976Z" fill="url(#paint15_linear_425_2565)"/>
<path d="M337.476 180.63C338.276 180.27 342.196 180.84 343.376 181.58C344.306 181.98 346.906 184.01 348.526 186.22C350.146 188.43 354.496 204.79 355.086 206.48C355.676 208.17 356.896 226.43 356.316 226.5C355.726 226.57 350.716 227.96 350.496 227.52C350.266 227.08 346.166 207.11 344.566 207.91C344.166 208.11 345.416 212.75 345.686 215.98C345.966 219.3 346.306 221.61 346.606 223.03C347.196 225.83 348.856 242.03 347.326 244.89C345.156 248.94 341.556 243.33 339.866 243.26C338.596 243.2 333.736 242.34 331.386 237.23C331.246 230 335.836 215.45 334.966 203.41C334.456 196.36 337.236 180.74 337.486 180.63H337.476Z" fill="url(#paint16_linear_425_2565)"/>
<path d="M313.636 194C315.106 194.79 316.296 197.39 317.146 199.93C317.776 201.83 318.026 205.01 317.796 206.75C317.476 209.13 315.926 212.23 315.376 212.29C314.826 212.35 313.056 213.15 313.956 211.37C315.856 207.63 316.246 205.27 316.096 204.23C315.826 202.26 315.526 200.89 314.996 199.16C314.566 197.75 313.256 196.56 313.116 196.17C312.976 195.78 312.256 194.3 313.636 193.99V194Z" fill="#0054A7"/>
<path d="M22.6557 145.18H38.8357L34.9657 136.98C34.9657 136.98 44.5957 132.38 49.3257 127.18C56.1657 119.66 58.4657 110.85 58.2157 99.1502C57.9857 88.4402 54.5657 80.2402 44.0857 74.3102C34.1057 68.6702 20.8457 70.4402 11.7257 77.9602C3.52566 84.7302 0.495663 90.2802 0.105663 97.7902C-0.574337 110.78 1.92566 119.89 10.5857 127.41C20.6657 136.17 21.0957 135.39 27.6757 137.21C25.4257 139.72 22.6657 145.19 22.6657 145.19L22.6557 145.18Z" fill="url(#paint17_linear_425_2565)"/>
<path d="M27.2657 237.95L24.8857 237.44C31.9957 203.98 29.4657 198.69 25.9657 191.38C25.3357 190.07 24.6857 188.71 24.0357 187.11C19.7857 176.6 21.3157 169.07 22.4257 163.58L22.5957 162.72C23.1257 160.09 24.5057 156.55 25.9757 152.81C27.7357 148.32 29.7257 143.23 30.3357 139.31L32.7357 139.69C32.0857 143.88 30.1257 148.87 28.2357 153.7C26.8057 157.34 25.4657 160.78 24.9757 163.21L24.7957 164.08C23.6857 169.56 22.2957 176.38 26.2757 186.21C26.8957 187.74 27.5257 189.06 28.1357 190.34C31.8457 198.09 34.5357 203.69 27.2457 237.96L27.2657 237.95Z" fill="#B3B3B3"/>
<path d="M103.956 165.97C103.516 158.05 100.326 142.2 85.9057 141.32C71.4857 140.44 67.1957 149.79 65.5457 152.88C63.8957 155.96 59.4557 164.07 63.0157 175.22C66.7257 186.86 76.0657 189.13 81.5957 189.39L78.8557 196.57L86.7757 197.45L85.7057 189.13C88.5457 188.63 92.5857 187.39 95.4757 184.9C99.4357 181.49 104.386 173.9 103.946 165.97H103.956Z" fill="url(#paint18_linear_425_2565)"/>
<path d="M76.1057 258.41L73.9357 257.53C83.5457 233.8 82.3957 228.2 81.0657 221.72C80.8557 220.71 80.6457 219.67 80.4657 218.53C79.6157 213.13 80.1057 204.95 81.9257 194.2L82.0057 193.73L84.3157 194.11L84.2357 194.59C82.4557 205.09 81.9657 213.02 82.7757 218.17C82.9457 219.25 83.1557 220.27 83.3557 221.25C84.7557 228.1 85.9757 234.02 76.1057 258.41Z" fill="#B3B3B3"/>
<defs>
<linearGradient id="paint0_linear_425_2565" x1="513.176" y1="103.23" x2="471.926" y2="103.23" gradientUnits="userSpaceOnUse">
<stop stop-color="#3684E4"/>
<stop offset="1" stop-color="#A8D3EE"/>
</linearGradient>
<linearGradient id="paint1_linear_425_2565" x1="342.716" y1="110.63" x2="390.626" y2="110.63" gradientUnits="userSpaceOnUse">
<stop stop-color="#FAD7D9"/>
<stop offset="0.17" stop-color="#F6BBBE"/>
<stop offset="0.38" stop-color="#F29EA3"/>
<stop offset="0.59" stop-color="#EF898F"/>
<stop offset="0.8" stop-color="#ED7D83"/>
<stop offset="1" stop-color="#ED7980"/>
</linearGradient>
<linearGradient id="paint2_linear_425_2565" x1="286.176" y1="73.7502" x2="325.766" y2="73.7502" gradientUnits="userSpaceOnUse">
<stop stop-color="#62C0B4"/>
<stop offset="0.35" stop-color="#64C1B4"/>
<stop offset="0.57" stop-color="#6DC5B5"/>
<stop offset="0.76" stop-color="#7CCDB8"/>
<stop offset="0.93" stop-color="#91D8BC"/>
<stop offset="1" stop-color="#9CDEBE"/>
</linearGradient>
<linearGradient id="paint3_linear_425_2565" x1="232.926" y1="21.9598" x2="282.006" y2="21.9598" gradientUnits="userSpaceOnUse">
<stop stop-color="#FFD4AA"/>
<stop offset="0.03" stop-color="#FDCD9F"/>
<stop offset="0.14" stop-color="#F9BA7F"/>
<stop offset="0.26" stop-color="#F6A965"/>
<stop offset="0.38" stop-color="#F49D51"/>
<stop offset="0.53" stop-color="#F29442"/>
<stop offset="0.71" stop-color="#F18F3A"/>
<stop offset="1" stop-color="#F18E38"/>
</linearGradient>
<linearGradient id="paint4_linear_425_2565" x1="420.136" y1="95.5098" x2="449.696" y2="125.06" gradientUnits="userSpaceOnUse">
<stop stop-color="#FFAB28"/>
<stop offset="0.04" stop-color="#FEB02E"/>
<stop offset="0.22" stop-color="#FEC343"/>
<stop offset="0.42" stop-color="#FED152"/>
<stop offset="0.65" stop-color="#FED95B"/>
<stop offset="1" stop-color="#FEDC5E"/>
</linearGradient>
<linearGradient id="paint5_linear_425_2565" x1="279.756" y1="289.19" x2="293.886" y2="303.32" gradientUnits="userSpaceOnUse">
<stop stop-color="#FFD4AA"/>
<stop offset="0.03" stop-color="#FDCD9F"/>
<stop offset="0.14" stop-color="#F9BA7F"/>
<stop offset="0.26" stop-color="#F6A965"/>
<stop offset="0.38" stop-color="#F49D51"/>
<stop offset="0.53" stop-color="#F29442"/>
<stop offset="0.71" stop-color="#F18F3A"/>
<stop offset="1" stop-color="#F18E38"/>
</linearGradient>
<linearGradient id="paint6_linear_425_2565" x1="267.766" y1="294.4" x2="276.636" y2="303.27" gradientUnits="userSpaceOnUse">
<stop stop-color="#FFD4AA"/>
<stop offset="0.03" stop-color="#FDCD9F"/>
<stop offset="0.14" stop-color="#F9BA7F"/>
<stop offset="0.26" stop-color="#F6A965"/>
<stop offset="0.38" stop-color="#F49D51"/>
<stop offset="0.53" stop-color="#F29442"/>
<stop offset="0.71" stop-color="#F18F3A"/>
<stop offset="1" stop-color="#F18E38"/>
</linearGradient>
<linearGradient id="paint7_linear_425_2565" x1="261.516" y1="267.87" x2="296.456" y2="267.87" gradientUnits="userSpaceOnUse">
<stop stop-color="#51A7DD"/>
<stop offset="0.07" stop-color="#398FCD"/>
<stop offset="0.15" stop-color="#2479BF"/>
<stop offset="0.25" stop-color="#1368B4"/>
<stop offset="0.37" stop-color="#085CAC"/>
<stop offset="0.53" stop-color="#0155A8"/>
<stop offset="1" stop-color="#0054A7"/>
</linearGradient>
<linearGradient id="paint8_linear_425_2565" x1="276.466" y1="240.92" x2="288.426" y2="252.89" gradientUnits="userSpaceOnUse">
<stop stop-color="#4FA5DB"/>
<stop offset="0.17" stop-color="#3287C8"/>
<stop offset="0.34" stop-color="#1C70B9"/>
<stop offset="0.53" stop-color="#0C60AF"/>
<stop offset="0.73" stop-color="#0257A8"/>
<stop offset="1" stop-color="#0054A7"/>
</linearGradient>
<linearGradient id="paint9_linear_425_2565" x1="218.816" y1="172.23" x2="229.446" y2="182.86" gradientUnits="userSpaceOnUse">
<stop stop-color="#4FA5DB"/>
<stop offset="0.17" stop-color="#3287C8"/>
<stop offset="0.34" stop-color="#1C70B9"/>
<stop offset="0.53" stop-color="#0C60AF"/>
<stop offset="0.73" stop-color="#0257A8"/>
<stop offset="1" stop-color="#0054A7"/>
</linearGradient>
<linearGradient id="paint10_linear_425_2565" x1="192.046" y1="294.35" x2="247.216" y2="239.17" gradientUnits="userSpaceOnUse">
<stop stop-color="#3684E4"/>
<stop offset="1" stop-color="#A8D3EE"/>
</linearGradient>
<linearGradient id="paint11_linear_425_2565" x1="213.946" y1="204.44" x2="248.576" y2="239.07" gradientUnits="userSpaceOnUse">
<stop stop-color="#FAD7D9"/>
<stop offset="0.17" stop-color="#F6BBBE"/>
<stop offset="0.38" stop-color="#F29EA3"/>
<stop offset="0.59" stop-color="#EF898F"/>
<stop offset="0.8" stop-color="#ED7D83"/>
<stop offset="1" stop-color="#ED7980"/>
</linearGradient>
<linearGradient id="paint12_linear_425_2565" x1="288.746" y1="209.89" x2="301.996" y2="223.15" gradientUnits="userSpaceOnUse">
<stop stop-color="#FFAB28"/>
<stop offset="0.04" stop-color="#FEB02E"/>
<stop offset="0.22" stop-color="#FEC343"/>
<stop offset="0.42" stop-color="#FED152"/>
<stop offset="0.65" stop-color="#FED95B"/>
<stop offset="1" stop-color="#FEDC5E"/>
</linearGradient>
<linearGradient id="paint13_linear_425_2565" x1="328.636" y1="165.54" x2="345.576" y2="165.54" gradientUnits="userSpaceOnUse">
<stop stop-color="#4FA5DB"/>
<stop offset="0.17" stop-color="#3287C8"/>
<stop offset="0.34" stop-color="#1C70B9"/>
<stop offset="0.53" stop-color="#0C60AF"/>
<stop offset="0.73" stop-color="#0257A8"/>
<stop offset="1" stop-color="#0054A7"/>
</linearGradient>
<linearGradient id="paint14_linear_425_2565" x1="299.766" y1="237.78" x2="354.326" y2="292.34" gradientUnits="userSpaceOnUse">
<stop stop-color="#FFD4AA"/>
<stop offset="0.03" stop-color="#FDCD9F"/>
<stop offset="0.14" stop-color="#F9BA7F"/>
<stop offset="0.26" stop-color="#F6A965"/>
<stop offset="0.38" stop-color="#F49D51"/>
<stop offset="0.53" stop-color="#F29442"/>
<stop offset="0.71" stop-color="#F18F3A"/>
<stop offset="1" stop-color="#F18E38"/>
</linearGradient>
<linearGradient id="paint15_linear_425_2565" x1="302.406" y1="208.81" x2="330.466" y2="208.81" gradientUnits="userSpaceOnUse">
<stop stop-color="#62C0B4"/>
<stop offset="0.35" stop-color="#64C1B4"/>
<stop offset="0.57" stop-color="#6DC5B5"/>
<stop offset="0.76" stop-color="#7CCDB8"/>
<stop offset="0.93" stop-color="#91D8BC"/>
<stop offset="1" stop-color="#9CDEBE"/>
</linearGradient>
<linearGradient id="paint16_linear_425_2565" x1="331.376" y1="213.44" x2="356.466" y2="213.44" gradientUnits="userSpaceOnUse">
<stop stop-color="#62C0B4"/>
<stop offset="0.35" stop-color="#64C1B4"/>
<stop offset="0.57" stop-color="#6DC5B5"/>
<stop offset="0.76" stop-color="#7CCDB8"/>
<stop offset="0.93" stop-color="#91D8BC"/>
<stop offset="1" stop-color="#9CDEBE"/>
</linearGradient>
<linearGradient id="paint17_linear_425_2565" x1="-0.00433654" y1="108.09" x2="58.2257" y2="108.09" gradientUnits="userSpaceOnUse">
<stop stop-color="#62C0B4"/>
<stop offset="0.35" stop-color="#64C1B4"/>
<stop offset="0.57" stop-color="#6DC5B5"/>
<stop offset="0.76" stop-color="#7CCDB8"/>
<stop offset="0.93" stop-color="#91D8BC"/>
<stop offset="1" stop-color="#9CDEBE"/>
</linearGradient>
<linearGradient id="paint18_linear_425_2565" x1="103.986" y1="169.35" x2="61.6757" y2="169.35" gradientUnits="userSpaceOnUse">
<stop stop-color="#FAD7D9"/>
<stop offset="0.17" stop-color="#F6BBBE"/>
<stop offset="0.38" stop-color="#F29EA3"/>
<stop offset="0.59" stop-color="#EF898F"/>
<stop offset="0.8" stop-color="#ED7D83"/>
<stop offset="1" stop-color="#ED7980"/>
</linearGradient>
</defs>
</svg>
