<svg width="582" height="330" viewBox="0 0 582 330" fill="none" xmlns="http://www.w3.org/2000/svg">
<path d="M150.55 88.65C98.45 100.06 44.98 90.48 0 61.67L1.2 59.79C45.68 88.28 98.54 97.76 150.07 86.47C201.59 75.18 245.66 44.47 274.15 0L276.03 1.2C247.21 46.18 202.65 77.23 150.54 88.65H150.55Z" fill="#0054A7"/>
<path d="M242.69 33.7699L242.75 34.6299C256.63 36.3099 271.42 38.7799 285.24 39.5999C280.12 27.0299 278.26 11.6599 270.62 0.109863C262.83 12.6599 252.31 22.8099 242.7 33.7699H242.69Z" fill="url(#paint0_linear_425_2697)"/>
<path d="M126.91 89.9802L125.73 90.2402C130.29 105.4 146.86 112.95 156.84 124.44C163.6 109.91 165.3 92.1302 173.38 77.9302C157.24 80.8502 142.93 86.4702 126.91 89.9802Z" fill="url(#paint1_linear_425_2697)"/>
<path d="M74.61 84.8698C74.02 84.7398 62.84 83.2998 62.84 83.2998C64.1 97.8398 77.05 111.45 80.09 126.37C85.04 120.59 89.05 113.38 92.81 107.35C96.57 101.32 102.11 95.6698 104.69 89.3898C95.15 90.4698 84.12 86.8898 74.61 84.8798V84.8698Z" fill="url(#paint2_linear_425_2697)"/>
<path d="M73.41 102.38C73.49 102.21 73.52 101.97 73.45 101.6C73.62 100.9 73.82 100.21 73.98 99.5099C74.4 97.7699 74.54 95.8899 74.89 94.1199C75.41 91.4699 74.89 88.9199 74.55 86.2799C74.45 85.5099 73.07 86.2799 73.16 86.9899C73.63 90.7299 73.6 93.6799 72.86 97.3999C72.51 99.1699 71.72 101.48 71.82 103.31C71.82 103.46 71.87 103.62 72.02 103.7C72.07 103.73 72.12 103.75 72.17 103.78C72.46 103.93 72.78 103.81 73.03 103.63C73.14 103.56 73.24 103.48 73.35 103.4C73.87 103.02 73.76 102.54 73.41 102.38Z" fill="white"/>
<path d="M81.68 120.74C81.63 115.66 82.65 110.82 83.61 105.81C84.7 100.14 84.46 94.2998 85.83 88.6898C86.07 87.7298 84.63 88.0698 84.46 88.7598C83.25 93.6898 83.43 98.7598 82.59 103.74C81.5 110.18 79.9 116.22 80.29 122.8C80.34 123.65 81.57 123.14 81.69 122.56C81.78 122.15 81.86 121.73 81.95 121.31C82.02 120.96 81.88 120.79 81.67 120.73L81.68 120.74Z" fill="white"/>
<path d="M94.66 90.1199C94.85 89.1499 93.43 89.4799 93.28 90.1899C92.23 95.4999 92.21 100.95 91.18 106.25C90.99 107.22 92.42 106.88 92.56 106.18C93.59 100.88 93.61 95.4299 94.66 90.1199Z" fill="white"/>
<path d="M4.97997 60.34L3.89997 59.79C-2.12003 74.44 5.98997 90.75 6.48997 105.95C20.9 98.93 33.42 86.2 48.64 80.27C34.27 72.36 19.62 67.7 4.97997 60.34Z" fill="url(#paint3_linear_425_2697)"/>
<path d="M2.95 68.7402C14.28 73.6202 25 79.7502 36.17 84.9802C36.8 85.2802 38.01 84.3002 37.21 83.9202C26.05 78.6902 15.33 72.5502 3.99 67.6802C3.35 67.4102 2.14 68.3902 2.95 68.7402Z" fill="white"/>
<path d="M3.28999 80.3302C10.81 84.9502 19.15 87.9302 27.05 91.8102C27.66 92.1102 28.85 91.1202 28.08 90.7402C20.18 86.8602 11.85 83.8802 4.31999 79.2602C3.74999 78.9102 2.54999 79.8702 3.28999 80.3302Z" fill="white"/>
<path d="M5.26995 91.1102C6.38995 93.0402 8.92995 94.0402 10.8599 94.9102C13.4799 96.0902 16.2999 97.1002 19.1199 97.6902C19.8199 97.8302 20.7999 96.7202 19.8499 96.5202C17.5799 96.0502 15.3699 95.2502 13.2099 94.4002C11.1599 93.5902 7.89995 92.5002 6.73995 90.4802C6.35995 89.8202 4.90995 90.4802 5.26995 91.1102Z" fill="white"/>
<path d="M193.25 69.0499L193.02 69.8799C205.58 76.0099 218.74 83.1999 231.53 88.4999C230.81 74.9399 234.09 59.8199 230.66 46.3999C219.19 55.7099 205.92 61.8499 193.25 69.0399V69.0499Z" fill="url(#paint4_linear_425_2697)"/>
<path d="M209.89 71.9501C210.01 71.8801 210.14 71.8101 210.26 71.7401C211.29 71.1601 211.67 69.7201 211.44 68.6301C211.23 67.6601 210.35 66.8001 209.34 67.3701C209.22 67.4401 209.09 67.5101 208.97 67.5801C207.95 68.1601 207.56 69.6001 207.79 70.6901C208 71.6601 208.88 72.5201 209.89 71.9501Z" fill="white"/>
<path d="M222.93 63.08C223.05 63.01 223.18 62.94 223.3 62.87C224.32 62.29 224.71 60.85 224.48 59.76C224.28 58.79 223.4 57.93 222.38 58.5C222.26 58.57 222.13 58.64 222.01 58.71C220.98 59.29 220.6 60.73 220.83 61.82C221.03 62.79 221.92 63.65 222.93 63.08Z" fill="white"/>
<path d="M224.82 76.7898C224.89 76.9098 224.96 77.0398 225.03 77.1598C225.56 78.0898 226.53 78.3998 227.36 77.5898C228.13 76.8298 228.54 75.2598 227.97 74.2698C227.9 74.1498 227.82 74.0198 227.76 73.8998C227.23 72.9698 226.26 72.6598 225.43 73.4698C224.66 74.2298 224.26 75.7998 224.82 76.7898Z" fill="white"/>
<path d="M219.4 73.2597C219.52 73.1897 219.65 73.1197 219.77 73.0497C220.8 72.4697 221.18 71.0297 220.95 69.9397C220.74 68.9697 219.86 68.1097 218.85 68.6797C218.73 68.7497 218.6 68.8197 218.48 68.8897C217.45 69.4697 217.07 70.9097 217.3 71.9997C217.51 72.9697 218.38 73.8297 219.4 73.2597Z" fill="white"/>
<path d="M195.55 189.17C195.33 189.17 192.42 189.38 192.14 189.35C192.03 189.82 191.67 191.54 191.39 192.11C191.11 192.68 189.1 195.96 188.82 196.25C192.04 199.01 196.53 198.65 198.69 196.15C198.11 195.86 196.33 192.76 196.08 191.63C195.9 190.8 195.54 189.48 195.54 189.17H195.55Z" fill="#FFDBB0"/>
<path d="M187.88 183.53C186.89 179.05 187.5 173.4 192.97 172.54C198.45 171.68 200.21 176.42 200.95 177.78C201.86 179.45 199.88 181.18 201.31 183.06C200.83 186.37 200.3 186.87 199.81 187.54C199.11 188.5 197.29 190.02 195.51 190.35C194.09 190.61 192.11 189.62 191.03 188.76C190.01 187.95 189.35 187.13 188.82 186.3C188.49 186.21 188.12 186.19 187.61 185.62C187.38 185.36 186.98 184.45 187.04 184.01C187.12 183.46 187.71 183.4 187.87 183.52L187.88 183.53Z" fill="#FFDBB0"/>
<path d="M193.61 170.46C193 170.6 192.68 170.57 191.6 170.03C190.53 169.49 189.3 168.97 188.04 169.25C186.78 169.53 185.96 170.09 185.57 170.63C185.18 171.17 184.11 172.68 184.31 174.15C184.5 175.62 184.22 176.62 183.63 177.38C183.04 178.14 182.95 181.36 183.33 182.21C183.71 183.06 184.73 184.32 185.32 184.82C185.91 185.32 188.66 188.33 189.9 188.91C191 189.43 193.2 190.05 193.49 189.54C194.12 188.45 195.52 190.36 196.73 189.08C198.02 187.72 195.68 184.39 196.29 183.19C196.78 182.22 197.32 182.41 197.79 182.85C198.26 183.29 198.14 178.36 198.71 178.95C199.28 179.53 200.55 180.32 201.6 179.24C202.66 178.16 203.35 177.07 202.27 175.46C201.19 173.85 199.88 173.82 199.68 172.31C199.48 170.8 198.67 169.19 196.68 169.34C194.69 169.5 194.32 170.19 193.61 170.46Z" fill="url(#paint5_linear_425_2697)"/>
<path d="M170.54 321.2C172.47 323.25 174.51 325.29 177.31 324.97C179.68 324.35 180.84 324.49 182.07 326.22C183.64 328.43 176.9 329.82 175.32 329.18C173.74 328.54 170.26 328.64 168.68 326.51C167.32 324.68 169.45 322.76 170.54 321.2Z" fill="#0054A7"/>
<path d="M170.54 321.2C170.72 320.94 170.87 320.7 170.98 320.47C171.71 318.82 176.23 280.88 176.66 279.75C176.66 279.75 184.48 280.11 184.22 281.81C183.96 283.51 175.68 322.07 176.3 323.63C176.43 323.97 176.81 324.43 177.31 324.97C174.51 325.3 172.48 323.25 170.54 321.2Z" fill="#FFDBB0"/>
<path d="M207.73 313.96C209.43 314.93 211.35 313.52 213.34 314.19C214.23 314.49 214 319.66 208.6 320.05C203.2 320.44 202.48 319.46 200.96 316.89C199.92 315.14 201.88 314.65 201.97 313.75C203.87 314.22 205.87 314.37 207.73 313.97V313.96Z" fill="#0054A7"/>
<path d="M199.72 294.79C199.72 294.79 204.57 292.61 204.8 293.55C205.03 294.49 205.88 310.32 206.51 312.58C206.67 313.18 207.12 313.61 207.73 313.95C205.87 314.35 203.87 314.19 201.97 313.73C201.97 313.71 201.97 313.69 201.97 313.67C201.97 312.73 199.24 296.2 199.71 294.79H199.72Z" fill="#FFDBB0"/>
<path d="M174.78 238.41C174.08 239.35 172.81 284.07 172.79 284.98C172.77 286.15 168.04 317.59 170.19 318.3C172.36 319.02 178.66 319.05 179.36 318.89C180.06 318.73 187.12 285.6 187.04 282.24C186.96 278.88 186.32 263.09 190.4 262.43C193.96 261.85 197.2 275.72 197.66 276.89C198.12 278.06 198.6 310.7 200.24 310.46C201.88 310.22 207.18 310.69 207.8 310.46C208.42 310.23 210.68 275.42 210.37 274.02C210.06 272.61 204.38 240.6 203.76 239.89C203.14 239.19 174.78 238.41 174.78 238.41Z" fill="url(#paint6_linear_425_2697)"/>
<path d="M211.19 208.63C210.43 207.08 209.63 204.47 208.99 203.3C208.16 201.77 207.32 198.91 204.18 196.08C202.4 194.62 201.45 194.77 199.49 194.32C197.7 194.01 198.58 193.54 197.96 193.04C196.65 191.99 197.27 191.98 192.56 191.79C188.69 191.63 189.34 193.02 188.58 193.05C187.8 193.08 186.35 193.25 184.74 193.6C183.36 193.85 180.07 192.74 176.02 196.61C172.57 199.91 168.37 208.32 168.09 210.82C167 220.57 172.46 218.56 173.19 221.02C173.69 222.69 172.88 227.54 172.57 230.61C172.26 233.68 172.05 239.04 172.05 240.24C172.05 241.44 170.75 250.19 174.66 251.3C179.06 252.55 184.55 254.14 188.6 251.3C194.81 249.63 198.13 245.1 201.58 246.3C204.82 247.42 205.87 244.11 205.93 243.3C206.37 237.83 205.15 235.27 205.1 231.99C205.05 228.71 204.43 222.46 204.32 221.42C204.22 220.38 204.33 218.7 205.22 219.79C206.11 220.88 211.05 221.79 212.28 218.92C213.1 217.01 213.26 212.82 211.19 208.62V208.63Z" fill="url(#paint7_linear_425_2697)"/>
<path d="M200.01 163.52C201.08 164.51 202.42 167.33 203.29 168.35C203.8 168.96 205.22 168.33 206.5 166.73C207.76 165.16 210.27 162.03 210.44 161.42C210.62 160.81 210.37 160.09 210.81 159.32C211.25 158.55 211.08 157.61 212.38 157.7C213.68 157.79 213.42 157.39 213.92 157.27C214.42 157.15 215 156.96 215.16 157.47C215.32 157.97 215.47 158.28 215.74 158.32C216.01 158.36 216.38 158.54 216.46 159.03C216.54 159.52 216.51 159.99 216.72 160.18C216.93 160.37 216.78 160.8 216.56 161.22C216.34 161.64 215.69 162.93 214.76 163.06C213.82 163.19 213.19 162.93 212.52 163.62C211.85 164.31 207.57 170.84 205.42 172.56C203.45 174.14 201.57 172.6 200.81 171.79C199.54 170.44 197.11 168.12 196.82 167.47C196.53 166.83 198.83 162.44 200.01 163.53V163.52Z" fill="#FFDBB0"/>
<path d="M192.36 155.04C192.15 155.02 190.03 154.78 189.77 154.73C189.63 155.16 189.15 156.73 188.84 157.24C188.53 157.75 187.4 159.53 187.11 159.78C187.53 160.55 193.01 160.97 194.13 160.36C193.6 160.05 192.74 158.15 192.64 157.36C192.54 156.57 192.33 155.34 192.35 155.04H192.36Z" fill="#FFDBB0"/>
<path d="M181.15 165.8C180.25 166.21 164.47 170.91 163.98 171.09C163.49 171.27 162.72 171.82 162.22 172.53C161.72 173.24 159.37 176.69 158.97 177.08C158.56 177.47 158.05 177.69 157.75 177.4C157.45 177.11 157.46 176.57 157.11 176.35C156.76 176.13 156.01 176.21 155.79 175.96C155.57 175.71 155.07 175.73 155.39 175.12C155.71 174.51 156.81 172.39 156.96 172.06C157.11 171.72 156.28 171.59 156.31 171.12C156.33 170.65 160.07 170.01 160.69 169.79C161.31 169.58 177.79 161.49 178.55 161.21C179.32 160.93 181.15 165.78 181.15 165.78V165.8Z" fill="#FFDBB0"/>
<path d="M185.73 150.77C184.81 147.05 185.2 142.31 189.76 141.48C194.32 140.65 195.89 144.57 196.54 145.69C197.33 147.07 196.75 148.25 196.95 150.09C196.62 152.86 196.19 153.3 195.79 153.87C195.22 154.69 193.73 156 192.25 156.31C191.07 156.56 189.4 155.77 188.47 155.08C187.6 154.43 187.03 153.75 186.57 153.07C186.29 153 185.98 153 185.54 152.53C185.34 152.32 184.99 151.57 185.03 151.2C185.08 150.74 185.58 150.68 185.72 150.78L185.73 150.77Z" fill="#FFDBB0"/>
<path d="M188.31 141.78C185.16 143.67 184.4 146.87 184.29 148.59C184.24 149.36 183.75 151.54 184.26 151.94C184.77 152.35 187.12 154.8 188.17 155.26C189.1 155.67 190.95 156.15 191.18 155.71C191.68 154.78 192.9 156.36 193.88 155.26C194.93 154.09 192.91 151.36 193.39 150.35C193.78 149.53 194.23 149.68 194.63 150.04C195.03 150.4 195.33 147.29 195.45 146.91C195.71 146.1 196.06 144.72 195.12 143.4C194.18 142.08 190.61 140.59 188.3 141.78H188.31Z" fill="#0054A7"/>
<path d="M193 148.55C192.24 149.17 190.38 149.91 189.6 151.39C188.9 152.71 187.17 153.85 186.02 154.23C183.3 155.12 181.42 154.36 181.64 152.57C181.74 151.76 182.7 150.77 183.16 150.34C183.62 149.91 184 149.63 183.84 148.67C183.68 147.71 182.96 146.03 183.49 144.66C184.02 143.29 185.89 141.25 187.43 140.73C188.62 140.33 190.89 140.11 192.26 140.55C194.05 141.12 195.99 142.36 196.91 144.67C197.2 145.39 194.21 147.56 193 148.56V148.55Z" fill="url(#paint8_linear_425_2697)"/>
<path d="M179.2 179.11C179.2 179.11 191.59 178.2 192.41 179.11C193.23 180.02 194.34 183.21 196.98 185.4C199.61 187.59 203.12 190.41 202.39 192.91C201.66 195.41 201.1 194.75 200.27 194.69C197.5 194.48 194.43 194.13 192.28 193.78C190.13 193.43 186.66 194.84 183.75 194.41C180.84 193.98 177.58 197.01 175.53 196.04C174.11 195.37 172.27 192.42 173.73 189.41C175.19 186.4 179.11 180.75 179.2 179.11Z" fill="url(#paint9_linear_425_2697)"/>
<path d="M188.5 159.14C187.75 158.94 187.27 158.49 186.58 158.43C185.9 158.37 182.54 158.14 181.64 158.57C180.75 159 170.98 163.85 170.76 164.24C170.54 164.64 175.39 171.55 175.68 171.99C175.97 172.43 176.58 172.25 177.21 171.79C177.84 171.34 179.03 170.33 179.22 170.21C179.41 170.09 179.53 170.92 179.33 171.69C179.21 172.15 178.97 174.57 177.6 177.53C176.47 179.95 175.53 182.15 176.37 183.25C179.29 187.08 186.8 184.03 187.59 183.96C188.38 183.89 191.68 184.28 192.98 184.41C194.22 184.54 194.57 184.41 195.11 183.27C196.43 180.48 194.58 176.16 194.65 175.25C194.72 174.34 195.06 170.88 194.93 170.22C194.8 169.57 195.46 168.42 196.21 168.8C197.28 169.34 198.02 172.19 199.46 172.83C200.43 173.26 203.82 167.43 203.65 166.43C203.25 164.03 197.39 160.05 196.01 159.84C195.09 159.7 193.87 159.09 193.31 159.19C192.75 159.29 190.78 160.88 188.49 159.13L188.5 159.14Z" fill="url(#paint10_linear_425_2697)"/>
<path d="M292.6 217.33C291.11 219.46 282.27 238.22 281.6 240.04C280.93 241.86 279.23 242.14 277.93 242.77C276.63 243.4 274.24 244.83 273.57 244.92C272.9 245.01 271.68 245.62 272.79 246.62C273.9 247.62 274.42 247.56 275.42 247.23C276.41 246.9 278.23 245.92 278.79 245.7C279.35 245.48 280.36 244.93 280.52 245.56C280.69 246.19 280.6 246.74 282.69 245.61C283.66 244.91 282.84 243.54 283.82 242.62C284.81 241.69 293.33 226.56 294.33 225.4C295.33 224.24 294.2 216.98 292.59 217.31L292.6 217.33Z" fill="#FFDBB0"/>
<path d="M299.24 213.42C299.4 213.42 301.03 213.36 301.23 213.34C301.31 213.7 301.58 215.01 301.78 215.44C301.98 215.88 302.74 217.4 302.94 217.62C302.57 218.22 298.37 218.2 297.55 217.62C297.98 217.4 298.75 215.91 298.87 215.28C298.99 214.65 299.24 213.65 299.24 213.42Z" fill="#FFDBB0"/>
<path d="M301.22 203.37C302.68 204.7 303.29 210.94 304.83 210.82C306.37 210.7 309.21 210.74 309.71 208.53C310.21 206.32 306.45 206.97 305.02 203.72L301.22 203.38V203.37Z" fill="#0054A7"/>
<path d="M307.27 217.17C308.31 217.22 308.96 217.15 309.73 218.78C310.5 220.42 313.42 226.32 313.81 227.6C314.2 228.88 314.66 229.63 315.76 227.39C316.86 225.16 320.36 220.21 320.5 219.44C320.63 218.67 319.75 216.25 320.19 215.25C320.63 214.25 320.29 213.12 321.93 213.04C323.57 212.97 323.2 212.51 323.8 212.3C324.4 212.09 325.12 211.77 325.39 212.37C325.66 212.96 325.89 213.31 326.24 213.33C326.59 213.35 327.08 213.51 327.25 214.1C327.42 214.69 327.45 215.27 327.73 215.48C328.02 215.69 327.89 216.24 327.67 216.77C327.45 217.31 326.82 218.98 325.67 219.27C324.52 219.56 323.68 219.33 322.94 220.27C322.2 221.21 315.64 233.26 315.11 233.91C314.58 234.57 313.78 234.77 312.78 233.81C311.78 232.84 305.61 224.71 305.16 223.96C304.71 223.21 307.27 217.16 307.27 217.16V217.17Z" fill="#FFDBB0"/>
<path d="M312.49 294.71C312.8 294.56 312.99 294.36 313.08 294.14C311.89 293.33 310.39 292.54 310.24 292.06C309.99 291.28 309.05 272.51 308.7 270.19C308.7 270.19 301.59 273.97 301.59 274.7C301.59 275.43 307.25 292.69 307.3 293.52C307.3 293.62 307.3 293.71 307.28 293.8C308.93 294.39 310.93 295.22 312.48 294.72L312.49 294.71Z" fill="#FFDBB0"/>
<path d="M314.56 295.6C314.45 295.15 313.82 294.64 313.08 294.14C312.99 294.36 312.8 294.56 312.49 294.71C310.94 295.21 308.94 294.38 307.29 293.79C307.17 294.4 306.55 294.71 306.76 295.98C307.01 297.43 310.34 297.68 312.77 297.87C315.2 298.06 314.86 296.75 314.56 295.59V295.6Z" fill="#0054A7"/>
<path d="M297.08 295.42C296.57 294.58 295.93 293.69 295.87 293.37C295.77 292.84 298.5 277.56 298.45 276.98C298.45 276.98 293.28 277.17 293.23 278.82C293.18 280.47 293.43 292.06 292.53 292.25C292.47 292.26 292.4 292.3 292.34 292.32C293.46 294.04 295.03 296.64 297.07 295.41L297.08 295.42Z" fill="#FFDBB0"/>
<path d="M297.08 295.42C295.05 296.64 293.47 294.05 292.35 292.33C291.53 292.67 290.8 293.94 290.8 294.97C290.8 296.09 292.74 297.59 295.17 298.51C297.6 299.43 297.75 297.73 297.7 296.86C297.68 296.51 297.4 295.98 297.07 295.42H297.08Z" fill="#0054A7"/>
<path d="M304.81 210.71C304.08 212.77 302.51 214.05 301.03 214.37C299.55 214.69 297.57 214.2 296 212.65C292.72 209.41 290.81 200.91 297.57 199.42C304.33 197.93 306.35 206.41 304.81 210.71Z" fill="#FFDBB0"/>
<path d="M296.04 197.87C296.81 197.68 299.19 197.17 300.41 198.03C301.63 198.89 304.16 201.26 304.53 202.33C304.89 203.4 305.22 203.79 305.15 203.95C305.08 204.11 300.91 203.08 298.84 204.54C297.77 204.95 296.51 206.21 295.58 207.95C294.77 209.46 297.44 211.56 295.03 212.55C294.41 212.81 292.06 214.53 290.64 211.41C290.17 210.37 291.09 206.03 291.47 203.7C291.85 201.37 293.35 199.42 294.06 198.86C294.77 198.3 295.71 197.95 296.05 197.87H296.04Z" fill="url(#paint11_linear_425_2697)"/>
<path d="M292.6 217.33L293.73 227.27C293.73 227.27 290.74 231.95 290.14 233.31C289.54 234.67 288.54 236.33 287.35 237.69C286.15 239.05 283.66 237.5 283.46 236.33C283.26 235.16 284.96 230.58 285.96 228.73C286.96 226.88 289.99 217.72 292.62 217.33H292.6Z" fill="#FEDC5E"/>
<path d="M306.34 216.47C307.44 216.52 309.33 216.7 310.07 217.9C310.81 219.1 313.98 226.55 314.35 227.15C314.72 227.75 315.13 227.48 315.89 226.24C316.65 225 317.23 225.32 318.3 226.05C319.37 226.78 319.77 226.7 319.08 228.72C318.39 230.74 316.72 234.47 315.9 235.02C315.08 235.57 312.83 236.64 311.63 234.45C310.43 232.25 306.48 226.91 305.82 226.01C305.16 225.1 306.35 216.48 306.35 216.48L306.34 216.47Z" fill="#FEDC5E"/>
<path d="M281.62 277.02C282.96 273.09 289.27 253.55 289.47 252.29C289.65 251.16 292.91 241.11 293.5 238.03C293.57 237.68 293.61 237.4 293.6 237.25C293.5 235.84 290.17 219.14 291.94 216.94C293.44 215.58 298.17 215.83 298.52 216.26C298.87 216.69 301.1 217.33 301.95 216.4C302.79 215.47 307.84 215.83 308.31 216.26C309.51 217.33 308.56 221.78 308.31 223.28C308.06 224.78 306.52 234.87 306.47 235.65C306.47 235.69 306.47 235.75 306.48 235.82C306.66 237.16 309 244.28 310.09 246.17C311.23 248.16 317.05 262.17 317.54 266.54C318.04 270.9 319.75 276.59 319.88 277.79C320.18 280.55 319.13 280.79 317.3 281.72C315.96 282.4 314.96 282.59 312.63 282.35C311.06 282.19 306.92 278.91 303.54 280.51C300.16 282.11 297.13 283.42 295.49 283.42C293.85 283.42 291.91 282.69 290.62 281.82C289.33 280.95 285.7 279.64 283.76 280.27C281.82 280.9 280.28 280.95 281.62 277.02Z" fill="url(#paint12_linear_425_2697)"/>
<path d="M401.23 173.74C404.07 173.89 406.62 177.49 409.31 181.1C412 184.7 412 187.72 412.9 191.62C413.8 195.52 414.6 199.61 413.8 200.1C413 200.59 411.2 205.07 410.01 203.51C408.81 201.95 409.21 199.71 409.31 196.4C409.41 193.09 410.21 192.5 409.41 189.29C408.61 186.08 406.72 183.15 405.32 181.11C403.92 179.07 402.53 177.9 402.03 177.41C401.53 176.92 399.34 175.22 401.23 173.76V173.74Z" fill="#ED7980"/>
<path d="M404.06 208.96C407.42 206.74 419.07 197.55 420.7 194.72C422.33 191.89 423.48 188.68 420.55 187.64C417.62 186.6 414.14 189.83 410.45 192.63C406.76 195.43 398.57 200.21 397.16 202.25C395.75 204.29 404.05 208.96 404.05 208.96H404.06Z" fill="#FEDC5E"/>
<path d="M414.7 189.4L415.14 193.59L412.03 191.41L414.7 189.4Z" fill="#0054A7"/>
<path d="M410.06 192.92L411.44 196.79L407.56 194.66L410.06 192.92Z" fill="#0054A7"/>
<path d="M405.93 195.75L406.99 199.77L403.09 197.63L405.93 195.75Z" fill="#0054A7"/>
<path d="M388.47 208.99L400.37 213.47L408.76 192.22L396.86 187.74L388.47 208.99Z" fill="#62C0B4"/>
<path d="M396.86 187.74L408.76 192.22L406.89 186.91L401.89 185.03L396.86 187.74Z" fill="#51A7DD"/>
<path d="M401.91 185.04L406.87 186.91L407.22 186.02L402.26 184.16L401.91 185.04Z" fill="#62C0B4"/>
<path d="M408.06 204.81C409.91 207.98 408.78 212.01 405.54 213.81C402.3 215.62 398.17 214.51 396.32 211.35C394.47 208.19 395.6 204.15 398.84 202.35C402.08 200.54 406.21 201.65 408.06 204.81Z" fill="#ED7980"/>
<path d="M399.66 213.4C401.18 212.34 403.83 210.64 403.46 209.35C403.09 208.06 401.01 206.98 402.47 204.85C403.93 202.72 402.75 200.02 401.28 199.93C399.81 199.83 397.37 199.56 395.94 200C394.5 200.44 393.49 199.04 393.01 198.39C392.53 197.74 391.74 196.19 389.58 197.69C387.42 199.19 387.14 203.05 383.99 202.56C380.84 202.07 382.46 208.54 383.82 211.38C385.18 214.22 388.84 216.87 391.42 217.46C394 218.05 399.67 213.4 399.67 213.4H399.66Z" fill="#62C0B4"/>
<path d="M398.84 209.779C399.58 208.099 400.93 205.309 399.93 204.389C398.93 203.479 396.58 203.609 396.69 201.049C396.8 198.479 394.36 196.779 393.05 197.449C391.74 198.109 389.52 199.119 388.52 200.219C387.53 201.319 385.91 200.649 385.16 200.329C384.41 200.019 382.9 199.099 381.86 201.479C380.82 203.859 382.63 207.299 379.68 208.479C376.73 209.659 381.56 214.359 384.23 216.099C386.9 217.839 391.44 218.239 393.96 217.429C396.48 216.619 398.84 209.779 398.84 209.779Z" fill="#51A7DD"/>
<path d="M397.37 207.58C397.42 205.75 397.63 202.67 396.35 202.18C395.08 201.69 392.94 202.66 392.07 200.24C391.2 197.82 388.29 197.11 387.33 198.2C386.36 199.29 384.67 201.02 384.17 202.4C383.66 203.78 381.91 203.73 381.09 203.71C380.27 203.69 378.52 203.37 378.45 205.96C378.38 208.55 381.36 211.1 379.06 213.25C376.76 215.41 383.02 218.04 386.17 218.7C389.31 219.36 393.68 218.1 395.72 216.44C397.76 214.78 397.38 207.57 397.38 207.57L397.37 207.58Z" fill="#62C0B4"/>
<path d="M404.38 300.5C404.08 298.28 401.25 295.9 399.37 294.24C397.1 294.87 394.55 293.9 392.6 292.25C392.27 293.34 391.85 294.51 392.41 296.52C393.27 299.65 397.59 303.26 400.55 304.11C403.51 304.95 404.74 303.27 404.37 300.5H404.38Z" fill="#0054A7"/>
<path d="M367.29 138.36C367.54 138.34 370.78 138.37 371.09 138.32C371.25 138.85 371.53 142.95 371.88 143.59C372.23 144.23 378.94 147.66 379.27 147.97C375.92 151.39 360.01 152.25 357.41 149.53C357.76 149.32 362.1 146.7 365.4 144.85C366.98 143.96 366.81 141.81 366.89 141.23C367.03 140.26 367.32 138.71 367.29 138.35V138.36Z" fill="#FFDBB0"/>
<path d="M399.37 294.25C398.91 293.84 398.5 293.47 398.21 293.16C396.73 291.59 396.73 287.74 395.99 284.97C395.25 282.2 393.52 282.68 391.55 282.68C391.55 282.68 389.33 282.92 389.7 284C390.07 285.08 392.78 288.46 392.91 290.38C392.95 291.07 392.79 291.65 392.61 292.25C394.56 293.89 397.11 294.87 399.38 294.24L399.37 294.25Z" fill="#FFDBB0"/>
<path d="M327.47 279.22C326.84 279.77 326.22 280.22 325.66 280.51C322.82 281.96 322.58 283.4 322.95 287.01C323.32 290.62 327.39 294.72 330.6 294.84C333.78 294.96 332.47 291.53 331.97 287.13C329.38 285.37 327.8 282.4 327.47 279.22Z" fill="#0054A7"/>
<path d="M337.63 272.69C336.03 270.64 334.55 271.12 333.56 272.33C332.77 273.29 330 277.03 327.47 279.23C327.8 282.41 329.38 285.38 331.97 287.14C331.97 287.1 331.97 287.06 331.96 287.03C331.47 282.57 333.32 279.93 336.03 277.4C338.74 274.87 339.11 274.63 337.63 272.7V272.69Z" fill="#FFDBB0"/>
<path d="M341.14 166.3C340.28 166 339.84 165.88 338.3 169.43C336.76 172.98 329.48 199.35 328.68 200.5C327.88 201.64 325.16 206.64 325.16 209.05C325.16 211.46 324.36 215.37 323.8 216.58C323.24 217.79 322.38 219.35 324.79 218.21C327.2 217.07 327.63 216.1 328.49 217.19C329.35 218.28 330.96 218.57 331.33 216.77C331.7 214.96 332.19 210.15 332.16 209.3C332.13 208.46 332.38 207.19 333.36 208.4C334.35 209.6 334.96 210.21 336.07 210.21C337.18 210.21 337.43 209.43 336.07 208.1C334.84 206.23 334.59 203.28 334.16 202.08C333.73 200.88 334.84 199.55 335.95 197.08C337.06 194.61 346.81 173.12 347.18 171.43C347.55 169.74 341.13 166.31 341.13 166.31L341.14 166.3Z" fill="#FFDBB0"/>
<path d="M386.5 172.14C386.08 172.59 386.09 173.27 386.5 173.72C389.01 176.45 396.36 185.93 399.94 185.21C400.62 185.07 405.73 182.79 410.74 180.28C415.58 177.85 420.34 175.32 420.96 174.77C421.97 174.22 422.36 174.19 423.66 174.5C424.95 174.81 429.66 174.38 431.5 173.52C433.34 172.66 433.86 171.82 434.77 170.16C435.68 168.5 434.37 164.46 431.97 164.52C430.24 164.56 430.27 164.1 429.8 163.66C429.25 163.15 428.98 162.83 427.55 163.08C425.83 163.37 423.2 163.23 421.56 165.27C419.92 167.31 420.53 169.06 417.55 170.24C414.57 171.42 406.92 175.2 405.65 175.74C401.22 177.63 400.24 177.47 398.42 174.56C395.66 170.14 393.64 166.31 392.79 166.24C392.13 166.18 388.22 170.32 386.52 172.15L386.5 172.14Z" fill="#FFDBB0"/>
<path d="M383.23 175.08C383.01 173.04 382.86 171.47 382.82 171.08C382.82 171.05 382.82 171.02 382.82 170.99C372.66 172.18 362.31 172.27 351.9 171.96C351.89 173.62 351.88 175.45 351.87 177.24C362.43 177.6 372.93 176.54 383.24 175.08H383.23Z" fill="white"/>
<path d="M383.66 179C383.5 177.62 383.36 176.26 383.23 175.08C372.91 176.54 362.42 177.61 351.86 177.24C351.86 178.34 351.85 179.42 351.84 180.45C362.54 180.77 373.18 180.41 383.67 179H383.66Z" fill="#0054A7"/>
<path d="M390.55 157.99C388.92 155.27 387.67 153.22 387.37 152.86C387.37 152.86 382.77 148.08 381.21 146.92C378.27 145.41 376.93 145.22 376.47 145.34C376.01 145.47 373.31 147.42 371.58 147.48C365.79 147.67 363.29 146.94 362.8 146.21C362.31 145.48 360.43 145.64 357.61 146.31C353.83 147.2 352.52 148.32 350.48 149.65C349.56 150.25 347.41 153.04 345.19 156.21C360.06 159.89 375.56 159 390.55 157.99Z" fill="white"/>
<path d="M332.21 188.86C334.37 190 338.77 190.96 339.32 191.2C339.58 191.31 342.1 185.96 344.73 180.15C341.13 179.95 337.53 179.69 333.92 179.37C332.36 184.08 331.26 188.37 332.2 188.87L332.21 188.86Z" fill="white"/>
<path d="M335.32 175.35C334.84 176.67 334.36 178.04 333.92 179.37C337.52 179.69 341.13 179.95 344.73 180.15C345.22 179.07 345.71 177.98 346.19 176.91C342.57 176.6 338.94 176.09 335.32 175.35Z" fill="#0054A7"/>
<path d="M348.46 171.84C344.59 171.69 340.71 171.51 336.83 171.31C336.36 172.55 335.84 173.92 335.32 175.35C338.95 176.09 342.57 176.59 346.19 176.91C346.99 175.13 347.76 173.39 348.45 171.85L348.46 171.84Z" fill="white"/>
<path d="M338.06 168.17C337.72 169.02 337.3 170.1 336.83 171.31C340.71 171.51 344.59 171.69 348.46 171.84C348.96 170.7 349.42 169.67 349.81 168.79C345.9 168.68 341.98 168.48 338.06 168.17Z" fill="#0054A7"/>
<path d="M384.79 187.52C384.45 185.59 384.03 182.21 383.67 179C373.18 180.4 362.54 180.76 351.84 180.45C351.81 183.21 351.76 185.59 351.64 186.72C351.64 186.81 351.62 186.89 351.61 186.98C362.67 187.02 373.73 188.86 384.79 187.53V187.52Z" fill="white"/>
<path d="M384.88 188.04C384.85 187.89 384.82 187.7 384.79 187.52C373.73 188.85 362.67 187.02 351.61 186.97C351.46 188.39 351.27 189.6 351.1 190.64H385.44C385.26 189.85 385.07 189 384.88 188.04Z" fill="#0054A7"/>
<path d="M351.1 190.64C350.87 192.09 350.67 193.2 350.67 193.99C350.67 195.37 349.89 197.28 352.41 197.76C357.14 198.65 358.97 197.76 361.3 197.67C363.25 197.59 373.78 197.32 376.38 197.86C378.97 198.4 385.22 196.6 386.14 196.35C386.9 196.15 386.28 194.28 385.44 190.65H351.1V190.64Z" fill="white"/>
<path d="M405.52 175.15C405.1 174.56 402.66 175.96 401.36 175.52C397.49 176.54 393.59 177.39 389.66 178.07C392.09 181.17 394.39 184.09 394.54 184.21C398.43 187.13 401.73 185.87 407.32 182.94C409.24 181.94 406.62 176.71 405.52 175.15Z" fill="white"/>
<path d="M400.83 175.15C400.64 174.9 400.06 173.96 399.26 172.62C395.18 173.26 391.06 173.92 386.9 174.54C387.76 175.64 388.72 176.87 389.67 178.07C393.6 177.38 397.5 176.54 401.37 175.52C401.16 175.45 400.97 175.33 400.84 175.15H400.83Z" fill="#0054A7"/>
<path d="M396.82 168.54C392.59 169.55 388.31 170.31 383.99 170.85C384.39 171.34 385.52 172.78 386.9 174.54C391.05 173.92 395.17 173.26 399.26 172.62C398.58 171.5 397.75 170.09 396.82 168.54Z" fill="white"/>
<path d="M395.11 165.66C381.03 168.06 366.54 169.12 351.93 168.84C351.91 169.76 351.9 170.82 351.89 171.96C362.31 172.27 372.65 172.18 382.81 170.99C382.71 169.87 382.91 169.55 383.93 170.78C383.95 170.8 383.97 170.83 383.99 170.86C388.3 170.32 392.58 169.56 396.82 168.55C396.27 167.63 395.7 166.66 395.11 165.67V165.66Z" fill="#0054A7"/>
<path d="M351.05 165.96C351.54 164.82 352.47 163.61 352.1 165.6C352.01 166.06 351.96 167.25 351.93 168.84C366.54 169.12 381.03 168.06 395.11 165.66C394.19 164.11 393.24 162.51 392.34 160.99C376.19 163.43 359.4 160.85 343.38 158.84C341.32 161.91 339.49 164.86 338.89 166.14C338.83 166.27 338.51 167.03 338.06 168.17C341.98 168.47 345.9 168.68 349.81 168.79C350.5 167.23 350.96 166.18 351.05 165.96Z" fill="white"/>
<path d="M392.34 160.99C391.71 159.94 391.11 158.92 390.55 157.99C375.56 159 360.07 159.89 345.19 156.21C344.58 157.07 343.98 157.96 343.38 158.85C359.39 160.86 376.19 163.43 392.34 161V160.99Z" fill="#0054A7"/>
<path d="M376.32 131.15C377.05 130.55 377.55 129.46 378.42 129.05C379.29 128.64 380.48 128.21 381.38 128.42C382.28 128.62 383.7 129.38 383.83 130.41C383.96 131.43 384.6 132.86 385.42 133.11C386.24 133.36 387.33 133.74 387.8 133.49C388.17 133.65 388.32 134.19 388.12 135.1C387.92 136.01 387.43 137.19 386.74 137.81C386.05 138.43 385.32 139.33 384.01 139.81C382.7 140.29 380.71 141.17 378.01 139.6C375.31 138.03 375.58 135.27 375.62 133.89C375.66 132.5 376.07 131.55 376.33 131.17L376.32 131.15Z" fill="url(#paint13_linear_425_2697)"/>
<path d="M375.32 137.45C374.28 140.21 372.14 141.91 370.13 142.32C368.12 142.73 365.46 142.01 363.37 139.89C359.01 135.44 356.61 123.91 365.78 122.04C374.95 120.17 377.49 131.67 375.32 137.45Z" fill="#FFDBB0"/>
<path d="M359.72 127.58C359.61 127.52 359.69 126.73 359.96 126.13C360.64 124.61 362.22 122.32 364.47 121.41C367.6 120.14 370.35 120.78 371.65 121.11C372.95 121.44 374.86 122.64 375.53 124.03C376.2 125.42 377.15 129.15 377.05 130.55C376.95 131.95 376.28 132.41 376.02 132.62C376.12 130.8 374.47 128.98 373.97 128.37C373.47 127.75 371.13 125.99 368.86 125.73C366.6 125.47 363.39 125.71 362.07 126.25C360.74 126.79 360.02 127.86 359.72 127.59V127.58Z" fill="url(#paint14_linear_425_2697)"/>
<path d="M384.16 201.65C384.56 200.58 385.26 197.85 388.05 196.39C390.84 194.93 391.24 193.56 391.24 190.64C391.24 187.72 392.04 183.92 393.34 181.39C394.64 178.86 396.23 176.91 397.63 175.74C399.03 174.57 400.82 173.11 401.12 174.18C401.42 175.25 401.52 176.03 400.32 177.88C399.12 179.73 394.53 185.67 394.13 187.04C393.73 188.4 392.13 194.44 392.03 197.07C391.93 199.7 391.13 203.21 394.13 205.94C397.12 208.67 397.17 209.59 402.12 209.84C405.34 210 407.36 209.21 407.96 207.06C408.56 204.92 409.41 204.77 410.51 203.7C411.61 202.63 413.4 201.07 413.9 201.26C414.4 201.45 414.7 203.21 414.7 205.74C414.7 208.27 413.3 212.95 411.81 215.77C410.31 218.6 406.72 220.15 406.12 222.49C405.52 224.83 403.72 225.9 399.73 225.9C395.74 225.9 393.44 226.58 389.35 226.09C385.26 225.6 378.87 225.21 379.77 221.02C380.67 216.83 381.57 203.48 384.16 201.63V201.65Z" fill="url(#paint15_linear_425_2697)"/>
<path d="M384.46 196.1C386.06 196.1 385.01 196.31 385.51 202.09C386 207.87 392.78 236.44 393.15 240.78C393.52 245.12 399.81 279.68 399.44 282.2C399.07 284.73 398.58 285.81 395.62 286.54C392.66 287.26 389.08 287.02 387.35 285.58C385.62 284.14 382.04 271.49 380.19 265.47C378.34 259.45 372.17 229.34 371.31 226.57C370.45 223.8 370.32 222.84 369.21 228.5C368.1 234.16 367.98 243.67 364.89 248.49C361.81 253.31 346.75 277.63 342.68 278.96C338.61 280.28 337.25 278.84 334.66 276.19C332.07 273.54 329.72 272.94 333.18 270.17C336.63 267.4 348.36 252.47 350.58 245.36C352.8 238.26 353.79 226.21 352.43 217.9C351.07 209.59 348.86 203.97 351.82 197.71C352.24 196.85 356.77 198.15 358.67 197.6C364.51 195.92 371.17 197.2 375.51 197.6C379.86 198 383.93 196.14 384.46 196.1Z" fill="url(#paint16_linear_425_2697)"/>
<path d="M499.89 106.43H516.07L512.2 98.2302C512.2 98.2302 521.83 93.6302 526.56 88.4302C533.4 80.9102 535.7 72.1002 535.45 60.4002C535.22 49.6902 531.8 41.4902 521.32 35.5602C511.34 29.9202 498.08 31.6902 488.96 39.2102C480.77 45.9702 477.73 51.5202 477.34 59.0302C476.66 72.0202 479.16 81.1302 487.82 88.6502C497.9 97.4102 498.33 96.6302 504.91 98.4502C502.66 100.96 499.9 106.43 499.9 106.43H499.89Z" fill="url(#paint17_linear_425_2697)"/>
<path d="M504.5 199.19L502.12 198.68C509.23 165.22 506.7 159.93 503.2 152.62C502.57 151.31 501.92 149.95 501.27 148.35C497.02 137.84 498.55 130.32 499.66 124.82L499.83 123.96C500.36 121.33 501.74 117.79 503.21 114.05C504.97 109.56 506.96 104.47 507.57 100.55L509.97 100.93C509.32 105.12 507.36 110.11 505.47 114.94C504.04 118.58 502.7 122.02 502.21 124.45L502.03 125.32C500.92 130.8 499.53 137.62 503.51 147.45C504.13 148.98 504.76 150.3 505.38 151.58C509.09 159.33 511.78 164.93 504.49 199.2L504.5 199.19Z" fill="#B3B3B3"/>
<path d="M581.19 127.21C580.75 119.29 577.56 103.44 563.14 102.56C548.72 101.68 544.43 111.03 542.78 114.12C541.13 117.2 536.69 125.31 540.25 136.46C543.96 148.1 553.3 150.37 558.83 150.63L556.09 157.81L564.01 158.69L562.94 150.37C565.78 149.87 569.82 148.63 572.71 146.14C576.67 142.73 581.62 135.14 581.18 127.21H581.19Z" fill="url(#paint18_linear_425_2697)"/>
<path d="M553.34 219.65L551.17 218.77C560.78 195.03 559.63 189.44 558.3 182.96C558.09 181.95 557.88 180.91 557.7 179.77C556.85 174.37 557.34 166.19 559.16 155.44L559.24 154.97L561.55 155.35L561.47 155.83C559.69 166.33 559.2 174.26 560.01 179.41C560.18 180.49 560.39 181.51 560.59 182.49C561.99 189.34 563.21 195.26 553.34 219.65Z" fill="#B3B3B3"/>
<defs>
<linearGradient id="paint0_linear_425_2697" x1="242.69" y1="19.8599" x2="285.23" y2="19.8599" gradientUnits="userSpaceOnUse">
<stop stop-color="#FAD7D9"/>
<stop offset="0.17" stop-color="#F6BBBE"/>
<stop offset="0.38" stop-color="#F29EA3"/>
<stop offset="0.59" stop-color="#EF898F"/>
<stop offset="0.8" stop-color="#ED7D83"/>
<stop offset="1" stop-color="#ED7980"/>
</linearGradient>
<linearGradient id="paint1_linear_425_2697" x1="125.73" y1="101.19" x2="173.38" y2="101.19" gradientUnits="userSpaceOnUse">
<stop stop-color="#FFD4AA"/>
<stop offset="0.03" stop-color="#FDCD9F"/>
<stop offset="0.14" stop-color="#F9BA7F"/>
<stop offset="0.26" stop-color="#F6A965"/>
<stop offset="0.38" stop-color="#F49D51"/>
<stop offset="0.53" stop-color="#F29442"/>
<stop offset="0.71" stop-color="#F18F3A"/>
<stop offset="1" stop-color="#F18E38"/>
</linearGradient>
<linearGradient id="paint2_linear_425_2697" x1="62.84" y1="104.84" x2="104.68" y2="104.84" gradientUnits="userSpaceOnUse">
<stop stop-color="#FFAB28"/>
<stop offset="0.04" stop-color="#FEB02E"/>
<stop offset="0.22" stop-color="#FEC343"/>
<stop offset="0.42" stop-color="#FED152"/>
<stop offset="0.65" stop-color="#FED95B"/>
<stop offset="1" stop-color="#FEDC5E"/>
</linearGradient>
<linearGradient id="paint3_linear_425_2697" x1="1.67997" y1="82.88" x2="48.64" y2="82.88" gradientUnits="userSpaceOnUse">
<stop stop-color="#3684E4"/>
<stop offset="1" stop-color="#A8D3EE"/>
</linearGradient>
<linearGradient id="paint4_linear_425_2697" x1="193.02" y1="67.4499" x2="232.25" y2="67.4499" gradientUnits="userSpaceOnUse">
<stop stop-color="#FFAB28"/>
<stop offset="0.04" stop-color="#FEB02E"/>
<stop offset="0.22" stop-color="#FEC343"/>
<stop offset="0.42" stop-color="#FED152"/>
<stop offset="0.65" stop-color="#FED95B"/>
<stop offset="1" stop-color="#FEDC5E"/>
</linearGradient>
<linearGradient id="paint5_linear_425_2697" x1="185.36" y1="170.79" x2="200.19" y2="185.62" gradientUnits="userSpaceOnUse">
<stop stop-color="#4FA5DB"/>
<stop offset="0.17" stop-color="#3287C8"/>
<stop offset="0.34" stop-color="#1C70B9"/>
<stop offset="0.53" stop-color="#0C60AF"/>
<stop offset="0.73" stop-color="#0257A8"/>
<stop offset="1" stop-color="#0054A7"/>
</linearGradient>
<linearGradient id="paint6_linear_425_2697" x1="158.8" y1="306.94" x2="214.8" y2="250.93" gradientUnits="userSpaceOnUse">
<stop stop-color="#3684E4"/>
<stop offset="1" stop-color="#A8D3EE"/>
</linearGradient>
<linearGradient id="paint7_linear_425_2697" x1="167.21" y1="244.34" x2="209.84" y2="201.71" gradientUnits="userSpaceOnUse">
<stop stop-color="#62C0B4"/>
<stop offset="0.35" stop-color="#64C1B4"/>
<stop offset="0.57" stop-color="#6DC5B5"/>
<stop offset="0.76" stop-color="#7CCDB8"/>
<stop offset="0.93" stop-color="#91D8BC"/>
<stop offset="1" stop-color="#9CDEBE"/>
</linearGradient>
<linearGradient id="paint8_linear_425_2697" x1="181.63" y1="147.45" x2="196.93" y2="147.45" gradientUnits="userSpaceOnUse">
<stop stop-color="#62C0B4"/>
<stop offset="0.35" stop-color="#64C1B4"/>
<stop offset="0.57" stop-color="#6DC5B5"/>
<stop offset="0.76" stop-color="#7CCDB8"/>
<stop offset="0.93" stop-color="#91D8BC"/>
<stop offset="1" stop-color="#9CDEBE"/>
</linearGradient>
<linearGradient id="paint9_linear_425_2697" x1="173.2" y1="187.47" x2="202.48" y2="187.47" gradientUnits="userSpaceOnUse">
<stop stop-color="#3684E4"/>
<stop offset="1" stop-color="#A8D3EE"/>
</linearGradient>
<linearGradient id="paint10_linear_425_2697" x1="170.76" y1="171.76" x2="203.65" y2="171.76" gradientUnits="userSpaceOnUse">
<stop stop-color="#FFAB28"/>
<stop offset="0.04" stop-color="#FEB02E"/>
<stop offset="0.22" stop-color="#FEC343"/>
<stop offset="0.42" stop-color="#FED152"/>
<stop offset="0.65" stop-color="#FED95B"/>
<stop offset="1" stop-color="#FEDC5E"/>
</linearGradient>
<linearGradient id="paint11_linear_425_2697" x1="290.5" y1="205.41" x2="305.15" y2="205.41" gradientUnits="userSpaceOnUse">
<stop stop-color="#4FA5DB"/>
<stop offset="0.17" stop-color="#3287C8"/>
<stop offset="0.34" stop-color="#1C70B9"/>
<stop offset="0.53" stop-color="#0C60AF"/>
<stop offset="0.73" stop-color="#0257A8"/>
<stop offset="1" stop-color="#0054A7"/>
</linearGradient>
<linearGradient id="paint12_linear_425_2697" x1="277.72" y1="231.15" x2="323.21" y2="276.64" gradientUnits="userSpaceOnUse">
<stop stop-color="#FAD7D9"/>
<stop offset="0.17" stop-color="#F6BBBE"/>
<stop offset="0.38" stop-color="#F29EA3"/>
<stop offset="0.59" stop-color="#EF898F"/>
<stop offset="0.8" stop-color="#ED7D83"/>
<stop offset="1" stop-color="#ED7980"/>
</linearGradient>
<linearGradient id="paint13_linear_425_2697" x1="388.21" y1="134.41" x2="375.59" y2="134.41" gradientUnits="userSpaceOnUse">
<stop stop-color="#4FA5DB"/>
<stop offset="0.17" stop-color="#3287C8"/>
<stop offset="0.34" stop-color="#1C70B9"/>
<stop offset="0.53" stop-color="#0C60AF"/>
<stop offset="0.73" stop-color="#0257A8"/>
<stop offset="1" stop-color="#0054A7"/>
</linearGradient>
<linearGradient id="paint14_linear_425_2697" x1="377.06" y1="126.63" x2="359.67" y2="126.63" gradientUnits="userSpaceOnUse">
<stop stop-color="#4FA5DB"/>
<stop offset="0.17" stop-color="#3287C8"/>
<stop offset="0.34" stop-color="#1C70B9"/>
<stop offset="0.53" stop-color="#0C60AF"/>
<stop offset="0.73" stop-color="#0257A8"/>
<stop offset="1" stop-color="#0054A7"/>
</linearGradient>
<linearGradient id="paint15_linear_425_2697" x1="382.61" y1="190.69" x2="410.71" y2="218.79" gradientUnits="userSpaceOnUse">
<stop stop-color="#FAD7D9"/>
<stop offset="0.47" stop-color="#F3A9AD"/>
<stop offset="1" stop-color="#ED7980"/>
</linearGradient>
<linearGradient id="paint16_linear_425_2697" x1="337.42" y1="279.11" x2="402.77" y2="213.76" gradientUnits="userSpaceOnUse">
<stop stop-color="#3684E4"/>
<stop offset="1" stop-color="#A8D3EE"/>
</linearGradient>
<linearGradient id="paint17_linear_425_2697" x1="484.12" y1="43.6602" x2="531.48" y2="91.0202" gradientUnits="userSpaceOnUse">
<stop stop-color="#3684E4"/>
<stop offset="1" stop-color="#A8D3EE"/>
</linearGradient>
<linearGradient id="paint18_linear_425_2697" x1="581.22" y1="130.6" x2="538.91" y2="130.6" gradientUnits="userSpaceOnUse">
<stop stop-color="#FFD4AA"/>
<stop offset="0.03" stop-color="#FDCD9F"/>
<stop offset="0.14" stop-color="#F9BA7F"/>
<stop offset="0.26" stop-color="#F6A965"/>
<stop offset="0.38" stop-color="#F49D51"/>
<stop offset="0.53" stop-color="#F29442"/>
<stop offset="0.71" stop-color="#F18F3A"/>
<stop offset="1" stop-color="#F18E38"/>
</linearGradient>
</defs>
</svg>
