<svg width="203" height="195" viewBox="0 0 203 195" fill="none" xmlns="http://www.w3.org/2000/svg">
<path d="M154.184 95.1516H136.014V97.7216H154.184V95.1516Z" fill="#51A7DD"/>
<path d="M154.324 94.7415C154.744 94.7415 155.084 95.1515 155.074 95.6315L155.034 97.5015C155.024 97.9815 154.674 98.3615 154.244 98.3615L145.194 98.1615C144.774 98.1615 144.434 97.7515 144.444 97.2715L144.484 95.4015C144.494 94.9215 144.844 94.5415 145.274 94.5415L154.324 94.7415Z" fill="#0054A7"/>
<path d="M168.594 45.6616C168.844 45.6416 172.164 45.6716 172.484 45.6216C172.644 46.1816 172.784 50.4916 172.784 51.2516C172.784 52.5516 172.684 54.4116 172.174 56.1916C171.804 56.8216 167.734 58.6316 167.934 53.6116C168.004 51.7516 168.104 49.2916 168.184 48.6816C168.324 47.6616 168.624 46.0416 168.594 45.6616Z" fill="#FFDBB0"/>
<path d="M12.0541 58.8616C12.6841 57.1216 15.0341 51.7816 15.5441 50.9316C16.7341 48.9616 20.1541 46.2716 21.5841 45.4116C22.9041 44.6216 22.4441 44.1316 22.4341 43.3516C22.4241 42.5716 20.9741 43.2616 19.8341 43.8216C18.6941 44.3816 17.2941 45.4416 15.9941 46.9416C14.6841 48.4516 12.6241 51.3016 11.5441 53.3916C10.5941 55.2216 9.92409 55.9616 9.25409 57.9016C9.03409 58.5516 11.9841 59.0616 12.0541 58.8716V58.8616Z" fill="#0054A7"/>
<path d="M26.7641 61.7717C24.8241 61.2517 23.1441 60.8117 22.3641 60.6317C21.1341 60.3417 14.1941 58.6417 14.0441 58.5817C13.8441 58.5417 13.2041 58.4017 12.3141 58.2017C10.8941 66.3017 9.37409 74.8617 8.38409 83.1817C9.21409 83.3517 10.0641 83.5317 10.9641 83.7617C12.2641 84.0917 14.8041 85.0217 17.3141 85.6517C20.2041 77.5417 23.4241 69.8917 26.7841 61.7817L26.7641 61.7717Z" fill="#FEDC5E"/>
<path d="M26.7641 61.7717C23.4041 69.8817 20.1841 77.5417 17.2941 85.6417C17.9041 85.7917 18.5041 85.9317 19.0841 86.0317C22.8341 78.4517 25.0341 70.0317 29.3441 62.4617C28.4741 62.2217 27.5941 61.9817 26.7641 61.7617V61.7717Z" fill="#0054A7"/>
<path d="M36.5041 64.6117C35.9141 64.3317 32.6441 63.3817 29.3341 62.4717C25.0341 70.0417 22.8341 78.4617 19.0741 86.0417C21.0141 86.3917 22.7341 86.4217 23.5741 85.6617C24.8241 84.5117 27.5741 80.3917 28.8441 78.2617C29.9941 76.3417 32.1241 72.6217 33.8541 70.3317C34.9241 68.9117 37.4641 65.0817 36.5041 64.6117Z" fill="#FEDC5E"/>
<path d="M1.28408 56.3417C-0.765916 57.1617 0.204084 69.0217 0.404084 72.1117C0.604084 75.1217 0.774084 80.8117 3.41408 81.8417C4.30408 82.1917 5.14408 82.4417 5.97408 82.6517C7.95408 74.7617 8.04408 65.6417 9.30408 57.5617C5.76408 56.8117 1.52408 55.9817 1.27408 56.3517L1.28408 56.3417Z" fill="url(#paint0_linear_425_1270)"/>
<path d="M9.03408 67.8816L23.9241 71.6816L23.3241 74.0316L8.90408 70.3616L9.03408 67.8816Z" fill="#0054A7"/>
<path d="M9.31407 57.5515C8.05407 65.6415 7.96407 74.7515 5.98407 82.6415C6.78407 82.8415 7.57407 83.0115 8.37407 83.1715C9.36407 74.8515 10.8841 66.2915 12.3041 58.1915C11.4741 58.0115 10.4341 57.7815 9.31407 57.5415V57.5515Z" fill="#0054A7"/>
<path d="M19.7141 39.4016C18.7741 37.9416 18.4441 37.3416 18.5541 36.5716C18.6641 35.8016 18.7241 33.9316 18.7441 32.8116C18.7641 31.6816 18.3041 31.1516 17.7041 31.3116C17.1041 31.4816 17.2741 32.4016 16.8241 33.9716C16.3741 35.5416 16.0741 34.7316 15.3241 34.2516C14.5741 33.7716 11.8241 30.7116 10.9641 30.2416C10.1041 29.7816 9.16409 29.0716 8.60409 29.7416C8.04409 30.4116 9.64409 31.2416 9.63409 31.8816C9.63409 32.5216 8.96409 32.4016 8.01409 32.6616C7.06409 32.9216 7.42409 33.4216 7.73409 34.3916C8.04409 35.3616 8.31409 35.3516 8.02409 36.1616C7.73409 36.9816 7.94409 37.1616 8.49409 37.7316C9.04409 38.3016 11.0941 38.9116 12.8041 39.5616C14.5141 40.2116 15.5241 40.7316 16.1241 42.2316C16.1641 42.3216 16.2341 42.4616 16.3341 42.6416C17.7341 41.9616 19.2141 41.3716 20.6941 40.6916C20.2041 40.0816 19.8541 39.6216 19.7041 39.3916L19.7141 39.4016Z" fill="#FFDBB0"/>
<path d="M74.7941 72.3415C75.8741 75.5315 76.0941 79.5615 76.7041 80.6115C77.3141 81.6615 78.7341 84.6215 79.6441 86.5215C80.0141 87.2915 79.8441 88.6015 79.4241 91.1715C79.2341 92.3115 78.1241 90.7415 77.3641 91.8715C76.0841 93.7615 75.5441 92.3115 74.8841 92.5215C73.7441 92.8915 73.4341 93.0215 73.2341 91.4215C73.0341 89.8215 73.0941 88.7815 73.1741 88.0515C73.2541 87.3215 73.1241 86.2015 72.2141 87.1915C71.2941 88.1815 70.7341 88.6615 69.7841 88.5915C68.8441 88.5215 68.6841 87.8215 69.9241 86.7515C71.0941 85.2015 71.4941 82.6515 71.9441 81.6215C72.3941 80.6015 71.5341 79.3715 70.7441 77.1515C69.9641 74.9315 73.7241 69.1415 74.8041 72.3315L74.7941 72.3415Z" fill="#FFDBB0"/>
<path d="M51.0241 20.2217C50.8241 20.2217 48.1341 20.4217 47.8741 20.4017C47.7741 20.8617 47.4441 22.5517 47.1841 23.1117C46.9241 23.6717 45.0741 26.9017 44.8141 27.1817C47.7841 29.8917 51.9241 29.5317 53.9241 27.0817C53.3841 26.8017 51.7541 23.7517 51.5241 22.6417C51.3541 21.8217 51.0241 20.5317 51.0241 20.2217Z" fill="#FFDBB0"/>
<path d="M44.5541 13.2217C45.3241 8.00168 48.3041 2.19168 54.6141 3.52168C60.9241 4.85168 61.4841 11.8217 60.0841 16.9017C60.4441 16.6717 61.4641 16.8117 61.2841 17.6617C61.2041 18.0617 60.8541 18.7517 60.2441 19.2117C59.5341 19.7517 58.7641 19.6217 58.3741 19.7017C57.7541 20.9217 56.7041 21.9217 55.8941 22.4317C54.7341 23.1817 52.1341 24.0617 50.0541 23.6817C48.3941 23.3817 46.6541 21.5017 45.8341 20.1317C45.0541 18.8417 44.6741 17.6817 44.4441 16.5817C44.1241 16.3517 43.4441 16.1217 42.9941 15.3617C42.6041 14.7017 42.5941 13.1017 43.0341 12.8317C43.7041 12.4217 44.4241 13.0117 44.5441 13.2117L44.5541 13.2217Z" fill="#FFDBB0"/>
<path d="M53.2541 0.501593C53.8341 0.0715929 56.2241 -0.468407 58.2241 0.731593C60.2141 1.94159 61.1841 3.26159 61.3141 4.48159C61.4441 5.70159 62.1441 7.32159 63.3041 8.48159C64.4741 9.64159 62.5741 14.1216 61.5341 15.2916C60.4941 16.4616 60.3741 17.0816 59.9341 16.9916C59.5041 16.9016 60.2141 16.3516 59.8741 16.0116C59.5341 15.6716 60.5041 11.9916 60.0641 10.7516C59.6341 9.51159 58.7641 9.89159 57.8941 10.0116C56.7541 10.1616 55.9541 7.38159 54.3141 8.92159C53.3341 9.84159 52.0041 8.35159 51.8241 7.53159C51.6441 6.71159 50.9741 6.22159 50.3141 6.56159C49.9641 6.74159 49.2341 7.70159 48.6941 8.67159C48.1541 9.64159 46.4641 10.8216 45.7341 10.9916C45.0041 11.1616 45.1541 11.5116 44.9741 12.1516C44.7941 12.7916 44.5741 14.0316 44.1441 12.2316C43.7141 10.4316 43.6041 6.58159 44.3241 4.55159C45.0441 2.51159 47.9341 0.401593 49.6841 0.671593C51.4341 0.941593 52.6741 1.19159 53.2341 0.511593L53.2541 0.501593Z" fill="url(#paint1_linear_425_1270)"/>
<path d="M17.9641 177.072C23.6441 176.632 19.2541 171.322 21.9941 166.432C21.9941 166.432 25.2141 164.112 26.0141 166.282C26.6141 167.942 27.3941 174.252 27.6141 178.582C24.2941 179.932 20.5241 179.272 17.9741 177.072H17.9641Z" fill="#FFDBB0"/>
<path d="M17.9241 177.072C17.9241 177.072 17.9541 177.072 17.9641 177.072C20.5141 179.282 24.2841 179.932 27.6041 178.582C27.6741 179.932 27.6941 181.092 27.6341 181.842C27.3841 185.032 16.9841 185.182 12.3941 182.542C7.12407 179.512 8.55407 177.752 17.9341 177.072H17.9241Z" fill="#0054A7"/>
<path d="M58.4841 173.932C58.0041 171.032 58.2741 167.172 58.2741 164.372C55.5141 162.302 53.4441 162.302 53.2141 168.052C52.9841 173.802 52.2941 176.792 48.8441 178.632C48.8141 178.652 48.7841 178.662 48.7541 178.682C52.2841 178.502 56.0041 176.652 58.4941 173.922L58.4841 173.932Z" fill="#FFDBB0"/>
<path d="M58.4841 173.931C55.9941 176.661 52.2741 178.511 48.7441 178.691C45.3341 180.521 42.4141 182.791 44.6941 183.931C46.9941 185.081 50.2141 184.851 53.2041 183.241C56.1941 181.631 60.5641 179.101 59.1841 176.341C58.8541 175.681 58.6241 174.851 58.4741 173.931H58.4841Z" fill="#0054A7"/>
<path d="M29.7841 73.3815C29.5241 74.5915 25.9841 106.602 24.9541 109.702C23.9141 112.812 20.3241 172.342 20.3241 173.292C20.3241 174.242 23.1541 175.092 24.2741 175.092C25.3941 175.092 27.7341 175.572 28.3441 173.772C29.9041 169.222 42.5541 108.062 42.7241 106.252C42.8941 104.442 43.6741 102.632 43.8441 106.252C44.0141 109.872 52.2841 171.412 52.5441 172.012C52.8041 172.612 57.2941 172.172 58.3341 172.172C59.3741 172.172 59.4141 171.972 60.0541 169.022C60.9341 164.952 63.5141 127.302 63.4341 124.282C63.3541 121.262 62.0641 76.2315 61.0241 74.2915C59.9841 72.3415 29.7941 73.3815 29.7941 73.3815H29.7841Z" fill="url(#paint2_linear_425_1270)"/>
<path d="M40.7741 25.6215C42.9041 25.1715 45.2741 25.1115 45.9041 25.9815C46.9441 27.4115 52.3841 26.7915 53.3241 26.3615C54.2641 25.9415 58.8541 26.6115 60.2341 27.4715C60.4941 27.5815 60.8841 27.8115 61.3341 28.1315C61.3841 35.6815 60.1341 43.2315 61.2541 50.7815C61.1341 51.4115 61.2441 53.3015 61.3541 54.4715C61.5241 56.3715 62.1341 72.3315 62.8241 75.6115C63.5141 78.8915 63.5141 79.8415 62.2241 79.4915C60.9341 79.1415 59.9841 78.2815 57.9941 78.2015C56.0141 78.1115 42.2941 78.8915 40.1341 78.6615C37.9741 78.4315 30.1341 79.1115 30.1341 78.1615C30.1341 77.4215 31.7841 62.7115 33.3641 55.1615C35.5241 44.9815 38.4641 35.1815 40.7641 25.6015L40.7741 25.6215Z" fill="white"/>
<path d="M30.1341 57.1017C28.6741 55.9417 28.3341 59.4117 23.5641 59.2417C18.8841 59.0717 17.4541 53.4117 14.2541 47.7017C10.0941 40.2917 17.7941 37.1917 20.3041 37.7717C22.8641 38.3617 25.2941 48.2417 29.3441 42.7517C31.7341 39.5017 30.1341 31.1017 37.7641 26.7217C39.4941 25.7317 42.6141 23.5217 45.8941 25.4417C46.5241 25.8117 41.1541 43.9217 40.6741 47.7517C40.4341 68.5917 35.1641 86.9217 33.9641 89.5617C32.0441 92.0817 29.8241 93.4117 28.0941 93.7517C26.3641 94.1017 25.5741 92.0617 25.5741 91.1117C25.5741 90.1617 26.9341 80.6517 28.3741 72.5017C29.2041 67.7817 31.3441 58.0517 30.1241 57.0917L30.1341 57.1017Z" fill="url(#paint3_linear_425_1270)"/>
<path d="M54.1741 26.1915C55.1141 25.7715 59.7041 26.4415 61.0841 27.3015C62.1741 27.7615 65.2241 30.1515 67.1241 32.7415C69.0241 35.3315 74.1241 54.5115 74.8241 56.5015C75.5141 58.4815 76.9541 79.8915 76.2641 79.9815C75.5741 80.0715 69.7041 81.7015 69.4341 81.1815C69.1641 80.6615 64.3641 57.2415 62.4841 58.1815C62.0141 58.4215 63.4841 63.8615 63.8041 67.6415C64.1341 71.5315 64.5341 74.2415 64.8841 75.9115C65.5741 79.1915 67.5241 98.1915 65.7241 101.551C63.1841 106.291 58.9641 99.7215 56.9841 99.6315C55.4941 99.5615 49.7941 98.5515 47.0441 92.5615C46.8841 84.0815 52.2641 67.0215 51.2341 52.9115C50.6341 44.6415 53.9041 26.3215 54.1841 26.2015L54.1741 26.1915Z" fill="url(#paint4_linear_425_1270)"/>
<path d="M26.2141 41.8716C27.9341 42.8016 29.3341 45.8416 30.3241 48.8216C31.0641 51.0516 31.3641 54.7816 31.0841 56.8216C30.7041 59.6116 28.8941 63.2516 28.2541 63.3216C27.6141 63.3916 25.5241 64.3216 26.5841 62.2516C28.8141 57.8716 29.2641 55.1016 29.0941 53.8816C28.7741 51.5716 28.4241 49.9616 27.8041 47.9316C27.3041 46.2716 25.7641 44.8816 25.6041 44.4216C25.4441 43.9616 24.5941 42.2316 26.2141 41.8616V41.8716Z" fill="#0054A7"/>
<path d="M152.904 84.6617C151.944 85.3817 151.294 86.1017 150.674 85.6117C150.054 85.1217 148.574 85.2517 147.784 85.2817C146.994 85.3117 147.134 86.0617 147.174 86.7417C147.214 87.4317 146.794 87.4217 145.624 87.5517C144.464 87.6817 144.174 88.6217 144.224 88.9917C144.264 89.3617 144.734 89.6317 144.504 90.3717C144.274 91.1017 144.954 91.5417 145.314 91.8617C145.674 92.1817 146.404 92.4617 146.394 92.9917C146.384 93.5217 147.374 93.8017 147.894 94.1817C148.414 94.5617 148.844 93.8917 150.854 93.7717C152.854 93.6617 152.954 91.9217 153.234 90.7717C153.524 89.6217 153.704 88.7817 154.184 88.5317C154.294 88.4717 155.054 87.7917 156.144 86.7317C155.084 86.0417 154.054 85.2917 153.084 84.4617C153.014 84.5417 152.944 84.6217 152.894 84.6617H152.904Z" fill="#FFDBB0"/>
<path d="M88.4441 127.222C88.1441 126.422 88.0541 126.092 88.1941 125.732C88.3341 125.372 88.7741 124.492 88.6941 123.942C88.5441 122.982 87.7941 123.082 87.4941 122.772C87.1841 122.462 86.8241 122.272 86.4641 121.952C86.1041 121.632 85.4741 121.402 85.1341 121.672C84.7941 121.932 84.2141 121.702 84.1341 122.012C84.0641 122.322 84.0341 122.692 83.5541 122.712C83.0641 122.732 83.1841 123.012 83.2341 123.512C83.2741 124.012 83.4141 124.032 83.1841 124.392C82.9541 124.752 83.0341 124.862 83.2441 125.192C83.4441 125.522 84.3641 126.042 85.1241 126.542C85.8741 127.042 86.3041 127.392 86.4341 128.182C86.4341 128.232 86.4641 128.302 86.4841 128.402C87.2341 128.222 88.0041 128.102 88.7941 127.932C88.6241 127.582 88.5041 127.332 88.4641 127.202L88.4441 127.222Z" fill="#FFDBB0"/>
<path d="M92.1541 146.632C92.4941 143.572 93.6241 143.502 94.4641 141.752C95.1341 140.332 96.4741 138.822 97.4041 137.802C98.6741 136.402 99.8641 135.032 99.9541 132.322C100.034 129.902 101.714 129.752 100.384 126.572C99.3341 124.042 98.3441 124.362 95.7341 124.032C93.2641 123.902 91.3541 125.392 88.9441 124.582C87.7441 124.182 85.6041 126.882 86.0041 128.122C86.2741 128.942 86.7041 129.912 85.8841 130.882C84.7941 132.182 80.2341 136.152 81.1041 143.192C81.3741 145.332 77.3441 144.672 74.5741 144.292C73.1141 144.092 72.5341 144.432 71.6541 143.422C69.9941 141.522 67.7941 143.952 68.2841 146.582C69.2441 152.602 91.1741 155.502 92.1441 146.622L92.1541 146.632Z" fill="#FEDC5E"/>
<path d="M102.924 125.612C100.634 126.432 98.4541 126.002 97.1541 124.982C95.8541 123.952 94.9441 122.602 94.3841 121.022C94.0641 119.602 94.2641 117.972 94.5041 117.382C94.7141 116.842 95.0941 116.302 95.5441 115.862C96.6041 114.822 95.7441 114.182 98.4441 112.542C99.2641 112.042 103.444 110.082 107.094 112.672C110.304 114.952 107.724 123.892 102.934 125.612H102.924Z" fill="#FFDBB0"/>
<path d="M99.1441 111.052C99.6241 110.612 101.344 110.032 102.764 110.442C104.514 110.952 105.264 110.002 106.924 110.862C109.244 112.072 110.834 114.092 111.204 115.062C112.004 117.132 111.474 118.232 111.414 119.442C111.314 121.642 108.874 129.772 100.504 126.072C99.4941 125.622 98.8141 125.632 99.7941 123.802C100.944 122.942 102.654 122.212 102.784 121.602C102.914 120.992 102.124 120.622 101.544 120.622C100.074 120.622 100.524 120.372 100.804 118.402C101.144 116.002 96.3341 113.392 99.1441 111.042V111.052Z" fill="#ED7980"/>
<path d="M132.764 89.0918L120.964 103.832C121.614 104.342 122.224 104.902 122.804 105.512L134.704 90.6418L132.764 89.0918Z" fill="#51A7DD"/>
<path d="M150.934 89.0818H132.764V91.6518H150.934V89.0818Z" fill="#51A7DD"/>
<path d="M151.064 88.6717C151.484 88.6717 151.824 89.0817 151.814 89.5617L151.774 91.4317C151.764 91.9117 151.414 92.2917 150.984 92.2917L141.934 92.0917C141.514 92.0917 141.174 91.6817 141.184 91.2017L141.224 89.3317C141.234 88.8517 141.584 88.4717 142.014 88.4717L151.064 88.6717Z" fill="#0054A7"/>
<path d="M64.0854 153.225L63.2089 154.405L108.279 187.877L109.156 186.697L64.0854 153.225Z" fill="#51A7DD"/>
<path d="M63.1976 186.687L64.0741 187.867L109.144 154.395L108.268 153.214L63.1976 186.687Z" fill="#51A7DD"/>
<path d="M106.284 153.952H105.004V188.122H106.284V153.952Z" fill="#51A7DD"/>
<path d="M132.874 107.832C131.454 101.402 126.084 95.0917 118.244 91.6017C106.704 86.4517 98.9841 89.7317 91.0541 96.9417C90.7841 97.1917 90.0141 98.2317 89.9941 98.6817L107.024 106.232C99.7641 118.442 83.2441 145.602 82.2941 146.552C81.1041 147.742 67.0841 147.342 62.3441 147.342C57.6041 147.342 55.4341 149.712 55.8241 153.662C56.2241 157.612 58.7841 159.392 66.6841 159.192C74.5841 158.992 93.3541 159.192 98.6841 159.392C104.014 159.592 109.744 160.972 113.104 155.242C116.464 149.512 133.764 116.932 134.684 113.952C134.904 113.222 134.914 110.222 132.874 107.842V107.832Z" fill="url(#paint5_linear_425_1270)"/>
<path d="M63.2882 186.04L65.232 187.596L137.979 96.7282L136.035 95.172L63.2882 186.04Z" fill="url(#paint6_linear_425_1270)"/>
<path d="M65.6441 191.182C68.5601 191.182 70.9241 188.818 70.9241 185.902C70.9241 182.986 68.5601 180.622 65.6441 180.622C62.728 180.622 60.3641 182.986 60.3641 185.902C60.3641 188.818 62.728 191.182 65.6441 191.182Z" fill="#0054A7"/>
<path d="M105.104 191.182C108.02 191.182 110.384 188.818 110.384 185.902C110.384 182.986 108.02 180.622 105.104 180.622C102.188 180.622 99.8241 182.986 99.8241 185.902C99.8241 188.818 102.188 191.182 105.104 191.182Z" fill="#0054A7"/>
<path d="M68.8241 185.902C68.8241 187.662 67.4041 189.082 65.6441 189.082C63.8841 189.082 62.4641 187.662 62.4641 185.902C62.4641 184.142 63.8841 182.722 65.6441 182.722C67.4041 182.722 68.8241 184.142 68.8241 185.902Z" fill="#51A7DD"/>
<path d="M108.284 185.902C108.284 187.662 106.864 189.082 105.104 189.082C103.344 189.082 101.924 187.662 101.924 185.902C101.924 184.142 103.344 182.722 105.104 182.722C106.864 182.722 108.284 184.142 108.284 185.902Z" fill="#51A7DD"/>
<path d="M190.704 101.992C190.594 101.992 190.484 101.952 190.404 101.862C189.524 100.862 189.214 98.8118 188.894 94.8618C188.684 92.2518 188.434 91.8018 187.594 90.2918C187.254 89.6818 186.844 88.9318 186.304 87.8218C186.204 87.6218 186.294 87.3918 186.484 87.2918C186.684 87.1918 186.914 87.2818 187.014 87.4718C187.544 88.5618 187.954 89.3018 188.284 89.9018C189.154 91.4718 189.454 92.0118 189.674 94.7918C189.964 98.4018 190.264 100.512 190.994 101.332C191.144 101.492 191.124 101.742 190.964 101.892C190.884 101.962 190.794 101.992 190.704 101.992Z" fill="#ED7980"/>
<path d="M181.104 35.1717C182.034 34.8817 183.714 34.0717 184.694 34.0017C185.674 33.9417 186.744 33.8717 187.674 34.4217C189.114 35.2817 189.694 35.9117 189.974 36.8617C190.234 37.7017 189.624 40.0317 188.624 41.1417C187.484 42.7417 188.074 44.0617 188.474 44.9617C189.034 46.2317 190.914 47.4217 190.104 47.9517C187.734 49.4817 186.334 48.7917 185.304 47.5317C182.004 43.4817 187.294 41.8317 185.374 39.2417C183.464 36.6517 182.974 36.8117 181.084 35.1817L181.104 35.1717Z" fill="url(#paint7_linear_425_1270)"/>
<path d="M176.084 46.8516C173.994 49.1116 171.284 49.9116 169.214 49.5216C167.144 49.1216 165.334 48.1316 163.774 46.6916C162.584 45.2716 161.854 43.3216 161.774 42.5316C161.694 41.8016 161.804 40.9716 162.054 40.2016C162.634 38.4216 161.294 38.1916 163.374 34.7616C164.004 33.7216 167.564 29.0716 173.194 29.8516C178.134 30.5416 180.474 42.1216 176.094 46.8616L176.084 46.8516Z" fill="#FFDBB0"/>
<path d="M163.304 32.6717C163.594 31.9017 165.184 30.2417 167.024 29.8717C169.294 29.4217 169.584 27.9017 171.964 27.9117C175.284 27.9117 178.264 29.2617 179.244 30.1317C181.354 32.0017 181.984 33.4017 182.044 34.9317C182.104 36.4617 181.674 45.2517 173.644 48.7917C172.364 49.3617 171.484 49.2817 171.514 46.6517C172.304 45.0117 173.804 43.1817 173.594 42.4217C173.384 41.6617 172.274 41.7017 171.614 42.0417C169.954 42.9117 170.324 42.3617 169.484 39.9817C168.464 37.0717 161.514 36.9617 163.314 32.6717H163.304Z" fill="url(#paint8_linear_425_1270)"/>
<path d="M199.844 179.122C197.904 179.302 195.844 182.972 194.464 184.622C193.094 186.272 188.464 190.402 189.684 191.812C190.904 193.222 193.754 195.792 197.364 192.412C200.974 189.032 203.734 183.552 202.674 181.472C201.614 179.392 199.844 179.122 199.844 179.122Z" fill="#0054A7"/>
<path d="M200.794 181.902C201.214 181.162 201.354 180.002 201.264 179.552C200.864 177.712 188.714 139.912 188.064 138.832C188.064 138.832 180.114 140.622 180.694 142.312C181.264 144.012 194.324 178.722 194.694 179.762C194.824 180.122 195.474 182.102 196.174 182.732C196.904 183.612 199.524 183.732 200.804 181.892L200.794 181.902Z" fill="#FFDBB0"/>
<path d="M149.144 178.212C151.204 178.892 153.344 180.732 152.254 183.342C151.174 185.952 150.224 188.842 146.734 190.432C143.244 192.022 140.224 191.492 137.194 189.592C134.164 187.682 136.834 186.512 140.194 185.322C143.554 184.142 146.764 182.002 149.144 178.212Z" fill="#0054A7"/>
<path d="M168.174 137.842C168.174 137.842 160.004 133.562 159.574 134.472C159.134 135.382 148.644 178.362 147.634 180.252C147.044 181.352 148.224 183.402 151.104 182.992C151.584 182.892 152.114 182.562 152.434 182.082C152.794 181.532 168.354 139.372 168.174 137.832V137.842Z" fill="#FFDBB0"/>
<path d="M197.244 159.292C195.044 155.632 189.984 138.232 188.284 135.392C186.574 132.542 189.364 124.652 189.774 120.902C190.224 116.872 186.134 109.812 185.444 108.052C173.554 108.032 172.984 109.822 161.094 108.352C156.754 116.602 160.794 127.922 157.804 134.342C155.784 138.682 151.494 156.492 149.144 163.322C146.784 170.152 137.874 172.152 144.364 176.952C150.854 181.752 172.524 179.802 179.114 176.712C185.704 173.622 194.654 176.792 199.854 177.522C205.064 178.252 199.444 162.952 197.254 159.292H197.244Z" fill="url(#paint9_linear_425_1270)"/>
<path d="M157.534 92.8017C156.124 93.3017 155.564 93.4617 154.934 93.2217C154.314 92.9817 152.764 92.5617 151.824 92.3317C150.884 92.1017 150.344 92.3717 150.374 92.9117C150.394 93.4417 151.194 93.4917 152.424 94.1617C153.654 94.8417 152.914 94.9417 152.364 95.4717C151.814 96.0017 148.714 97.7117 148.164 98.3417C147.604 98.9717 146.834 99.6217 147.284 100.212C147.734 100.812 148.734 99.6317 149.274 99.7717C149.814 99.9017 149.584 100.432 149.614 101.282C149.644 102.132 150.134 101.922 151.004 101.862C151.874 101.802 151.914 101.562 152.544 101.962C153.174 102.362 153.364 102.222 153.944 101.872C154.534 101.522 155.444 99.9217 156.324 98.6217C157.204 97.3217 157.834 96.5717 159.204 96.3617C159.294 96.3517 159.414 96.3217 159.584 96.2717C159.284 94.9617 159.084 93.6117 158.804 92.2417C158.194 92.5317 157.744 92.7317 157.524 92.8117L157.534 92.8017Z" fill="#FFDBB0"/>
<path d="M190.374 102.972C189.424 97.6417 186.924 93.0917 186.444 89.6717C186.044 86.9017 190.974 85.7617 192.874 84.1917C195.444 82.0717 192.344 73.6517 189.954 69.5517C187.824 65.9017 184.424 60.3917 179.664 57.0217C175.884 54.3517 175.264 54.5117 174.504 52.2217C173.954 50.5817 171.834 50.7517 170.124 50.5317C166.344 50.0317 168.054 52.0017 167.294 53.2517C165.344 58.0717 163.534 62.9117 162.354 67.0817C161.554 69.8817 162.374 74.6117 159.894 77.3717C158.194 79.2617 156.274 80.9217 153.044 82.9617C151.234 84.1017 151.814 87.0917 152.494 88.0517C153.134 88.9517 154.264 91.1217 156.154 89.4017C156.154 89.4017 158.284 87.4717 159.024 88.9717C159.484 89.9017 157.264 89.8317 157.354 91.1517C157.534 93.6617 157.324 97.4217 159.284 97.9617C160.694 98.3517 158.364 105.162 158.254 105.672C157.644 108.622 152.784 128.132 155.074 129.732C154.874 132.722 172.504 133.322 178.284 130.732C186.804 126.912 190.824 129.192 191.634 127.742C193.224 124.152 191.844 111.162 190.394 102.992L190.374 102.972Z" fill="url(#paint10_linear_425_1270)"/>
<path d="M166.514 76.6618C164.694 70.6318 165.074 61.9618 165.314 58.5218C165.334 58.3018 165.164 58.1118 164.944 58.1018C164.714 58.0918 164.534 58.2518 164.524 58.4718C164.274 61.9618 163.894 70.7418 165.754 76.9018C166.804 80.3818 167.364 83.6818 167.694 86.5018C167.954 86.3918 168.204 86.2918 168.454 86.1718C168.114 83.3718 167.554 80.1118 166.514 76.6718V76.6618Z" fill="#ED7980"/>
<path d="M175.914 106.302C175.544 105.932 174.994 105.172 174.364 104.302C173.494 103.092 172.404 101.592 171.174 100.252C170.084 99.0618 169.594 97.7718 169.324 96.3218C169.074 96.4118 168.814 96.5018 168.564 96.5918C168.854 98.1018 169.404 99.5018 170.584 100.792C171.774 102.102 172.854 103.582 173.714 104.772C174.394 105.712 174.934 106.452 175.344 106.872C175.424 106.952 175.524 106.992 175.624 106.992C175.724 106.992 175.824 106.952 175.904 106.872C176.054 106.722 176.054 106.462 175.904 106.312L175.914 106.302Z" fill="#ED7980"/>
<path d="M173.204 110.602C172.964 108.462 172.304 107.262 174.584 106.082C176.864 104.912 179.144 103.732 181.154 103.352C183.154 102.972 184.654 102.842 186.854 101.942C189.054 101.042 191.464 99.8717 192.254 100.812C193.044 101.752 195.894 108.852 195.874 111.122C195.844 113.392 196.364 115.392 193.954 115.502C191.554 115.612 190.604 116.532 187.524 117.702C184.444 118.872 182.554 120.452 180.424 120.422C178.294 120.402 175.604 122.102 175.504 119.032C175.404 115.962 173.184 111.542 173.194 110.602H173.204Z" fill="url(#paint11_linear_425_1270)"/>
<defs>
<linearGradient id="paint0_linear_425_1270" x1="-0.0059162" y1="69.4417" x2="9.31408" y2="69.4417" gradientUnits="userSpaceOnUse">
<stop stop-color="#FFAB28"/>
<stop offset="0.2" stop-color="#FEBE3D"/>
<stop offset="0.45" stop-color="#FECE4F"/>
<stop offset="0.71" stop-color="#FED85A"/>
<stop offset="1" stop-color="#FEDC5E"/>
</linearGradient>
<linearGradient id="paint1_linear_425_1270" x1="43.8141" y1="8.50159" x2="63.6741" y2="8.50159" gradientUnits="userSpaceOnUse">
<stop stop-color="#F6BCBF"/>
<stop offset="0.07" stop-color="#F4B2B5"/>
<stop offset="0.28" stop-color="#F1999E"/>
<stop offset="0.5" stop-color="#EE878D"/>
<stop offset="0.73" stop-color="#ED7C83"/>
<stop offset="1" stop-color="#ED7980"/>
</linearGradient>
<linearGradient id="paint2_linear_425_1270" x1="9.9541" y1="93.2015" x2="73.9341" y2="157.182" gradientUnits="userSpaceOnUse">
<stop stop-color="#51A7DD"/>
<stop offset="0.12" stop-color="#3D93D0"/>
<stop offset="0.34" stop-color="#2277BE"/>
<stop offset="0.56" stop-color="#0F63B1"/>
<stop offset="0.78" stop-color="#0357A9"/>
<stop offset="1" stop-color="#0054A7"/>
</linearGradient>
<linearGradient id="paint3_linear_425_1270" x1="13.0541" y1="59.2417" x2="45.9541" y2="59.2417" gradientUnits="userSpaceOnUse">
<stop stop-color="#62C0B4"/>
<stop offset="0.26" stop-color="#66C2B4"/>
<stop offset="0.53" stop-color="#72C8B6"/>
<stop offset="0.8" stop-color="#87D3BA"/>
<stop offset="1" stop-color="#9CDEBE"/>
</linearGradient>
<linearGradient id="paint4_linear_425_1270" x1="47.0241" y1="64.6615" x2="76.4441" y2="64.6615" gradientUnits="userSpaceOnUse">
<stop stop-color="#62C0B4"/>
<stop offset="0.24" stop-color="#67C2B4"/>
<stop offset="0.53" stop-color="#75CAB7"/>
<stop offset="0.85" stop-color="#8ED6BB"/>
<stop offset="1" stop-color="#9CDEBE"/>
</linearGradient>
<linearGradient id="paint5_linear_425_1270" x1="76.3841" y1="111.602" x2="116.794" y2="152.012" gradientUnits="userSpaceOnUse">
<stop stop-color="#FFAB28"/>
<stop offset="0.2" stop-color="#FEBE3D"/>
<stop offset="0.45" stop-color="#FECE4F"/>
<stop offset="0.71" stop-color="#FED85A"/>
<stop offset="1" stop-color="#FEDC5E"/>
</linearGradient>
<linearGradient id="paint6_linear_425_1270" x1="63.299" y1="141.37" x2="137.989" y2="141.37" gradientUnits="userSpaceOnUse">
<stop stop-color="#3684E4"/>
<stop offset="0.15" stop-color="#3E89E4"/>
<stop offset="0.39" stop-color="#5599E6"/>
<stop offset="0.69" stop-color="#7AB3EA"/>
<stop offset="1" stop-color="#A8D3EE"/>
</linearGradient>
<linearGradient id="paint7_linear_425_1270" x1="181.104" y1="41.3917" x2="190.314" y2="41.3917" gradientUnits="userSpaceOnUse">
<stop stop-color="#F6BCBF"/>
<stop offset="0.07" stop-color="#F4B2B5"/>
<stop offset="0.28" stop-color="#F1999E"/>
<stop offset="0.5" stop-color="#EE878D"/>
<stop offset="0.73" stop-color="#ED7C83"/>
<stop offset="1" stop-color="#ED7980"/>
</linearGradient>
<linearGradient id="paint8_linear_425_1270" x1="163.004" y1="38.4917" x2="182.044" y2="38.4917" gradientUnits="userSpaceOnUse">
<stop stop-color="#F6BCBF"/>
<stop offset="0.07" stop-color="#F4B2B5"/>
<stop offset="0.28" stop-color="#F1999E"/>
<stop offset="0.5" stop-color="#EE878D"/>
<stop offset="0.73" stop-color="#ED7C83"/>
<stop offset="1" stop-color="#ED7980"/>
</linearGradient>
<linearGradient id="paint9_linear_425_1270" x1="145.874" y1="123.562" x2="200.364" y2="178.062" gradientUnits="userSpaceOnUse">
<stop stop-color="#51A7DD"/>
<stop offset="0.03" stop-color="#4DA3DA"/>
<stop offset="0.3" stop-color="#2C81C4"/>
<stop offset="0.57" stop-color="#1368B4"/>
<stop offset="0.8" stop-color="#0559AA"/>
<stop offset="1" stop-color="#0054A7"/>
</linearGradient>
<linearGradient id="paint10_linear_425_1270" x1="146.304" y1="72.2817" x2="196.704" y2="122.682" gradientUnits="userSpaceOnUse">
<stop stop-color="#FFAB28"/>
<stop offset="0.07" stop-color="#FEB533"/>
<stop offset="0.21" stop-color="#FEC646"/>
<stop offset="0.38" stop-color="#FED253"/>
<stop offset="0.59" stop-color="#FED95B"/>
<stop offset="1" stop-color="#FEDC5E"/>
</linearGradient>
<linearGradient id="paint11_linear_425_1270" x1="184.414" y1="120.872" x2="184.414" y2="100.472" gradientUnits="userSpaceOnUse">
<stop stop-color="#F6BCBF"/>
<stop offset="0.07" stop-color="#F4B2B5"/>
<stop offset="0.28" stop-color="#F1999E"/>
<stop offset="0.5" stop-color="#EE878D"/>
<stop offset="0.73" stop-color="#ED7C83"/>
<stop offset="1" stop-color="#ED7980"/>
</linearGradient>
</defs>
</svg>
