<svg width="300" height="171" viewBox="0 0 300 171" fill="none" xmlns="http://www.w3.org/2000/svg">
<path d="M0.891286 155.529C-0.336593 160.159 -0.289728 164.517 0.99439 165.258L3.60949 166.767C4.89361 167.507 6.92758 164.358 8.15546 159.728L14.8291 134.58C16.057 129.949 16.0101 125.591 14.726 124.85L12.1109 123.341C10.8268 122.601 8.79283 125.75 7.56495 130.381L0.891286 155.529Z" fill="url(#paint0_linear_425_1180)"/>
<path d="M298.151 155.529C299.378 160.159 299.332 164.517 298.047 165.258L295.432 166.767C294.148 167.507 292.114 164.358 290.886 159.728L284.213 134.58C282.985 129.949 283.032 125.591 284.316 124.85L286.931 123.341C288.215 122.601 290.249 125.75 291.477 130.381L298.151 155.529Z" fill="url(#paint1_linear_425_1180)"/>
<path d="M136.745 153.467C139.06 154.882 138.32 157.319 136.942 159.175C135.574 161.04 132.387 161.565 129.425 161.003C127.616 160.656 123.398 158.837 124.57 156.138C126.032 152.764 126.969 154.188 128.975 153.982C129.837 153.898 131.14 152.707 132.509 152.436C134.346 152.07 136.736 153.467 136.736 153.467H136.745Z" fill="#0054A7"/>
<path d="M139.445 135.601C139.585 134.289 139.276 125.057 139.473 123.266C139.876 117.605 135.339 109.01 129.969 113.397C129.087 114.118 129.969 115.552 127.522 118.514C123.286 123.651 127.175 132.883 128.225 137.373C128.722 139.491 130.493 152.773 131.009 153.448C132.265 155.098 135.967 155.744 137.73 155.304C139.482 154.863 139.323 149.774 139.267 146.934C139.21 144.272 139.201 138.085 139.464 135.62L139.445 135.601Z" fill="#51A7DD"/>
<path d="M149.249 152.014C151.902 152.567 152.014 155.116 151.349 157.328C150.674 159.54 147.862 161.106 144.872 161.565C143.053 161.846 138.882 162.24 139.51 159.362C139.81 157.994 140.27 155.969 142.097 155.098C142.875 154.723 143.71 153.176 144.909 152.454C146.522 151.489 149.24 152.014 149.24 152.014H149.249Z" fill="#0054A7"/>
<path d="M154.245 128.534C154.461 126.894 154.086 124.626 154.376 122.385C154.207 115.018 144.15 113.322 142.154 118.664C142.154 123.801 144.103 130.877 143.803 133.568C143.494 136.286 144.188 150.748 144.675 151.536C145.875 153.467 149.624 153.917 151.442 153.204C153.261 152.492 153.364 146.174 153.458 142.641C153.542 139.332 153.861 131.627 154.254 128.534H154.245Z" fill="#51A7DD"/>
<path d="M76.6824 159.372C74.0298 160.646 72.5769 163.121 74.4797 165.736C76.3824 168.351 80.6378 168.97 84.5652 168.004C86.9647 167.414 92.4292 163.983 90.7608 160.14C88.68 155.351 85.1744 159.044 82.4843 158.847C79.7942 158.65 76.6824 159.372 76.6824 159.372Z" fill="#0054A7"/>
<path d="M96.5908 159.372C93.9382 160.646 92.4854 163.121 94.3881 165.736C96.2909 168.351 100.546 168.97 104.474 168.004C106.873 167.414 112.338 163.983 110.669 160.14C108.588 155.351 105.083 159.044 102.393 158.847C99.7027 158.65 96.5908 159.372 96.5908 159.372Z" fill="#0054A7"/>
<path d="M50.0908 111.184C49.5659 125.141 62.3602 124.71 65.0128 137.542C66.7094 145.762 72.2301 160.309 72.3051 162.643C72.3895 165.267 84.8089 163.777 84.462 160.628C84.3777 159.896 81.1721 138.61 81.397 134.917C81.622 131.224 83.2154 127.269 83.581 128.6C83.9465 129.931 92.6354 159.072 93.7414 162.999C94.1726 164.517 103.311 162.334 103.227 159.925C103.199 159.24 100.565 135.386 100.565 126.331C100.565 117.277 83.9653 103.358 83.4029 102.533C82.8405 101.708 50.4845 100.808 50.0908 111.184Z" fill="url(#paint2_linear_425_1180)"/>
<path d="M216.642 158.547C219.613 159.634 221.413 162.137 219.651 165.136C217.888 168.135 213.389 169.223 209.087 168.595C206.463 168.21 200.258 165.098 201.645 160.815C203.379 155.472 207.512 159.072 210.371 158.575C213.23 158.087 216.632 158.537 216.632 158.537L216.642 158.547Z" fill="#0054A7"/>
<path d="M195.337 160.59C198.308 161.678 200.108 164.18 198.345 167.18C196.583 170.179 192.084 171.266 187.782 170.638C185.158 170.254 178.953 167.142 180.34 162.859C182.074 157.516 186.207 161.115 189.066 160.618C191.925 160.131 195.327 160.581 195.327 160.581L195.337 160.59Z" fill="#0054A7"/>
<path d="M240.14 104.239C242.146 119.123 228.396 119.986 226.887 133.98C225.912 142.95 221.506 159.09 221.666 161.593C221.844 164.414 208.393 164.096 208.45 160.693C208.459 159.906 209.706 136.792 209.078 132.855C208.459 128.918 206.341 124.86 206.088 126.322C205.835 127.784 199.527 159.868 198.749 164.189C198.449 165.858 188.438 164.461 188.279 161.874C188.232 161.143 188.607 135.339 187.67 125.638C186.732 115.862 203.07 99.3461 203.594 98.3994C204.119 97.4527 238.65 93.1692 240.14 104.239Z" fill="#51A7DD"/>
<path d="M5.16539 120.904H293.876C295.198 120.904 296.276 121.982 296.276 123.304V129.528C296.276 130.849 295.198 131.927 293.876 131.927H5.16539C3.84378 131.927 2.76587 130.849 2.76587 129.528V123.304C2.76587 121.982 3.84378 120.904 5.16539 120.904Z" fill="url(#paint3_linear_425_1180)"/>
<path d="M166.692 51.2151C164.94 48.6469 159.597 46.0974 157.479 47.9533C154.676 50.3996 157.01 55.4143 160.506 58.9104C164.002 62.4066 167.733 62.191 168.905 59.8478C170.189 57.2795 168.436 53.7833 166.692 51.2151ZM166.008 55.1799C165.793 56.0516 164.274 55.508 163.534 54.6832C162.793 53.849 162.184 52.9023 162.259 51.8244C162.306 51.1682 163.178 50.8589 164.18 51.7775C165.118 52.6305 166.289 54.027 166.008 55.1799Z" fill="url(#paint4_linear_425_1180)"/>
<path d="M139.988 70.1301C140.27 70.1301 143.044 70.1301 143.391 70.1113C143.513 70.6831 143.888 72.792 144.216 73.5044C144.544 74.2168 145.744 76.6913 146.081 77.0568C145.425 77.9847 138.245 77.7129 136.895 76.7569C137.636 76.4288 139.032 74.0949 139.276 73.092C139.52 72.0891 139.988 70.5144 139.998 70.1301H139.988Z" fill="#FFDBB0"/>
<path d="M124.157 74.5072C123.445 73.4293 119.264 64.3092 118.927 63.7187C118.59 63.1282 117.737 62.2471 116.715 61.7503C115.693 61.2536 110.772 58.929 110.182 58.4791C109.591 58.0292 109.207 57.42 109.526 56.9701C109.844 56.5201 110.538 56.4264 110.744 55.9296C110.951 55.4329 110.707 54.4862 110.979 54.1487C111.25 53.8113 111.129 53.1739 111.982 53.4645C112.835 53.7551 115.787 54.7393 116.246 54.8705C116.706 55.0017 116.715 53.905 117.334 53.8394C117.943 53.7738 119.536 58.4604 119.93 59.2102C120.324 59.9601 128.197 69.9706 128.713 70.8985C129.228 71.8265 124.167 74.5072 124.167 74.5072H124.157Z" fill="#FFDBB0"/>
<path d="M153.476 87.9295C153.861 87.189 161.322 81.7807 163.056 76.9067C163.796 74.8165 163.627 71.3859 163.684 69.5769C163.712 68.8927 164.18 67.0743 165.146 66.465C166.111 65.8558 169.589 63.7281 170.132 63.2219C170.676 62.7158 170.995 62.0596 170.629 61.6472C170.264 61.2348 169.57 61.2161 169.308 60.738C169.045 60.2694 169.195 59.3039 168.886 58.9946C168.576 58.6853 168.633 58.048 167.817 58.4229C167.002 58.8072 164.171 60.1007 163.731 60.2881C163.281 60.4662 163.159 59.3789 162.54 59.3789C161.922 59.3789 160.844 64.4123 160.534 65.1996C160.412 65.5183 159.428 72.6513 159.063 74.7883C158.791 76.3818 149.811 84.1333 149.568 84.7239C149.155 85.708 153.495 87.9201 153.495 87.9201L153.476 87.9295Z" fill="#FFDBB0"/>
<path d="M149.54 67.7492C151.836 63.3064 152.792 57.1857 147.262 54.73C141.732 52.2836 138.536 56.7827 137.383 58.0105C135.958 59.5102 136.333 61.1974 135.517 63.4751C135.086 67.0931 135.517 67.7773 135.836 68.6209C136.305 69.8301 137.795 71.9484 139.576 72.792C141.001 73.4668 143.363 72.9794 144.741 72.3795C146.043 71.8172 146.971 71.1329 147.759 70.4112C148.134 70.4112 148.527 70.4955 149.23 70.0363C149.549 69.8301 150.224 68.9771 150.28 68.4991C150.355 67.8992 149.746 67.6742 149.54 67.7492Z" fill="#FFDBB0"/>
<path d="M147.299 52.1056C147.909 52.4056 148.256 52.4618 149.54 52.1619C150.814 51.8619 152.258 51.637 153.514 52.2556C154.779 52.8742 155.501 53.6897 155.773 54.3552C156.045 55.0207 156.785 56.9047 156.204 58.4138C155.623 59.9228 155.66 61.0476 156.082 62.013C156.513 62.9785 155.773 66.409 155.154 67.2151C154.536 68.0212 153.12 69.0897 152.37 69.4647C151.62 69.8396 147.927 72.3141 146.465 72.614C145.172 72.8765 142.679 72.9796 142.5 72.3516C142.116 71.03 140.138 72.6984 139.182 71.03C138.17 69.2491 141.507 66.3247 141.16 64.9093C140.888 63.7564 140.27 63.8221 139.66 64.1689C139.051 64.5157 140.448 59.323 139.698 59.7916C138.948 60.2603 137.392 60.7664 136.558 59.3604C135.714 57.9451 135.264 56.6047 136.83 55.18C138.395 53.7553 139.792 54.0646 140.391 52.5087C140.991 50.9621 142.266 49.4624 144.338 50.1373C146.409 50.8122 146.615 51.6464 147.299 52.115V52.1056Z" fill="url(#paint5_linear_425_1180)"/>
<path d="M152.708 123.369C155.773 123.294 156.888 121.129 157.704 119.508C159.035 116.865 157.488 110.547 156.644 108.044C155.81 105.551 155.126 103.911 153.355 103.742C151.583 103.573 147.862 104.689 143.775 104.389C139.688 104.089 136.014 103.855 134.59 103.714C132.556 103.517 132.818 105.589 131.899 106.751C130.981 107.913 130.278 109.76 129.734 111.822C129.237 113.725 128.947 117.183 130.119 119.198C130.597 120.014 132.556 123.341 136.192 123.473C137.804 123.529 141.301 122.948 143.297 122.948C145.978 122.948 148.434 123.454 152.698 123.36L152.708 123.369Z" fill="#51A7DD"/>
<path d="M133.718 111.728C134.524 111.728 137.748 111.7 139.473 111.522C141.188 111.343 141.113 111.24 141.169 112.412C141.226 113.584 141.722 115.693 140.541 116.733C139.36 117.773 137.72 118.861 137.158 119.151C136.586 119.451 135.817 119.104 134.843 118.195C133.858 117.286 132.706 116.358 132.771 114.849C132.837 113.331 133.727 111.728 133.727 111.728H133.718Z" fill="#F18E38"/>
<path d="M140.579 112.168C140.579 112.103 140.607 112.037 140.663 112.028C140.72 112.018 140.766 112.075 140.776 112.14L140.851 112.759C140.86 112.843 140.823 112.899 140.766 112.909C140.71 112.918 140.663 112.862 140.654 112.796L140.579 112.178C140.579 112.178 140.579 112.178 140.579 112.168Z" fill="#0054A7"/>
<path d="M140.673 113.902C140.673 113.837 140.701 113.771 140.757 113.762C140.813 113.752 140.86 113.809 140.87 113.874L140.945 114.493C140.954 114.577 140.916 114.633 140.86 114.643C140.804 114.652 140.757 114.605 140.748 114.53L140.673 113.912C140.673 113.912 140.673 113.912 140.673 113.902Z" fill="#0054A7"/>
<path d="M140.588 115.618C140.626 115.561 140.691 115.533 140.738 115.552C140.785 115.58 140.804 115.646 140.766 115.711L140.466 116.264C140.429 116.339 140.363 116.358 140.316 116.339C140.27 116.311 140.251 116.246 140.288 116.18L140.588 115.627V115.618Z" fill="#0054A7"/>
<path d="M139.782 116.686C139.839 116.639 139.904 116.63 139.942 116.667C139.979 116.705 139.97 116.78 139.923 116.827L139.473 117.267C139.417 117.324 139.342 117.333 139.304 117.295C139.267 117.258 139.276 117.183 139.323 117.136L139.773 116.696L139.782 116.686Z" fill="#0054A7"/>
<path d="M138.845 117.595C138.901 117.558 138.976 117.567 139.004 117.614C139.032 117.661 139.004 117.727 138.948 117.764L138.414 118.102C138.348 118.148 138.273 118.139 138.245 118.092C138.217 118.045 138.245 117.98 138.301 117.942L138.836 117.605L138.845 117.595Z" fill="#0054A7"/>
<path d="M137.495 118.383C137.551 118.345 137.626 118.354 137.655 118.401C137.683 118.448 137.655 118.514 137.598 118.551L137.064 118.889C136.998 118.936 136.923 118.926 136.895 118.879C136.867 118.832 136.895 118.767 136.952 118.729L137.486 118.392L137.495 118.383Z" fill="#0054A7"/>
<path d="M136.164 118.645C136.211 118.692 136.22 118.767 136.192 118.804C136.155 118.851 136.08 118.842 136.033 118.786L135.574 118.354C135.508 118.298 135.508 118.233 135.546 118.186C135.583 118.139 135.658 118.148 135.705 118.205L136.164 118.636V118.645Z" fill="#0054A7"/>
<path d="M134.88 117.511C134.927 117.558 134.936 117.633 134.908 117.67C134.871 117.717 134.796 117.708 134.749 117.652L134.29 117.22C134.224 117.164 134.224 117.099 134.252 117.052C134.29 117.005 134.365 117.014 134.411 117.07L134.871 117.502L134.88 117.511Z" fill="#0054A7"/>
<path d="M133.887 116.461C133.924 116.518 133.924 116.593 133.887 116.621C133.849 116.658 133.774 116.639 133.727 116.583L133.343 116.086C133.287 116.021 133.296 115.955 133.343 115.918C133.38 115.88 133.455 115.899 133.502 115.955L133.887 116.452V116.461Z" fill="#0054A7"/>
<path d="M133.362 115.196C133.362 115.261 133.315 115.318 133.259 115.327C133.202 115.327 133.155 115.271 133.155 115.196V114.568C133.155 114.483 133.202 114.437 133.259 114.427C133.315 114.427 133.362 114.483 133.362 114.558V115.186C133.362 115.186 133.362 115.186 133.362 115.196Z" fill="#0054A7"/>
<path d="M133.568 113.724C133.549 113.79 133.493 113.837 133.446 113.827C133.39 113.827 133.362 113.752 133.371 113.677L133.493 113.068C133.512 112.984 133.568 112.946 133.615 112.956C133.671 112.956 133.699 113.03 133.69 113.105L133.568 113.715C133.568 113.715 133.568 113.715 133.568 113.724Z" fill="#0054A7"/>
<path d="M154.386 110.387C153.608 110.584 150.477 111.372 148.771 111.634C147.065 111.897 147.112 111.775 147.356 112.928C147.599 114.08 147.646 116.246 149.052 116.949C150.458 117.661 152.314 118.298 152.942 118.439C153.57 118.589 154.226 118.055 154.948 116.93C155.67 115.805 156.551 114.615 156.11 113.171C155.66 111.718 154.404 110.387 154.404 110.387H154.386Z" fill="#F18E38"/>
<path d="M147.731 112.59C147.712 112.525 147.665 112.478 147.609 112.478C147.553 112.478 147.515 112.543 147.534 112.618L147.637 113.237C147.646 113.321 147.703 113.368 147.759 113.359C147.815 113.359 147.853 113.293 147.834 113.218L147.731 112.6C147.731 112.6 147.731 112.6 147.731 112.59Z" fill="#0054A7"/>
<path d="M148.134 114.277C148.115 114.212 148.068 114.165 148.012 114.165C147.956 114.165 147.918 114.23 147.937 114.305L148.04 114.924C148.049 115.008 148.106 115.055 148.162 115.046C148.218 115.046 148.256 114.98 148.237 114.905L148.134 114.287C148.134 114.287 148.134 114.287 148.134 114.277Z" fill="#0054A7"/>
<path d="M148.687 115.908C148.64 115.861 148.565 115.852 148.527 115.89C148.49 115.927 148.499 116.002 148.546 116.049L148.987 116.499C149.043 116.564 149.118 116.564 149.155 116.527C149.193 116.489 149.183 116.414 149.137 116.368L148.696 115.918L148.687 115.908Z" fill="#0054A7"/>
<path d="M149.765 116.705C149.699 116.677 149.633 116.686 149.605 116.733C149.577 116.78 149.605 116.846 149.671 116.883L150.224 117.183C150.299 117.221 150.364 117.211 150.393 117.164C150.421 117.117 150.393 117.052 150.327 117.014L149.774 116.714L149.765 116.705Z" fill="#0054A7"/>
<path d="M150.917 117.324C150.852 117.305 150.786 117.333 150.768 117.38C150.749 117.436 150.796 117.492 150.861 117.511L151.461 117.68C151.545 117.708 151.602 117.68 151.62 117.624C151.639 117.567 151.592 117.511 151.527 117.492L150.927 117.324C150.927 117.324 150.927 117.324 150.917 117.324Z" fill="#0054A7"/>
<path d="M152.436 117.698C152.37 117.68 152.305 117.708 152.286 117.755C152.267 117.811 152.314 117.867 152.38 117.886L152.98 118.055C153.064 118.083 153.12 118.055 153.139 117.998C153.158 117.942 153.111 117.886 153.045 117.867L152.445 117.698C152.445 117.698 152.445 117.698 152.436 117.698Z" fill="#0054A7"/>
<path d="M153.786 117.586C153.758 117.652 153.758 117.717 153.804 117.746C153.851 117.774 153.917 117.746 153.954 117.689L154.273 117.155C154.32 117.08 154.301 117.014 154.254 116.986C154.207 116.958 154.142 116.986 154.104 117.043L153.786 117.577V117.586Z" fill="#0054A7"/>
<path d="M154.695 116.133C154.667 116.199 154.667 116.265 154.714 116.293C154.76 116.321 154.826 116.293 154.864 116.236L155.182 115.702C155.229 115.627 155.21 115.562 155.164 115.533C155.117 115.505 155.051 115.533 155.014 115.59L154.695 116.124V116.133Z" fill="#0054A7"/>
<path d="M155.36 114.849C155.342 114.915 155.36 114.98 155.407 115.008C155.454 115.027 155.52 114.99 155.548 114.924L155.773 114.343C155.801 114.268 155.773 114.202 155.726 114.174C155.679 114.156 155.613 114.193 155.585 114.259L155.36 114.84V114.849Z" fill="#0054A7"/>
<path d="M155.501 113.481C155.52 113.546 155.585 113.593 155.632 113.574C155.688 113.565 155.717 113.49 155.688 113.424L155.51 112.824C155.492 112.74 155.426 112.703 155.379 112.721C155.323 112.731 155.295 112.806 155.323 112.871L155.501 113.471C155.501 113.471 155.501 113.471 155.501 113.481Z" fill="#0054A7"/>
<path d="M154.901 112.122C154.939 112.178 155.004 112.215 155.051 112.187C155.098 112.168 155.117 112.093 155.079 112.028L154.789 111.475C154.751 111.4 154.686 111.372 154.639 111.4C154.592 111.419 154.573 111.494 154.611 111.559L154.901 112.112V112.122Z" fill="#0054A7"/>
<path d="M145.387 76.8505C146.334 76.185 148.752 77.9941 152.717 76.9068C155.501 76.1475 157.141 74.5072 159.485 78.6595C162.062 83.2149 161.481 82.4182 158.238 84.724C155.36 86.7673 155.323 95.0156 155.529 96.0279C156.045 98.5212 158.716 100.724 157.872 103.592C157.094 106.245 151.845 106.929 149.352 107.191C145.64 107.585 142.632 105.954 141.638 105.673C140.645 105.401 136.886 105.982 135.33 106.498C133.774 107.013 131.478 107.388 131.046 105.785C129.997 101.905 132.012 95.8311 132.124 94.6407C132.237 93.4503 131.393 84.6583 130.99 83.6085C130.681 82.7931 127.719 79.7749 126.604 78.3502C125.638 77.1223 123.032 73.9636 122.545 73.6262C121.392 72.8576 126.313 67.2618 127.541 66.7651C128.056 66.5588 132.94 73.0638 135.311 74.0386C136.436 74.4979 138.292 74.8822 138.929 75.2665C139.67 75.7164 142.05 78.5471 145.397 76.8318L145.387 76.8505Z" fill="url(#paint6_linear_425_1180)"/>
<path d="M87.3396 28.504C85.6805 26.5638 81.0689 24.9516 79.513 26.6575C77.4415 28.9164 79.7942 32.8063 82.9717 35.3558C86.1492 37.9052 89.1767 37.3897 89.9265 35.3651C90.742 33.1531 88.9986 30.4442 87.3396 28.504ZM87.0677 32.0096C86.8522 32.197 86.4772 32.2064 85.7555 31.7565C85.1931 31.4003 84.5651 30.8192 84.1714 30.163C83.7778 29.4976 83.9371 29.1507 84.2183 28.982C84.5089 28.8133 85.0619 29.0383 85.1931 29.1226C85.8961 29.5913 86.196 29.7694 86.7772 30.538C87.3583 31.3066 87.3677 31.7377 87.0584 32.0096H87.0677Z" fill="url(#paint7_linear_425_1180)"/>
<path d="M88.3519 29.2444C86.4397 27.023 85.1837 26.3856 83.834 25.9826C82.3624 25.542 80.8815 25.8982 80.216 26.0763C79.6442 26.2356 78.0977 27.2479 78.9881 27.801C79.8785 28.354 80.6003 28.3915 80.8346 28.9351C81.0314 29.385 80.4878 30.5285 81.4907 31.5971C82.503 32.6656 83.8059 32.1969 84.6682 33.003C85.015 33.3311 85.5118 34.7933 86.2991 34.9995C87.8644 35.4119 87.4989 36.2461 87.6864 36.6211C87.8738 36.996 87.8738 37.2116 88.7174 36.9772C89.561 36.7429 90.2077 35.8525 90.3108 34.9526C90.4421 33.8185 90.3671 31.5877 88.3425 29.2257L88.3519 29.2444ZM87.0677 32.0095C86.8521 32.197 86.4772 32.2063 85.7555 31.7564C85.1931 31.4002 84.5651 30.8191 84.1714 30.163C83.7778 29.4975 83.9371 29.1507 84.2183 28.982C84.5089 28.8133 85.0619 29.0382 85.1931 29.1226C85.8961 29.5912 86.196 29.7693 86.7772 30.5379C87.3583 31.3065 87.3677 31.7377 87.0584 32.0095H87.0677Z" fill="#0054A7"/>
<path d="M51.6186 99.6834C48.0006 99.3554 44.9918 106.516 44.7856 110.153C44.57 113.781 44.1951 118.195 46.4915 120.623C48.3474 122.582 53.3245 124.25 59.3139 123.613C65.294 122.976 67.2155 121.692 72.1364 122.976C77.0479 124.26 81.322 123.613 83.6747 121.476C86.0273 119.339 86.2429 113.781 84.312 109.722C82.3905 105.663 81.1064 99.6834 75.342 99.0367C69.5775 98.3993 53.9806 99.8896 51.628 99.6741L51.6186 99.6834Z" fill="url(#paint8_linear_425_1180)"/>
<path d="M96.7596 40.8764C96.5346 39.8641 95.4004 35.4493 94.0788 34.2214C92.7572 32.9936 91.3794 32.4968 88.858 31.8032C87.902 31.5407 88.1082 32.6093 87.7239 32.6374C86.6272 32.7311 86.0742 33.3872 86.5147 34.0059C87.3114 35.1306 89.8609 38.205 90.1046 38.7861C90.5358 39.8172 92.2886 42.6291 93.1696 43.0134C93.9382 43.3509 94.1726 44.3725 94.7631 45.8816C96.7689 49.4621 99.4215 46.4909 98.0624 43.2571C97.2751 41.9918 96.8158 41.1201 96.7596 40.867V40.8764Z" fill="#FFDBB0"/>
<path d="M69.4837 36.4712C69.1932 36.4806 65.4533 36.8836 65.0971 36.8555C64.9753 37.4647 64.591 39.6955 64.2535 40.4454C63.9255 41.1952 61.4791 45.5163 61.1323 45.9006C65.4064 49.3124 71.1803 48.6469 73.861 45.3288C73.0924 44.982 70.6648 41.064 70.2992 39.6206C70.0274 38.5614 69.5025 36.8742 69.4931 36.4712H69.4837Z" fill="#FFDBB0"/>
<path d="M58.7047 29.7882C57.0082 24.1175 57.2519 16.7877 64.2161 15.1568C71.1803 13.5258 73.9079 19.459 74.9858 21.1462C76.3074 23.2083 73.936 25.6266 75.9512 27.9042C75.6513 32.2065 75.0139 32.9095 74.4515 33.8187C73.6361 35.1309 71.4428 37.2586 69.1838 37.8491C67.3748 38.3271 64.741 37.2305 63.2694 36.2369C61.8822 35.2996 60.9542 34.2967 60.195 33.2844C59.7639 33.2 59.2858 33.2094 58.5641 32.5252C58.236 32.2065 57.6362 31.0817 57.6736 30.5099C57.7205 29.7976 58.4797 29.6664 58.6953 29.807L58.7047 29.7882Z" fill="#FFDBB0"/>
<path d="M64.1223 12.3166C62.5851 12.0823 59.1733 12.176 57.5049 12.954C55.9958 13.6663 53.7463 15.8315 52.8558 17.5187C51.8717 19.3746 51.7217 22.1865 51.8061 25.3827C51.8904 28.7852 54.393 32.8812 54.2056 35.1308C54.0369 37.1835 50.8687 38.2427 50.9437 39.2362C51.0093 40.0985 53.6526 40.9421 55.5834 41.392C58.5828 42.0856 71.2928 40.4922 73.233 39.0769C74.4609 38.1771 70.7491 36.3212 70.9272 34.0529C71.2178 30.4161 68.3027 29.8912 68.9776 28.2884C69.5213 26.9949 69.8774 27.1918 70.5148 27.7166C71.1522 28.2415 71.5177 25.4015 71.9114 23.9018C72.4176 21.9897 74.2922 19.5245 73.8891 17.5937C73.4861 15.6722 67.5342 12.8228 64.1317 12.3072L64.1223 12.3166Z" fill="url(#paint9_linear_425_1180)"/>
<path d="M90.114 54.5423C88.5674 55.9108 87.7895 50.6056 83.6184 47.1C81.2564 45.291 78.4257 42.7978 75.8856 42.301C73.5611 41.9729 75.0514 43.4914 68.9682 43.4539C63.9724 43.4258 63.9536 42.0667 62.9788 42.1417C61.9665 42.2073 58.714 42.3479 56.6519 42.8728C53.9244 43.2196 48.8535 46.3971 45.4417 50.7837C42.5173 54.5517 37.9807 62.2376 37.8682 68.9394C37.6433 82.7179 45.198 86.3266 44.9355 90.3008C44.6731 94.275 44.6356 101.192 44.6918 102.739C44.7481 104.285 47.3632 107.154 54.1493 107.463C60.045 107.725 77.4228 108.044 81.9594 106.46C86.1304 105.007 83.7122 94.6874 83.4966 90.4601C83.281 86.2328 82.0906 73.4292 81.9125 72.0888C81.7344 70.7484 84.8369 70.3173 86.0273 71.6951C87.2177 73.0636 90.9951 73.7197 92.6354 73.5979C104.192 72.7355 99.534 50.2588 100.115 46.7439C100.79 42.6197 94.0507 42.2073 89.0361 43.3883C86.7209 43.9319 91.1638 53.6237 90.114 54.5517V54.5423Z" fill="url(#paint10_linear_425_1180)"/>
<path d="M274.661 96.8154C274.69 96.8998 274.727 96.9748 274.746 97.0685C275.196 101.305 277.905 105.345 279.198 109.479C280.492 113.603 282.994 115.627 283.088 119.189C283.182 122.751 280.285 125.113 276.021 125.253C274.577 125.3 273.162 125.591 271.728 125.872C273.218 116.199 269.525 102.927 274.671 96.8248L274.661 96.8154Z" fill="#EDBC32"/>
<path d="M254.2 105.401C255.625 99.9459 257.302 96.9091 257.49 96.0374C257.687 95.1563 259.515 95.8218 264.717 95.2688C269.703 94.7439 273.958 94.9501 274.661 96.8153C269.525 102.917 273.209 116.19 271.718 125.863C268.897 126.416 265.982 126.912 262.598 125.422C257.499 123.173 257.059 124.335 252.906 120.22C248.754 116.105 252.775 110.856 254.191 105.401H254.2Z" fill="url(#paint11_linear_425_1180)"/>
<path d="M274.577 95.597C272.965 95.2783 272.684 94.7721 271.268 94.8003C269.853 94.8284 270.537 94.1348 266.647 94.4628C262.748 94.7909 261.145 95.1283 259.186 95.2502C257.227 95.372 257.143 95.5314 256.571 96.3562C256 97.1717 253.684 98.7838 256.515 98.2964C259.346 97.7997 257.874 98.362 262.261 98.4745C266.647 98.5964 267.866 96.7124 269.825 97.6684C271.784 98.6339 272.384 98.9713 273.659 98.5776C274.943 98.184 276.302 99.0275 276.039 97.5935C275.777 96.15 274.568 95.597 274.568 95.597H274.577Z" fill="url(#paint12_linear_425_1180)"/>
<path d="M184.014 47.1752C183.892 47.4845 183.527 47.6719 183.208 47.5782L174.716 45.2162C174.397 45.1224 174.172 44.785 174.228 44.4569L176.769 29.4225C176.825 29.0944 177.134 28.8976 177.453 28.9819L189.235 32.2531C189.554 32.3469 189.722 32.6749 189.6 32.9842L184.014 47.1752Z" fill="url(#paint13_linear_425_1180)"/>
<path d="M176.46 27.4011L176.129 28.5932C176.039 28.9174 176.229 29.2532 176.553 29.3433L189.801 33.0249C190.125 33.115 190.461 32.9252 190.551 32.601L190.883 31.4089C190.973 31.0847 190.783 30.7488 190.459 30.6588L177.21 26.9772C176.886 26.8871 176.55 27.0769 176.46 27.4011Z" fill="#0054A7"/>
<path d="M190.003 30.3692C189.975 30.7067 189.685 30.9035 189.366 30.8098L178.1 27.6792C177.781 27.5854 177.631 27.2667 177.781 26.9668L178.456 25.5796C178.606 25.2796 178.99 25.1109 179.309 25.1953L189.6 28.0541C189.919 28.1478 190.163 28.4852 190.135 28.8227L190.003 30.3599V30.3692Z" fill="url(#paint14_linear_425_1180)"/>
<path d="M181.155 58.5823C178.962 54.1863 179.393 49.0592 178.212 48.4781C177.031 47.8969 175.184 46.744 173.226 45.5724C172.429 45.0944 171.791 43.8102 170.62 41.2233C170.104 40.0797 172.054 40.8202 172.063 39.3486C172.082 36.8648 173.441 37.8583 173.919 37.2678C174.735 36.2461 174.941 35.9462 176.075 37.2678C177.218 38.5894 177.79 39.5736 178.156 40.2859C178.521 40.9983 179.309 41.9356 179.552 40.4828C179.787 39.0393 180.002 38.2614 180.902 37.7552C181.802 37.2491 182.364 37.7833 181.886 39.4986C181.764 41.6076 182.936 44.157 183.152 45.3474C183.367 46.5378 185.008 52.5554 185.973 54.9174C187.332 58.2355 182.795 61.8535 181.165 58.5729L181.155 58.5823Z" fill="#FFDBB0"/>
<path d="M238.566 99.6273C242.643 99.2992 246.036 106.46 246.28 110.097C246.523 113.724 247.123 118.12 244.349 120.567C240.74 123.754 236.635 124.194 229.895 123.557C223.147 122.92 220.982 121.635 215.442 122.919C209.903 124.204 205.085 123.557 202.432 121.42C199.78 119.283 199.545 113.724 201.71 109.666C203.876 105.607 205.328 99.6273 211.833 98.9805C218.338 98.3432 235.932 99.8335 238.584 99.6179L238.566 99.6273Z" fill="#51A7DD"/>
<path d="M217.382 27.1167C217.673 27.1261 221.431 27.5197 221.788 27.501C221.91 28.1103 222.303 30.3504 222.641 31.1096C222.978 31.8595 225.434 36.1993 225.781 36.5742C221.497 40.0047 215.705 39.3486 213.005 36.0212C213.774 35.6744 216.201 31.7376 216.576 30.2848C216.848 29.2163 217.364 27.5291 217.382 27.1261V27.1167Z" fill="#FFDBB0"/>
<path d="M227.393 18.9058C227.946 12.9913 226.268 5.83028 219.098 5.59595C211.918 5.36162 209.471 12.8414 209.64 18.7746C209.312 18.4278 208.487 18.3153 208.459 19.2901C208.44 19.7494 208.618 20.5086 209.153 21.1835C209.771 21.9614 210.343 22.102 210.737 22.2989C211.084 23.7986 211.955 25.1764 212.686 25.9544C213.746 27.0791 216.323 28.7476 218.666 28.8882C220.532 29.0006 222.912 27.4072 224.168 26.1325C225.349 24.9327 226.071 23.7704 226.615 22.6175C227.018 22.4488 227.496 22.3645 228.068 21.549C228.33 21.1741 228.696 19.9462 228.546 19.3932C228.358 18.6996 227.59 18.7183 227.402 18.8964L227.393 18.9058Z" fill="#FFDBB0"/>
<path d="M215.386 2.47491C216.192 2.54989 216.604 2.46553 217.898 1.59383C219.191 0.722133 220.691 -0.140194 222.35 0.019149C224.018 0.178492 225.162 0.768999 225.743 1.397C226.334 2.025 227.936 3.79652 227.927 5.71801C227.918 7.6395 228.433 8.87675 229.314 9.75782C230.195 10.6483 230.814 14.7631 230.477 15.916C230.139 17.0689 229.014 18.8498 228.33 19.5902C227.646 20.3307 227.58 24.5767 226.006 24.6611C224.834 24.7267 224.937 26.5732 223.016 27.6605C221.31 28.6165 220.953 27.1356 218.77 28.5322C217.495 29.3477 215.723 28.0354 214.439 27.473C212.836 26.7794 211.562 25.0079 210.849 23.2551C210.043 21.2586 210.606 18.8123 209.425 17.6031C208.693 16.8533 208.047 16.2347 206.519 15.0161C204.991 13.7976 203.923 12.5041 205.057 10.264C206.191 8.0238 207.869 7.78009 207.887 5.80237C207.906 3.82464 208.684 1.63133 211.271 1.50948C213.858 1.397 214.439 2.22183 215.386 2.45616V2.47491Z" fill="url(#paint15_linear_425_1180)"/>
<path d="M208.797 32.8346C210.577 31.6911 213.689 30.332 214.195 30.4163C216.239 30.7913 217.767 32.0285 219.651 32.2254C221.535 32.4222 224.581 31.2693 225.556 31.2037C227.618 31.0631 231.011 31.3911 233.916 32.6846C239.55 35.1873 242.887 40.1925 244.517 42.3108C247.545 46.2663 251.566 55.6019 251.913 63.9534C252.372 74.8543 248.267 85.5303 244.93 83.9275C242.296 82.6621 243.44 94.566 243.093 101.765C243.018 103.311 239.915 105.982 234.666 105.739C229.408 105.495 226.015 103.377 223.644 102.205C221.731 101.258 212.321 101.118 209.471 101.624C206.622 102.139 201.157 102.711 200.595 99.365C199.32 91.7915 203.369 81.856 203.576 77.61C203.782 73.364 205.253 64.2533 203.866 63.3347C202.348 62.3318 192.356 74.6575 187.923 73.289C182.964 71.7612 178.193 58.0764 176.909 56.0706C175.625 54.0741 183.039 46.0132 186.592 50.0249C188.944 52.6775 189.357 58.5638 190.491 57.1204C191.616 55.6769 199.48 41.0736 200.604 39.7613C201.729 38.4491 203.904 35.834 208.806 32.8252L208.797 32.8346Z" fill="url(#paint16_linear_425_1180)"/>
<path d="M30.3509 121.804C30.3135 122.198 29.9573 122.516 29.5542 122.516H19.1407C18.747 122.516 18.3908 122.198 18.344 121.804L16.4694 103.873C16.4319 103.48 16.7224 103.161 17.1161 103.161H31.5695C31.9631 103.161 32.2537 103.48 32.2162 103.873L30.3416 121.804H30.3509Z" fill="url(#paint17_linear_425_1180)"/>
<path d="M32.4693 100.949H16.2163C15.8177 100.949 15.4946 101.272 15.4946 101.671V103.133C15.4946 103.532 15.8177 103.855 16.2163 103.855H32.4693C32.8679 103.855 33.191 103.532 33.191 103.133V101.671C33.191 101.272 32.8679 100.949 32.4693 100.949Z" fill="#0054A7"/>
<path d="M31.8413 100.761C31.9163 101.146 31.6444 101.464 31.2508 101.464H17.4254C17.0317 101.464 16.7693 101.146 16.8349 100.761L17.1723 98.9711C17.2473 98.5868 17.6316 98.2681 18.0253 98.2681H30.6603C31.0539 98.2681 31.4382 98.5868 31.5132 98.9711L31.8507 100.761H31.8413Z" fill="url(#paint18_linear_425_1180)"/>
<defs>
<linearGradient id="paint0_linear_425_1180" x1="0.00083926" y1="145.049" x2="15.7289" y2="145.049" gradientUnits="userSpaceOnUse">
<stop stop-color="#F18E38"/>
<stop offset="1" stop-color="#FFBD32"/>
</linearGradient>
<linearGradient id="paint1_linear_425_1180" x1="283.322" y1="0.000370653" x2="299.05" y2="0.000370653" gradientUnits="userSpaceOnUse">
<stop stop-color="#F18E38"/>
<stop offset="1" stop-color="#FFBD32"/>
</linearGradient>
<linearGradient id="paint2_linear_425_1180" x1="50.0814" y1="133.033" x2="103.236" y2="133.033" gradientUnits="userSpaceOnUse">
<stop stop-color="#3684E4"/>
<stop offset="0.19" stop-color="#3986E4"/>
<stop offset="0.38" stop-color="#458FE5"/>
<stop offset="0.56" stop-color="#599CE7"/>
<stop offset="0.75" stop-color="#76B0E9"/>
<stop offset="0.94" stop-color="#99C9EC"/>
<stop offset="1" stop-color="#A8D3EE"/>
</linearGradient>
<linearGradient id="paint3_linear_425_1180" x1="2.77524" y1="126.406" x2="296.276" y2="126.406" gradientUnits="userSpaceOnUse">
<stop stop-color="#F18E38"/>
<stop offset="1" stop-color="#FFBD32"/>
</linearGradient>
<linearGradient id="paint4_linear_425_1180" x1="156.241" y1="54.4488" x2="169.345" y2="54.4488" gradientUnits="userSpaceOnUse">
<stop stop-color="#F18E38"/>
<stop offset="1" stop-color="#FFBD32"/>
</linearGradient>
<linearGradient id="paint5_linear_425_1180" x1="135.789" y1="61.385" x2="156.429" y2="61.385" gradientUnits="userSpaceOnUse">
<stop stop-color="#51A7DD"/>
<stop offset="0.03" stop-color="#4DA3DA"/>
<stop offset="0.3" stop-color="#2C81C4"/>
<stop offset="0.57" stop-color="#1368B4"/>
<stop offset="0.8" stop-color="#0559AA"/>
<stop offset="1" stop-color="#0054A7"/>
</linearGradient>
<linearGradient id="paint6_linear_425_1180" x1="122.367" y1="87.0204" x2="161.087" y2="87.0204" gradientUnits="userSpaceOnUse">
<stop stop-color="#62C0B4"/>
<stop offset="0.24" stop-color="#67C2B4"/>
<stop offset="0.53" stop-color="#75CAB7"/>
<stop offset="0.85" stop-color="#8ED6BB"/>
<stop offset="1" stop-color="#9CDEBE"/>
</linearGradient>
<linearGradient id="paint7_linear_425_1180" x1="78.735" y1="31.5034" x2="90.1421" y2="31.5034" gradientUnits="userSpaceOnUse">
<stop stop-color="#FFBD32"/>
<stop offset="0.57" stop-color="#F69F35"/>
<stop offset="1" stop-color="#F18E38"/>
</linearGradient>
<linearGradient id="paint8_linear_425_1180" x1="44.6169" y1="111.315" x2="85.6055" y2="111.315" gradientUnits="userSpaceOnUse">
<stop stop-color="#3684E4"/>
<stop offset="0.49" stop-color="#3785E4"/>
<stop offset="0.67" stop-color="#3E8BE4"/>
<stop offset="0.8" stop-color="#4A95E4"/>
<stop offset="0.9" stop-color="#5BA4E4"/>
<stop offset="0.99" stop-color="#71B6E4"/>
<stop offset="1" stop-color="#74B9E4"/>
</linearGradient>
<linearGradient id="paint9_linear_425_1180" x1="50.9344" y1="26.8824" x2="73.936" y2="26.8824" gradientUnits="userSpaceOnUse">
<stop stop-color="#51A7DD"/>
<stop offset="0.03" stop-color="#4DA3DA"/>
<stop offset="0.3" stop-color="#2C81C4"/>
<stop offset="0.57" stop-color="#1368B4"/>
<stop offset="0.8" stop-color="#0559AA"/>
<stop offset="1" stop-color="#0054A7"/>
</linearGradient>
<linearGradient id="paint10_linear_425_1180" x1="47.0164" y1="48.9466" x2="93.4321" y2="95.3623" gradientUnits="userSpaceOnUse">
<stop stop-color="#ED7980"/>
<stop offset="1" stop-color="#F6BCBF"/>
</linearGradient>
<linearGradient id="paint11_linear_425_1180" x1="251.079" y1="110.716" x2="274.661" y2="110.716" gradientUnits="userSpaceOnUse">
<stop stop-color="#FFAB28"/>
<stop offset="0.07" stop-color="#FEB533"/>
<stop offset="0.21" stop-color="#FEC646"/>
<stop offset="0.38" stop-color="#FED253"/>
<stop offset="0.59" stop-color="#FED95B"/>
<stop offset="1" stop-color="#FEDC5E"/>
</linearGradient>
<linearGradient id="paint12_linear_425_1180" x1="255.147" y1="96.5624" x2="276.086" y2="96.5624" gradientUnits="userSpaceOnUse">
<stop stop-color="#FFAB28"/>
<stop offset="0.07" stop-color="#FEB533"/>
<stop offset="0.21" stop-color="#FEC646"/>
<stop offset="0.38" stop-color="#FED253"/>
<stop offset="0.59" stop-color="#FED95B"/>
<stop offset="1" stop-color="#FEDC5E"/>
</linearGradient>
<linearGradient id="paint13_linear_425_1180" x1="174.228" y1="38.2801" x2="189.638" y2="38.2801" gradientUnits="userSpaceOnUse">
<stop stop-color="#F18E38"/>
<stop offset="1" stop-color="#FFBD32"/>
</linearGradient>
<linearGradient id="paint14_linear_425_1180" x1="177.715" y1="28.0072" x2="190.135" y2="28.0072" gradientUnits="userSpaceOnUse">
<stop stop-color="#51A7DD"/>
<stop offset="0.03" stop-color="#4DA3DA"/>
<stop offset="0.3" stop-color="#2C81C4"/>
<stop offset="0.57" stop-color="#1368B4"/>
<stop offset="0.8" stop-color="#0559AA"/>
<stop offset="1" stop-color="#0054A7"/>
</linearGradient>
<linearGradient id="paint15_linear_425_1180" x1="204.579" y1="14.3975" x2="230.57" y2="14.3975" gradientUnits="userSpaceOnUse">
<stop stop-color="#51A7DD"/>
<stop offset="0.03" stop-color="#4DA3DA"/>
<stop offset="0.3" stop-color="#2C81C4"/>
<stop offset="0.57" stop-color="#1368B4"/>
<stop offset="0.8" stop-color="#0559AA"/>
<stop offset="1" stop-color="#0054A7"/>
</linearGradient>
<linearGradient id="paint16_linear_425_1180" x1="176.759" y1="68.0869" x2="251.95" y2="68.0869" gradientUnits="userSpaceOnUse">
<stop stop-color="#FFAB28"/>
<stop offset="0.07" stop-color="#FEB533"/>
<stop offset="0.21" stop-color="#FEC646"/>
<stop offset="0.38" stop-color="#FED253"/>
<stop offset="0.59" stop-color="#FED95B"/>
<stop offset="1" stop-color="#FEDC5E"/>
</linearGradient>
<linearGradient id="paint17_linear_425_1180" x1="16.4694" y1="112.834" x2="32.2256" y2="112.834" gradientUnits="userSpaceOnUse">
<stop stop-color="#3684E4"/>
<stop offset="0.19" stop-color="#3986E4"/>
<stop offset="0.38" stop-color="#458FE5"/>
<stop offset="0.56" stop-color="#599CE7"/>
<stop offset="0.75" stop-color="#76B0E9"/>
<stop offset="0.94" stop-color="#99C9EC"/>
<stop offset="1" stop-color="#A8D3EE"/>
</linearGradient>
<linearGradient id="paint18_linear_425_1180" x1="16.8349" y1="99.8709" x2="31.86" y2="99.8709" gradientUnits="userSpaceOnUse">
<stop stop-color="#51A7DD"/>
<stop offset="0.03" stop-color="#4DA3DA"/>
<stop offset="0.3" stop-color="#2C81C4"/>
<stop offset="0.57" stop-color="#1368B4"/>
<stop offset="0.8" stop-color="#0559AA"/>
<stop offset="1" stop-color="#0054A7"/>
</linearGradient>
</defs>
</svg>
