<svg width="231" height="261" viewBox="0 0 231 261" fill="none" xmlns="http://www.w3.org/2000/svg">
<path d="M77.4125 21.6213C74.9725 19.5813 71.2125 27.2413 72.9025 28.3013C74.5925 29.3613 74.4325 28.9513 74.6525 30.0113C74.8725 31.0713 76.7825 32.0513 77.8325 30.7113C78.7425 29.5413 79.8725 27.3513 80.3225 24.5913C80.7625 21.9413 78.3625 22.4113 77.4125 21.6213Z" fill="#51A7DD"/>
<path d="M96.7425 21.3013C98.7925 20.1913 99.4425 23.3013 100.812 24.8713C101.652 25.8313 102.022 28.4413 101.052 28.2313C100.082 28.0213 100.632 29.1213 99.4225 29.4313C98.5025 29.6613 99.9525 31.3613 98.3725 31.0113C96.7925 30.6613 96.0125 29.3413 95.1425 27.9413C92.9225 24.3613 94.5725 22.4813 96.7425 21.3013Z" fill="#51A7DD"/>
<path d="M98.5025 50.9113C99.7025 45.6213 96.4525 41.8613 92.8625 38.6213C91.4425 37.3413 91.5125 33.4113 91.4125 32.8813C91.1925 31.8013 91.4125 29.6013 91.4125 29.1913C91.1425 29.1913 84.1525 29.7413 83.8125 29.7013C83.6725 30.3113 83.8425 36.5013 81.3325 38.5813C79.7825 39.8613 73.5625 38.7813 74.2525 46.6413C73.5725 59.9613 96.1125 57.9113 98.5025 50.9113Z" fill="#FFDBB0"/>
<path d="M98.3425 21.6113C98.9825 14.1913 96.7725 5.22133 87.6525 5.00133C78.5325 4.77133 75.5125 14.1813 75.7825 21.6313C75.3625 21.2013 73.9125 21.0613 73.8825 22.2813C73.8725 22.8513 74.1225 23.9113 74.8025 24.7613C75.5925 25.7313 76.7125 25.8013 77.2125 26.0513C77.6625 27.9313 78.7925 29.6413 79.7325 30.6213C81.0825 32.0213 84.3825 34.0813 87.3525 34.2313C89.7225 34.3513 92.7325 32.3313 94.3125 30.7213C95.8025 29.2013 96.7025 27.7313 97.3825 26.2913C97.8925 26.0713 98.9025 25.9913 99.7725 25.0813C100.522 24.2913 101.062 22.1013 100.542 21.5913C99.7525 20.8113 98.5825 21.3913 98.3325 21.6213L98.3425 21.6113Z" fill="#FFDBB0"/>
<path d="M79.8425 6.28133C75.6525 7.44133 73.2625 16.9813 74.3125 18.9313C75.3625 20.8813 75.3325 21.7713 75.9525 21.7913C76.5825 21.8113 75.7825 20.8213 76.3525 20.4613C76.9325 20.1013 76.8025 14.7213 77.7925 13.1613C78.7925 11.6013 79.8625 12.4013 81.0225 12.8413C82.5425 13.4213 84.5425 9.85133 86.2925 12.5113C87.3425 14.1013 89.6625 12.4813 90.1725 11.4113C90.6825 10.3313 91.7625 9.89133 92.5525 10.5713C92.9725 10.9313 93.6625 12.4913 94.1025 14.0013C94.5425 15.5113 96.4425 16.2813 97.3925 16.7513C98.3425 17.2213 98.0525 19.0613 98.0825 19.9913C98.1225 20.9213 98.0225 22.7013 99.2025 20.3713C100.382 18.0413 99.7025 15.6013 99.3725 12.5613C99.0425 9.53133 94.6625 5.32133 92.1625 5.12133C89.6625 4.92133 82.0825 5.66133 79.8325 6.28133H79.8425Z" fill="#0054A7"/>
<path d="M87.7425 0.00133396C92.9725 0.111334 96.6125 2.68133 98.5425 4.69133C100.472 6.70133 100.362 7.93133 99.9025 10.0513C99.4525 12.1713 101.262 13.1813 100.812 15.4113C100.392 17.4613 100.362 18.7613 99.3325 19.6513C98.3125 20.5413 96.8325 15.2513 87.8525 14.8513C80.3525 14.5113 77.9625 17.3113 76.6025 18.8713C75.2425 20.4313 74.7825 19.6513 73.7625 17.6413C72.7425 15.6313 72.0225 13.3813 72.7425 12.0613C73.6525 10.3813 73.9325 7.90133 73.9925 6.70133C74.2125 1.90133 85.1025 -0.058666 87.7425 0.00133396Z" fill="url(#paint0_linear_425_1539)"/>
<path d="M73.6725 12.0914C73.5825 12.0914 73.4925 12.0513 73.4225 11.9813C73.2925 11.8413 73.3025 11.6314 73.4425 11.5014L73.9725 11.0114C75.2125 9.85135 75.7725 9.31135 77.1125 9.09135C77.3025 9.06135 77.4725 9.19135 77.5025 9.37135C77.5325 9.56135 77.4025 9.73135 77.2225 9.76135C76.0925 9.95135 75.6425 10.3714 74.4425 11.5014L73.9125 12.0014C73.8425 12.0614 73.7625 12.0914 73.6825 12.0914H73.6725Z" fill="#0054A7"/>
<path d="M100.193 14.4113C100.023 14.4113 99.8725 14.2813 99.8525 14.1113C99.8525 14.0813 99.7125 13.2413 98.4225 12.6413C97.3825 12.1613 96.9125 11.9413 96.7925 11.5013C96.7025 11.1413 96.9025 10.8113 97.1225 10.5013C96.9625 10.0613 95.4325 9.52133 93.8825 9.41133C93.6925 9.40133 93.5525 9.23133 93.5625 9.04133C93.5725 8.85133 93.7425 8.71133 93.9225 8.72133C94.7725 8.78133 97.2925 9.17133 97.7425 10.1313C97.8625 10.3813 97.8325 10.6513 97.6625 10.8913C97.4325 11.2213 97.4325 11.3013 97.4325 11.3113C97.4625 11.4413 98.1125 11.7413 98.6925 12.0113C100.363 12.7813 100.513 13.9813 100.513 14.0313C100.533 14.2213 100.403 14.3913 100.213 14.4113C100.203 14.4113 100.193 14.4113 100.173 14.4113H100.193Z" fill="#0054A7"/>
<path d="M31.3825 70.7213C28.1325 70.3913 23.5625 69.0413 22.1225 68.4813C19.0925 67.3213 18.7325 63.4413 17.5825 62.5113C17.0125 61.6713 15.2025 60.6413 14.5225 61.7713C14.1925 62.3213 14.8325 62.6513 14.3525 62.8013C14.3525 62.8013 13.1425 61.4913 12.2025 61.5913C11.1925 61.7113 9.78251 61.9113 9.46251 62.6013C8.95251 63.6713 8.48251 63.4513 8.21251 65.0913C8.02251 66.2913 7.66251 66.1313 6.88251 67.3413C6.54251 67.8713 5.65251 70.7313 6.18251 71.4713C6.65251 72.1313 8.30251 72.8313 10.5125 74.7313C12.7225 76.6313 17.6625 74.3813 19.3225 74.6313C21.6325 74.9813 27.9525 77.2013 33.2525 78.4013C38.7125 79.4213 46.0625 78.8713 48.9625 77.7213C53.7925 75.8013 48.8025 71.5813 49.2225 70.1213C47.9225 69.7313 35.4425 71.1313 31.3825 70.7213Z" fill="#FFDBB0"/>
<path d="M129.232 59.0913C126.902 56.3513 113.912 44.9213 106.262 41.0713C103.382 39.7913 98.9725 38.0313 98.9025 38.0013C96.9625 36.7913 94.5825 34.6513 93.2625 35.2513C91.9425 35.8513 89.2925 39.6013 88.0725 39.6013C86.6625 39.6013 84.3625 38.0013 82.3125 36.0113C80.9925 34.7413 78.7225 36.5213 77.1225 38.0013C75.2825 38.8513 65.9825 44.1313 63.5725 46.4713C58.1125 51.7613 54.9725 55.9413 50.2525 63.2013C45.2225 70.9513 46.8625 66.7013 42.9925 68.6613C40.4025 69.6613 43.3225 75.3913 46.3225 78.8213C47.5225 80.1913 55.9925 80.5313 60.7925 75.6413C64.1225 72.2513 66.1325 68.9513 67.3125 69.2613C68.3025 69.6513 67.0025 76.0313 66.4725 78.4013C64.5925 87.3613 60.6525 101.051 59.6225 106.971C57.4225 119.131 55.0225 142.541 54.2625 145.771C53.2425 150.121 42.7325 182.911 52.7225 198.791C61.2225 212.301 65.2725 205.871 70.9125 201.611C82.4425 192.901 79.7925 172.831 80.3025 166.171C80.7925 159.791 81.7425 145.711 84.1425 146.051C87.6725 146.551 82.4425 191.101 92.6825 206.731C94.1825 209.011 107.432 205.591 109.842 202.381C119.062 190.091 115.643 167.651 115.382 161.211C115.302 159.351 114.292 147.881 113.832 131.131C113.622 123.681 111.272 110.961 109.802 106.481C107.783 100.331 109.802 92.7313 109.802 90.0413C109.822 85.2013 107.472 67.2513 110.272 66.1613C112.003 65.4913 119.872 68.6313 120.612 70.7213C121.292 72.6413 117.952 76.1613 116.262 81.6113C115.712 83.3813 126.582 89.2713 128.042 87.4613C128.822 86.5013 130.492 82.4513 134.572 72.3913C136.802 66.9013 132.192 62.8413 129.232 59.0913Z" fill="url(#paint1_linear_425_1539)"/>
<path d="M82.9825 126.051C82.7925 126.051 82.6425 125.901 82.6425 125.711C82.6425 122.781 83.2025 113.211 83.7425 103.951C84.2025 96.1113 84.6325 88.7113 84.7325 85.2313C84.9625 77.6213 86.6025 49.0613 86.8225 45.6813C86.8325 45.4913 86.9725 45.3413 87.1825 45.3613C87.3725 45.3713 87.5125 45.5413 87.5025 45.7213C87.2725 49.1013 85.6425 77.6413 85.4125 85.2513C85.3025 88.7413 84.8725 96.1413 84.4125 103.991C83.8725 113.241 83.3125 122.801 83.3125 125.711C83.3125 125.901 83.1625 126.051 82.9725 126.051H82.9825Z" fill="#0054A7"/>
<path d="M110.063 128.551C110.003 128.541 109.933 128.511 109.883 128.461C105.713 125.321 102.493 118.551 101.863 115.641C101.803 115.381 101.973 115.121 102.233 115.061C102.493 115.001 102.753 115.171 102.813 115.431C103.493 118.591 106.823 124.941 110.463 127.681C110.683 127.841 110.723 128.151 110.563 128.361C110.443 128.521 110.243 128.581 110.063 128.541V128.551Z" fill="#0054A7"/>
<path d="M58.9925 129.491C58.9025 129.481 58.8125 129.441 58.7325 129.381C58.5025 129.201 58.4625 128.881 58.6425 128.651C61.5925 124.881 63.3125 119.551 64.5725 115.651L64.9725 114.431C65.0625 114.161 65.3525 114.011 65.6225 114.101C65.8925 114.191 66.0425 114.481 65.9525 114.751L65.5525 115.971C64.2725 119.941 62.5125 125.371 59.4525 129.291C59.3325 129.441 59.1625 129.511 58.9825 129.491H58.9925Z" fill="#0054A7"/>
<path d="M46.6125 82.9014C47.7525 83.8114 48.1525 83.6314 49.1125 82.4314C50.0725 81.2314 50.8225 79.8614 52.2425 80.3414C53.6625 80.8114 54.5325 80.1414 54.7825 79.2014C55.0425 78.2614 55.5625 76.7714 54.6025 75.5114C53.6425 74.2514 53.5925 73.8914 52.6025 70.8214C51.6125 67.7414 49.6125 63.8714 48.2525 63.9414C46.8925 64.0114 46.4925 64.5114 46.2625 65.6314C46.0225 66.7514 44.8825 66.3414 43.6825 66.2014C42.4825 66.0614 40.9625 67.1514 40.6925 67.9114C40.4125 68.6714 38.9325 72.4014 40.7325 73.8314C42.5425 75.2614 43.1425 77.3814 43.6725 78.7814C44.2025 80.1814 45.7025 82.1914 46.6125 82.9114V82.9014Z" fill="url(#paint2_linear_425_1539)"/>
<path d="M127.953 83.1913C125.743 87.5713 117.373 102.521 117.163 104.121C116.953 105.721 116.043 109.991 115.453 112.731C115.213 113.841 113.973 115.081 111.433 117.441C110.313 118.491 110.413 115.931 108.703 116.501C105.823 117.451 106.433 115.481 105.563 115.171C104.063 114.631 103.633 114.511 104.723 112.671C105.813 110.831 106.723 109.781 107.403 109.081C108.083 108.371 108.863 107.101 107.093 107.391C105.323 107.681 104.333 107.731 103.403 106.891C102.463 106.051 102.863 105.181 105.043 105.071C107.533 104.391 110.033 102.031 111.333 101.321C112.633 100.611 118.453 83.3613 119.433 80.3913C120.413 77.4213 129.983 79.2013 127.973 83.2113L127.953 83.1913Z" fill="#FFDBB0"/>
<path d="M118.553 73.2813C117.093 73.2813 116.893 73.6613 116.893 75.2013C116.893 76.7413 117.153 78.2713 115.743 78.7913C114.333 79.3113 114.083 80.3713 114.463 81.2713C114.843 82.1713 115.363 83.6613 116.893 84.0413C118.433 84.4213 118.683 84.6813 121.373 86.4713C124.063 88.2613 128.033 90.0613 129.053 89.1613C130.073 88.2613 130.073 87.6213 129.563 86.6013C129.053 85.5813 130.203 85.1913 131.223 84.5513C132.243 83.9113 132.763 82.1213 132.503 81.3513C132.243 80.5813 131.093 76.7413 128.793 76.7413C126.493 76.7413 124.693 75.4613 123.413 74.6913C122.133 73.9213 119.703 73.2813 118.543 73.2813H118.553Z" fill="url(#paint3_linear_425_1539)"/>
<path d="M63.2225 245.761C62.5825 238.361 72.9925 202.781 72.1925 200.581C71.1425 197.691 52.8525 195.971 51.9525 197.511C47.8525 204.541 52.5225 239.721 50.8825 242.691C50.8825 242.711 49.7325 244.351 48.7725 245.071C43.4125 249.071 38.5025 246.601 37.9225 249.801C37.5325 251.941 36.5225 253.431 39.7825 255.301C45.8925 258.811 63.3325 256.661 63.6725 252.421C63.7525 251.411 63.3725 247.501 63.2225 245.761Z" fill="#0054A7"/>
<path d="M94.4225 249.671C94.8625 248.791 95.8025 246.281 96.0025 245.061C96.6325 241.201 89.6125 205.591 89.6125 201.871C89.4825 199.951 110.743 197.771 110.873 202.131C111.103 209.781 106.133 243.881 109.193 247.791C109.853 248.631 112.912 249.031 114.852 249.741C118.872 251.211 119.613 253.151 117.803 256.021C116.893 257.461 111.243 259.751 106.913 258.491C100.763 256.701 92.5925 253.361 94.4325 249.691L94.4225 249.671Z" fill="#0054A7"/>
<path d="M9.4325 29.9913C9.5525 33.7213 9.6625 37.4413 9.7825 41.1713C9.8425 42.9513 10.0125 44.7813 9.8225 46.5513C9.6325 48.3113 8.8725 49.9613 8.5825 51.7113C8.2525 53.6913 8.2425 55.6913 8.5125 57.6813C8.5625 58.0113 8.9725 58.1813 9.2625 58.1113C9.6125 58.0213 9.7325 57.6813 9.6925 57.3613C9.4525 55.6013 9.4725 53.7913 9.7625 52.0413C10.0525 50.3313 10.7425 48.7213 10.9925 47.0013C11.2425 45.2413 11.0825 43.4413 11.0325 41.6713C10.9725 39.8613 10.9225 38.0413 10.8625 36.2313C10.7925 34.1513 10.7325 32.0713 10.6625 29.9913C10.6425 29.2113 9.4125 29.2013 9.4425 29.9913H9.4325Z" fill="#62C0B4"/>
<path d="M9.6925 51.0914C13.9125 47.5014 15.9225 42.1814 19.0025 37.7214C19.4525 37.0714 18.3925 36.4614 17.9525 37.1014C14.9325 41.4714 12.9725 46.7114 8.8325 50.2214C8.2325 50.7314 9.1025 51.5914 9.6925 51.0814V51.0914Z" fill="#62C0B4"/>
<path d="M3.36249 32.2613C5.51249 34.9613 7.65249 37.6713 9.41249 40.6513C9.81249 41.3313 10.8625 40.7113 10.4625 40.0313C8.66249 36.9613 6.44249 34.1713 4.22249 31.3913C3.73249 30.7813 2.87249 31.6413 3.36249 32.2513V32.2613Z" fill="#62C0B4"/>
<path d="M6.12251 30.1413C5.93251 31.7813 5.77251 33.4213 5.63251 35.0613C5.56251 35.8413 6.78251 35.8413 6.85251 35.0613C6.99251 33.4213 7.16251 31.7813 7.34251 30.1413C7.43251 29.3613 6.21251 29.3713 6.12251 30.1413Z" fill="#62C0B4"/>
<path d="M2.43251 35.3813C4.08251 36.2613 5.73251 37.1513 7.38251 38.0313C8.07251 38.4013 8.69251 37.3513 8.00251 36.9813C6.35251 36.1013 4.70251 35.2113 3.05251 34.3313C2.36251 33.9613 1.74251 35.0113 2.43251 35.3813Z" fill="#62C0B4"/>
<path d="M13.3825 30.5413C12.5225 30.7713 11.9425 31.4113 11.4525 32.1213C10.8625 32.9813 10.3925 33.9213 10.0025 34.8913C9.7125 35.6213 10.8925 35.9413 11.1825 35.2113C11.4825 34.4513 11.8625 33.7313 12.3025 33.0413C12.6525 32.5013 13.0525 31.8913 13.7125 31.7113C14.4725 31.5113 14.1525 30.3313 13.3925 30.5313L13.3825 30.5413Z" fill="#62C0B4"/>
<path d="M4.79251 41.3213C6.26251 42.6813 7.74251 44.0413 9.21251 45.4013C9.79251 45.9313 10.6525 45.0713 10.0725 44.5413C8.60251 43.1813 7.12251 41.8213 5.65251 40.4613C5.07251 39.9313 4.21251 40.7913 4.79251 41.3213Z" fill="#62C0B4"/>
<path d="M13.7025 37.9414C12.9325 38.2514 12.6025 39.1514 12.1925 39.8214C11.7025 40.6314 11.2125 41.4414 10.7225 42.2614C10.3125 42.9414 11.3725 43.5514 11.7725 42.8814C12.1725 42.2114 12.5725 41.5514 12.9725 40.8814C13.1625 40.5614 13.3525 40.2414 13.5525 39.9214C13.6525 39.7514 13.7625 39.5714 13.8625 39.4014C13.8925 39.3514 14.0725 39.1014 14.0125 39.1214C14.7325 38.8314 14.4125 37.6514 13.6925 37.9414H13.7025Z" fill="#62C0B4"/>
<path d="M15.4125 44.2513C17.9425 43.4413 20.4625 42.6213 22.9925 41.8113C23.7425 41.5713 23.4225 40.3913 22.6725 40.6313C20.1425 41.4413 17.6225 42.2613 15.0925 43.0713C14.3425 43.3113 14.6625 44.4913 15.4125 44.2513Z" fill="#62C0B4"/>
<path d="M15.9525 35.0414C15.7325 36.5214 15.6625 38.0014 15.7725 39.5014C15.8325 40.2814 17.0525 40.2914 16.9925 39.5014C16.8825 38.1214 16.9225 36.7414 17.1225 35.3714C17.2425 34.6014 16.0625 34.2714 15.9425 35.0514L15.9525 35.0414Z" fill="#62C0B4"/>
<path d="M13.0825 48.0014C14.2725 48.0114 15.4325 48.2014 16.5725 48.5514C17.3225 48.7814 17.6525 47.6014 16.8925 47.3714C15.6525 46.9914 14.3725 46.8014 13.0725 46.7814C12.2825 46.7814 12.2825 47.9914 13.0725 48.0014H13.0825Z" fill="#62C0B4"/>
<path d="M1.11249 43.0713C4.90249 45.8813 6.58249 50.5113 8.12249 54.7813C8.38249 55.5113 9.57249 55.2013 9.30249 54.4613C7.64249 49.8513 5.81249 45.0413 1.73249 42.0213C1.10249 41.5513 0.492493 42.6113 1.11249 43.0713Z" fill="#62C0B4"/>
<path d="M0.6025 46.2614C1.5425 46.2814 2.3425 46.7614 3.1025 47.2614C3.8525 47.7614 4.5825 48.2614 5.4325 48.5914C6.1625 48.8814 6.4825 47.7014 5.7525 47.4114C3.9525 46.7014 2.6625 45.0814 0.5925 45.0314C-0.1975 45.0114 -0.1975 46.2314 0.5925 46.2514H0.6025V46.2614Z" fill="#62C0B4"/>
<path d="M7.22251 45.8213C6.97251 46.9013 6.80251 47.9913 6.72251 49.1013C6.66251 49.8813 7.88251 49.8813 7.94251 49.1013C8.02251 48.1013 8.17251 47.1213 8.40251 46.1513C8.58251 45.3913 7.40251 45.0613 7.22251 45.8313V45.8213Z" fill="#62C0B4"/>
<path d="M6.40251 38.9613C6.31251 40.2813 6.44251 41.5913 6.76251 42.8713C6.95251 43.6313 8.13251 43.3113 7.94251 42.5513C7.64251 41.3713 7.54251 40.1813 7.62251 38.9613C7.67251 38.1813 6.45251 38.1813 6.40251 38.9613Z" fill="#62C0B4"/>
<path d="M0.602493 39.9114C2.10249 40.1814 3.53249 40.6614 4.89249 41.3714C5.59249 41.7314 6.20249 40.6814 5.51249 40.3214C4.07249 39.5714 2.53249 39.0314 0.932493 38.7414C0.162493 38.6014 -0.167507 39.7814 0.612493 39.9214H0.602493V39.9114Z" fill="#62C0B4"/>
<path fill-rule="evenodd" clip-rule="evenodd" d="M7.22251 56.5814C4.38251 56.5814 1.34251 59.4214 1.86251 63.6214C2.39251 67.8214 2.60251 84.6314 3.54251 90.4114C4.48251 96.1914 5.96251 103.441 7.74251 98.4014C9.53251 93.3614 12.1525 75.7014 13.3125 70.0314C14.4725 64.3614 16.0425 60.0514 13.7325 58.3714C12.0125 57.1214 8.06251 56.5814 7.22251 56.5814Z" fill="url(#paint4_linear_425_1539)"/>
<path d="M4.0425 68.8113C4.5825 68.5313 5.1525 68.4013 5.7525 68.4113C6.5425 68.4113 6.5425 67.2013 5.7525 67.1913C4.9325 67.1913 4.1525 67.3813 3.4225 67.7613C2.7225 68.1313 3.3425 69.1813 4.0425 68.8113Z" fill="#FEDC5E"/>
<path d="M4.7425 73.1614C5.7325 73.2614 6.6125 73.0913 7.5825 72.9913C8.3025 72.9113 8.8125 73.6413 9.5725 73.6013C10.3525 73.5613 10.3625 72.3413 9.5725 72.3813C9.2225 72.4013 8.9325 72.1114 8.6325 71.9614C8.2925 71.8014 7.9625 71.7214 7.5925 71.7614C7.1525 71.8014 6.7325 71.9214 6.2925 71.9614C5.7725 72.0014 5.2625 71.9914 4.7425 71.9414C3.9625 71.8614 3.9625 73.0914 4.7425 73.1614Z" fill="#FEDC5E"/>
<path d="M4.82251 79.6813C5.46251 79.9013 6.10251 80.0413 6.77251 80.1213C7.10251 80.1613 7.38251 79.8113 7.38251 79.5113C7.38251 79.1513 7.10251 78.9413 6.77251 78.9013C6.22251 78.8313 5.67251 78.6913 5.15251 78.5013C4.41251 78.2413 4.09251 79.4213 4.83251 79.6813H4.82251Z" fill="#FEDC5E"/>
<path d="M7.0125 86.5313C7.0525 86.5913 7.0925 86.6513 7.1325 86.7113C7.1525 86.7413 7.1625 86.7713 7.1825 86.8013C7.2125 86.8613 7.2125 86.8613 7.1925 86.8213C7.1625 86.7613 7.2325 86.9313 7.2325 86.9513C7.2525 87.0213 7.2725 87.0913 7.2825 87.1613C7.3425 87.4713 7.7325 87.6813 8.0325 87.5913C8.3625 87.4813 8.5225 87.1813 8.4625 86.8413C8.4025 86.5113 8.2625 86.1913 8.0625 85.9213C7.8725 85.6613 7.5225 85.5113 7.2225 85.7013C6.9625 85.8613 6.8025 86.2613 7.0025 86.5413L7.0125 86.5313Z" fill="#FEDC5E"/>
<path d="M174.332 27.7213C173.402 29.0013 173.342 39.3713 172.552 42.7713C171.702 46.4513 169.642 47.5213 167.752 48.4213C165.862 49.3313 169.402 50.9413 172.942 51.0213C176.482 51.1013 184.992 52.7913 187.932 52.9113C190.872 53.0213 190.142 52.5313 195.292 53.2513C200.662 54.0013 204.352 52.6413 201.422 51.3613C200.192 50.8213 197.752 48.9813 197.362 46.3513C196.972 43.7213 201.052 38.3113 201.222 35.4713C201.382 32.6413 200.922 27.8213 194.322 27.5113C187.732 27.2013 176.992 24.0613 174.342 27.7213H174.332Z" fill="#0054A7"/>
<path d="M197.672 39.1113C199.382 31.6213 198.432 22.1513 189.272 20.6413C180.112 19.1313 175.712 28.3113 174.922 35.9513C174.562 35.4513 173.522 35.1713 173.322 36.4113C173.222 36.9913 173.322 38.0013 173.892 38.9613C174.552 40.0713 175.262 40.3413 175.732 40.6613C175.922 42.6413 176.812 44.5513 177.622 45.6813C178.782 47.3013 181.812 49.8713 184.792 50.4413C187.172 50.9013 190.492 49.2613 192.312 47.8413C194.032 46.5013 195.142 45.1313 196.042 43.7513C196.592 43.6013 197.222 43.5813 198.082 42.6313C198.482 42.1913 199.152 40.6813 199.052 39.9413C198.932 39.0213 197.942 38.9113 197.662 39.1113H197.672Z" fill="#FFDBB0"/>
<path d="M184.122 18.3613C185.092 18.5813 186.622 18.1613 187.592 17.7013C189.312 16.8813 191.992 18.5313 193.862 19.3613C195.822 20.2313 197.612 22.6313 198.202 23.5013C199.912 25.9713 199.652 28.9713 199.792 31.8713C199.862 33.4013 201.112 36.1913 200.512 37.5313C199.912 38.8713 198.452 39.0213 197.392 39.5313C196.282 40.0613 196.152 42.3413 196.002 40.1913C195.852 38.0313 197.522 36.5613 192.932 36.2013C189.972 35.9613 185.442 29.6713 184.262 28.4113C183.092 27.1513 181.852 29.0213 181.112 29.7113C180.372 30.4013 177.892 32.4213 176.992 33.3413C176.092 34.2613 175.682 37.6013 175.222 36.6613C174.272 34.6913 175.142 35.9513 173.922 32.1913C172.972 29.2713 175.882 24.6613 177.002 22.4513C178.092 20.3013 179.982 17.6213 184.112 18.3713L184.122 18.3613Z" fill="#0054A7"/>
<path d="M188.442 45.8513C188.172 45.8713 183.582 45.7113 183.242 45.7013C183.152 46.3213 183.952 48.7913 181.972 51.9813C179.252 56.3513 170.782 56.2413 170.932 61.8313C171.612 69.1213 195.312 64.8913 197.712 61.4413C197.372 53.3313 192.192 57.2213 189.132 52.2413C187.752 50.0013 188.472 46.2613 188.442 45.8613V45.8513Z" fill="#FFDBB0"/>
<path d="M186.452 24.5813C181.692 24.1313 176.252 23.0813 173.652 27.7213C172.442 29.8713 172.302 30.4713 174.402 31.3713C177.402 32.6513 181.322 30.7613 187.532 31.8713C194.762 33.1613 195.912 35.0713 198.912 34.9713C203.842 34.8013 201.272 31.1113 200.222 29.3113C197.802 25.1713 191.112 25.0713 186.462 24.5913L186.452 24.5813Z" fill="url(#paint5_linear_425_1539)"/>
<path d="M187.462 27.1013C193.782 27.9713 197.212 30.3413 200.302 29.9913C200.982 29.9113 200.112 26.5013 199.502 24.2013C198.272 19.6113 195.442 16.7613 188.592 15.8113C183.132 15.0513 178.222 16.9513 176.392 21.3413C175.482 23.5313 173.702 26.3013 174.552 26.6713C175.762 27.1013 181.082 25.9013 187.472 27.1013H187.462Z" fill="url(#paint6_linear_425_1539)"/>
<path d="M223.052 110.341C223.712 109.691 224.892 109.211 226.052 108.801C227.152 108.311 225.512 103.651 224.202 104.261C223.622 104.531 223.072 104.701 222.582 104.691C221.872 104.861 220.282 104.531 219.772 104.331C218.882 103.991 214.742 104.561 213.822 106.331C213.212 107.511 214.052 107.581 213.282 108.351C212.512 109.121 210.932 110.791 210.152 111.691C209.362 112.591 210.982 113.541 211.752 113.721C212.522 113.911 212.192 114.661 212.242 115.871C212.292 117.081 212.992 116.781 214.242 116.681C215.482 116.581 215.542 116.251 216.442 116.811C217.342 117.371 217.612 117.181 218.442 116.671C219.272 116.161 220.562 113.881 221.802 112.011C222.242 111.351 222.632 110.801 223.052 110.341Z" fill="#FFDBB0"/>
<path d="M148.332 109.311C148.632 109.851 148.902 110.471 149.192 111.211C150.002 113.301 150.772 115.811 151.472 116.491C152.172 117.171 152.402 117.421 153.402 117.061C154.402 116.701 154.392 117.041 155.582 117.411C156.772 117.781 157.392 118.221 157.702 117.051C158.012 115.881 157.852 115.071 158.642 115.061C159.432 115.041 161.212 114.471 160.642 113.421C160.072 112.371 158.892 110.401 158.302 109.481C157.712 108.571 158.552 108.681 158.212 107.391C157.692 105.461 153.782 104.021 152.832 104.151C152.282 104.231 150.662 104.221 150.012 103.901C149.652 103.831 149.272 103.631 148.882 103.381C147.592 102.651 145.442 106.531 146.222 107.471C147.092 108.031 147.912 108.651 148.342 109.311H148.332Z" fill="#FFDBB0"/>
<path d="M151.302 249.911C158.222 246.821 150.342 242.131 151.602 234.791C151.602 234.791 154.602 230.451 156.562 232.811C158.052 234.611 161.842 242.181 164.052 247.501C160.492 250.671 155.482 251.541 151.302 249.911Z" fill="#0054A7"/>
<path d="M151.252 249.931C151.252 249.931 151.282 249.911 151.302 249.911C155.482 251.541 160.492 250.671 164.052 247.501C164.742 249.161 165.282 250.601 165.542 251.581C166.652 255.681 153.692 260.521 146.762 259.261C138.812 257.821 139.812 254.971 151.252 249.931Z" fill="#0054A7"/>
<path d="M190.732 246.541C191.362 242.681 191.012 237.551 191.012 233.831C194.682 231.081 197.432 231.081 197.742 238.731C198.052 246.381 198.962 250.361 203.552 252.801C203.592 252.821 203.632 252.851 203.682 252.871C198.992 252.631 194.042 250.171 190.732 246.541Z" fill="#0054A7"/>
<path d="M190.732 246.541C194.042 250.171 198.992 252.631 203.682 252.871C208.222 255.311 212.092 258.321 209.062 259.841C206.032 261.361 201.722 261.061 197.742 258.921C193.762 256.781 187.952 253.411 189.792 249.741C190.232 248.861 190.532 247.761 190.732 246.541Z" fill="#0054A7"/>
<path d="M222.942 78.7113C218.802 68.1013 207.302 59.9613 203.922 57.8213C201.092 56.0813 196.912 53.8213 193.022 53.9313C190.502 54.0013 189.952 55.8113 185.612 55.6913C180.992 55.5513 180.322 53.6013 178.612 53.1413C175.932 52.4113 169.892 54.7213 165.632 56.2113C160.182 58.0413 151.922 66.0413 147.392 74.4513C143.772 81.5713 144.032 99.5913 144.802 106.841C144.542 112.011 155.412 103.831 155.502 101.841C155.762 95.6313 155.402 84.4613 155.542 81.3113C155.802 75.4413 162.882 70.2013 163.692 70.4413C165.622 71.0213 165.842 77.3613 165.892 82.0213C165.942 86.0113 164.122 99.0313 164.122 101.021C164.122 103.141 161.792 107.071 163.262 107.671C163.412 107.761 169.542 105.361 172.042 105.081C177.892 104.411 180.222 103.511 186.942 103.821C191.332 104.021 195.692 104.031 202.172 105.951C203.972 106.481 201.292 102.161 201.172 100.431C200.972 97.3713 200.442 88.6913 200.642 84.3513C200.772 81.5113 199.102 71.2513 201.652 70.0113C206.152 72.2013 209.502 78.4613 211.052 82.6013C212.162 85.5513 215.712 92.5213 215.542 98.9013C215.632 102.871 226.502 111.321 226.842 108.651C227.832 100.761 224.942 83.7913 222.962 78.7213L222.942 78.7113Z" fill="url(#paint7_linear_425_1539)"/>
<path d="M209.342 176.561C209.202 162.071 208.182 140.831 207.572 123.981C207.302 116.561 207.912 108.511 205.222 106.791C203.412 105.631 199.662 100.041 198.232 96.8313C195.642 91.0113 199.392 71.9513 197.192 70.0513C195.922 68.9513 171.012 67.8113 169.892 69.6613C168.902 71.3013 171.052 85.8313 167.302 94.7613C165.652 98.6813 160.442 102.131 160.052 107.441C159.932 109.081 150.622 163.181 149.732 170.991C149.242 175.321 145.242 235.231 145.992 245.361C146.192 248.061 152.862 248.471 154.362 248.471C155.862 248.471 168.032 249.571 168.852 247.181C170.922 241.131 177.132 149.891 180.492 150.151C184.622 150.471 183.772 244.151 183.772 245.031C183.772 247.791 191.712 247.621 193.092 247.621C194.472 247.621 205.522 248.961 206.372 245.031C207.542 239.611 209.362 180.611 209.332 176.591L209.342 176.561Z" fill="url(#paint8_linear_425_1539)"/>
<path d="M174.212 70.1113C174.212 70.6913 173.742 71.1713 173.152 71.1713C172.562 71.1713 172.092 70.7013 172.092 70.1113C172.092 69.5213 172.562 69.0513 173.152 69.0513C173.742 69.0513 174.212 69.5213 174.212 70.1113Z" fill="#0054A7"/>
<path d="M168.862 54.9113C168.692 54.0513 173.822 52.7513 173.912 54.1313C174.032 56.0713 174.982 64.4413 175.032 65.9913C175.072 67.4113 172.442 67.0313 171.022 67.2013C169.742 67.3613 169.282 57.0013 168.862 54.9113Z" fill="#62C0B4"/>
<path d="M199.872 56.3313C200.302 54.9913 195.472 53.0113 195.212 54.9113C194.952 56.8413 193.542 65.0913 193.182 66.6013C193.012 67.3313 195.392 67.6813 196.672 67.8113C197.962 67.9413 199.212 58.3713 199.862 56.3413L199.872 56.3313Z" fill="#62C0B4"/>
<path d="M173.362 71.8413C172.692 71.8413 172.212 71.5513 171.932 70.9713C171.672 70.4513 171.742 69.7213 171.802 69.2913C171.552 69.2913 171.192 69.3113 170.942 69.3313C170.442 69.3713 170.082 69.2713 169.852 69.0513C169.542 68.7513 169.552 68.3113 169.572 67.9513V67.8313C169.602 66.8913 173.042 66.6313 175.102 66.5613C175.302 66.5613 175.472 66.5313 175.612 66.5113C175.902 66.4713 176.192 66.4313 176.412 66.6313C176.622 66.8213 176.652 67.1213 176.642 67.5313C176.602 68.6013 175.652 68.7413 175.032 68.8413C174.882 68.8613 174.742 68.8813 174.602 68.9213C174.602 68.9613 174.742 69.2613 174.812 69.4413C174.952 69.7513 175.092 70.0813 175.062 70.3813C175.002 71.0513 174.222 71.7713 173.662 71.8313C173.562 71.8413 173.462 71.8513 173.372 71.8513L173.362 71.8413ZM171.712 68.5313C172.082 68.5313 172.312 68.5813 172.462 68.7413C172.542 68.8213 172.602 69.0213 172.592 69.1313V69.2313C172.542 69.4813 172.422 70.2513 172.622 70.6413C172.802 71.0113 173.072 71.1313 173.582 71.0813C173.772 71.0613 174.282 70.6313 174.312 70.3113C174.312 70.2113 174.202 69.9313 174.122 69.7513C173.942 69.3413 173.762 68.9113 173.942 68.5513C174.002 68.4213 174.142 68.2613 174.432 68.1913C174.582 68.1513 174.752 68.1313 174.922 68.1013C175.662 67.9913 175.882 67.8913 175.892 67.5113C175.892 67.3913 175.892 67.3113 175.892 67.2513C175.842 67.2513 175.782 67.2613 175.732 67.2713C175.572 67.2913 175.372 67.3213 175.142 67.3313C173.502 67.3913 170.862 67.6813 170.352 67.9713C170.352 68.1913 170.332 68.4413 170.402 68.5113C170.422 68.5313 170.532 68.6113 170.912 68.5813C171.242 68.5613 171.512 68.5413 171.732 68.5413L171.712 68.5313Z" fill="#F18E38"/>
<path d="M169.462 61.0613C169.282 61.0313 169.132 60.9913 169.012 60.9113C168.862 60.8113 168.762 60.6713 168.722 60.5113C168.632 60.0713 168.572 59.6113 168.822 59.2513C169.122 58.8313 169.682 58.7513 170.692 58.6213C171.072 58.5713 171.512 58.5113 172.042 58.4313C172.352 58.3813 172.652 58.3213 172.932 58.2613C173.982 58.0513 174.742 57.9113 175.182 58.2413C175.302 58.3313 175.452 58.5013 175.482 58.8013V58.9113C175.592 59.9013 175.262 60.1013 173.922 60.3413C173.712 60.3813 173.402 60.4513 173.042 60.5413C171.492 60.9013 170.212 61.1713 169.452 61.0613H169.462ZM172.172 59.1813C171.632 59.2713 171.182 59.3313 170.792 59.3813C170.102 59.4713 169.552 59.5413 169.442 59.6913C169.402 59.7513 169.372 59.9113 169.462 60.3513C169.792 60.5113 172.032 59.9913 172.872 59.7913C173.252 59.7013 173.572 59.6313 173.792 59.5913C174.512 59.4613 174.712 59.3713 174.752 59.3213C174.762 59.2813 174.752 59.1113 174.732 58.9813V58.8713C174.562 58.7213 173.672 58.8913 173.072 59.0113C172.782 59.0713 172.472 59.1313 172.152 59.1813H172.172Z" fill="#F18E38"/>
<path d="M194.112 60.4113C193.952 60.3213 193.822 60.2213 193.742 60.1113C193.632 59.9613 193.592 59.8013 193.612 59.6313C193.682 59.1813 193.792 58.7313 194.152 58.4913C194.582 58.2013 195.132 58.3313 196.122 58.5613C196.492 58.6513 196.932 58.7513 197.452 58.8513C197.762 58.9113 198.062 58.9613 198.342 59.0113C199.392 59.1913 200.152 59.3113 200.452 59.7813C200.532 59.9113 200.612 60.1213 200.542 60.4113L200.512 60.5113C200.252 61.4713 199.882 61.5413 198.542 61.3013C198.332 61.2613 198.012 61.2213 197.642 61.1713C196.072 60.9613 194.772 60.7613 194.102 60.4013L194.112 60.4113ZM197.312 59.6113C196.782 59.5113 196.332 59.4013 195.952 59.3113C195.272 59.1513 194.733 59.0213 194.583 59.1313C194.523 59.1713 194.442 59.3113 194.372 59.7513C194.622 60.0113 196.902 60.3213 197.762 60.4313C198.142 60.4813 198.472 60.5213 198.692 60.5613C199.412 60.6913 199.632 60.6813 199.692 60.6513C199.722 60.6213 199.762 60.4613 199.802 60.3213L199.833 60.2113C199.743 60.0113 198.842 59.8613 198.242 59.7613C197.952 59.7113 197.642 59.6613 197.322 59.6013L197.312 59.6113Z" fill="#F18E38"/>
<path d="M195.842 70.6513C195.842 71.2313 195.372 71.7113 194.782 71.7113C194.192 71.7113 193.722 71.2413 193.722 70.6513C193.722 70.0613 194.192 69.5913 194.782 69.5913C195.372 69.5913 195.842 70.0613 195.842 70.6513Z" fill="#0054A7"/>
<path d="M194.462 72.1813C193.832 71.9613 193.472 71.5313 193.392 70.8913C193.322 70.3113 193.612 69.6413 193.812 69.2613C193.582 69.1713 193.232 69.0813 192.992 69.0213C192.512 68.8913 192.202 68.6913 192.052 68.4013C191.852 68.0113 192.012 67.6013 192.132 67.2713L192.172 67.1613C192.492 66.2813 195.842 67.1513 197.812 67.7413C198.002 67.8013 198.172 67.8313 198.312 67.8613C198.602 67.9213 198.882 67.9713 199.032 68.2413C199.172 68.4913 199.102 68.7813 198.952 69.1613C198.562 70.1613 197.622 69.9913 197.002 69.8813C196.852 69.8513 196.712 69.8313 196.572 69.8113C196.572 69.8513 196.592 70.1813 196.602 70.3713C196.632 70.7113 196.662 71.0713 196.532 71.3413C196.252 71.9613 195.292 72.3813 194.742 72.2713C194.642 72.2513 194.552 72.2213 194.462 72.1913V72.1813ZM193.962 68.5113C194.312 68.6313 194.522 68.7513 194.612 68.9513C194.662 69.0513 194.652 69.2613 194.612 69.3613L194.562 69.4513C194.442 69.6813 194.092 70.3613 194.142 70.8013C194.192 71.2113 194.412 71.4113 194.902 71.5213C195.092 71.5613 195.702 71.3213 195.842 71.0313C195.882 70.9413 195.862 70.6313 195.842 70.4413C195.812 69.9913 195.772 69.5313 196.052 69.2513C196.152 69.1513 196.342 69.0413 196.632 69.0613C196.792 69.0813 196.952 69.1013 197.122 69.1313C197.862 69.2613 198.092 69.2413 198.232 68.8913C198.282 68.7813 198.302 68.7013 198.312 68.6513C198.262 68.6413 198.202 68.6313 198.152 68.6213C197.992 68.5913 197.802 68.5513 197.582 68.4813C196.012 68.0013 193.422 67.4313 192.842 67.5413C192.772 67.7413 192.682 67.9813 192.722 68.0613C192.732 68.0913 192.812 68.1913 193.182 68.2913C193.502 68.3713 193.762 68.4513 193.972 68.5213L193.962 68.5113Z" fill="#F18E38"/>
<path d="M219.702 102.931H149.372L156.652 72.1013H212.412L219.702 102.931Z" fill="#0054A7"/>
<path d="M156.652 72.1013H212.412L206.642 83.3713L162.402 82.9313L156.652 72.1013Z" fill="#0054A7"/>
<path fill-rule="evenodd" clip-rule="evenodd" d="M173.942 76.1713C174.742 82.2313 170.522 84.7713 173.082 87.6613C175.232 90.0913 179.842 91.7413 184.622 88.1313C189.202 84.6713 189.512 78.0413 184.282 73.7013C180.802 70.8213 173.412 72.0913 173.942 76.1713Z" fill="#FFDBB0"/>
<path d="M178.102 76.9512C178.102 76.9512 178.122 76.9212 178.142 76.9112L178.052 77.0012C178.052 77.0012 178.142 76.9212 178.202 76.8812C178.162 76.9112 178.122 76.9312 178.082 76.9612C178.142 76.9212 178.202 76.8912 178.262 76.8712C178.212 76.8912 178.162 76.9112 178.122 76.9212C178.182 76.9012 178.242 76.8812 178.302 76.8712C178.252 76.8712 178.202 76.8912 178.152 76.8912C178.222 76.8812 178.292 76.8712 178.362 76.8812C178.312 76.8812 178.262 76.8812 178.222 76.8812C178.292 76.8812 178.372 76.8912 178.442 76.9112C178.402 76.9012 178.352 76.8912 178.312 76.8812C178.382 76.9012 178.452 76.9312 178.522 76.9612C178.482 76.9412 178.452 76.9212 178.412 76.9012C178.442 76.9212 178.472 76.9412 178.502 76.9612C178.612 77.0412 178.752 77.0712 178.882 77.0612C179.022 77.0612 179.192 77.0012 179.292 76.9012C179.382 76.8212 179.472 76.7212 179.482 76.5912C179.482 76.4712 179.442 76.3612 179.342 76.2912C179.042 76.0812 178.652 75.9912 178.292 76.0312C177.862 76.0812 177.472 76.2612 177.182 76.5812C177.112 76.6612 177.072 76.8012 177.102 76.9112C177.132 77.0212 177.232 77.1212 177.342 77.1512C177.622 77.2512 177.932 77.1512 178.122 76.9412L178.102 76.9512Z" fill="#F18E38"/>
<path d="M179.982 79.7713C180.272 79.8413 180.562 79.9113 180.852 79.9813C180.962 80.0113 181.092 79.9813 181.202 79.9813C181.342 79.9613 181.492 79.9113 181.622 79.8513C181.652 79.8313 181.692 79.8113 181.722 79.7913C181.772 79.7613 181.812 79.7213 181.842 79.6813C181.842 79.6613 181.842 79.6513 181.842 79.6313C181.822 79.5913 181.792 79.5713 181.742 79.5613C181.452 79.4913 181.162 79.4213 180.872 79.3513C180.762 79.3213 180.632 79.3513 180.522 79.3513C180.382 79.3713 180.232 79.4213 180.102 79.4813C180.072 79.5013 180.032 79.5213 180.002 79.5413C179.952 79.5713 179.912 79.6113 179.882 79.6513C179.882 79.6713 179.882 79.6813 179.882 79.7013C179.902 79.7413 179.932 79.7613 179.982 79.7713Z" fill="#F18E38"/>
<path d="M176.702 83.0413C177.082 83.2413 177.472 83.4513 177.852 83.6513C177.962 83.7113 178.102 83.7113 178.222 83.7013C178.362 83.6913 178.522 83.6413 178.642 83.5613C178.722 83.5013 178.832 83.4213 178.852 83.3113C178.862 83.2113 178.822 83.1413 178.732 83.0913C178.352 82.8913 177.962 82.6813 177.582 82.4813C177.472 82.4213 177.332 82.4213 177.212 82.4313C177.072 82.4513 176.912 82.4913 176.792 82.5713C176.712 82.6313 176.602 82.7113 176.582 82.8213C176.572 82.9213 176.612 82.9913 176.702 83.0413Z" fill="#F18E38"/>
<path d="M183.132 83.3213C183.132 83.3213 183.132 83.3213 183.142 83.3213C183.092 83.3313 183.042 83.3412 182.992 83.3512C183.032 83.3512 183.082 83.3413 183.122 83.3313C183.072 83.3313 183.032 83.3312 182.982 83.3412C183.032 83.3412 183.092 83.3412 183.142 83.3412C183.102 83.3412 183.062 83.3412 183.022 83.3412C183.092 83.3412 183.162 83.3612 183.232 83.3812C183.202 83.3812 183.162 83.3612 183.132 83.3512C183.232 83.3812 183.332 83.4213 183.422 83.4713C183.402 83.4613 183.372 83.4413 183.352 83.4313C183.372 83.4513 183.402 83.4613 183.422 83.4813C183.512 83.5413 183.612 83.5612 183.712 83.5612C183.852 83.5612 184.012 83.5313 184.142 83.4713C184.242 83.4213 184.372 83.3712 184.442 83.2712C184.482 83.2112 184.522 83.1213 184.442 83.0713C184.262 82.9413 184.062 82.8612 183.842 82.8112C183.732 82.7912 183.612 82.7812 183.492 82.7812C183.312 82.7812 183.152 82.8112 182.982 82.8412C182.912 82.8612 182.842 82.8812 182.772 82.9212C182.712 82.9412 182.662 82.9812 182.612 83.0212C182.562 83.0612 182.462 83.1612 182.492 83.2412C182.522 83.3212 182.622 83.3613 182.702 83.3713C182.842 83.3913 182.972 83.3712 183.112 83.3412L183.132 83.3213Z" fill="#F18E38"/>
<path d="M177.962 87.4913C178.552 87.6913 179.172 87.7413 179.782 87.6913C179.922 87.6813 180.082 87.6213 180.202 87.5413C180.282 87.4913 180.392 87.3913 180.402 87.2913C180.432 87.0313 180.102 87.0013 179.912 87.0113C179.882 87.0113 179.842 87.0113 179.812 87.0113C179.652 87.0113 179.772 87.0113 179.812 87.0113C179.752 87.0113 179.692 87.0113 179.632 87.0113C179.502 87.0113 179.382 87.0013 179.252 86.9813C179.222 86.9813 179.192 86.9813 179.162 86.9713C179.202 86.9713 179.302 86.9913 179.162 86.9713C179.092 86.9613 179.032 86.9413 178.962 86.9313C178.842 86.9013 178.712 86.8713 178.592 86.8313C178.472 86.7913 178.292 86.8113 178.182 86.8413C178.062 86.8713 177.902 86.9413 177.812 87.0413C177.752 87.1113 177.672 87.2113 177.712 87.3013C177.752 87.4013 177.832 87.4413 177.932 87.4813L177.962 87.4913Z" fill="#F18E38"/>
<path fill-rule="evenodd" clip-rule="evenodd" d="M191.492 72.3913C189.082 74.1613 183.762 75.9013 185.172 79.2413C186.582 82.5813 189.912 88.0213 194.482 86.2613C199.052 84.5013 201.152 82.9213 201.332 77.8313C201.512 72.7413 194.832 69.9313 191.502 72.3913H191.492Z" fill="#FFDBB0"/>
<path d="M192.292 75.1913C192.292 75.1913 192.362 75.1513 192.392 75.1213C192.312 75.1713 192.302 75.1813 192.352 75.1513C192.372 75.1413 192.382 75.1313 192.402 75.1213C192.462 75.0913 192.522 75.0613 192.592 75.0313C192.612 75.0313 192.632 75.0113 192.652 75.0113C192.552 75.0513 192.532 75.0513 192.592 75.0313C192.632 75.0213 192.672 75.0113 192.702 74.9913C192.772 74.9713 192.842 74.9613 192.902 74.9413C192.722 74.9913 192.852 74.9413 192.902 74.9413C192.932 74.9413 192.962 74.9413 192.992 74.9413C193.032 74.9413 193.072 74.9413 193.112 74.9413C193.132 74.9413 193.152 74.9413 193.172 74.9413C193.232 74.9413 193.212 74.9413 193.122 74.9413C193.192 74.9513 193.262 74.9513 193.332 74.9613C193.372 74.9613 193.412 74.9713 193.452 74.9813C193.472 74.9813 193.492 74.9813 193.512 74.9913C193.432 74.9713 193.422 74.9713 193.472 74.9913C193.612 75.0313 193.752 75.0413 193.892 75.0013C194.022 74.9713 194.172 74.8913 194.252 74.7813C194.322 74.6913 194.382 74.5713 194.342 74.4613C194.302 74.3513 194.222 74.2513 194.102 74.2213C193.232 73.9713 192.302 74.1313 191.562 74.6613C191.372 74.8013 191.282 75.1113 191.512 75.2613C191.752 75.4213 192.082 75.3613 192.302 75.2013L192.292 75.1913Z" fill="#F18E38"/>
<path d="M195.403 78.2013C195.623 78.3713 195.852 78.5313 196.072 78.7013C196.152 78.7613 196.273 78.7613 196.363 78.7513C196.433 78.7513 196.502 78.7413 196.572 78.7213C196.642 78.7113 196.723 78.6913 196.793 78.6613C196.833 78.6413 196.873 78.6213 196.923 78.6013C196.993 78.5713 197.052 78.5313 197.102 78.4713C197.142 78.4213 197.183 78.3513 197.113 78.3013L196.442 77.8013C196.362 77.7413 196.243 77.7413 196.153 77.7513C196.083 77.7513 196.012 77.7613 195.942 77.7813C195.872 77.7913 195.793 77.8113 195.723 77.8413C195.683 77.8613 195.643 77.8813 195.593 77.9013C195.523 77.9313 195.462 77.9713 195.412 78.0313C195.372 78.0813 195.333 78.1513 195.403 78.2013Z" fill="#F18E38"/>
<path d="M190.942 79.1313C191.142 79.3313 191.352 79.5113 191.602 79.6413C191.892 79.7913 192.182 79.9013 192.512 79.9513C192.652 79.9713 192.822 79.9313 192.952 79.8713C193.052 79.8213 193.192 79.7213 193.232 79.6113C193.272 79.5113 193.282 79.3913 193.212 79.3013C193.132 79.2013 193.022 79.1613 192.902 79.1413C192.862 79.1413 192.822 79.1213 192.782 79.1213C192.822 79.1213 192.872 79.1413 192.912 79.1513C192.732 79.1113 192.562 79.0413 192.392 78.9613C192.432 78.9813 192.462 79.0013 192.502 79.0113C192.302 78.9113 192.122 78.7813 191.952 78.6213C191.982 78.6513 192.002 78.6713 192.032 78.7013C192.012 78.6813 191.982 78.6513 191.962 78.6313C191.872 78.5413 191.782 78.4913 191.652 78.4713C191.512 78.4513 191.342 78.4813 191.212 78.5513C191.102 78.6113 190.982 78.6913 190.932 78.8113C190.892 78.9013 190.872 79.0313 190.952 79.1213L190.942 79.1313Z" fill="#F18E38"/>
<path d="M190.912 83.0813C191.182 83.3613 191.502 83.5613 191.852 83.7013C191.902 83.7113 191.952 83.7213 192.012 83.7113C192.082 83.7113 192.142 83.7113 192.212 83.6913C192.352 83.6713 192.502 83.6213 192.632 83.5613C192.662 83.5413 192.702 83.5213 192.732 83.5013C192.782 83.4713 192.822 83.4313 192.852 83.3813C192.852 83.3613 192.852 83.3413 192.852 83.3313C192.832 83.2913 192.802 83.2613 192.752 83.2613C192.722 83.2513 192.702 83.2413 192.672 83.2313C192.692 83.2313 192.722 83.2513 192.742 83.2613C192.442 83.1313 192.172 82.9413 191.952 82.7113C191.912 82.6913 191.882 82.6813 191.832 82.6713C191.772 82.6613 191.722 82.6613 191.662 82.6713C191.522 82.6713 191.362 82.7113 191.232 82.7713C191.192 82.7913 191.152 82.8113 191.102 82.8213C191.032 82.8513 190.972 82.8913 190.922 82.9413C190.912 82.9613 190.892 82.9813 190.882 83.0013C190.862 83.0413 190.882 83.0713 190.912 83.1013V83.0813Z" fill="#F18E38"/>
<path d="M197.462 83.1713C197.592 83.1413 197.722 83.1013 197.852 83.0713C197.922 83.0513 197.992 83.0213 198.052 82.9813C198.112 82.9513 198.162 82.9113 198.212 82.8513C198.252 82.8113 198.282 82.7513 198.292 82.7013C198.312 82.6513 198.312 82.5913 198.292 82.5413C198.272 82.5113 198.262 82.4813 198.242 82.4413C198.192 82.3813 198.132 82.3313 198.052 82.3113C198.012 82.3013 197.962 82.2913 197.922 82.2813C197.822 82.2713 197.722 82.2813 197.632 82.3013C197.502 82.3313 197.372 82.3713 197.242 82.4013C197.172 82.4213 197.102 82.4513 197.042 82.4913C196.982 82.5213 196.932 82.5613 196.882 82.6213C196.842 82.6613 196.812 82.7213 196.802 82.7713C196.782 82.8213 196.782 82.8813 196.802 82.9313C196.822 82.9613 196.832 82.9913 196.852 83.0313C196.902 83.0913 196.962 83.1413 197.042 83.1613C197.082 83.1613 197.132 83.1813 197.172 83.1913C197.272 83.2013 197.372 83.1913 197.462 83.1713Z" fill="#F18E38"/>
<path d="M224.042 48.6413C222.882 51.4213 221.722 54.1913 220.552 56.9713C220.002 58.3013 219.512 59.7013 218.772 60.9413C218.042 62.1713 216.932 63.1313 216.132 64.3213C215.222 65.6713 214.552 67.1313 214.082 68.6813C214.002 68.9413 214.252 69.2013 214.492 69.2513C214.782 69.3013 214.982 69.0913 215.062 68.8413C215.472 67.4713 216.092 66.1413 216.892 64.9613C217.672 63.8013 218.732 62.8513 219.482 61.6713C220.252 60.4613 220.742 59.0913 221.292 57.7713C221.862 56.4213 222.422 55.0713 222.992 53.7213C223.642 52.1713 224.292 50.6213 224.942 49.0713C225.182 48.4913 224.292 48.0713 224.042 48.6613V48.6413Z" fill="#62C0B4"/>
<path d="M217.152 64.2313C221.452 63.0113 224.712 59.7713 228.472 57.5313C229.022 57.2013 228.442 56.4013 227.902 56.7213C224.212 58.9213 221.022 62.1113 216.802 63.3113C216.192 63.4813 216.542 64.4113 217.152 64.2313Z" fill="#62C0B4"/>
<path d="M218.812 48.2812C219.492 50.9812 220.152 53.6913 220.442 56.4713C220.512 57.1013 221.492 57.0013 221.422 56.3713C221.122 53.5113 220.432 50.7212 219.732 47.9412C219.582 47.3212 218.652 47.6813 218.812 48.2913V48.2812Z" fill="#62C0B4"/>
<path d="M221.552 47.6413C220.872 48.7813 220.202 49.9313 219.542 51.0913C219.232 51.6413 220.132 52.0513 220.442 51.5013C221.092 50.3413 221.762 49.1913 222.452 48.0513C222.782 47.5113 221.882 47.1013 221.552 47.6413Z" fill="#62C0B4"/>
<path d="M217.082 50.2613C218.002 51.4613 218.912 52.6613 219.832 53.8713C220.212 54.3713 221.022 53.8113 220.642 53.3013C219.722 52.1013 218.812 50.9013 217.892 49.6913C217.512 49.1913 216.702 49.7513 217.082 50.2613Z" fill="#62C0B4"/>
<path d="M226.752 50.3713C226.042 50.2513 225.402 50.5313 224.802 50.8913C224.072 51.3213 223.422 51.8613 222.812 52.4413C222.352 52.8813 223.112 53.5113 223.572 53.0713C224.042 52.6113 224.562 52.2113 225.122 51.8513C225.562 51.5713 226.052 51.2513 226.602 51.3413C227.232 51.4413 227.382 50.4713 226.762 50.3713H226.752Z" fill="#62C0B4"/>
<path d="M216.832 55.4113C217.462 56.9013 218.082 58.4013 218.712 59.8913C218.962 60.4713 219.882 60.1313 219.632 59.5413C219.002 58.0513 218.382 56.5513 217.752 55.0613C217.502 54.4813 216.582 54.8213 216.832 55.4113Z" fill="#62C0B4"/>
<path d="M224.512 55.9213C223.842 55.8913 223.302 56.4413 222.772 56.8013C222.142 57.2313 221.512 57.6713 220.882 58.1013C220.362 58.4613 220.932 59.2713 221.452 58.9113C221.972 58.5513 222.492 58.2013 223.002 57.8413C223.252 57.6713 223.502 57.5013 223.742 57.3313C223.882 57.2413 224.012 57.1413 224.152 57.0513C224.192 57.0213 224.402 56.9013 224.352 56.9013C224.982 56.9313 225.142 55.9513 224.512 55.9313V55.9213Z" fill="#62C0B4"/>
<path d="M223.652 61.1213C225.782 61.3713 227.912 61.6213 230.042 61.8713C230.672 61.9413 230.832 60.9713 230.202 60.9013C228.072 60.6513 225.942 60.4013 223.812 60.1513C223.182 60.0813 223.022 61.0513 223.652 61.1213Z" fill="#62C0B4"/>
<path d="M227.132 54.5413C226.472 55.5513 225.922 56.6213 225.512 57.7613C225.292 58.3513 226.192 58.7713 226.412 58.1713C226.792 57.1213 227.282 56.1113 227.892 55.1813C228.232 54.6513 227.482 54.0213 227.132 54.5513V54.5413Z" fill="#62C0B4"/>
<path d="M220.682 63.1013C221.552 63.5113 222.342 64.0313 223.062 64.6713C223.542 65.0913 224.172 64.3313 223.692 63.9113C222.912 63.2213 222.032 62.6413 221.082 62.2013C220.512 61.9313 220.102 62.8313 220.672 63.1013H220.682Z" fill="#62C0B4"/>
<path d="M213.542 55.4713C215.382 58.8013 215.072 62.7713 214.772 66.4213C214.722 67.0513 215.692 67.2113 215.742 66.5813C216.072 62.6313 216.332 58.4913 214.352 54.9013C214.042 54.3413 213.242 54.9213 213.542 55.4713Z" fill="#62C0B4"/>
<path d="M212.092 57.6413C212.772 57.9713 213.202 58.5913 213.592 59.2113C213.982 59.8313 214.352 60.4413 214.862 60.9713C215.302 61.4313 215.932 60.6713 215.492 60.2113C214.402 59.0813 214.002 57.4613 212.502 56.7313C211.932 56.4513 211.522 57.3513 212.092 57.6313V57.6413Z" fill="#62C0B4"/>
<path d="M217.112 59.5313C216.562 60.2413 216.082 60.9913 215.642 61.7713C215.332 62.3313 216.232 62.7313 216.542 62.1813C216.932 61.4713 217.372 60.8113 217.872 60.1713C218.262 59.6713 217.502 59.0313 217.112 59.5413V59.5313Z" fill="#62C0B4"/>
<path d="M218.802 54.2213C218.292 55.1613 217.942 56.1713 217.752 57.2213C217.642 57.8413 218.612 58.0013 218.722 57.3813C218.902 56.4113 219.222 55.5013 219.692 54.6413C219.992 54.0813 219.092 53.6713 218.792 54.2313L218.802 54.2213Z" fill="#62C0B4"/>
<path d="M214.222 52.9813C215.232 53.6813 216.122 54.5213 216.882 55.4913C217.272 55.9913 218.082 55.4213 217.692 54.9213C216.882 53.8813 215.942 52.9713 214.862 52.2213C214.342 51.8613 213.712 52.6113 214.232 52.9813H214.222Z" fill="#62C0B4"/>
<path fill-rule="evenodd" clip-rule="evenodd" d="M213.502 67.4413C211.412 66.4913 208.232 67.5513 207.202 70.8213C206.182 74.0813 200.702 86.5113 199.462 91.0713C198.222 95.6313 196.872 101.451 199.872 98.3513C202.872 95.2413 210.722 83.1513 213.472 79.3713C216.222 75.5913 218.822 72.9513 217.692 70.9413C216.852 69.4413 214.122 67.7313 213.502 67.4513V67.4413Z" fill="url(#paint9_linear_425_1539)"/>
<path d="M207.062 75.3613C207.552 75.3313 208.012 75.4313 208.452 75.6413C209.022 75.9113 209.432 75.0113 208.862 74.7413C208.262 74.4613 207.622 74.3413 206.962 74.3813C206.332 74.4213 206.432 75.4013 207.062 75.3613Z" fill="#FEDC5E"/>
<path d="M206.123 78.7913C206.813 79.1913 207.513 79.3713 208.263 79.6113C208.813 79.7913 208.952 80.5013 209.522 80.7313C210.112 80.9713 210.523 80.0713 209.933 79.8313C209.673 79.7213 209.552 79.4213 209.382 79.2113C209.192 78.9813 208.973 78.8113 208.683 78.7113C208.353 78.5913 207.992 78.5413 207.662 78.4213C207.272 78.2813 206.893 78.1013 206.533 77.8913C205.983 77.5713 205.583 78.4713 206.123 78.7913Z" fill="#FEDC5E"/>
<path d="M203.992 83.6113C204.382 83.9913 204.812 84.3013 205.272 84.5913C205.502 84.7313 205.822 84.5713 205.922 84.3513C206.042 84.0813 205.902 83.8413 205.682 83.7013C205.302 83.4613 204.952 83.1813 204.622 82.8613C204.162 82.4213 203.532 83.1813 203.992 83.6213V83.6113Z" fill="#FEDC5E"/>
<path d="M203.312 89.3713C203.322 89.4313 203.332 89.4813 203.342 89.5413C203.342 89.5713 203.342 89.6013 203.342 89.6313C203.342 89.6813 203.342 89.6913 203.342 89.6513C203.342 89.5913 203.342 89.7413 203.332 89.7613C203.332 89.8213 203.312 89.8713 203.302 89.9313C203.242 90.1813 203.462 90.4713 203.712 90.5013C203.992 90.5313 204.212 90.3613 204.282 90.0913C204.342 89.8313 204.352 89.5513 204.292 89.2813C204.242 89.0313 204.032 88.8013 203.752 88.8413C203.512 88.8813 203.252 89.1113 203.312 89.3813V89.3713Z" fill="#FEDC5E"/>
<path fill-rule="evenodd" clip-rule="evenodd" d="M198.852 84.2413C201.952 84.3213 200.913 82.2213 204.153 83.7113C207.393 85.2013 209.613 82.8613 210.753 86.2713C211.893 89.6813 216.623 91.5413 215.403 96.3513C214.183 101.161 207.943 108.841 205.123 108.981C202.303 109.121 193.023 109.961 191.463 105.151C189.903 100.341 193.612 84.1013 198.852 84.2313V84.2413Z" fill="#62C0B4"/>
<path fill-rule="evenodd" clip-rule="evenodd" d="M207.402 108.091C205.442 109.531 195.892 111.051 191.192 108.161C191.132 108.121 191.063 108.081 191.003 108.041C190.643 107.821 190.272 107.611 189.912 107.401C185.592 104.951 181.292 103.231 181.562 98.4713C181.862 93.2313 182.952 88.1613 184.462 86.3513C185.972 84.5513 187.132 84.3713 188.232 83.7213C190.902 82.1413 191.183 81.9713 192.723 81.0013C194.263 80.0313 195.483 78.9713 196.283 80.7113C197.083 82.4513 197.342 82.7513 199.172 83.1413C201.002 83.5313 202.362 83.4113 203.542 85.4913C204.732 87.5713 206.163 88.5913 207.392 88.6613C208.622 88.7213 208.783 87.5013 208.833 90.3613C208.883 93.2313 207.203 92.8013 208.863 94.7213C210.513 96.6413 211.902 97.1213 212.012 100.011C212.132 102.901 209.353 106.651 207.392 108.091H207.402Z" fill="#62C0B4"/>
<path d="M203.353 104.811C201.503 105.781 199.783 106.761 197.633 106.701C195.483 106.641 193.493 105.791 191.553 104.941C191.483 105.101 191.423 105.271 191.363 105.441C191.073 106.281 190.933 107.171 191.003 108.031C190.643 107.811 190.273 107.601 189.913 107.391C189.923 107.021 189.963 106.651 190.033 106.291C188.403 105.501 187.113 104.261 185.833 102.981C185.103 102.241 184.213 101.531 183.603 100.691C183.093 99.9913 183.173 99.1713 183.393 98.3813C183.573 97.7113 184.603 98.0213 184.423 98.6913C184.323 99.0713 184.203 99.5213 184.363 99.9013C184.513 100.231 184.873 100.511 185.123 100.761C185.723 101.361 186.313 101.961 186.913 102.551C187.933 103.571 189.003 104.591 190.303 105.241C190.843 103.621 191.873 102.261 192.613 100.711C193.423 99.0213 193.883 97.1413 194.383 95.3313C194.283 95.2413 194.203 95.1213 194.183 94.9513C194.033 93.4913 193.043 92.2913 192.103 91.2313C191.153 90.1613 190.163 89.1013 189.593 87.7613C189.323 87.1313 190.273 86.6113 190.533 87.2513C191.543 89.6513 193.953 91.1513 194.893 93.5213C195.353 91.9413 195.803 90.3513 196.243 88.7613C196.423 88.0913 197.453 88.4013 197.273 89.0713C196.743 90.9813 196.203 92.8813 195.653 94.7913C195.333 95.8713 195.043 96.9813 194.713 98.0613C196.933 97.9013 199.123 97.4713 201.243 96.7913C201.433 95.8113 201.783 94.9013 202.283 94.0413C202.633 93.4413 203.543 94.0113 203.193 94.6113C202.783 95.3113 202.503 96.0513 202.323 96.8313C202.843 96.9913 203.373 97.1213 203.903 97.2213C204.193 97.2713 204.343 97.6313 204.263 97.8913C204.173 98.1913 203.883 98.3013 203.593 98.2513C203.003 98.1413 202.423 98.0013 201.863 97.8113C201.813 97.8013 201.783 97.7813 201.743 97.7613C201.743 97.7613 201.723 97.7613 201.713 97.7713C199.373 98.5413 196.953 99.0013 194.493 99.1513C194.443 99.1513 194.403 99.1513 194.363 99.1513C194.233 99.5413 194.093 99.9313 193.943 100.311C193.433 101.601 192.643 102.741 192.003 103.961C193.743 104.721 195.543 105.501 197.453 105.601C198.403 105.651 199.353 105.541 200.233 105.171C201.133 104.801 201.983 104.301 202.833 103.851C203.443 103.531 203.963 104.471 203.343 104.791L203.353 104.811Z" fill="white"/>
<path d="M211.902 99.1613C211.782 99.1213 211.692 99.0213 211.692 98.8913C211.662 98.1113 211.212 97.6313 210.632 97.0213C210.462 96.8513 210.292 96.6613 210.122 96.4613C209.352 95.5713 209.122 95.3313 208.402 94.6113C207.502 93.7013 207.892 93.0013 208.312 92.2513C208.602 91.7413 208.562 91.2313 208.522 90.5913C208.502 90.3413 208.492 90.0813 208.492 89.8013V89.6013C208.492 89.2913 208.492 88.9113 208.452 88.8013C208.422 88.8013 208.352 88.8013 208.202 88.8613C207.392 89.1613 206.512 88.9313 205.272 88.0813C204.472 87.5313 203.752 86.4213 203.172 85.5213C202.922 85.1413 202.712 84.8113 202.542 84.6013C202.442 84.4713 202.462 84.2813 202.582 84.1813C202.712 84.0813 202.902 84.1013 203.002 84.2213C203.192 84.4613 203.412 84.8013 203.672 85.1913C204.222 86.0413 204.902 87.1013 205.612 87.5813C206.692 88.3213 207.382 88.5213 208.002 88.2913C208.222 88.2113 208.552 88.1213 208.802 88.2913C209.112 88.5113 209.102 88.9413 209.102 89.5913V89.7913C209.102 90.0513 209.112 90.3013 209.132 90.5413C209.172 91.2313 209.212 91.8713 208.842 92.5313C208.402 93.3213 208.272 93.6213 208.842 94.1813C209.572 94.9213 209.802 95.1613 210.592 96.0613C210.752 96.2513 210.922 96.4313 211.082 96.6013C211.692 97.2413 212.262 97.8513 212.302 98.8513C212.302 99.0113 212.182 99.1513 212.012 99.1613C211.982 99.1613 211.942 99.1613 211.912 99.1513L211.902 99.1613Z" fill="white"/>
<path d="M148.892 72.9313C151.382 69.7513 155.162 70.5713 159.152 74.5813C161.482 76.9213 167.942 84.0613 166.092 86.5413C163.672 89.7712 156.862 85.6712 153.202 83.6012C146.742 79.9512 147.142 75.1813 148.902 72.9313H148.892Z" fill="#62C0B4"/>
<path d="M161.422 84.1012C164.102 85.6812 166.092 87.7713 167.272 88.9813C168.852 90.6113 171.202 96.2812 174.192 96.3412C176.812 96.3912 177.252 93.2212 175.702 91.8512C173.232 89.6512 168.752 83.2213 167.052 84.0513C165.512 84.8113 164.692 85.3412 161.442 83.3812C159.102 81.9712 157.282 81.2912 156.782 81.2412C155.802 81.1412 159.362 82.8812 161.412 84.0912L161.422 84.1012Z" fill="white"/>
<path d="M159.482 82.9913C159.482 82.9913 159.412 83.0213 159.372 83.0313C159.092 83.0613 158.842 83.1313 158.562 83.2013C158.122 83.3213 157.622 83.4513 156.822 83.5013C156.682 83.5013 156.572 83.4013 156.562 83.2713C156.562 83.1313 156.662 83.0213 156.792 83.0113C157.542 82.9613 158.012 82.8413 158.432 82.7213C158.722 82.6413 159.002 82.5713 159.322 82.5313C159.462 82.5213 159.582 82.6113 159.592 82.7513C159.592 82.8513 159.552 82.9413 159.482 82.9813V82.9913Z" fill="white"/>
<path d="M161.572 83.9912C161.492 84.0412 161.393 84.0412 161.313 83.9912C160.513 83.4912 160.062 82.6012 159.662 81.8112C159.532 81.5512 159.402 81.3012 159.272 81.0712C159.202 80.9612 159.242 80.8112 159.352 80.7412C159.472 80.6712 159.622 80.7112 159.692 80.8312C159.832 81.0712 159.962 81.3312 160.102 81.6012C160.492 82.3612 160.892 83.1612 161.572 83.5812C161.692 83.6512 161.722 83.8012 161.652 83.9212C161.632 83.9512 161.602 83.9812 161.572 84.0012V83.9912Z" fill="white"/>
<path d="M162.072 62.9413C165.792 61.3913 168.692 63.9513 170.202 69.4113C171.082 72.5913 173.222 81.9813 170.392 83.2313C166.702 84.8613 162.772 77.9513 160.592 74.3513C156.752 68.0113 159.442 64.0413 162.072 62.9413Z" fill="#62C0B4"/>
<path d="M167.792 77.6112C168.412 80.6612 168.432 82.8212 168.182 84.5112C167.852 86.7512 170.672 93.8612 173.252 95.3812C175.832 96.9012 177.482 95.0812 176.622 92.7712C175.472 89.6712 173.072 86.8012 171.972 85.2712C170.652 83.4412 169.802 81.6312 168.732 77.9912C167.662 74.3512 167.962 71.6112 167.102 70.3512C166.552 69.5412 167.212 74.7312 167.792 77.6212V77.6112Z" fill="white"/>
<path d="M167.782 75.6313C167.782 75.6313 167.732 75.6613 167.702 75.6613C167.572 75.6913 167.432 75.6113 167.402 75.4713C167.222 74.6813 167.762 73.7013 168.322 72.6813C168.622 72.1413 168.932 71.5813 169.142 71.0313C169.192 70.9013 169.332 70.8413 169.462 70.8913C169.592 70.9413 169.652 71.0813 169.602 71.2113C169.372 71.7913 169.062 72.3713 168.752 72.9213C168.232 73.8613 167.742 74.7613 167.882 75.3713C167.902 75.4713 167.862 75.5813 167.772 75.6313H167.782Z" fill="white"/>
<path d="M167.132 71.9613C167.032 72.0313 166.892 72.0113 166.812 71.9113C166.722 71.8013 166.612 71.6813 166.492 71.5513C166.072 71.0913 165.502 70.4512 165.102 69.7012C165.042 69.5812 165.082 69.4313 165.202 69.3713C165.322 69.3113 165.472 69.3513 165.532 69.4713C165.902 70.1613 166.432 70.7513 166.852 71.2213C166.972 71.3613 167.092 71.4812 167.182 71.5912C167.272 71.6912 167.262 71.8513 167.152 71.9413C167.152 71.9413 167.132 71.9513 167.122 71.9613H167.132Z" fill="white"/>
<path d="M156.082 66.2212C159.432 63.9812 162.772 65.9312 165.312 70.9912C166.792 73.9412 170.722 82.7412 168.182 84.5112C164.872 86.8212 159.682 80.8112 156.842 77.7012C151.842 72.2212 153.702 67.8112 156.082 66.2212Z" fill="#62C0B4"/>
<path d="M158.212 70.6412C158.662 72.0012 162.932 78.9612 164.512 80.7412C166.572 83.0712 167.802 85.6812 168.542 87.2012C169.532 89.2412 170.242 95.1612 173.062 96.1412C175.882 97.1312 177.802 94.7412 176.512 92.6412C174.782 89.8312 171.502 87.4812 170.122 86.1912C168.472 84.6512 166.762 82.3312 164.532 79.2612C163.292 77.5612 161.812 74.3812 160.732 73.3212C160.032 72.6312 157.832 69.4612 158.222 70.6412H158.212Z" fill="white"/>
<path d="M161.942 76.6212C161.862 76.6712 161.762 76.6712 161.682 76.6212C161.612 76.5812 161.252 76.4712 160.942 76.3712C160.292 76.1712 159.472 75.9212 158.982 75.6612C158.862 75.6012 158.822 75.4512 158.882 75.3312C158.942 75.2112 159.092 75.1712 159.212 75.2312C159.662 75.4712 160.482 75.7212 161.082 75.9012C161.572 76.0512 161.822 76.1312 161.932 76.1912C162.052 76.2612 162.092 76.4112 162.022 76.5312C162.002 76.5612 161.972 76.5912 161.942 76.6112V76.6212Z" fill="white"/>
<path d="M163.232 77.5512C163.182 77.5812 163.122 77.6012 163.052 77.5912C162.922 77.5712 162.832 77.4412 162.852 77.3012C162.962 76.6712 162.082 72.7812 161.682 72.1612C161.612 72.0512 161.642 71.8912 161.752 71.8212C161.862 71.7512 162.022 71.7812 162.092 71.8912C162.512 72.5512 163.482 76.5612 163.332 77.3812C163.322 77.4512 163.282 77.5112 163.222 77.5412L163.232 77.5512Z" fill="white"/>
<path d="M164.532 80.6013C164.442 80.6613 164.322 80.6513 164.242 80.5813C163.612 80.0513 162.892 79.8813 162.202 79.7213C161.782 79.6213 161.342 79.5213 160.932 79.3313C160.812 79.2713 160.752 79.1313 160.812 79.0013C160.872 78.8813 161.012 78.8213 161.142 78.8813C161.512 79.0513 161.902 79.1413 162.322 79.2413C163.072 79.4213 163.842 79.6013 164.562 80.2013C164.662 80.2913 164.682 80.4413 164.592 80.5513C164.572 80.5713 164.552 80.5913 164.532 80.6013Z" fill="white"/>
<path d="M166.652 82.9812C166.542 83.0512 166.382 83.0212 166.312 82.9112C165.982 82.3912 166.002 81.0312 166.022 79.6012C166.032 78.8612 166.042 78.1712 166.012 77.6312C166.012 77.4912 166.102 77.3812 166.242 77.3712C166.382 77.3712 166.492 77.4612 166.502 77.6012C166.542 78.1612 166.532 78.8712 166.522 79.6112C166.502 80.7912 166.482 82.2512 166.732 82.6512C166.802 82.7612 166.772 82.9212 166.662 82.9912L166.652 82.9812Z" fill="white"/>
<path fill-rule="evenodd" clip-rule="evenodd" d="M163.682 86.0013C158.452 89.9913 155.892 86.2713 153.512 91.7413C152.152 94.8713 153.612 100.071 159.502 102.351C165.152 104.541 171.272 101.131 172.252 94.0213C172.902 89.3013 168.662 82.1913 163.682 85.9913V86.0013Z" fill="#ED7980"/>
<path fill-rule="evenodd" clip-rule="evenodd" d="M161.012 86.7713C161.842 88.3813 162.682 87.8113 163.592 87.6113C166.522 86.9713 167.642 87.0713 165.322 88.2013C163.892 88.9013 161.712 89.0813 162.862 90.0413C164.012 91.0013 166.452 93.7913 164.112 92.7013C161.772 91.6113 161.422 89.8313 160.482 91.1913C159.542 92.5513 156.402 94.3013 157.952 92.3513C159.502 90.4013 160.532 90.2513 158.652 89.8213C156.762 89.3913 154.242 87.0113 156.822 87.8513C159.402 88.6913 160.372 89.7713 159.992 88.2113C159.612 86.6613 159.582 84.0013 161.012 86.7713Z" fill="#62C0B4"/>
<path fill-rule="evenodd" clip-rule="evenodd" d="M180.622 89.3513C174.052 89.7013 174.032 85.1913 168.982 88.3713C166.092 90.1913 164.372 95.3113 167.952 100.511C171.382 105.501 178.362 106.131 183.172 100.811C186.362 97.2813 186.872 89.0113 180.612 89.3513H180.622Z" fill="#ED7980"/>
<path fill-rule="evenodd" clip-rule="evenodd" d="M177.983 88.4813C177.763 90.2813 178.783 90.2813 179.643 90.6313C182.423 91.7513 183.293 92.4613 180.733 92.0913C179.153 91.8613 177.253 90.7813 177.663 92.2213C178.073 93.6613 178.523 97.3413 177.203 95.1313C175.883 92.9213 176.603 91.2513 175.053 91.8413C173.503 92.4313 169.933 92.1113 172.313 91.3713C174.693 90.6313 175.633 91.0913 174.313 89.6713C172.993 88.2513 172.253 84.8613 173.913 87.0113C175.573 89.1613 175.763 90.5913 176.333 89.0913C176.893 87.5913 178.363 85.3813 177.983 88.4713V88.4813Z" fill="#62C0B4"/>
<path d="M149.372 102.931L153.942 116.651L216.042 116.831L219.702 102.931H149.372Z" fill="#0054A7"/>
<path d="M223.052 110.341C223.712 109.691 219.882 105.821 219.362 105.621C218.472 105.281 214.742 104.561 213.822 106.341C213.212 107.521 214.052 107.591 213.282 108.361C212.512 109.131 210.932 110.801 210.152 111.701C209.362 112.601 210.982 113.551 211.752 113.731C212.522 113.921 212.192 114.671 212.242 115.881C212.292 117.091 212.992 116.791 214.242 116.691C215.482 116.591 215.542 116.261 216.442 116.821C217.342 117.381 217.612 117.191 218.442 116.681C219.272 116.171 220.562 113.891 221.802 112.021C222.242 111.361 222.632 110.811 223.052 110.351V110.341Z" fill="#FFDBB0"/>
<path d="M148.532 109.251C148.052 108.461 150.772 106.841 151.272 106.591C152.312 106.071 157.982 105.641 158.452 107.591C158.762 108.891 157.922 108.751 158.492 109.681C159.062 110.611 160.182 112.611 160.732 113.681C161.282 114.751 159.482 115.271 158.692 115.271C157.902 115.271 158.042 116.081 157.692 117.241C157.352 118.401 156.742 117.951 155.562 117.551C154.382 117.151 154.402 116.811 153.392 117.151C152.382 117.481 152.172 117.221 151.482 116.531C150.792 115.841 150.102 113.311 149.342 111.201C149.072 110.451 148.822 109.821 148.532 109.271V109.251Z" fill="#FFDBB0"/>
<defs>
<linearGradient id="paint0_linear_425_1539" x1="77.3025" y1="21.9013" x2="96.5325" y2="2.68133" gradientUnits="userSpaceOnUse">
<stop stop-color="#3684E4"/>
<stop offset="0.19" stop-color="#3986E4"/>
<stop offset="0.38" stop-color="#458FE5"/>
<stop offset="0.56" stop-color="#599CE7"/>
<stop offset="0.75" stop-color="#76B0E9"/>
<stop offset="0.94" stop-color="#99C9EC"/>
<stop offset="1" stop-color="#A8D3EE"/>
</linearGradient>
<linearGradient id="paint1_linear_425_1539" x1="31.8925" y1="179.261" x2="140.672" y2="70.4813" gradientUnits="userSpaceOnUse">
<stop stop-color="#3684E4"/>
<stop offset="0.19" stop-color="#3986E4"/>
<stop offset="0.38" stop-color="#458FE5"/>
<stop offset="0.56" stop-color="#599CE7"/>
<stop offset="0.75" stop-color="#76B0E9"/>
<stop offset="0.94" stop-color="#99C9EC"/>
<stop offset="1" stop-color="#A8D3EE"/>
</linearGradient>
<linearGradient id="paint2_linear_425_1539" x1="39.8525" y1="73.7114" x2="55.1525" y2="73.7114" gradientUnits="userSpaceOnUse">
<stop stop-color="#51A7DD"/>
<stop offset="0.03" stop-color="#4DA3DA"/>
<stop offset="0.3" stop-color="#2C81C4"/>
<stop offset="0.57" stop-color="#1368B4"/>
<stop offset="0.8" stop-color="#0559AA"/>
<stop offset="1" stop-color="#0054A7"/>
</linearGradient>
<linearGradient id="paint3_linear_425_1539" x1="114.293" y1="81.3413" x2="132.583" y2="81.3413" gradientUnits="userSpaceOnUse">
<stop stop-color="#51A7DD"/>
<stop offset="0.03" stop-color="#4DA3DA"/>
<stop offset="0.3" stop-color="#2C81C4"/>
<stop offset="0.57" stop-color="#1368B4"/>
<stop offset="0.8" stop-color="#0559AA"/>
<stop offset="1" stop-color="#0054A7"/>
</linearGradient>
<linearGradient id="paint4_linear_425_1539" x1="1.80251" y1="78.3414" x2="14.9225" y2="78.3414" gradientUnits="userSpaceOnUse">
<stop stop-color="#F18E38"/>
<stop offset="1" stop-color="#FFBD32"/>
</linearGradient>
<linearGradient id="paint5_linear_425_1539" x1="172.772" y1="29.5613" x2="201.822" y2="29.5613" gradientUnits="userSpaceOnUse">
<stop stop-color="#F18E38"/>
<stop offset="1" stop-color="#FFBD32"/>
</linearGradient>
<linearGradient id="paint6_linear_425_1539" x1="174.322" y1="22.8313" x2="200.552" y2="22.8313" gradientUnits="userSpaceOnUse">
<stop stop-color="#F18E38"/>
<stop offset="1" stop-color="#FFBD32"/>
</linearGradient>
<linearGradient id="paint7_linear_425_1539" x1="157.172" y1="120.171" x2="212.712" y2="64.6313" gradientUnits="userSpaceOnUse">
<stop stop-color="#ED7980"/>
<stop offset="1" stop-color="#F6BCBF"/>
</linearGradient>
<linearGradient id="paint8_linear_425_1539" x1="122.892" y1="222.811" x2="236.432" y2="109.271" gradientUnits="userSpaceOnUse">
<stop offset="0.34" stop-color="#62C0B4"/>
<stop offset="0.4" stop-color="#69C4B5"/>
<stop offset="0.64" stop-color="#85D2BA"/>
<stop offset="0.84" stop-color="#96DABC"/>
<stop offset="1" stop-color="#9CDEBE"/>
</linearGradient>
<linearGradient id="paint9_linear_425_1539" x1="198.062" y1="83.1613" x2="217.962" y2="83.1613" gradientUnits="userSpaceOnUse">
<stop stop-color="#F18E38"/>
<stop offset="1" stop-color="#FFBD32"/>
</linearGradient>
</defs>
</svg>
