<svg width="202" height="205" viewBox="0 0 202 205" fill="none" xmlns="http://www.w3.org/2000/svg">
<g clip-path="url(#clip0_425_1442)">
<path d="M3.09999 167.59C1.65999 173.03 1.70999 178.15 3.21999 179.02L6.28999 180.8C7.79999 181.67 10.19 177.97 11.64 172.53L19.48 142.99C20.92 137.55 20.87 132.43 19.36 131.56L16.29 129.78C14.78 128.91 12.39 132.61 10.94 138.05L3.09999 167.59Z" fill="url(#paint0_linear_425_1442)"/>
<path d="M197.97 167.59C199.41 173.03 199.36 178.15 197.85 179.02L194.78 180.8C193.27 181.67 190.88 177.97 189.43 172.53L181.59 142.99C180.15 137.55 180.2 132.43 181.71 131.56L184.78 129.78C186.29 128.91 188.68 132.61 190.13 138.05L197.97 167.59Z" fill="url(#paint1_linear_425_1442)"/>
<path d="M201.08 138.45C201.08 140 200.34 141.26 199.44 141.26H1.64C0.74 141.26 0 139.99 0 138.45V131.14C0 129.59 0.74 128.33 1.64 128.33H199.43C200.33 128.33 201.07 129.6 201.07 131.14V138.45H201.08Z" fill="url(#paint2_linear_425_1442)"/>
<path d="M138.29 171.41C141.39 171.34 142.19 174.14 142.02 176.78C141.85 179.42 139.12 181.9 135.91 183.19C133.95 183.98 129.41 185.5 129.37 182.13C129.35 180.53 129.33 178.15 131.14 176.71C131.91 176.09 132.44 174.15 133.58 173.03C135.12 171.54 138.29 171.4 138.29 171.4V171.41Z" fill="#0054A7"/>
<path d="M155.26 172.14C158.36 171.97 159.24 174.74 159.16 177.39C159.08 180.03 156.43 182.6 153.27 184C151.34 184.85 146.85 186.53 146.7 183.16C146.63 181.56 146.53 179.19 148.29 177.68C149.04 177.04 149.5 175.08 150.61 173.93C152.1 172.39 155.26 172.15 155.26 172.15V172.14Z" fill="#0054A7"/>
<path d="M127.16 138.48C127.3 133.99 127.16 131.59 127.36 127.45C127.69 120.76 133.49 106.3 140.11 106.53C146.73 106.76 158.16 104.68 159.37 104.68C162.43 104.67 163.87 105.26 167.19 110.38C171.83 117.53 172.89 121.19 170.1 127.46C169.01 129.91 162.27 135.89 161.67 143.43C161.38 147.06 160.13 162.52 159.86 164.72C159.4 168.45 161.43 174.54 154.57 174.54C152.22 174.54 147.83 175.43 147.93 172.14C148.04 168.78 148.63 139.49 146.14 139.64C143.3 139.8 144.18 151.67 144 152.19C143.44 155.24 143.35 167.37 142.86 171.32C142.33 175.54 134.82 172.83 132.56 173.48C130.3 174.13 128.58 152.98 128.8 150.25C129.06 147.04 127.11 140.01 127.16 138.5V138.48Z" fill="url(#paint3_linear_425_1442)"/>
<path d="M164.92 66.8301C160.16 62.1301 154.81 60.1901 153.43 59.4301C152.49 58.6801 153.15 58.4001 152.46 57.4101C151.91 56.6301 145.18 56.5801 144.61 57.7301C144.02 58.9001 142.66 60.1101 141.26 60.5501C139.28 61.1601 134.19 63.6101 131.13 66.9201C129.15 69.0701 120.72 76.5301 122.63 88.6201C123.92 96.8201 131.69 92.5001 127.81 107.61C125.22 117.68 122.77 125.17 124.14 127.68C125.8 130.7 140.07 127.61 142.7 127.68C150.25 127.9 169.45 134.15 174.42 131.13C182.53 126.2 168.38 112.63 167.8 102.65C167.43 96.3201 165.36 96.8201 170.75 93.5801C178.51 88.9201 173.01 74.8001 164.92 66.8301Z" fill="url(#paint4_linear_425_1442)"/>
<path d="M140.47 41.4901C139.41 40.9601 136.45 40.9001 135.21 42.3301C133.97 43.7601 133.14 45.9501 133.01 47.2301C132.88 48.5101 133.16 50.7601 131.76 51.0401C130.36 51.3201 127.37 49.8501 125.52 50.4501C123.67 51.0501 121.74 54.7001 123.57 55.5301C125.69 56.4901 127.19 53.3701 128.75 53.5101C130.31 53.6601 133.25 55.7001 135.12 53.8801C136.74 52.3001 135.98 51.7901 135.66 50.4901C135.34 49.1901 135.68 47.4501 137.12 46.8601C138.25 46.4001 140.16 44.6001 140.6 43.6301C141.11 42.5201 141.22 42.3201 140.47 41.4801V41.4901Z" fill="url(#paint5_linear_425_1442)"/>
<path d="M136.11 40.0701C135.13 39.8401 134.26 40.0501 134.55 40.9001C134.84 41.7401 135.39 43.2001 135.66 43.6001C135.93 44.0001 136.27 44.5001 137.02 43.3501C137.78 42.2001 137.9 42.1301 138.43 41.6601C138.97 41.1901 138.98 41.3001 140.11 41.7701C141.24 42.2401 142.12 42.6801 142.52 42.2601C142.93 41.8401 142.85 41.1601 142.43 39.9801C142.01 38.8001 141.91 37.5601 141.26 38.1301C140.61 38.7001 139.95 39.4601 139.68 39.8501C139.41 40.2501 138.9 40.6201 138.18 40.5101C137.45 40.4001 136.76 40.3001 136.11 40.0701Z" fill="#ED7980"/>
<path d="M138.09 39.8C137.85 40.04 137.55 40.41 137.85 41.14C138.16 41.88 138.46 42.28 138.76 42.28C139.32 42.29 139.37 42.17 139.56 41.65C139.75 41.13 139.6 40.74 139.18 40.16C138.75 39.58 138.47 39.62 138.09 39.8Z" fill="#ED7980"/>
<path d="M159.39 46.75C160.56 46.54 163.42 47.31 164.21 49.03C165 50.75 165.18 53.08 164.95 54.35C164.72 55.62 163.82 57.7 165.09 58.36C166.36 59.02 169.64 58.44 171.25 59.54C172.86 60.64 173.69 64.67 171.7 64.96C169.39 65.29 168.83 61.87 167.29 61.58C165.75 61.29 162.35 62.43 161.07 60.15C159.96 58.18 160.83 57.9 161.5 56.74C162.17 55.58 162.33 53.82 161.11 52.85C160.15 52.09 158.83 49.83 158.67 48.78C158.5 47.57 158.44 47.35 159.39 46.75Z" fill="url(#paint6_linear_425_1442)"/>
<path d="M139.94 52.36C141.45 55.97 144.41 58.17 147.15 58.68C149.89 59.19 153.45 58.2 156.18 55.36C161.9 49.43 164.67 34.23 152.22 31.93C139.76 29.63 136.78 44.8 139.94 52.36Z" fill="#FFDBB0"/>
<path d="M158.35 33.74C156.53 32.07 152.26 30.7 148.64 31.27C145.01 31.84 143.77 32.53 142.77 33.9C141.77 35.28 140.28 34.52 139.1 35.54C137.92 36.56 137.25 38.09 138.35 39.23C139.45 40.36 141.91 40.71 144.29 40.08C146.67 39.44 148.13 38.79 149.98 39.48C151.83 40.18 151.76 41.47 152.61 42.67C153.47 43.88 154.44 43.2 156.33 43.58C158.22 43.96 158.13 48.72 158.88 49.38C159.68 50.08 160.42 48.93 161.19 47.47C162.51 44.96 163.24 41.91 162.76 39.67C162.28 37.43 159.61 34.45 158.35 33.73V33.74Z" fill="url(#paint7_linear_425_1442)"/>
<path d="M159.19 45.8C158.21 45.57 157.34 45.78 157.63 46.63C157.92 47.47 158.47 48.93 158.74 49.33C159.01 49.73 159.35 50.23 160.1 49.08C160.86 47.93 160.98 47.86 161.51 47.39C162.05 46.92 162.06 47.03 163.19 47.5C164.32 47.97 165.2 48.41 165.6 47.99C166 47.57 165.93 46.89 165.51 45.71C165.09 44.53 164.99 43.29 164.34 43.86C163.69 44.43 163.03 45.19 162.76 45.58C162.49 45.98 161.98 46.35 161.26 46.24C160.53 46.13 159.84 46.03 159.19 45.8Z" fill="#ED7980"/>
<path d="M161.17 45.53C160.93 45.77 160.63 46.14 160.93 46.87C161.24 47.61 161.54 48.01 161.84 48.01C162.4 48.02 162.45 47.9 162.64 47.38C162.83 46.86 162.68 46.47 162.26 45.89C161.83 45.31 161.55 45.35 161.17 45.53Z" fill="#ED7980"/>
<path d="M152.17 62.38C152.17 62.38 152.14 62.36 152.12 62.35C152.37 60.9 151.71 59.68 150.86 58.99C150.28 58.52 149.41 58.41 148.63 58.53C148.39 58.08 148.07 57.7 147.71 57.41C146.75 56.63 145.05 56.83 144.15 57.43C143.82 57.65 143.41 58.11 143.11 58.69C142.24 58.55 141.26 58.76 140.65 59.16C139.94 59.63 138.84 61.24 139.26 62.76C138.3 63.6 137.02 66.03 139.11 67.67C139.2 67.74 139.29 67.8 139.39 67.86C139.09 68.86 139.2 70.02 140.37 70.94C141.21 71.6 142.17 71.77 143.03 71.61C143.21 71.91 143.45 72.2 143.79 72.47C145.68 73.95 148.2 72.95 148.81 71.38C150.37 71.61 151.91 70.7 152.3 69.47C152.52 68.76 152.51 68.11 152.36 67.52C152.82 67.18 153.17 66.73 153.32 66.24C153.84 64.57 153.12 63.15 152.17 62.37V62.38Z" fill="#F18E38"/>
<path d="M142.53 61.29C142.47 61.38 142.36 61.48 142.24 61.5C142.03 61.53 141.78 61.19 141.83 60.95C141.85 60.83 142 60.66 142.11 60.64C142.32 60.61 142.7 61.02 142.54 61.29H142.53Z" fill="#0054A7"/>
<path d="M146.89 59.79C146.83 59.88 146.72 59.98 146.6 60C146.39 60.03 146.14 59.69 146.19 59.45C146.21 59.33 146.36 59.16 146.47 59.14C146.68 59.11 147.06 59.52 146.9 59.79H146.89Z" fill="#0054A7"/>
<path d="M149.33 60.46C149.27 60.55 149.16 60.65 149.04 60.67C148.83 60.7 148.58 60.36 148.63 60.12C148.65 60 148.8 59.83 148.91 59.81C149.12 59.78 149.5 60.19 149.34 60.46H149.33Z" fill="#0054A7"/>
<path d="M140.43 65.67C140.43 65.78 140.38 65.94 140.27 66.03C140.09 66.19 139.67 66.09 139.58 65.86C139.53 65.75 139.58 65.52 139.67 65.43C139.85 65.27 140.43 65.34 140.43 65.67Z" fill="#0054A7"/>
<path d="M141.16 68.1801C141.26 68.1501 141.43 68.1301 141.55 68.2001C141.76 68.3101 141.83 68.7401 141.65 68.9101C141.56 68.9901 141.33 69.0401 141.22 68.9801C141 68.8701 140.86 68.2901 141.16 68.1801Z" fill="#0054A7"/>
<path d="M143.51 69.87C143.61 69.84 143.78 69.82 143.9 69.89C144.11 70 144.18 70.43 144 70.6C143.91 70.68 143.68 70.73 143.57 70.67C143.35 70.56 143.21 69.98 143.51 69.87Z" fill="#0054A7"/>
<path d="M146.71 70.23C146.81 70.2 146.98 70.18 147.1 70.25C147.31 70.36 147.38 70.79 147.2 70.96C147.11 71.04 146.88 71.09 146.77 71.03C146.55 70.92 146.41 70.34 146.71 70.23Z" fill="#0054A7"/>
<path d="M149.19 69.2901C149.29 69.2601 149.46 69.2401 149.58 69.3101C149.79 69.4201 149.86 69.8501 149.68 70.0201C149.59 70.1001 149.36 70.1501 149.25 70.0901C149.03 69.9801 148.89 69.4001 149.19 69.2901Z" fill="#0054A7"/>
<path d="M141.01 63.1201C140.96 63.2101 140.84 63.3301 140.7 63.3601C140.46 63.4101 140.15 63.1201 140.18 62.8701C140.2 62.7501 140.34 62.5701 140.46 62.5401C140.7 62.4801 141.17 62.8401 141.01 63.1201Z" fill="#0054A7"/>
<path d="M144.55 60.28C144.48 60.35 144.34 60.43 144.22 60.42C144.01 60.4 143.84 60.0201 143.94 59.7901C143.99 59.6801 144.17 59.55 144.28 59.55C144.49 59.57 144.77 60.05 144.55 60.28Z" fill="#0054A7"/>
<path d="M151.05 62.46C150.99 62.55 150.88 62.65 150.76 62.67C150.55 62.7 150.3 62.36 150.35 62.12C150.37 62 150.52 61.83 150.63 61.81C150.84 61.78 151.22 62.19 151.06 62.46H151.05Z" fill="#0054A7"/>
<path d="M151.38 64.5601C151.48 64.5301 151.65 64.5101 151.77 64.5801C151.98 64.6901 152.05 65.1201 151.87 65.2901C151.78 65.3701 151.55 65.4201 151.44 65.3601C151.22 65.2501 151.08 64.6701 151.38 64.5601Z" fill="#0054A7"/>
<path d="M150.89 67.3001C150.99 67.2701 151.16 67.2501 151.28 67.3201C151.49 67.4301 151.56 67.8601 151.38 68.0301C151.29 68.1101 151.06 68.1601 150.95 68.1001C150.73 67.9901 150.59 67.4101 150.89 67.3001Z" fill="#0054A7"/>
<path d="M160.53 73.85C160.77 74.31 161.15 74.81 160.62 75.56C158.84 78.05 158.78 78.7 156.84 78.41C156.13 78.3 152.3 77.31 150.76 76.02C149.22 74.73 147.61 72.75 147.12 71.64C146.53 70.32 147.26 67.33 148.34 67.17C150.13 66.9 151.62 67.57 154.07 68.85C154.69 69.17 154.33 67.37 154.83 67.1C155.67 66.65 157.79 69.18 158.51 70.37C159.32 72.03 160.02 72.9 160.53 73.85Z" fill="#FFDBB0"/>
<path d="M133.03 75.36C132.87 75.86 132.58 76.41 133.23 77.06C135.4 79.22 135.57 79.85 137.43 79.25C138.11 79.03 141.68 77.74 142.98 76.21C144.28 74.69 145.64 72.08 145.94 70.9C146.3 69.5 145.04 66.74 143.95 66.76C142.14 66.79 140.78 67.7 138.57 69.36C138.01 69.78 138.07 67.94 137.53 67.76C136.63 67.45 134.96 70.31 134.44 71.59C133.92 73.36 133.37 74.33 133.02 75.36H133.03Z" fill="#FFDBB0"/>
<path d="M145.21 79.51C145.58 79.12 146.71 78.88 147.16 79.51C147.61 80.15 147.45 81.07 147.12 81.5C146.78 81.93 145.68 82.23 145.08 81.58C144.58 81.04 144.7 80.04 145.21 79.5V79.51Z" fill="#FEDC5E"/>
<path d="M144.72 90.06C145.09 89.67 146.22 89.43 146.67 90.06C147.12 90.7 146.96 91.62 146.63 92.05C146.29 92.48 145.19 92.78 144.59 92.13C144.09 91.59 144.21 90.59 144.72 90.05V90.06Z" fill="#FEDC5E"/>
<path d="M144.08 102.36C144.45 101.97 145.58 101.73 146.03 102.36C146.48 103 146.32 103.92 145.99 104.35C145.65 104.78 144.55 105.08 143.95 104.43C143.45 103.89 143.57 102.89 144.08 102.35V102.36Z" fill="#FEDC5E"/>
<path d="M62.22 34.9C58.39 34.61 58.12 33.47 53.31 36.73C48.5 39.99 48.17 41.41 43.2 40.63C38.23 39.86 33.92 42.06 32.04 46.1C29.02 52.58 32.12 54.43 34.96 56.87C39.06 60.4 39.87 58.62 39.95 55.7C40.06 51.81 41.61 46.75 45.55 47.69C49.49 48.63 53.22 50.55 55.88 46.35C58.55 42.15 60.81 36.38 63.33 36.65C65.84 36.92 64.65 35.08 62.21 34.9H62.22Z" fill="url(#paint8_linear_425_1442)"/>
<path d="M98.72 199.66C97.01 197.08 92.94 192.86 90.35 190.65C87.23 187.99 91.04 178.74 90.44 174.84C89.83 170.94 86.42 172.51 83.78 172.24C83.78 172.24 79.72 171.75 80.07 173.29C80.41 174.83 82.05 183.07 81.9 185.73C81.78 187.82 79.78 190.18 80.24 193.01C80.96 197.42 86.49 203.52 90.56 204.34C96.81 205.61 100.99 203.07 98.72 199.65V199.66Z" fill="#0054A7"/>
<path d="M76.8 192.96C73.28 189.09 77.85 179.96 79.27 175.11C80.68 170.26 77.47 169.43 74.41 168.13C71.13 166.77 68.74 172.12 68.42 174.22C68.17 175.9 68.06 180.84 66.63 185.16C66.27 186.24 65.34 188.59 64.88 189.31C62.57 192.95 63.28 194.84 66.21 198.9C69.14 202.96 76.71 205.1 80.53 203.08C84.32 201.08 80.91 197.47 76.8 192.95V192.96Z" fill="#0054A7"/>
<path d="M78.64 35.9C75.63 38.3 68.93 37.4 66.23 35.5C60.47 31.45 72.94 28.69 74.37 26.1C75.41 24.2 76.89 25.26 78.22 28.58C78.63 29.61 76.01 31.58 78.86 33.35C80.47 34.35 81.55 34.31 78.64 35.9Z" fill="#0054A7"/>
<path d="M56.08 27.95C58.2 32.62 61.95 35.23 65.29 35.59C68.63 35.95 71.87 35.22 74.94 33.65C77.44 31.94 79.47 29.13 79.98 27.89C80.45 26.75 80.68 25.35 80.66 24C80.62 20.83 82.78 21.12 81.24 14.57C80.77 12.58 77.56 3.34003 68.61 1.87003C60.74 0.580031 51.65 18.18 56.08 27.96V27.95Z" fill="#FFDBB0"/>
<path d="M71.96 12.37C74.92 7.9 81.17 19.79 82.2 16.95C84.43 10.82 79.6 6.24 75.51 3.53C74.56 2.9 72.2 1.1 69.4 0.350004C63.6 -1.21 55.52 2.55 52.93 9.46C50.87 14.97 51.66 16.35 51.21 20.19C50.98 22.16 51.4 26.08 50.2 28.04C48.16 31.37 44.91 29.43 47.94 31.92C50.8 34.28 57.31 35.18 59.99 34.08C61.55 33.44 59.03 26.81 56.97 25.45C54.1 22.41 54.74 21.29 55.43 20.17C56.12 19.05 58.2 18.41 58.73 19.51C61.34 24.96 59.88 19.6 61.43 18.51C65.62 15.55 63.52 21.18 71.96 12.38V12.37Z" fill="url(#paint9_linear_425_1442)"/>
<path d="M36.32 62.64C40.5 52.8 42.94 47.98 50.34 44.1C56.21 41.02 57.1 40.94 59.43 38.39C61.73 35.87 58.64 32.94 70.01 34.9C73.56 35.51 72.11 41.2 73.86 40.88C79.64 42.18 87.62 49.04 91.43 53.93C94.87 58.35 100.62 75.16 99.88 85.81C99.1 97 93.97 100.25 89.35 98.34C85.76 96.86 83.63 101.83 85.43 104.36C90.21 111.09 103.22 116.57 105.35 130.59C107.87 147.2 108.19 161.28 106.08 179.09C105.57 183.38 89.93 172.86 77.38 175.28C73.43 176.04 53.2 180.56 41.28 174.79C36.71 172.58 43.61 141.64 41.72 134.38C40.04 127.95 33.92 122.15 39.55 109.57C40.5 107.45 46.3 99.66 41.61 98.61C28.5 95.68 31.16 74.81 36.33 62.63L36.32 62.64Z" fill="url(#paint10_linear_425_1442)"/>
<path d="M64.17 66.33C65.85 65.92 70.08 65.61 72.89 66.2C75.38 66.72 78.8 67.3 78.48 69.85C78.06 73.21 76.92 78.24 76.8 81.16C76.68 84.08 76.84 86.8 71.9 87.16C67.28 87.5 66.13 87.23 64.08 86.31C62.03 85.39 62.52 82.12 62.4 79.45C62.22 75.2 61.14 71.65 60.94 70.63C60.24 66.98 62.89 66.64 64.17 66.33Z" fill="url(#paint11_linear_425_1442)"/>
<path d="M69.36 66.7901C73.22 66.9901 75.75 67.5101 76.83 68.2801C77.91 69.0501 78.34 70.2601 75.53 71.2401C73.29 72.0201 66.09 72.0701 63.34 70.6501C61.53 69.7201 62.52 68.2101 63.67 67.6101C65.42 66.7101 67.88 66.7101 69.36 66.7901Z" fill="#ED7980"/>
<path d="M63.6 73.18C63.63 74.26 61.39 73.58 59.26 74.75C58.08 75.4 58.54 79.78 59.15 80.4C60.23 81.52 61.77 81.07 62.67 80.95C63.58 80.84 64.66 80.84 64.6 81.54C64.54 82.24 64.16 83.25 62.22 82.97C60.28 82.68 58.4 82.77 57.5 80.74C56.76 79.07 56.68 77.13 56.89 75.98C57.12 74.76 57.6 73.1 59.97 72.41C62.19 71.77 63.56 71.68 63.6 73.17V73.18Z" fill="url(#paint12_linear_425_1442)"/>
<path d="M64.25 63.7801C65.45 62.7801 67.88 62.2201 69.39 63.1901C70.89 64.1501 72.15 66.0901 71.67 68.5901C71.19 71.0501 67.6 73.0601 64.54 71.1701C61.01 68.9801 62.97 64.8501 64.25 63.7901V63.7801Z" fill="#0054A7"/>
<path d="M64.54 64.13C65.62 63.23 67.81 62.72 69.17 63.59C70.52 64.46 71.66 66.2 71.22 68.45C70.79 70.67 67.55 72.47 64.8 70.77C61.62 68.8 63.39 65.08 64.54 64.12V64.13Z" fill="white"/>
<path d="M64.54 64.7701C64.77 64.6401 66.6 67.0301 66.74 67.1601C66.88 67.2901 66.13 67.2101 65.26 67.1601C63.93 67.0901 63.42 67.2901 63.57 66.6401C63.73 65.9901 64.05 65.0501 64.55 64.7701H64.54Z" fill="#FEDC5E"/>
<path d="M67.24 63.7201C67.49 63.8001 67.01 66.7701 67.01 66.9601C67.01 67.1501 66.56 66.5501 65.99 65.8801C65.13 64.8601 64.63 64.6301 65.21 64.3001C65.79 63.9701 66.7 63.5501 67.24 63.7201Z" fill="#FEDC5E"/>
<path d="M69.78 64.8802C69.9 65.1102 67.47 66.8802 67.33 67.0102C67.19 67.1402 67.3 66.4002 67.37 65.5302C67.48 64.2002 67.29 63.6802 67.94 63.8602C68.59 64.0402 69.52 64.3802 69.79 64.8902L69.78 64.8802Z" fill="#FEDC5E"/>
<path d="M70.07 65.1802C69.87 65.0202 67.67 67.0702 67.51 67.1802C67.36 67.2902 68.1 67.3302 68.97 67.4202C70.29 67.5702 70.77 67.8502 70.72 67.1802C70.67 66.5102 70.51 65.5302 70.06 65.1702L70.07 65.1802Z" fill="#FEDC5E"/>
<path d="M70.74 67.8402C70.71 67.5802 67.7 67.4802 67.52 67.4602C67.33 67.4302 67.84 67.9802 68.38 68.6702C69.22 69.7102 69.35 70.2402 69.79 69.7402C70.23 69.2302 70.8 68.4202 70.74 67.8502V67.8402Z" fill="#FEDC5E"/>
<path d="M67.05 70.8901C66.8 70.8001 67.2 67.8401 67.21 67.6501C67.22 67.4601 67.71 68.0601 68.26 68.7501C69.08 69.8001 69.57 70.0501 68.98 70.3601C68.39 70.6701 67.59 71.0801 67.05 70.8901Z" fill="#FEDC5E"/>
<path d="M64.59 69.9001C64.47 69.6701 66.73 67.8401 66.87 67.7201C67.01 67.5901 66.9 68.6901 66.81 69.5601C66.68 70.8901 66.86 71.0501 66.22 70.8601C65.58 70.6701 64.85 70.4101 64.59 69.9001Z" fill="#FEDC5E"/>
<path d="M64.28 69.6001C64.49 69.7601 66.6 67.6201 66.75 67.5001C66.9 67.3801 66.15 67.3801 65.28 67.3101C63.95 67.2201 63.47 66.9501 63.54 67.6201C63.61 68.2901 63.82 69.2601 64.28 69.6001Z" fill="#FEDC5E"/>
<path d="M74.75 62.4C74.59 63.5 72.11 67.79 71.37 68.72C70.63 69.65 69.7 70.63 70.52 70.82C71.34 71.01 70.79 72.06 72.61 69.52C74.43 66.98 76.26 64.28 76.63 63.07C77 61.86 76.51 61.41 75.8 61.54C75.09 61.67 74.84 61.77 74.75 62.4Z" fill="#0054A7"/>
<path d="M72.67 70.9101C73.12 69.8901 76.7 66.4501 77.67 65.7601C78.64 65.0701 79.81 64.3801 79.07 63.9701C78.33 63.5601 79.15 62.7001 76.69 64.6501C74.23 66.5901 71.72 68.6901 71.03 69.7601C70.34 70.8301 70.7 71.3901 71.42 71.4601C72.14 71.5301 72.42 71.5101 72.68 70.9201L72.67 70.9101Z" fill="#0054A7"/>
<path d="M62.49 70.4701C61.93 69.9101 62.11 68.0901 62.91 68.1201C63.71 68.1501 64.57 68.6201 66.13 68.6001C67.69 68.5801 67.56 67.8901 69.43 68.1801C71.3 68.4701 70.83 69.0601 73 68.9701C75.17 68.8901 77.18 68.6301 77.4 69.1501C77.62 69.6801 78.38 70.7001 76.21 71.7201C74.59 72.4901 69.25 72.5901 66.51 71.9601C63.77 71.3301 63.26 71.2201 62.49 70.4601V70.4701Z" fill="url(#paint13_linear_425_1442)"/>
<path d="M55.7 86.96C57.35 86.53 65.25 84.55 66.25 84.07C67.25 83.59 68 82.8 67.66 82.05C67.32 81.3 66.34 80.95 66.18 80.16C66.02 79.37 66.66 78.05 66.36 77.48C66.06 76.9 66.42 76.01 65.09 76.19C63.76 76.37 59.13 76.95 58.41 77.01C57.69 77.07 58 75.45 57.12 75.17C56.24 74.89 52.62 80.85 51.81 81.84C51.01 82.83 50.48 82.42 51.32 85.06C52.59 89.07 54.05 87.4 55.7 86.97V86.96Z" fill="#FFDBB0"/>
<path d="M82.88 86.57C81.27 86.01 73.56 83.38 72.61 82.82C71.66 82.26 70.97 81.41 71.37 80.69C71.77 79.97 72.78 79.7 73 78.93C73.23 78.16 72.69 76.79 73.04 76.24C73.39 75.69 73.1 74.77 74.41 75.06C75.72 75.35 80.29 76.32 81 76.43C81.71 76.55 81.54 74.91 82.44 74.71C83.34 74.51 86.5 81.21 87.22 82.26C87.94 83.31 88.51 82.46 87.39 84.99C85.56 89.09 84.49 87.15 82.88 86.59V86.57Z" fill="#FFDBB0"/>
<path d="M76.55 36.8C76.79 38.87 78.03 42.36 75.79 42.4C73.55 42.44 69.52 44.42 64.81 42.09C60.1 39.76 58.85 40.93 55.62 39.18C52.39 37.43 55.81 31.67 58.01 30.84C60.22 30.01 60.32 31.45 62.62 32.21C64.92 32.97 69.04 33.77 71.73 33.81C74.42 33.85 76.25 34.28 76.55 36.81V36.8Z" fill="url(#paint14_linear_425_1442)"/>
</g>
<defs>
<linearGradient id="paint0_linear_425_1442" x1="2.04999" y1="155.28" x2="20.53" y2="155.28" gradientUnits="userSpaceOnUse">
<stop stop-color="#51A7DD"/>
<stop offset="0.03" stop-color="#4DA3DA"/>
<stop offset="0.3" stop-color="#2C81C4"/>
<stop offset="0.57" stop-color="#1368B4"/>
<stop offset="0.8" stop-color="#0559AA"/>
<stop offset="1" stop-color="#0054A7"/>
</linearGradient>
<linearGradient id="paint1_linear_425_1442" x1="180.55" y1="-3.67827e-05" x2="199.02" y2="-3.67827e-05" gradientUnits="userSpaceOnUse">
<stop stop-color="#51A7DD"/>
<stop offset="0.03" stop-color="#4DA3DA"/>
<stop offset="0.3" stop-color="#2C81C4"/>
<stop offset="0.57" stop-color="#1368B4"/>
<stop offset="0.8" stop-color="#0559AA"/>
<stop offset="1" stop-color="#0054A7"/>
</linearGradient>
<linearGradient id="paint2_linear_425_1442" x1="0" y1="134.8" x2="201.08" y2="134.8" gradientUnits="userSpaceOnUse">
<stop stop-color="#51A7DD"/>
<stop offset="0.03" stop-color="#4DA3DA"/>
<stop offset="0.3" stop-color="#2C81C4"/>
<stop offset="0.57" stop-color="#1368B4"/>
<stop offset="0.8" stop-color="#0559AA"/>
<stop offset="1" stop-color="#0054A7"/>
</linearGradient>
<linearGradient id="paint3_linear_425_1442" x1="127.16" y1="139.66" x2="171.63" y2="139.66" gradientUnits="userSpaceOnUse">
<stop stop-color="#3684E4"/>
<stop offset="0.19" stop-color="#3986E4"/>
<stop offset="0.38" stop-color="#458FE5"/>
<stop offset="0.56" stop-color="#599CE7"/>
<stop offset="0.75" stop-color="#76B0E9"/>
<stop offset="0.94" stop-color="#99C9EC"/>
<stop offset="1" stop-color="#A8D3EE"/>
</linearGradient>
<linearGradient id="paint4_linear_425_1442" x1="122.35" y1="94.4001" x2="176.91" y2="94.4001" gradientUnits="userSpaceOnUse">
<stop stop-color="#ED7980"/>
<stop offset="1" stop-color="#F6BCBF"/>
</linearGradient>
<linearGradient id="paint5_linear_425_1442" x1="122.82" y1="48.4301" x2="141.01" y2="48.4301" gradientUnits="userSpaceOnUse">
<stop stop-color="#51A7DD"/>
<stop offset="0.03" stop-color="#4DA3DA"/>
<stop offset="0.3" stop-color="#2C81C4"/>
<stop offset="0.57" stop-color="#1368B4"/>
<stop offset="0.8" stop-color="#0559AA"/>
<stop offset="1" stop-color="#0054A7"/>
</linearGradient>
<linearGradient id="paint6_linear_425_1442" x1="158.57" y1="55.84" x2="172.87" y2="55.84" gradientUnits="userSpaceOnUse">
<stop stop-color="#51A7DD"/>
<stop offset="0.03" stop-color="#4DA3DA"/>
<stop offset="0.3" stop-color="#2C81C4"/>
<stop offset="0.57" stop-color="#1368B4"/>
<stop offset="0.8" stop-color="#0559AA"/>
<stop offset="1" stop-color="#0054A7"/>
</linearGradient>
<linearGradient id="paint7_linear_425_1442" x1="137.8" y1="40.37" x2="162.92" y2="40.37" gradientUnits="userSpaceOnUse">
<stop stop-color="#51A7DD"/>
<stop offset="0.03" stop-color="#4DA3DA"/>
<stop offset="0.3" stop-color="#2C81C4"/>
<stop offset="0.57" stop-color="#1368B4"/>
<stop offset="0.8" stop-color="#0559AA"/>
<stop offset="1" stop-color="#0054A7"/>
</linearGradient>
<linearGradient id="paint8_linear_425_1442" x1="30.81" y1="46.65" x2="64.73" y2="46.65" gradientUnits="userSpaceOnUse">
<stop stop-color="#3684E4"/>
<stop offset="0.19" stop-color="#3986E4"/>
<stop offset="0.38" stop-color="#458FE5"/>
<stop offset="0.56" stop-color="#599CE7"/>
<stop offset="0.75" stop-color="#76B0E9"/>
<stop offset="0.94" stop-color="#99C9EC"/>
<stop offset="1" stop-color="#A8D3EE"/>
</linearGradient>
<linearGradient id="paint9_linear_425_1442" x1="46.72" y1="17.27" x2="82.77" y2="17.27" gradientUnits="userSpaceOnUse">
<stop stop-color="#51A7DD"/>
<stop offset="0.03" stop-color="#4DA3DA"/>
<stop offset="0.3" stop-color="#2C81C4"/>
<stop offset="0.57" stop-color="#1368B4"/>
<stop offset="0.8" stop-color="#0559AA"/>
<stop offset="1" stop-color="#0054A7"/>
</linearGradient>
<linearGradient id="paint10_linear_425_1442" x1="22.46" y1="70.33" x2="118.84" y2="166.71" gradientUnits="userSpaceOnUse">
<stop stop-color="#FFAB28"/>
<stop offset="0.07" stop-color="#FEB533"/>
<stop offset="0.21" stop-color="#FEC646"/>
<stop offset="0.38" stop-color="#FED253"/>
<stop offset="0.59" stop-color="#FED95B"/>
<stop offset="1" stop-color="#FEDC5E"/>
</linearGradient>
<linearGradient id="paint11_linear_425_1442" x1="60.82" y1="76.59" x2="78.5" y2="76.59" gradientUnits="userSpaceOnUse">
<stop stop-color="#ED7980"/>
<stop offset="1" stop-color="#F6BCBF"/>
</linearGradient>
<linearGradient id="paint12_linear_425_1442" x1="56.79" y1="77.51" x2="64.6" y2="77.51" gradientUnits="userSpaceOnUse">
<stop stop-color="#ED7980"/>
<stop offset="1" stop-color="#F6BCBF"/>
</linearGradient>
<linearGradient id="paint13_linear_425_1442" x1="62.16" y1="70.2401" x2="77.71" y2="70.2401" gradientUnits="userSpaceOnUse">
<stop stop-color="#ED7980"/>
<stop offset="1" stop-color="#F6BCBF"/>
</linearGradient>
<linearGradient id="paint14_linear_425_1442" x1="54.3" y1="36.9" x2="77.11" y2="36.9" gradientUnits="userSpaceOnUse">
<stop stop-color="#3684E4"/>
<stop offset="0.19" stop-color="#3986E4"/>
<stop offset="0.38" stop-color="#458FE5"/>
<stop offset="0.56" stop-color="#599CE7"/>
<stop offset="0.75" stop-color="#76B0E9"/>
<stop offset="0.94" stop-color="#99C9EC"/>
<stop offset="1" stop-color="#A8D3EE"/>
</linearGradient>
<clipPath id="clip0_425_1442">
<rect width="201.08" height="204.68" fill="white"/>
</clipPath>
</defs>
</svg>
