<svg width="1367" height="492" viewBox="0 0 1367 492" fill="none" xmlns="http://www.w3.org/2000/svg">
<path fill-rule="evenodd" clip-rule="evenodd" d="M838.605 145C877.86 145 909.704 112.776 909.704 73C909.704 33.2238 877.86 1 838.605 1C799.35 1 767.506 33.2238 767.506 73C767.506 112.776 799.35 145 838.605 145ZM838.605 146C878.424 146 910.704 113.317 910.704 73C910.704 32.6832 878.424 0 838.605 0C798.786 0 766.506 32.6832 766.506 73C766.506 113.317 798.786 146 838.605 146Z" fill="white" fill-opacity="0.5"/>
<path fill-rule="evenodd" clip-rule="evenodd" d="M143.704 199.928C115.636 200.126 88.2302 208.644 64.8778 224.443C41.2481 240.429 22.8291 263.152 11.9519 289.74C1.07464 316.328 -1.77152 345.586 3.7738 373.813C9.31912 402.039 23.0064 427.965 43.1029 448.313C63.1994 468.661 88.8022 482.516 116.673 488.129C144.544 493.743 173.433 490.862 199.688 479.851C225.943 468.84 248.385 450.193 264.175 426.265C279.783 402.615 288.199 374.856 288.392 346.425L237.635 346.425C237.444 364.682 232.008 382.497 221.981 397.691C211.77 413.164 197.256 425.225 180.273 432.347C163.29 439.47 144.601 441.334 126.57 437.702C108.54 434.071 91.9797 425.108 78.9831 411.949C65.9866 398.79 57.1373 382.026 53.5522 363.778C49.9672 345.529 51.807 326.614 58.8397 309.424C65.8723 292.233 77.7825 277.538 93.066 267.198C108.072 257.046 125.669 251.541 143.704 251.344L143.704 199.928ZM143.704 198.928C115.435 199.126 87.8346 207.704 64.3175 223.615C40.5231 239.712 21.9777 262.592 11.0263 289.362C0.0749745 316.131 -2.79038 345.587 2.79257 374.006C8.37552 402.424 22.156 428.528 42.3915 449.016C62.6269 469.504 88.4084 483.457 116.476 489.11C144.543 494.763 173.636 491.861 200.075 480.773C226.514 469.685 249.111 450.908 265.01 426.816C280.726 403.001 289.199 375.051 289.392 346.425C289.394 346.092 289.395 345.758 289.395 345.425L236.64 345.425C236.64 363.835 231.248 381.833 221.146 397.141C211.044 412.448 196.686 424.38 179.886 431.425C163.087 438.47 144.602 440.314 126.768 436.722C108.934 433.13 92.5522 424.265 79.6946 411.246C66.837 398.228 58.0809 381.642 54.5335 363.585C50.9861 345.528 52.8067 326.812 59.7652 309.802C66.7237 292.793 78.5074 278.255 93.6264 268.027C108.745 257.798 126.52 252.339 144.704 252.339L144.704 198.925C144.37 198.925 144.037 198.926 143.704 198.928Z" fill="white" fill-opacity="0.5"/>
<path d="M1192.19 321C1186.09 321 1180.05 319.784 1174.42 317.422C1168.79 315.06 1163.67 311.598 1159.36 307.234C1155.05 302.87 1151.63 297.688 1149.3 291.986C1146.97 286.284 1145.77 280.172 1145.77 274C1145.77 267.828 1146.97 261.716 1149.3 256.014C1151.63 250.312 1155.05 245.13 1159.36 240.766C1163.67 236.402 1168.79 232.94 1174.42 230.578C1180.05 228.216 1186.09 227 1192.19 227L1192.19 274L1192.19 321Z" fill="white" fill-opacity="0.5"/>
<path d="M128.481 336C122.386 336 116.349 334.784 110.717 332.422C105.085 330.06 99.9682 326.598 95.6577 322.234C91.3472 317.87 87.928 312.688 85.5952 306.986C83.2624 301.284 82.0617 295.172 82.0617 289C82.0617 282.828 83.2624 276.716 85.5952 271.014C87.928 265.312 91.3472 260.13 95.6577 255.766C99.9682 251.402 105.085 247.94 110.717 245.578C116.349 243.216 122.386 242 128.481 242L128.481 289L128.481 336Z" fill="white" fill-opacity="0.5"/>
<path d="M454.408 242C454.408 274.033 428.761 300 397.124 300C365.487 300 339.84 274.033 339.84 242C339.84 209.967 365.487 184 397.124 184C428.761 184 454.408 209.967 454.408 242Z" fill="white" fill-opacity="0.5"/>
<path d="M561.074 154C561.074 165.046 552.23 174 541.321 174C530.412 174 521.568 165.046 521.568 154C521.568 142.954 530.412 134 541.321 134C552.23 134 561.074 142.954 561.074 154Z" fill="white" fill-opacity="0.5"/>
<path d="M723.887 129L779.757 185.569L598.179 369.416L542.309 312.848L723.887 129Z" fill="white" fill-opacity="0.5"/>
<path fill-rule="evenodd" clip-rule="evenodd" d="M1366 287H1108.25V402H1366V287ZM1107.25 286V403H1367V286H1107.25Z" fill="white" fill-opacity="0.5"/>
<path d="M1022.31 207.284L1052.22 177L1082.13 207.284L1052.22 237.568L1022.31 207.284Z" fill="white" fill-opacity="0.5"/>
<path d="M994.655 384.5C994.655 410.181 974.093 431 948.729 431C923.364 431 902.803 410.181 902.803 384.5C902.803 358.819 923.364 338 948.729 338C974.093 338 994.655 358.819 994.655 384.5Z" fill="white" fill-opacity="0.3"/>
<path d="M1162.56 112.5C1162.56 152.541 1130.5 185 1090.95 185C1051.4 185 1019.35 152.541 1019.35 112.5C1019.35 72.4594 1051.4 40 1090.95 40C1130.5 40 1162.56 72.4594 1162.56 112.5Z" fill="white" fill-opacity="0.3"/>
</svg>
