<svg width="361" height="158" viewBox="0 0 361 158" fill="none" xmlns="http://www.w3.org/2000/svg">
<path fill-rule="evenodd" clip-rule="evenodd" d="M71.5 14.007C57.7077 14.1998 44.2576 18.3787 32.7768 26.0499C21.0186 33.9064 11.8543 45.0732 6.44265 58.1381C1.03099 71.203 -0.384951 85.5793 2.3739 99.4489C5.13274 113.319 11.9425 126.059 21.9419 136.058C31.9413 146.058 44.6814 152.867 58.5511 155.626C72.4207 158.385 86.797 156.969 99.8619 151.557C112.927 146.146 124.094 136.981 131.95 125.223C139.621 113.742 143.8 100.292 143.993 86.5L119.556 86.5C119.365 95.4594 116.621 104.186 111.634 111.649C106.463 119.389 99.1118 125.421 90.5116 128.984C81.9113 132.546 72.4478 133.478 63.3178 131.662C54.1878 129.846 45.8014 125.363 39.219 118.781C32.6367 112.199 28.154 103.812 26.338 94.6822C24.5219 85.5522 25.454 76.0887 29.0163 67.4884C32.5787 58.8882 38.6113 51.5374 46.3513 46.3657C53.8139 41.3793 62.5407 38.6345 71.5 38.4442L71.5 14.007ZM71.5 13.0069C57.51 13.1998 43.8664 17.4373 32.2212 25.2184C20.2986 33.1848 11.0061 44.5078 5.51878 57.7554C0.0314295 71.0031 -1.40431 85.5804 1.39311 99.644C4.19054 113.708 11.0955 126.626 21.2348 136.765C31.3741 146.905 44.2924 153.809 58.356 156.607C72.4196 159.404 86.9969 157.969 100.245 152.481C113.492 146.994 124.815 137.701 132.782 125.779C140.563 114.134 144.8 100.49 144.993 86.5C144.998 86.1668 145 85.8335 145 85.5L118.566 85.5C118.566 94.6111 115.865 103.518 110.803 111.093C105.741 118.669 98.5464 124.573 90.1289 128.06C81.7113 131.546 72.4489 132.459 63.5129 130.681C54.5769 128.904 46.3686 124.516 39.9261 118.074C33.4836 111.631 29.0962 103.423 27.3187 94.4871C25.5413 85.5511 26.4535 76.2887 29.9402 67.8711C33.4268 59.4536 39.3313 52.259 46.9069 47.1971C54.4825 42.1353 63.3889 39.4335 72.5 39.4336L72.5 13C72.1665 13 71.8332 13.0023 71.5 13.0069Z" fill="white" fill-opacity="0.5"/>
<path d="M64.5 81C61.4139 81 58.3581 80.3922 55.5069 79.2112C52.6558 78.0302 50.0652 76.2992 47.883 74.117C45.7008 71.9348 43.9698 69.3442 42.7888 66.4931C41.6078 63.6419 41 60.5861 41 57.5C41 54.4139 41.6078 51.3581 42.7888 48.5069C43.9698 45.6558 45.7008 43.0652 47.883 40.883C50.0652 38.7008 52.6558 36.9698 55.5069 35.7888C58.3581 34.6078 61.4139 34 64.5 34L64.5 57.5L64.5 81Z" fill="white" fill-opacity="0.5"/>
<path d="M268 28.5C268 44.2401 255.016 57 239 57C222.984 57 210 44.2401 210 28.5C210 12.7599 222.984 0 239 0C255.016 0 268 12.7599 268 28.5Z" fill="white" fill-opacity="0.3"/>
<path fill-rule="evenodd" clip-rule="evenodd" d="M325 137C344.33 137 360 121.33 360 102C360 82.67 344.33 67 325 67C305.67 67 290 82.67 290 102C290 121.33 305.67 137 325 137ZM325 138C344.882 138 361 121.882 361 102C361 82.1177 344.882 66 325 66C305.118 66 289 82.1177 289 102C289 121.882 305.118 138 325 138Z" fill="white" fill-opacity="0.5"/>
</svg>
