<svg width="482" height="261" viewBox="0 0 482 261" fill="none" xmlns="http://www.w3.org/2000/svg"><path fill-rule="evenodd" clip-rule="evenodd" d="M410.464 259.576C424.256 259.383 437.706 255.204 449.187 247.533C460.945 239.676 470.11 228.509 475.521 215.444C480.933 202.379 482.349 188.003 479.59 174.134C476.831 160.264 470.021 147.524 460.022 137.524C450.023 127.525 437.282 120.715 423.413 117.956C409.543 115.198 395.167 116.613 382.102 122.025C369.037 127.437 357.87 136.601 350.014 148.359C342.343 159.84 338.164 173.29 337.971 187.083H362.408C362.598 178.123 365.343 169.396 370.33 161.934C375.501 154.194 382.852 148.161 391.452 144.599C400.053 141.036 409.516 140.104 418.646 141.92C427.776 143.737 436.162 148.219 442.745 154.802C449.327 161.384 453.81 169.77 455.626 178.9C457.442 188.03 456.51 197.494 452.948 206.094C449.385 214.694 443.353 222.045 435.613 227.217C428.15 232.203 419.423 234.948 410.464 235.138V259.576ZM410.464 260.576C424.454 260.383 438.097 256.145 449.743 248.364C461.665 240.398 470.958 229.075 476.445 215.827C481.932 202.579 483.368 188.002 480.571 173.938C477.773 159.875 470.868 146.957 460.729 136.817C450.59 126.678 437.672 119.773 423.608 116.976C409.544 114.178 394.967 115.614 381.719 121.101C368.472 126.589 357.149 135.881 349.182 147.804C341.401 159.449 337.164 173.092 336.971 187.083C336.966 187.416 336.964 187.749 336.964 188.083H363.397C363.397 178.971 366.099 170.065 371.161 162.489C376.223 154.914 383.417 149.009 391.835 145.523C400.253 142.036 409.515 141.124 418.451 142.901C427.387 144.679 435.595 149.066 442.038 155.509C448.48 161.951 452.868 170.159 454.645 179.095C456.423 188.031 455.51 197.294 452.024 205.711C448.537 214.129 442.633 221.324 435.057 226.385C427.481 231.447 418.575 234.149 409.464 234.149V260.583C409.797 260.583 410.131 260.58 410.464 260.576Z" fill="white" fill-opacity="0.5"/><path d="M365.964 158.583C368.984 158.583 371.975 159.19 374.766 160.371C377.556 161.552 380.092 163.283 382.227 165.466C384.363 167.648 386.057 170.238 387.213 173.089C388.369 175.941 388.964 178.996 388.964 182.083C388.964 185.169 388.369 188.224 387.213 191.076C386.057 193.927 384.363 196.517 382.227 198.7C380.092 200.882 377.556 202.613 374.766 203.794C371.975 204.975 368.984 205.583 365.964 205.583L365.964 182.083L365.964 158.583Z" fill="white" fill-opacity="0.5"/><path d="M182 130.984L209.984 103L237.968 130.984L209.984 158.968L182 130.984Z" fill="white" fill-opacity="0.3"/><path d="M233.5 52C230.414 52 227.358 51.4051 224.507 50.2492C221.656 49.0934 219.065 47.3992 216.883 45.2635C214.701 43.1277 212.97 40.5922 211.789 37.8017C210.608 35.0112 210 32.0204 210 29C210 25.9796 210.608 22.9888 211.789 20.1983C212.97 17.4078 214.701 14.8723 216.883 12.7365C219.065 10.6008 221.656 8.90663 224.507 7.75077C227.358 6.59491 230.414 6 233.5 6L233.5 29L233.5 52Z" fill="white" fill-opacity="0.5"/><path d="M109 54.5C109 84.5995 84.5995 109 54.5 109C24.4005 109 0 84.5995 0 54.5C0 24.4005 24.4005 0 54.5 0C84.5995 0 109 24.4005 109 54.5Z" fill="white" fill-opacity="0.5"/><path d="M321 93L321 54L360 54L360 93L321 93Z" fill="white" fill-opacity="0.5"/><path fill-rule="evenodd" clip-rule="evenodd" d="M252 70L252 38L94 38L94 70L252 70ZM253 37L93 37L93 71L253 71L253 37Z" fill="white" fill-opacity="0.5"/></svg>
