<svg width="1390" height="352" viewBox="0 0 1390 352" fill="none" xmlns="http://www.w3.org/2000/svg"><path fill-rule="evenodd" clip-rule="evenodd" d="M1246 350.996C1274.07 350.799 1301.47 342.281 1324.83 326.482C1348.46 310.496 1366.87 287.773 1377.75 261.185C1388.63 234.596 1391.48 205.339 1385.93 177.112C1380.38 148.885 1366.7 122.959 1346.6 102.612C1326.5 82.264 1300.9 68.4085 1273.03 62.7953C1245.16 57.1822 1216.27 60.0629 1190.02 71.0739C1163.76 82.0849 1141.32 100.732 1125.53 124.66C1109.92 148.31 1101.51 176.069 1101.31 204.5H1152.07C1152.26 186.243 1157.7 168.428 1167.72 153.233C1177.93 137.761 1192.45 125.7 1209.43 118.578C1226.41 111.455 1245.1 109.591 1263.13 113.222C1281.16 116.854 1297.72 125.817 1310.72 138.976C1323.72 152.135 1332.57 168.899 1336.15 187.147C1339.74 205.396 1337.9 224.311 1330.86 241.501C1323.83 258.692 1311.92 273.387 1296.64 283.726C1281.63 293.879 1264.04 299.384 1246 299.581V350.996ZM1246 351.996C1274.27 351.799 1301.87 343.22 1325.39 327.31C1349.18 311.213 1367.73 288.333 1378.68 261.563C1389.63 234.794 1392.49 205.338 1386.91 176.919C1381.33 148.501 1367.55 122.397 1347.31 101.909C1327.08 81.4205 1301.3 67.4678 1273.23 61.815C1245.16 56.1623 1216.07 59.0635 1189.63 70.1517C1163.19 81.2399 1140.59 100.017 1124.69 124.109C1108.98 147.924 1100.51 175.874 1100.31 204.5C1100.31 204.833 1100.31 205.167 1100.31 205.5H1153.06C1153.06 187.089 1158.46 169.092 1168.56 153.784C1178.66 138.476 1193.02 126.545 1209.82 119.5C1226.62 112.454 1245.1 110.611 1262.94 114.203C1280.77 117.794 1297.15 126.66 1310.01 139.678C1322.87 152.697 1331.62 169.283 1335.17 187.34C1338.72 205.397 1336.9 224.113 1329.94 241.122C1322.98 258.132 1311.2 272.67 1296.08 282.898C1280.96 293.127 1263.18 298.586 1245 298.586V352C1245.33 352 1245.67 351.999 1246 351.996Z" fill="white" fill-opacity="0.5"/><path d="M466.235 106C460.139 106 454.102 104.784 448.471 102.422C442.839 100.06 437.721 96.5984 433.411 92.234C429.1 87.8697 425.681 82.6884 423.348 76.9861C421.016 71.2838 419.815 65.1721 419.815 59C419.815 52.8279 421.016 46.7162 423.348 41.0139C425.681 35.3116 429.1 30.1303 433.411 25.766C437.721 21.4016 442.839 17.9396 448.471 15.5777C454.102 13.2157 460.139 12 466.235 12L466.235 59L466.235 106Z" fill="white" fill-opacity="0.5"/><path d="M220.062 110C220.062 170.751 170.813 220 110.062 220C49.3104 220 0.0617676 170.751 0.0617676 110C0.0617676 49.2487 49.3104 0 110.062 0C170.813 0 220.062 49.2487 220.062 110Z" fill="white" fill-opacity="0.5"/><path d="M640.062 189L640.062 109L719.074 109L719.074 189L640.062 189Z" fill="white" fill-opacity="0.5"/><path d="M870.612 70L926.482 13.4315L982.352 70L926.482 126.569L870.612 70Z" fill="white" fill-opacity="0.3"/><path fill-rule="evenodd" clip-rule="evenodd" d="M503.753 142L503.753 76L187.728 76L187.728 142L503.753 142ZM504.753 75L186.728 75L186.728 143L504.753 143L504.753 75Z" fill="white" fill-opacity="0.5"/></svg>
