<svg width="357" height="198" viewBox="0 0 357 198" fill="none" xmlns="http://www.w3.org/2000/svg">
<path d="M219.187 36.5703C217.557 35.1803 216.947 34.5903 216.807 33.6403C216.657 32.6903 216.067 30.4703 215.687 29.1303C215.307 27.7903 214.577 27.3203 213.927 27.7303C213.277 28.1403 213.797 29.1703 213.837 31.1803C213.877 33.1903 213.217 32.3503 212.167 32.0503C211.117 31.7503 206.767 29.1103 205.587 28.8703C204.407 28.6303 203.047 28.1303 202.627 29.1203C202.207 30.1103 204.387 30.5203 204.607 31.2803C204.827 32.0403 204.007 32.1303 202.967 32.7803C201.937 33.4203 202.537 33.8903 203.247 34.9303C203.957 35.9703 204.277 35.8503 204.227 36.9203C204.177 37.9903 204.487 38.1203 205.347 38.6003C206.207 39.0803 208.847 39.0703 211.097 39.2303C213.347 39.3903 214.717 39.6403 215.967 41.2003C216.047 41.3003 216.177 41.4403 216.357 41.6103C217.777 40.3003 219.307 39.0903 220.817 37.7503C220.027 37.2003 219.447 36.7903 219.187 36.5703Z" fill="#FFDBB0"/>
<path d="M323.927 26.3298C326.897 23.8798 334.758 18.6398 335.628 17.5698C336.498 16.4998 340.527 12.5398 342.827 11.8498C345.127 11.1598 346.257 10.4898 347.307 9.6898C349.807 7.7798 350.207 9.2598 348.897 10.6698C346.747 12.9998 344.987 13.4498 344.797 14.6998C344.687 15.4298 344.527 15.2498 345.337 16.1198C345.867 16.6898 346.928 15.2198 347.668 16.2198C348.328 17.5198 340.887 22.1498 338.647 22.2398C336.467 22.3298 336.417 23.5898 334.367 25.3298C332.317 27.0698 328.807 29.7998 327.297 30.6298C325.787 31.4598 320.967 28.7698 323.937 26.3198L323.927 26.3298Z" fill="#FFDBB0"/>
<path d="M276.188 21.2805C276.398 21.2805 279.208 21.4805 279.478 21.4605C279.588 21.9405 279.937 23.7005 280.207 24.2905C280.477 24.8805 282.428 28.2405 282.698 28.5305C279.608 31.3705 275.277 31.0105 273.177 28.4505C273.737 28.1505 275.437 24.9705 275.677 23.8005C275.847 22.9505 276.188 21.5905 276.188 21.2705V21.2805Z" fill="#FFDBB0"/>
<path d="M284.327 13.3801C283.317 7.96006 279.977 2.01006 273.437 3.65006C266.897 5.29006 266.598 12.5901 268.258 17.8401C267.878 17.6101 266.807 17.8001 267.027 18.6801C267.127 19.0901 267.517 19.8001 268.177 20.2601C268.937 20.8001 269.737 20.6301 270.147 20.7001C270.837 21.9501 271.987 22.9501 272.847 23.4601C274.087 24.1901 276.847 25.0101 278.987 24.5301C280.707 24.1501 282.448 22.1201 283.258 20.6601C284.018 19.2901 284.368 18.0601 284.568 16.9001C284.888 16.6401 285.587 16.3801 286.027 15.5701C286.407 14.8601 286.358 13.1901 285.888 12.9301C285.168 12.5301 284.448 13.1801 284.318 13.3901L284.327 13.3801Z" fill="#FFDBB0"/>
<path d="M274.738 0.440085C274.108 0.0200849 271.598 -0.459915 269.558 0.880085C267.518 2.22008 266.568 3.64008 266.478 4.91008C266.388 6.18008 265.728 7.91008 264.558 9.17008C263.388 10.4301 265.538 15.0301 266.668 16.2101C267.798 17.3901 267.958 18.0301 268.398 17.9201C268.838 17.8101 268.088 17.2701 268.428 16.8901C268.768 16.5101 267.618 12.7101 268.018 11.4001C268.418 10.0901 269.338 10.4501 270.258 10.5401C271.458 10.6601 272.178 7.71008 273.948 9.26009C275.008 10.1901 276.338 8.58008 276.488 7.71008C276.638 6.84009 277.318 6.31008 278.018 6.64008C278.388 6.82008 279.188 7.79008 279.797 8.78008C280.407 9.77008 282.218 10.9401 282.988 11.0901C283.758 11.2401 283.617 11.6101 283.827 12.2701C284.037 12.9301 284.318 14.2101 284.698 12.3201C285.078 10.4301 285.038 6.40008 284.208 4.30009C283.378 2.20009 280.278 0.110085 278.448 0.460085C276.628 0.810085 275.348 1.12008 274.728 0.430085L274.738 0.440085Z" fill="#0054A7"/>
<path d="M347.327 152.45C342.217 155.5 342.758 148.32 337.468 145.81C337.468 145.81 333.317 145.78 333.957 148.11C334.447 149.89 337.608 155.74 340.028 159.56C343.678 158.7 346.488 155.87 347.338 152.44L347.327 152.45Z" fill="#0054A7"/>
<path d="M347.367 152.43C347.367 152.43 347.347 152.44 347.327 152.45C346.487 155.88 343.667 158.71 340.017 159.57C340.777 160.76 341.457 161.76 341.967 162.37C344.107 164.93 353.068 158.79 355.388 153.76C358.048 147.99 355.767 147.36 347.357 152.44L347.367 152.43Z" fill="#0054A7"/>
<path d="M227.967 148.04C230.817 146.89 234.127 144.57 236.617 143.06C239.967 144.41 241.087 146.26 236.067 149.58C231.047 152.9 228.757 155.14 228.977 159.22C228.977 159.26 228.977 159.29 228.977 159.33C227.227 156.08 226.867 151.75 227.957 148.05L227.967 148.04Z" fill="#0054A7"/>
<path d="M227.967 148.04C226.877 151.75 227.237 156.07 228.987 159.32C229.197 163.36 228.747 167.19 226.497 165.77C224.227 164.34 222.687 161.33 222.507 157.79C222.327 154.24 222.217 148.97 225.437 148.71C226.207 148.65 227.067 148.4 227.977 148.04H227.967Z" fill="#0054A7"/>
<path d="M292.997 77.4103C294.067 78.1703 296.857 82.9403 299.737 87.0503C309.037 100.31 317.807 110.94 321.767 115.97C326.817 122.4 345.348 147.1 346.038 152.33C346.168 153.31 343.268 155.44 342.228 155.96C340.618 156.77 337.917 160.03 336.797 158.39C334.877 155.58 313.428 130.08 308.038 123.38C304.918 119.5 297.528 110.53 289.878 107.6C286.188 106.19 283.297 107.89 281.707 111.92C281.037 113.61 269.597 135.63 267.827 138.8C265.427 143.1 234.587 154.52 231.307 155.48C227.147 156.7 225.717 149.97 227.257 147.64C229.127 144.82 237.908 141.47 241.528 139.75C246.618 137.32 257.338 131.58 257.598 127.02C258.038 119.07 264.868 79.8303 265.938 77.8003C267.008 75.7703 293.008 77.4003 293.008 77.4003L292.997 77.4103Z" fill="url(#paint0_linear_409_937)"/>
<path d="M287.228 28.4802C286.928 27.5502 282.088 25.4302 281.438 26.3302C280.928 27.0402 279.337 28.0802 278.047 27.5702C276.597 27.0002 275.518 26.5002 274.998 26.2702C274.018 25.8302 270.388 28.4702 269.438 28.9502C269.158 29.0702 265.088 32.6502 264.888 34.1302C264.858 42.0202 266.738 45.3502 265.588 53.2402C265.708 53.9002 265.608 55.8702 265.498 57.1002C265.328 59.0802 264.738 75.7702 264.028 79.1902C263.318 82.6102 263.318 83.6102 264.668 83.2502C266.018 82.8902 267.007 81.9802 269.077 81.8802C271.147 81.7802 285.487 82.5502 287.737 82.3102C289.987 82.0702 298.188 82.7502 298.178 81.7602C298.178 80.9902 296.408 65.6202 294.728 57.7302C292.438 47.1002 289.648 38.4602 287.208 28.4602L287.228 28.4802Z" fill="white"/>
<path d="M278.068 28.1098C278.888 27.7898 278.888 27.5398 279.908 27.9098C280.928 28.2898 281.897 29.0698 281.307 30.1298C280.737 31.1498 280.678 31.9098 279.598 31.8498C278.708 31.7998 277.757 30.7798 277.177 30.3298C276.607 29.8898 276.917 28.6198 278.057 28.1098H278.068Z" fill="#FEDC5E"/>
<path d="M272.727 27.3797C273.177 26.9297 274.077 25.6697 274.377 25.4597C274.677 25.2497 274.677 25.0297 275.407 25.4797C276.137 25.9297 277.027 26.3797 277.607 26.7297C278.247 27.1197 279.397 27.4697 279.057 27.9097C278.497 28.6297 277.527 29.8897 277.147 30.3797C276.917 30.6797 275.337 29.8597 274.287 29.2397C273.237 28.6197 272.177 28.4897 272.717 27.3797H272.727Z" fill="white"/>
<path d="M282.588 25.4805C282.268 25.2005 281.448 24.8605 281.158 25.2105C280.868 25.5605 279.758 26.6505 279.418 27.0905C279.098 27.5105 278.878 27.6205 279.158 27.9005C279.918 28.6605 281.418 29.7005 281.718 29.3805C282.228 28.8405 282.898 28.2005 283.258 27.7205C283.618 27.2405 283.908 26.9205 283.908 26.5105C283.908 26.1605 283.148 25.9205 282.598 25.4805H282.588Z" fill="white"/>
<path d="M279.058 31.0001C278.828 34.1001 279.838 61.0301 279.888 63.1101C279.938 65.1901 284.028 71.5801 284.948 72.4101C285.868 73.2301 286.478 67.3401 286.688 64.4501C286.928 61.0801 281.288 33.6301 280.788 31.8501C280.288 30.0601 279.198 29.8601 279.058 31.0101V31.0001Z" fill="#FEDC5E"/>
<path d="M298.107 50.7896C300.257 47.8596 303.097 46.4396 307.797 44.7496C314.027 42.5196 335.667 28.0996 336.017 25.1696C336.237 23.3096 333.537 18.0896 332.177 18.6196C327.347 20.5096 315.808 32.6496 309.908 33.1996C305.478 33.6196 298.058 32.5796 290.068 28.0196C288.258 26.9896 284.628 25.7196 283.908 26.4996C282.968 27.5096 286.578 45.9996 287.098 50.0096C287.418 71.7896 289.428 86.1396 290.688 88.8896C292.698 91.5096 297.538 89.4696 300.748 87.6496C302.348 86.7396 305.738 86.9696 306.368 82.1296C306.758 79.1096 300.948 77.6396 299.418 69.1296C298.528 64.1996 296.227 53.3696 298.107 50.7896Z" fill="#62C0B4"/>
<path d="M273.187 26.5403C272.207 26.1003 266.247 29.4803 264.807 30.3903C256.677 36.1203 247.667 42.5203 244.037 42.3303C229.767 41.5803 221.457 31.7303 219.657 34.7503C218.547 36.6103 216.477 40.3503 216.157 42.2203C215.757 44.5303 232.297 50.3103 235.617 51.6803C242.067 54.3403 252.967 52.2103 258.437 53.7603C264.077 55.3503 262.607 69.2203 262.247 70.9603C261.537 74.3903 259.557 80.2303 255.157 89.7003C252.787 94.8003 260.207 96.7303 263.327 94.8103C270.797 90.2003 277.407 92.5503 277.587 84.9003C277.727 76.0403 275.067 70.1803 276.097 55.4303C276.697 46.7903 273.487 26.6703 273.187 26.5403Z" fill="url(#paint1_linear_409_937)"/>
<path d="M274.557 59.6398C274.397 59.6398 274.267 59.5198 274.257 59.3598C274.117 56.6798 272.107 48.6098 270.077 44.4598C268.537 41.2998 269.077 40.7598 270.447 39.8598C270.877 39.5798 271.357 39.2598 271.867 38.7498C272.397 38.2198 272.657 37.7798 272.647 37.4198C272.647 36.9298 272.167 36.4698 271.557 35.8798C271.187 35.5098 270.757 35.0998 270.347 34.5898C270.097 34.2798 269.847 34.0098 269.617 33.7498C268.207 32.1998 267.537 31.1798 270.187 28.3598C270.297 28.2398 270.487 28.2398 270.607 28.3498C270.727 28.4598 270.727 28.6498 270.617 28.7698C268.217 31.3298 268.827 32.0098 270.047 33.3598C270.287 33.6198 270.537 33.8998 270.797 34.2198C271.187 34.6998 271.597 35.0998 271.957 35.4598C272.657 36.1498 273.217 36.6898 273.217 37.4198C273.217 37.9598 272.917 38.5098 272.267 39.1698C271.717 39.7198 271.187 40.0698 270.757 40.3598C269.637 41.0998 269.217 41.3798 270.597 44.2098C272.647 48.4198 274.687 56.6198 274.827 59.3398C274.827 59.4998 274.707 59.6398 274.547 59.6498H274.537L274.557 59.6398Z" fill="url(#paint2_linear_409_937)"/>
<path d="M288.787 60.9398C288.787 60.9398 288.787 60.9398 288.777 60.9398C288.617 60.9398 288.487 60.7898 288.497 60.6298C288.627 57.6398 289.947 45.0898 291.137 41.3498C291.997 38.6498 291.237 38.2698 289.857 37.5798C289.467 37.3798 289.017 37.1598 288.567 36.8598C287.447 36.1198 286.707 35.5798 286.587 34.8098C286.487 34.1798 286.807 33.4898 287.677 32.4098C289.177 30.5498 288.027 29.4798 285.697 27.5998C285.567 27.4998 285.547 27.3098 285.657 27.1798C285.757 27.0498 285.947 27.0298 286.077 27.1398C288.137 28.8098 290.087 30.3798 288.147 32.7798C287.397 33.7098 287.107 34.2898 287.177 34.7198C287.257 35.2498 287.907 35.7098 288.897 36.3698C289.317 36.6498 289.727 36.8498 290.127 37.0498C291.737 37.8498 292.677 38.4898 291.717 41.5298C290.537 45.2198 289.237 57.6798 289.107 60.6498C289.107 60.8098 288.967 60.9298 288.817 60.9298L288.787 60.9398Z" fill="url(#paint3_linear_409_937)"/>
<path d="M82.7275 93.5699C84.5575 96.0699 83.9875 96.4299 86.5375 100.46C89.0875 104.49 88.0175 109.94 89.8175 114.14C91.6075 118.34 90.0675 119.94 88.1875 119.27C84.1375 117.82 80.8075 122.57 77.4175 121.92C74.0275 121.28 71.3775 118.63 72.8475 112.43C74.3075 106.23 74.5575 95.6499 76.4575 94.9399C78.3675 94.2299 80.2675 93.5199 82.7275 93.5699Z" fill="#51A7DD"/>
<path d="M103.548 39.6901C104.338 38.8801 104.507 38.4401 105.077 37.5101C106.367 35.4201 107.857 36.5801 109.097 35.1601C109.597 34.5801 110.747 31.6501 109.947 29.0101C109.647 28.0201 108.717 29.0701 108.327 27.9201C107.667 25.9801 106.857 27.1101 106.337 26.7701C105.437 26.1801 104.037 26.6601 103.487 28.0001C102.937 29.3401 102.827 28.1201 101.747 29.0201C101.097 29.5601 100.837 31.9801 101.277 33.6801C101.717 35.3701 100.877 36.7201 100.427 37.4001C99.9575 38.0901 103.157 40.1201 103.557 39.7001L103.548 39.6901Z" fill="#FFDBB0"/>
<path d="M71.5775 70.1604C72.0375 67.8004 79.2575 62.9004 82.3075 59.8804C83.9575 58.2404 88.9075 51.2604 91.0675 46.6304C94.2975 39.7004 96.0675 37.7104 98.4775 36.1804C100.888 34.6504 102.908 37.0704 105.048 38.8604C106.498 40.0804 102.778 45.8504 99.7275 51.8604C97.5375 56.1604 92.6875 61.3504 89.9975 65.7504C86.7675 71.0504 83.5375 74.5004 82.1775 75.8004C77.7975 79.9604 72.8075 73.0704 71.5875 70.1504L71.5775 70.1604Z" fill="#51A7DD"/>
<path d="M98.7575 191.16C94.1075 189.08 99.4075 185.92 98.5675 180.98C98.5675 180.98 96.5475 178.05 95.2275 179.65C94.2175 180.86 91.6675 185.96 90.1775 189.54C92.5675 191.68 95.9475 192.26 98.7575 191.17V191.16Z" fill="#FFDBB0"/>
<path d="M98.7875 191.18C98.7875 191.18 98.7675 191.17 98.7575 191.16C95.9375 192.25 92.5675 191.67 90.1775 189.53C89.7075 190.65 89.3475 191.62 89.1675 192.27C88.4175 195.03 97.1375 198.3 101.807 197.46C107.167 196.49 106.487 194.58 98.7875 191.18Z" fill="#0054A7"/>
<path d="M11.8575 154.9C14.9075 155.55 18.9975 155.46 21.9475 155.59C23.9975 158.61 23.8975 160.8 17.8075 160.76C11.7175 160.72 8.51746 161.31 6.39746 164.87C6.37746 164.9 6.35746 164.93 6.33746 164.97C6.70746 161.25 8.83746 157.4 11.8475 154.9H11.8575Z" fill="#FFDBB0"/>
<path d="M11.8575 154.9C8.84749 157.4 6.71749 161.24 6.34749 164.97C4.24749 168.49 1.69749 171.46 0.607488 168.99C-0.492512 166.5 -0.0925124 163.11 1.75749 160.02C3.60749 156.93 6.49749 152.44 9.34749 154.03C10.0375 154.41 10.8975 154.69 11.8575 154.89V154.9Z" fill="#0054A7"/>
<path d="M80.7975 116.05C82.5675 116.8 83.0375 122.76 87.0575 124.28C95.6375 127.53 106.908 136.05 107.757 137.95C109.787 142.48 101.588 180.17 99.7175 186.1C99.4575 186.91 96.0675 187.12 93.0475 186.62C91.5275 186.37 87.7275 185.02 87.3675 183.36C86.8375 180.93 94.1475 149.68 92.9275 147.06C91.7875 144.61 78.2275 138.36 73.4375 138.05C67.9575 137.69 59.2275 152.07 57.0475 155.86C53.9875 161.2 52.7375 162.84 44.0275 162.89C37.6875 162.93 19.5375 165.23 15.4975 163.73C12.0175 162.44 12.2175 156.3 13.7675 154.48C15.6475 152.27 29.5075 151.19 32.8375 150.64C38.6875 149.68 45.2475 151.17 46.2375 145.5C47.4075 138.78 52.5875 120.16 58.2375 115.36C59.7375 114.08 80.7875 116.05 80.7875 116.05H80.7975Z" fill="url(#paint4_linear_409_937)"/>
<path d="M74.4675 56.1399C74.2175 56.1299 70.9575 56.1999 70.6575 56.1399C70.5075 56.6899 70.4475 60.9999 69.9375 61.5499C67.8875 63.7499 63.1675 73.2099 63.6875 74.9499C64.0575 75.5599 83.7375 78.8799 79.7975 73.5399C78.7175 72.0699 75.4775 65.8199 74.9175 59.0799C74.8375 58.0799 74.4575 56.4999 74.4775 56.1299L74.4675 56.1399Z" fill="#FFDBB0"/>
<path d="M68.0675 62.7401C68.9975 61.3401 71.4575 64.9701 73.7375 65.4501C78.0675 66.3701 76.5975 66.9801 77.9475 68.7601C79.2975 70.5401 82.4575 78.1201 82.7275 82.8601C82.9975 87.5301 83.5675 90.3101 83.5575 96.1101C83.5575 100.36 83.7075 111.61 81.8275 116.61C80.8075 119.33 63.8375 122.25 59.6675 121.27C55.4975 120.29 54.7375 85.6001 55.8675 78.0301C56.9975 70.4601 64.6975 67.1701 68.0575 62.7501L68.0675 62.7401Z" fill="white"/>
<path d="M65.8175 57.8698C67.9375 60.4398 70.7275 61.4298 72.8775 61.0798C75.0275 60.7298 76.9275 59.7298 78.5875 58.2298C79.8575 56.7298 80.6575 54.6298 80.7575 53.7698C80.8575 52.9798 80.7575 52.0598 80.5275 51.2198C79.9675 49.2498 81.3675 49.0598 79.2875 45.2198C78.6575 44.0498 75.0775 38.8198 69.2275 39.4198C64.0875 39.9498 61.3875 52.5098 65.8175 57.8798V57.8698Z" fill="#FFDBB0"/>
<path d="M68.1575 38.9597C67.5075 39.2397 67.1375 39.2797 65.8375 38.9597C64.5375 38.6397 63.0775 38.3597 61.7175 38.9297C60.3675 39.4997 59.5575 40.2797 59.2275 40.9297C58.8975 41.5797 57.9875 43.4097 58.4875 44.9097C58.9875 46.4097 58.8575 47.5197 58.3475 48.4497C57.8375 49.3897 58.3475 52.7797 58.9175 53.5897C59.4875 54.3997 60.8775 55.4997 61.6275 55.8897C62.3775 56.2797 64.2675 60.5597 66.9575 60.0497C68.7675 59.7097 69.3575 62.2297 71.0575 60.0997C71.9175 59.0197 69.3975 58.8097 70.5075 57.1997C71.6875 55.4797 67.4075 55.3197 68.5175 53.1397C69.4575 51.2997 71.6275 54.0897 72.3075 53.9597C72.9675 53.8297 73.0175 52.3097 72.9975 50.1997C72.9875 48.8797 74.0475 47.6297 75.4875 47.3597C76.3575 47.1897 77.7275 47.7697 78.6975 46.4097C79.6675 45.0497 80.2375 43.7397 78.7275 42.2897C77.2175 40.8397 75.7575 41.0997 75.2475 39.5597C74.7375 38.0197 73.5375 36.4997 71.3475 37.1097C69.1575 37.7197 68.8775 38.5197 68.1475 38.9697L68.1575 38.9597Z" fill="#0054A7"/>
<path d="M78.0675 76.9799C77.3075 75.7599 70.1275 62.0499 68.8475 61.4999C66.3475 60.4299 67.2075 63.7299 65.0675 64.1899C57.8475 65.7299 55.9075 67.8899 52.1575 72.3399C49.7375 75.2099 46.1275 80.0099 44.0875 83.6199C41.7975 87.6699 40.1275 99.8499 49.0675 100.11C51.4775 100.18 52.4475 103.71 51.0775 106.08C48.9775 109.69 43.1275 113.64 39.2775 117.91C34.4275 123.28 46.3875 126.18 55.5175 126.79C61.8075 127.21 64.9675 129.34 69.2375 125.68C73.1275 121.64 74.3275 112.67 76.0775 109.43C79.1075 103.83 79.9375 100.8 80.7475 97.9399C81.5475 96.0699 84.0575 93.8599 83.9175 91.4599C83.8175 90.3199 79.0775 79.3799 78.0775 76.9899L78.0675 76.9799Z" fill="url(#paint5_linear_409_937)"/>
<path d="M69.9775 93.7299C71.2175 93.6699 71.6375 93.1599 72.8275 93.1299C74.0175 93.0999 77.2275 92.7699 79.2775 92.5499C80.1175 92.4599 81.7275 92.6699 83.0575 89.9699C83.5575 88.9499 82.0275 89.0999 82.5775 87.8899C83.4975 85.8499 82.0075 86.1399 81.8475 85.4799C81.5675 84.3399 80.0875 83.6799 78.6475 84.3399C77.2075 84.9999 78.0375 83.9499 76.4875 83.8599C75.5575 83.8099 73.5475 85.5499 72.6375 87.2299C71.7275 88.9099 70.0475 89.3699 69.1875 89.5699C68.2975 89.7699 69.3375 93.7799 69.9675 93.7499L69.9775 93.7299Z" fill="#FFDBB0"/>
<path d="M79.0275 81.8199C78.9475 81.8199 78.8675 81.7899 78.8175 81.7199C78.3875 81.2099 77.9675 80.8699 73.9175 77.5399L72.9775 76.7699C68.7275 73.2799 68.8875 72.4999 69.6975 70.9399C69.8075 70.7199 69.9275 70.4899 70.0475 70.2199C70.2375 69.7699 70.2875 69.4499 70.2075 69.2899C70.0875 69.0599 69.5975 68.9599 68.9875 68.8299C68.4775 68.7199 67.8475 68.5899 67.1775 68.3299C65.2875 67.5999 65.4275 66.9099 65.8575 65.7699C65.9575 65.5099 66.0575 65.2199 66.1575 64.8799C66.1975 64.7299 66.3475 64.6499 66.4975 64.6899C66.6475 64.7299 66.7275 64.8799 66.6875 65.0299C66.5875 65.3899 66.4775 65.6899 66.3775 65.9699C66.0075 66.9699 65.9075 67.2399 67.3875 67.8199C68.0175 68.0599 68.5975 68.1799 69.1175 68.2899C69.8775 68.4499 70.4675 68.5699 70.7175 69.0399C70.8975 69.3799 70.8475 69.8099 70.5775 70.4499C70.4575 70.7299 70.3275 70.9799 70.2175 71.2099C69.5575 72.4899 69.2875 73.0099 73.3575 76.3599L74.2975 77.1299C78.3775 80.4899 78.8075 80.8399 79.2675 81.3799C79.3675 81.4999 79.3475 81.6699 79.2375 81.7699C79.1875 81.8099 79.1275 81.8299 79.0575 81.8299L79.0275 81.8199Z" fill="url(#paint6_linear_409_937)"/>
<path d="M57.2575 111.8C57.1275 111.8 57.0075 111.69 56.9975 111.56C56.9775 111.41 57.0875 111.27 57.2375 111.25C58.4375 111.1 63.3375 110.43 65.4575 109.96C66.1275 109.81 66.5375 109.62 66.6775 109.39C66.7975 109.2 66.7275 108.93 66.6375 108.63C66.5875 108.46 66.5475 108.28 66.5275 108.11C66.5075 107.96 66.6175 107.82 66.7775 107.8C66.9275 107.78 67.0675 107.89 67.0875 108.05C67.1075 108.2 67.1475 108.34 67.1875 108.49C67.2875 108.86 67.4075 109.28 67.1575 109.68C66.9275 110.06 66.4275 110.32 65.5775 110.51C63.4375 110.98 58.5075 111.66 57.2975 111.81C57.2775 111.81 57.2675 111.81 57.2475 111.81L57.2575 111.8Z" fill="url(#paint7_linear_409_937)"/>
<path d="M56.9775 109.44C56.8475 109.44 56.7375 109.34 56.7175 109.21C56.6675 108.93 56.6575 108.71 56.7775 108.53C56.9175 108.32 57.1575 108.28 57.5075 108.23L57.7475 108.19C58.6975 108.02 62.9875 107.35 65.0475 107.04L66.1575 106.87C66.3075 106.85 66.4475 106.95 66.4775 107.1C66.4975 107.25 66.3975 107.39 66.2475 107.42L65.1375 107.59C63.0775 107.91 58.7975 108.57 57.8575 108.74L57.6175 108.78C57.4575 108.81 57.2875 108.84 57.2375 108.86C57.2375 108.86 57.2375 108.9 57.2775 109.11C57.3075 109.26 57.2075 109.41 57.0575 109.43C57.0375 109.43 57.0175 109.43 56.9975 109.43L56.9775 109.44Z" fill="url(#paint8_linear_409_937)"/>
<path d="M218.177 172.57C213.107 174.06 215.167 168.01 211.177 164.67C211.177 164.67 207.617 163.72 207.647 165.87C207.667 167.51 209.088 173.24 210.318 177.06C213.648 177.13 216.697 175.33 218.177 172.57Z" fill="#FFDBB0"/>
<path d="M218.208 172.56C218.208 172.56 218.187 172.56 218.167 172.56C216.677 175.32 213.627 177.13 210.307 177.05C210.687 178.24 211.057 179.25 211.357 179.89C212.627 182.57 221.697 179.28 224.807 175.47C228.377 171.1 226.557 170.05 218.197 172.55L218.208 172.56Z" fill="#0054A7"/>
<path d="M115.757 158.15C118.397 157.44 121.547 155.74 123.917 154.67C126.727 156.21 127.517 157.96 122.747 160.36C117.977 162.76 115.707 164.49 115.477 168.11C115.477 168.14 115.477 168.18 115.477 168.21C114.277 165.16 114.417 161.3 115.767 158.15H115.757Z" fill="#FFDBB0"/>
<path d="M115.757 158.15C114.407 161.3 114.267 165.15 115.467 168.21C115.227 171.79 114.427 175.13 112.587 173.64C110.737 172.14 109.697 169.32 109.907 166.18C110.127 163.04 110.587 158.37 113.447 158.48C114.137 158.51 114.917 158.38 115.757 158.15Z" fill="#0054A7"/>
<path d="M182.488 103.27C183.348 104.05 184.388 109.2 187.408 112.48C195.818 121.62 203.578 130.86 204.208 132.93C205.168 136.04 215.667 164.15 215.717 168.83C215.717 169.71 212.767 171.26 211.787 171.61C210.287 172.15 206.127 172.63 205.747 170.9C205.207 168.38 196.098 143.34 191.378 138.86C187.577 135.25 182.267 130.56 176.417 126.5C173.537 124.5 170.688 129.12 168.848 132.5C168.078 133.92 155.668 152.12 153.768 154.73C151.198 158.27 125.827 163.24 122.837 163.74C119.047 164.38 117.137 157.56 118.747 155.67C120.697 153.38 125.547 152.96 128.917 151.82C133.667 150.22 143.557 146.51 145.997 143.26C148.327 140.16 151.147 133.39 149.557 124.68C147.227 111.96 156.177 102.59 156.837 101.65C157.997 99.9702 182.488 103.26 182.488 103.26V103.27Z" fill="url(#paint9_linear_409_937)"/>
<path d="M173.497 40.2998C173.237 40.2998 169.867 40.4498 169.547 40.4098C169.407 40.9798 169.457 45.4498 168.947 46.0298C166.877 48.3598 162.237 58.2998 162.827 60.0898C163.227 60.7198 182.587 63.4398 178.357 58.0198C177.197 56.5298 174.797 50.3198 174.037 43.3498C173.927 42.3098 173.487 40.6898 173.497 40.2998Z" fill="#FFDBB0"/>
<path d="M163.637 40.1096C162.877 39.4796 161.607 38.0596 160.707 37.6196C159.807 37.1796 158.827 36.6996 157.747 36.8596C156.057 37.0996 155.277 37.4796 154.637 38.2596C154.067 38.9496 153.737 41.3696 154.247 42.7996C154.697 44.7496 153.627 45.7596 152.907 46.4396C151.887 47.4096 149.657 47.8096 150.217 48.6196C151.847 50.9796 153.437 50.8696 154.887 50.0896C159.557 47.5696 155.227 43.9596 158.027 42.2696C160.827 40.5796 161.217 40.9196 163.627 40.1196L163.637 40.1096Z" fill="#ED7980"/>
<path d="M164.378 41.8896C166.678 44.0196 169.488 44.6196 171.548 44.0596C173.608 43.4996 175.368 42.3496 176.838 40.7696C177.938 39.2396 178.518 37.2096 178.548 36.3896C178.568 35.6396 178.398 34.8096 178.088 34.0496C177.358 32.2896 178.708 31.9496 176.328 28.6396C175.608 27.6296 171.638 23.1896 165.998 24.4196C161.038 25.4996 159.568 37.4196 164.378 41.8796V41.8896Z" fill="#FFDBB0"/>
<path d="M176.237 26.53C175.887 25.77 174.147 24.21 172.257 23.98C169.917 23.69 169.508 22.18 167.098 22.37C163.738 22.63 160.817 24.22 159.887 25.18C157.887 27.24 157.367 28.7 157.417 30.26C157.467 31.82 158.587 40.69 167.007 43.66C168.357 44.14 169.237 43.99 168.997 41.33C168.067 39.73 166.408 37.99 166.568 37.2C166.728 36.41 167.847 36.37 168.537 36.66C170.287 37.41 169.877 36.89 170.537 34.41C171.347 31.38 178.377 30.74 176.227 26.52L176.237 26.53Z" fill="#ED7980"/>
<path d="M201.677 57.8898C202.537 57.0398 202.508 56.3998 203.348 55.5998C204.188 54.7998 206.297 52.4698 207.647 50.9798C208.197 50.3698 209.498 49.4798 208.708 46.6498C208.408 45.5898 207.397 46.6898 207.007 45.4498C206.347 43.3698 205.458 44.5498 204.908 44.1798C203.958 43.5298 202.468 44.0198 201.848 45.4298C201.238 46.8398 201.148 45.5398 199.968 46.4798C199.258 47.0398 198.937 49.6198 199.367 51.4298C199.797 53.2298 198.888 54.6598 198.388 55.3698C197.878 56.0898 201.237 58.3198 201.677 57.8898Z" fill="#FFDBB0"/>
<path d="M198.417 53.9397C195.177 55.8997 192.057 66.0397 189.447 66.3997C187.207 66.7197 184.938 65.0397 182.878 63.7797C181.058 62.6597 177.427 60.6397 176.497 59.9797C171.647 59.5197 173.808 67.3097 175.488 69.8497C178.288 74.0897 188.987 77.7597 192.837 75.7097C197.007 72.8497 201.048 63.9597 204.438 59.1497C206.788 55.8197 200.837 52.4697 198.417 53.9397Z" fill="#51A7DD"/>
<path d="M166.377 50.7401C169.357 51.8001 169.257 49.9401 171.967 52.5501C175.207 55.6701 176.507 54.8401 177.957 56.6501C179.397 58.4601 179.727 60.5601 182.297 65.4501C184.577 69.8101 179.237 77.7001 179.407 82.1101C179.577 86.5101 177.197 86.8301 174.827 88.6801C172.447 90.5401 170.747 87.2201 166.397 86.3101C162.047 85.4001 161.207 83.8701 162.177 75.9901C163.147 68.1101 160.227 48.5301 166.387 50.7401H166.377Z" fill="#0054A7"/>
<path d="M185.227 95.89C184.337 91.58 181.837 85.61 181.667 84.44C181.267 81.65 183.547 67.67 182.737 66.71C182.047 65.98 179.447 64.12 177.787 61.78C176.967 60.54 169.357 46.59 168.057 45.96C166.477 45.19 166.977 46.79 165.477 47.73C162.797 49.4 158.517 54.05 154.247 57.87C151.347 60.47 145.047 67.84 143.027 71.64C140.757 75.9 151.557 81.69 154.247 83.74C156.237 85.26 153.577 88.36 153.287 91.19C152.927 94.68 152.227 96.88 149.697 102.27C146.107 109.91 158.407 112.36 167.147 108.68C176.047 104.93 182.027 107.95 184.077 106.18C186.337 104.47 185.997 99.63 185.217 95.89H185.227ZM158.567 74.29C157.787 77.06 156.907 74.35 154.977 72.56C153.047 70.77 155.817 70.32 156.357 70.02C159.287 68.35 159.347 71.52 158.567 74.29Z" fill="url(#paint10_linear_409_937)"/>
<path d="M181.877 68.0204C181.787 68.0204 181.697 67.9804 181.647 67.9004C180.877 66.8304 178.177 64.6504 175.577 62.5404C174.297 61.5004 172.977 60.4304 171.877 59.4904C169.327 57.3004 169.217 56.9804 169.637 55.7604C169.737 55.4704 169.857 55.1004 169.947 54.6004C170.047 53.9904 170.027 53.6104 169.887 53.4104C169.707 53.1704 169.247 53.1004 168.597 53.0104C168.097 52.9404 167.477 52.8504 166.747 52.6504C165.917 52.4204 165.397 52.0604 165.147 51.5404C164.757 50.7404 165.157 49.7704 165.517 48.9204C165.607 48.7104 165.697 48.5004 165.767 48.3004C165.817 48.1504 165.987 48.0704 166.137 48.1304C166.287 48.1804 166.367 48.3504 166.307 48.5004C166.227 48.7104 166.137 48.9304 166.047 49.1504C165.727 49.9304 165.387 50.7304 165.667 51.3004C165.837 51.6604 166.247 51.9204 166.907 52.1004C167.597 52.2904 168.197 52.3804 168.687 52.4504C169.467 52.5604 170.037 52.6404 170.357 53.0804C170.607 53.4204 170.657 53.9004 170.517 54.7004C170.427 55.2504 170.297 55.6404 170.187 55.9504C169.887 56.8504 169.837 56.9804 172.257 59.0604C173.347 59.9904 174.667 61.0604 175.937 62.1004C178.697 64.3304 181.297 66.4404 182.117 67.5704C182.207 67.7004 182.177 67.8804 182.057 67.9704C182.007 68.0104 181.947 68.0204 181.887 68.0204H181.877Z" fill="url(#paint11_linear_409_937)"/>
<path d="M182.118 84.4503C182.188 85.1703 181.958 85.7803 181.598 85.8203C181.238 85.8603 180.888 85.3003 180.818 84.5903C180.748 83.8803 180.978 83.2603 181.338 83.2203C181.698 83.1803 182.048 83.7403 182.118 84.4503Z" fill="#0054A7"/>
<path d="M162.357 96.3701C162.217 96.3801 162.087 96.2901 162.057 96.1501C162.017 96.0001 162.108 95.8401 162.268 95.8001C163.478 95.4901 168.428 94.1501 170.548 93.3901C171.218 93.1501 171.617 92.9001 171.727 92.6401C171.817 92.4201 171.717 92.1701 171.587 91.8701C171.517 91.7001 171.447 91.5201 171.397 91.3501C171.357 91.2001 171.457 91.0401 171.607 91.0001C171.757 90.9601 171.918 91.0601 171.958 91.2101C171.998 91.3601 172.057 91.5001 172.117 91.6501C172.267 92.0201 172.447 92.4401 172.247 92.8801C172.067 93.3001 171.588 93.6301 170.738 93.9401C168.598 94.7101 163.618 96.0601 162.408 96.3701C162.388 96.3701 162.377 96.3701 162.357 96.3701Z" fill="url(#paint12_linear_409_937)"/>
<path d="M161.757 93.9801C161.627 93.9901 161.498 93.9101 161.458 93.7801C161.368 93.5001 161.327 93.2701 161.427 93.0701C161.547 92.8401 161.787 92.7701 162.137 92.6601L162.378 92.5901C163.328 92.2901 167.647 91.0401 169.727 90.4401L170.848 90.1201C170.998 90.0801 171.158 90.1601 171.208 90.3201C171.248 90.4701 171.167 90.6301 171.007 90.6801L169.887 91.0001C167.818 91.6001 163.497 92.8501 162.557 93.1501L162.307 93.2301C162.147 93.2801 161.977 93.3301 161.927 93.3701C161.927 93.3701 161.928 93.4201 161.998 93.6201C162.048 93.7701 161.967 93.9301 161.807 93.9801C161.787 93.9801 161.768 93.9901 161.748 93.9901L161.757 93.9801Z" fill="url(#paint13_linear_409_937)"/>
<path d="M158.907 83.3799C159.557 84.3999 160.197 84.4999 160.807 85.4799C161.417 86.4699 163.257 89.0099 164.447 90.6299C164.927 91.2899 165.537 92.7499 168.467 92.5499C169.567 92.4699 168.697 91.2599 169.987 91.1299C172.157 90.9099 171.187 89.7999 171.657 89.3399C172.487 88.5399 172.317 86.9799 171.057 86.0899C169.797 85.1999 171.087 85.3799 170.407 84.0399C169.997 83.2299 167.547 82.3899 165.687 82.4499C163.827 82.4999 162.627 81.3099 162.037 80.6799C161.437 80.0299 158.567 82.8599 158.897 83.3799H158.907Z" fill="#FFDBB0"/>
<defs>
<linearGradient id="paint0_linear_409_937" x1="244.137" y1="99.5703" x2="321.747" y2="177.19" gradientUnits="userSpaceOnUse">
<stop stop-color="white"/>
<stop offset="0.02" stop-color="#FEFAFA"/>
<stop offset="0.16" stop-color="#F9D3D5"/>
<stop offset="0.32" stop-color="#F4B2B6"/>
<stop offset="0.47" stop-color="#F1999E"/>
<stop offset="0.63" stop-color="#EE878D"/>
<stop offset="0.8" stop-color="#ED7C83"/>
<stop offset="1" stop-color="#ED7980"/>
</linearGradient>
<linearGradient id="paint1_linear_409_937" x1="229.287" y1="25.0703" x2="284.807" y2="80.5903" gradientUnits="userSpaceOnUse">
<stop stop-color="white"/>
<stop offset="0.05" stop-color="#E0F2F0"/>
<stop offset="0.12" stop-color="#BFE5E0"/>
<stop offset="0.2" stop-color="#A2D9D2"/>
<stop offset="0.29" stop-color="#8AD0C7"/>
<stop offset="0.39" stop-color="#78C8BE"/>
<stop offset="0.51" stop-color="#6BC3B8"/>
<stop offset="0.66" stop-color="#64C0B5"/>
<stop offset="1" stop-color="#62C0B4"/>
</linearGradient>
<linearGradient id="paint2_linear_409_937" x1="263.547" y1="35.0098" x2="281.427" y2="52.8898" gradientUnits="userSpaceOnUse">
<stop stop-color="white"/>
<stop offset="0.08" stop-color="#E3F3F1"/>
<stop offset="0.22" stop-color="#BCE4DF"/>
<stop offset="0.36" stop-color="#9BD7CF"/>
<stop offset="0.51" stop-color="#82CCC3"/>
<stop offset="0.66" stop-color="#70C5BA"/>
<stop offset="0.82" stop-color="#65C1B5"/>
<stop offset="1" stop-color="#62C0B4"/>
</linearGradient>
<linearGradient id="paint3_linear_409_937" x1="278.127" y1="34.6998" x2="296.637" y2="53.2097" gradientUnits="userSpaceOnUse">
<stop stop-color="white"/>
<stop offset="0.04" stop-color="#F5FBFA"/>
<stop offset="0.28" stop-color="#C1E6E1"/>
<stop offset="0.5" stop-color="#97D5CD"/>
<stop offset="0.7" stop-color="#7AC9BF"/>
<stop offset="0.88" stop-color="#68C2B7"/>
<stop offset="1" stop-color="#62C0B4"/>
</linearGradient>
<linearGradient id="paint4_linear_409_937" x1="45.0575" y1="122.97" x2="86.1175" y2="194.09" gradientUnits="userSpaceOnUse">
<stop stop-color="white"/>
<stop offset="0.02" stop-color="#FDF6EF"/>
<stop offset="0.1" stop-color="#FADEC4"/>
<stop offset="0.19" stop-color="#F8C89E"/>
<stop offset="0.28" stop-color="#F5B67E"/>
<stop offset="0.37" stop-color="#F4A764"/>
<stop offset="0.48" stop-color="#F29C50"/>
<stop offset="0.6" stop-color="#F19442"/>
<stop offset="0.75" stop-color="#F18F3A"/>
<stop offset="1" stop-color="#F18E38"/>
</linearGradient>
<linearGradient id="paint5_linear_409_937" x1="38.1575" y1="94.5299" x2="83.9175" y2="94.5299" gradientUnits="userSpaceOnUse">
<stop stop-color="#CBE5F5"/>
<stop offset="0.05" stop-color="#B7DBF1"/>
<stop offset="0.16" stop-color="#97CBEA"/>
<stop offset="0.27" stop-color="#7DBDE5"/>
<stop offset="0.39" stop-color="#69B3E1"/>
<stop offset="0.53" stop-color="#5BACDF"/>
<stop offset="0.71" stop-color="#53A8DD"/>
<stop offset="1" stop-color="#51A7DD"/>
</linearGradient>
<linearGradient id="paint6_linear_409_937" x1="65.5775" y1="73.2499" x2="79.2975" y2="73.2499" gradientUnits="userSpaceOnUse">
<stop stop-color="#CBE5F5"/>
<stop offset="0.05" stop-color="#B7DBF1"/>
<stop offset="0.16" stop-color="#97CBEA"/>
<stop offset="0.27" stop-color="#7DBDE5"/>
<stop offset="0.39" stop-color="#69B3E1"/>
<stop offset="0.53" stop-color="#5BACDF"/>
<stop offset="0.71" stop-color="#53A8DD"/>
<stop offset="1" stop-color="#51A7DD"/>
</linearGradient>
<linearGradient id="paint7_linear_409_937" x1="56.9975" y1="109.8" x2="67.2975" y2="109.8" gradientUnits="userSpaceOnUse">
<stop stop-color="#CBE5F5"/>
<stop offset="0.05" stop-color="#B7DBF1"/>
<stop offset="0.16" stop-color="#97CBEA"/>
<stop offset="0.27" stop-color="#7DBDE5"/>
<stop offset="0.39" stop-color="#69B3E1"/>
<stop offset="0.53" stop-color="#5BACDF"/>
<stop offset="0.71" stop-color="#53A8DD"/>
<stop offset="1" stop-color="#51A7DD"/>
</linearGradient>
<linearGradient id="paint8_linear_409_937" x1="56.6875" y1="108.15" x2="66.4775" y2="108.15" gradientUnits="userSpaceOnUse">
<stop stop-color="#CBE5F5"/>
<stop offset="0.05" stop-color="#B7DBF1"/>
<stop offset="0.16" stop-color="#97CBEA"/>
<stop offset="0.27" stop-color="#7DBDE5"/>
<stop offset="0.39" stop-color="#69B3E1"/>
<stop offset="0.53" stop-color="#5BACDF"/>
<stop offset="0.71" stop-color="#53A8DD"/>
<stop offset="1" stop-color="#51A7DD"/>
</linearGradient>
<linearGradient id="paint9_linear_409_937" x1="138.387" y1="120.1" x2="201.567" y2="183.28" gradientUnits="userSpaceOnUse">
<stop stop-color="#CBE5F5"/>
<stop offset="0.04" stop-color="#BAD9EE"/>
<stop offset="0.17" stop-color="#89B6DB"/>
<stop offset="0.3" stop-color="#5F98CB"/>
<stop offset="0.44" stop-color="#3C7FBE"/>
<stop offset="0.57" stop-color="#226CB4"/>
<stop offset="0.71" stop-color="#0F5EAC"/>
<stop offset="0.85" stop-color="#0356A8"/>
<stop offset="1" stop-color="#0054A7"/>
</linearGradient>
<linearGradient id="paint10_linear_409_937" x1="147.197" y1="64.87" x2="186.307" y2="103.99" gradientUnits="userSpaceOnUse">
<stop stop-color="#CBE5F5"/>
<stop offset="0.05" stop-color="#B7DBF1"/>
<stop offset="0.16" stop-color="#97CBEA"/>
<stop offset="0.27" stop-color="#7DBDE5"/>
<stop offset="0.39" stop-color="#69B3E1"/>
<stop offset="0.53" stop-color="#5BACDF"/>
<stop offset="0.71" stop-color="#53A8DD"/>
<stop offset="1" stop-color="#51A7DD"/>
</linearGradient>
<linearGradient id="paint11_linear_409_937" x1="164.977" y1="58.0604" x2="182.167" y2="58.0604" gradientUnits="userSpaceOnUse">
<stop stop-color="#CBE5F5"/>
<stop offset="0.05" stop-color="#B7DBF1"/>
<stop offset="0.16" stop-color="#97CBEA"/>
<stop offset="0.27" stop-color="#7DBDE5"/>
<stop offset="0.39" stop-color="#69B3E1"/>
<stop offset="0.53" stop-color="#5BACDF"/>
<stop offset="0.71" stop-color="#53A8DD"/>
<stop offset="1" stop-color="#51A7DD"/>
</linearGradient>
<linearGradient id="paint12_linear_409_937" x1="162.047" y1="93.6801" x2="172.337" y2="93.6801" gradientUnits="userSpaceOnUse">
<stop stop-color="#CBE5F5"/>
<stop offset="0.05" stop-color="#B7DBF1"/>
<stop offset="0.16" stop-color="#97CBEA"/>
<stop offset="0.27" stop-color="#7DBDE5"/>
<stop offset="0.39" stop-color="#69B3E1"/>
<stop offset="0.53" stop-color="#5BACDF"/>
<stop offset="0.71" stop-color="#53A8DD"/>
<stop offset="1" stop-color="#51A7DD"/>
</linearGradient>
<linearGradient id="paint13_linear_409_937" x1="161.367" y1="92.0401" x2="171.218" y2="92.0401" gradientUnits="userSpaceOnUse">
<stop stop-color="#CBE5F5"/>
<stop offset="0.05" stop-color="#B7DBF1"/>
<stop offset="0.16" stop-color="#97CBEA"/>
<stop offset="0.27" stop-color="#7DBDE5"/>
<stop offset="0.39" stop-color="#69B3E1"/>
<stop offset="0.53" stop-color="#5BACDF"/>
<stop offset="0.71" stop-color="#53A8DD"/>
<stop offset="1" stop-color="#51A7DD"/>
</linearGradient>
</defs>
</svg>
